<?xml version="1.0" encoding="UTF-8"?>
<svg id="Layer_1" xmlns="http://www.w3.org/2000/svg" version="1.1" viewBox="0 0 128 128">
  <!-- Generator: Adobe Illustrator 29.5.0, SVG Export Plug-In . SVG Version: 2.1.0 Build 137)  -->
  <defs>
    <style>
      .st0 {
        fill: #242324;
      }

      .st1 {
        fill: #fff;
      }

      .st2 {
        fill: #b8a67b;
      }
    </style>
  </defs>
  <rect class="st1" y="0" width="128" height="128"/>
  <g id="_x23_b8a67bff">
    <path class="st2" d="M63.9,25.4s.1,0,.1,0c.2.6.4,1.3.7,1.9.7.1,1.4,0,2.1,0-.5.5-1.1.8-1.6,1.3,0,.7.4,1.4.5,2.1-.6-.3-1.1-.9-1.8-1.2-.6.3-1.1.9-1.8,1.1.1-.7.5-1.3.5-2.1-.6-.4-1.1-.8-1.6-1.2.7,0,1.4,0,2,0,.4-.5.4-1.3.7-1.9Z"/>
    <path class="st2" d="M55.1,27c.5.5.9,1.1,1.5,1.6.7-.1,1.3-.5,2-.7-.3.5-.6,1-.9,1.5,0,.1-.2.3,0,.5.4.6.9,1,1.2,1.6-.7,0-1.4-.4-2.1-.4-.5.5-.8,1.2-1.2,1.7-.1-.7,0-1.5-.2-2.2-.6-.3-1.4-.3-2-.6.6-.4,1.3-.5,1.9-.9,0-.7,0-1.4,0-2.1Z"/>
    <path class="st2" d="M71.5,28.5c.5-.5.8-1,1.3-1.5,0,.7,0,1.4-.1,2.1.6.4,1.3.5,1.9.9-.7.3-1.4.2-2.1.6-.1.7,0,1.4-.2,2-.5-.5-.7-1.3-1.2-1.7-.7,0-1.4.4-2.1.4.5-.6,1-1.1,1.5-1.7-.3-.7-.8-1.3-1.1-1.9.6.2,1.2.5,1.8.7.1,0,.3.1.4,0Z"/>
    <path class="st2" d="M46.2,33.8c1.1-.5,2.3-.3,3.4-.4.6,0,1.3,0,1.9.1.5.2.9.7.9,1.3,0,1,0,2,.1,3,.3,1.5,1.1,2.8,2.3,3.7,1.3,1.1,3,1.4,4.7,1.2.4,0,.9-.3,1-.7.4-1.2.7-2.4,1-3.5,0-.3.2-.6,0-.8-.3-.5-1-.5-1.5-.4-.4,0-.8.4-1.1.6-.3-.5-.5-1.1-.2-1.7.2-.4.7-.6,1.1-.8.7-.3,1.2-.8,1.9-1,1.3-.4,2.9-.3,4.1.4.5.3.9.8,1,1.4.3,1.9.5,3.8.8,5.7,0,.4.4.6.7.7,2.7.5,5.6-1.1,6.6-3.7.2-.5.4-1.1.4-1.6,0-.9,0-1.7,0-2.6,0-.7.6-1.2,1.3-1.3.7,0,1.3,0,2,0,.8,0,1.7,0,2.5.2.5.2,1,.4,1.3.7.8.8,1.5,1.5,2.2,2.3,3.5,3.6,7,7.3,10.5,10.9.5.4.9.9,1.3,1.4-1,0-1.9,0-2.9,0-.9,0-1.7-.4-2.3-1.1-.9-1.1-1.8-2.2-2.7-3.3-.5-.6-1-1.3-1.6-1.8,0,.2-.4.3-.2.6.3.6.8,1,1.2,1.5,2.1,2.7,4.3,5.3,6.4,8-1.1,0-2.2,0-3.3-.2-.5,0-.9-.3-1.3-.6-.6-.5-1-1.3-1.5-2-.8-1.1-1.5-2.2-2.3-3.2-.4-.5-.7-1.1-1.2-1.6-.2,0-.3.2-.5.3,2.5,3.9,5.2,7.6,7.6,11.5-.9,0-1.8-.2-2.7-.3-.6,0-1.2-.2-1.7-.6-.5-.3-.8-.9-1.1-1.4-1.4-2.5-2.9-5.1-4.3-7.6-.1.1-.3.3-.4.4.5,1.1,1.2,2.1,1.7,3.2,1.6,2.9,3.2,5.8,4.8,8.7.3.4.5.9.7,1.4-.9-.1-1.7-.3-2.6-.5-1-.2-1.9-.7-2.3-1.6-1.6-3.3-3.1-6.6-4.6-10-.2,0-.4,0-.6.1.4,1.2,1,2.2,1.4,3.3.9,2.1,1.8,4.2,2.8,6.2.2.4.4.9.6,1.4-.8,0-1.5-.3-2.2-.4-1-.2-1.8-.8-2.2-1.8-.7-1.8-1.3-3.6-2-5.4-.3-.8-.6-1.7-.9-2.5-.2,0-.4,0-.6,0,0,.7.4,1.4.6,2,.7,1.9,1.3,3.8,2,5.7.2.5.3.9.4,1.4-.7,0-1.3-.2-2-.4-.7-.2-1.3-.7-1.7-1.3-.3-.6-.5-1.2-.6-1.9-.4-1.5-.8-3.1-1.2-4.6,0-.3-.4-.2-.6-.2.3,1.4.7,2.8,1,4.2.2,1.1.6,2.2.8,3.4-1-.1-2.1-.3-2.8-1.1-.7-.6-.8-1.6-.9-2.5-.2-.9-.2-1.8-.5-2.6-.3.6-.6,1.3-.9,1.9-.2.4-.4.9-.1,1.3,1.1,1.8,2.3,3.5,3.4,5.3.3.4.2.9.3,1.3.4.5.9.9,1.3,1.4.4.4.7.9,1.3.9,1.6,0,3.2,0,4.8,0,0,.8,0,1.5,0,2.3-.4-.3-.7-.7-1-1-.3-.3-.8-.1-1.2,0,.3.3.7.6,1,1-.2.6-.8.9-1.2,1.3,0-.4,0-.8,0-1.2-.3-.4-.7-.8-1.1-1.1-.3-.1-.7-.1-1.1,0-.4.4-.8.7-1.1,1.2,0,.3,0,.6,0,1-.5-.4-.9-.9-1.4-1.3.3-.4.7-.7,1.1-1.1,0-.2-.2-.4-.3-.6-.5-.5-1.1-1-1.6-1.5-.4,0-.7,0-1.1,0-.4-.2-.8-.6-1.2-.8-1-.6-1.9-1.4-2.9-1.9,1.3,1.8,2.7,3.6,4,5.5.9,1.2,1.8,2.5,2.7,3.6.4.5.8,1,1.1,1.6-1.1,0-2.2.2-3.3-.3-.7-.3-1.3-.9-1.6-1.5-.6-1.3-1.2-2.6-1.8-3.8-.2,0-.3.1-.5.2.3,1,.8,1.9,1.1,2.9.6,1.5,1.2,3,1.8,4.4-.6,0-1.3,0-1.9-.1-1-.3-1.9-1.1-2.1-2.2-.3-1.5-.6-3-.8-4.5-.2,0-.3,0-.5,0,0,1.2.3,2.4.4,3.6,0,1,.4,2,0,3.1-.3.9-1.1,1.5-1.8,2.1-.9-.7-1.8-1.5-1.9-2.7,0-1.1.2-2.1.3-3.2,0-.9.3-1.9.3-2.8-.1,0-.3,0-.4,0-.3,1.5-.5,3.1-.9,4.6-.2.8-.8,1.5-1.5,1.9-.7.4-1.6.4-2.4.3.3-1.1.8-2.1,1.2-3.2.5-1.4,1.2-2.8,1.6-4.2-.2,0-.3,0-.5-.1-.6,1.3-1.2,2.6-1.8,3.8-.5,1-1.4,1.7-2.5,1.8-.8,0-1.5,0-2.3,0,.4-.8,1-1.5,1.5-2.2.9-1.2,1.8-2.4,2.7-3.6.5-.8,1.1-1.5,1.7-2.3.7-.9,1.3-1.9,2-2.8-.9.5-1.6,1.1-2.4,1.6-.6.3-1.1.8-1.7,1.1-.4.3-1,0-1.4.3-.6.5-1.2,1.2-1.8,1.8.4.4.8.7,1.1,1.2-.4.5-.9.9-1.3,1.3,0-.3,0-.6,0-1-.2-.4-.5-.6-.8-.9-.4-.4-1-.3-1.4-.2-.4.3-.9.7-1.1,1.1,0,.4,0,.8,0,1.2-.4-.4-.9-.8-1.2-1.2.2-.4.7-.7,1-1.1-.3,0-.7,0-1.1,0-.4.3-.7.7-1.1,1,0-.8,0-1.5,0-2.3,1.6,0,3.2,0,4.8,0,.5,0,.8-.4,1.1-.6.5-.5,1-.9,1.4-1.4.2-.3.2-.7.2-1.1,0-.3.2-.6.4-.9.9-1.2,1.7-2.5,2.5-3.8.3-.4.5-.8.7-1.2.1-.3,0-.7-.2-1-.3-.7-.5-1.4-1-2-.3,1.3-.4,2.7-.8,4.1-.2.8-.9,1.5-1.8,1.8-.5.2-1.1.3-1.7.4.3-1.7.8-3.4,1.2-5.2.2-.8.4-1.6.6-2.4-.2,0-.4,0-.6,0-.5,2-1.1,3.9-1.6,5.9-.2.8-.8,1.6-1.6,2-.8.3-1.6.5-2.4.5.7-2.3,1.5-4.5,2.3-6.8.2-.8.6-1.5.7-2.3-.2,0-.4,0-.6,0-1,2.6-1.9,5.2-2.8,7.8-.4.9-1.1,1.6-2,1.8-.8.2-1.6.4-2.4.4.5-1.5,1.2-2.8,1.8-4.2.9-1.9,1.6-3.7,2.5-5.6.2-.3.3-.7.4-1.1-.2,0-.4,0-.6,0-1.4,3.2-3,6.4-4.4,9.6-.4.9-1.1,1.7-2.1,1.9-1,.2-2,.5-3.1.6,1.2-2.3,2.5-4.6,3.7-6.9.9-1.6,1.8-3.3,2.7-4.9.3-.5.6-1.1.8-1.7-.2,0-.3,0-.5,0,0,.1-.2.2-.3.3-.7,1.3-1.4,2.6-2.2,3.8-.7,1.2-1.4,2.5-2.1,3.7-.2.4-.5.8-.9,1.1-.6.4-1.3.5-1.9.6-.8,0-1.6.2-2.4.3,1.9-2.9,3.9-5.8,5.8-8.7.6-.9,1.2-1.9,1.8-2.8-.1-.1-.3-.3-.4-.4-1.5,2-2.9,4.2-4.3,6.2-.5.7-1.2,1.2-2,1.3-1,.1-2.1.2-3.1.2.9-1.3,2-2.4,2.9-3.7,1.6-2,3.2-4,4.8-6-.2-.1-.4-.5-.6-.2-1.1,1.2-2,2.5-3.1,3.6-.5.5-.9,1.2-1.5,1.7-.6.5-1.4.7-2.1.7-.9,0-1.8,0-2.7,0,.4-.5.8-.9,1.2-1.3,1.7-1.7,3.4-3.5,5.1-5.2.9-1,1.9-2,2.8-3,.7-.7,1.4-1.4,2.1-2.1.5-.6,1.2-1.2,1.7-1.8.6-.6,1.2-1.4,2.1-1.8Z"/>
  </g>
  <g id="_x23_242324ff">
    <path class="st0" d="M85.1,81.2c.8-.3,1.5-.8,2.4-.9-.4.4-.9.5-1.4.7-.7.3-1.4.7-2.1,1,.2-.4.7-.6,1.1-.8Z"/>
    <path class="st0" d="M81.4,80.4c.4.8.8,1.6,1.2,2.4.1.3.3.6.2.8-.2-.2-.4-.4-.7-.6.3,2,.8,4.1,1,6.1,0,1.2.1,2.4-.3,3.5,0-.5-.1-1-.2-1.6-.2-2.4-.7-4.7-1-7-.2-.9-.2-1.8-.5-2.7,0-.3.2-.6.3-1Z"/>
    <path class="st0" d="M89.4,82.1c.1-.6.4-1.2.8-1.7-.1.5-.4.9-.5,1.4,0,.2,0,.3.1.5.1-.1.2-.2.3-.3-.1.3-.3.6-.5.8-.1-.2-.3-.4-.2-.7Z"/>
    <path class="st0" d="M68.2,81.3c0-.3.2-.6.4-.9.3.7.6,1.3.8,2,.2.4.4.9.3,1.3-.3-.2-.5-.4-.7-.7.3,2.3.8,4.6.9,6.9,0,1.1-.1,2.2-.6,3.2-.3.7-1.1,1-1.9,1.2.6-.7,1.3-1.3,1.8-2,.1-.2.1-.4.1-.7,0-2.7-.7-5.4-.9-8.1-.1-.8-.1-1.5-.3-2.3Z"/>
    <path class="st0" d="M37.9,80.6c.6,0,1.2.4,1.5,1,0,.3,0,.6-.1.8-.3,0-.6-.1-.9-.2-.4.7-1.1,1.2-1.8,1.7-.5.3-1,.6-1.5.7,1.1-.7,2.3-1.4,3.2-2.4-.2-.1-.4-.2-.5-.3,0-.4.2-.8.2-1.3M37.9,81.4c0,.1,0,.2.1.3.4.1.8.3,1.3.3-.1-.3-.4-.5-.6-.7,0,0-.1.3-.2.4-.2,0-.2-.3-.2-.4,0,0-.3,0-.4,0Z"/>
    <path class="st0" d="M64.6,81.4c0-.3.2-.6.3-.9.2.4.4.9.6,1.4.2.6.5,1.2.6,1.9-.3-.2-.5-.4-.7-.6.4,2.8,1,5.5.9,8.3,0,.8-.1,1.8-.8,2.4-.6.5-1.5.8-2.1.3-.3-.3-.3-.8-.4-1.2-1.6.4-3.1,1.2-4.8,1.6-1.6.4-3.3.9-4.9.5-.5,0-.9-.4-1.3-.6-.6.3-1.1.7-1.8.6-.8,0-1.4-.6-1.7-1.3-.4-1-.6-2.1-.6-3.1,0-1.6-.1-3.2-.2-4.7-.1-1.4-.2-2.8-.8-4-.1.2-.2.5-.3.7,0-.7.3-1.4.7-2,.4.6.5,1.3.7,2.1.5,2.8.4,5.7.7,8.6,0,.8.2,1.6.8,2.2.5.5,1.3.4,1.9.2-.4-1,0-2.1.5-3,.3-.3.6-.8,1.1-.7.3.2.4.6.5.9,0,.9,0,1.9-.6,2.7.7.4,1.6.3,2.4.3,1.7-.2,3.4-.6,5.1-1.2,1-.3,1.9-.8,2.9-1.1.3.4,0,1,.6,1.3.7.3,1.4-.1,1.9-.5,0-2.3-.4-4.7-.7-7-.2-1.4-.3-2.8-.5-4.2M52.1,91.7c-.1.2-.3.3-.4.6.1.4.4.7.7,1,.3-.2.6-.5.7-.8,0-.4-.2-.8-.5-1.1-.3,0-.4.2-.6.3Z"/>
    <path class="st0" d="M43.2,81.9c1-.4,2-.9,3.1-1.1,0,.2-.1.4-.3.5-2,.7-4,1.7-5.9,2.7,0-.3.2-.6.4-.7.8-.5,1.8-.9,2.7-1.3Z"/>
    <path class="st0" d="M52.2,82.4c1.2-.5,2.5-1.1,3.8-1.5,0,.1-.1.3-.2.4-.2.1-.5.2-.8.3-1.8.7-3.6,1.5-5.3,2.4.1-.3.2-.6.5-.8.6-.4,1.3-.7,1.9-1Z"/>
    <path class="st0" d="M61.4,81.1c.3.5.8,1.1.4,1.7-.2.4-.7,0-.9-.2,0,.2-.2.3-.3.5-.2,0-.4,0-.6,0,0-.5-.3-1.1,0-1.6,0,.4,0,.8.2,1.2.2,0,.3-.1.5-.2,0-.5,0-.9,0-1.4.4.3.2.9.5,1.2.2,0,.3.1.5.1-.1-.5-.5-.9-.3-1.5Z"/>
    <path class="st0" d="M76.8,82.5c1.1-.6,2.2-1.1,3.4-1.4,0,0,0,.3,0,.3-1.4.5-2.7,1.1-4,1.8,0-.4.3-.6.7-.8Z"/>
    <path class="st0" d="M73.5,82.1c.2-.3.4-.6.6-.9.4.2.8.5,1.2.8-.2.4-.4.7-.6,1.1-.4-.2-.8-.5-1.2-.7-.2.3-.3.6-.5.9-.4-.2-.8-.5-1.2-.7.1-.4.4-.8.6-1.1.4.2.8.5,1.2.7Z"/>
    <path class="st0" d="M85,83.3c0-.4.3-.8.6-1.1.4.2.8.5,1.2.8-.2.4-.4.7-.6,1.1-.4-.2-.8-.4-1.1-.8Z"/>
    <path class="st0" d="M91.6,83.4c.6-.2,1.2-.6,1.9-.7,0,.4-.6.5-.9.6-1.3.5-2.6,1.2-3.9,1.8,0-.2.1-.4.3-.5.8-.4,1.7-.8,2.5-1.2Z"/>
    <path class="st0" d="M57.8,83.1c.2,0,.4,0,.5.2,0,.1,0,.3-.1.4-.2,0-.3-.1-.5-.2-.2.4-.2.8-.4,1.2,0-.5,0-1.2.4-1.6Z"/>
    <path class="st0" d="M56.3,83.4c.5-.1.7.3.9.7.1.4.5.8.1,1.1-.3,0-.2-.4-.3-.6,0-.4-.5-.5-.7-.7,0-.2,0-.4,0-.6Z"/>
    <path class="st0" d="M42.7,84.9c0-.4.3-.8.5-1.1.4.3.8.5,1.2.7-.1.4-.4.8-.6,1.1-.4-.2-.8-.4-1.1-.7Z"/>
    <path class="st0" d="M76.2,83.9c.1.5,0,1-.2,1.5-.3.8-.7,1.4-1,2.1.5.4.9.8,1,1.4.2.8,0,1.7-.6,2.2-.6.4-1.2.9-1.9.7-.3-.3-.4-.7-.4-1.1,0-.9.4-1.7.8-2.5-.5-.4-.9-.9-1.2-1.4-.1-.2-.3-.4-.5-.6,0-.4,0-.8.1-1.2.6.4,1.2.6,1.7,1.1-.2,0-.4.1-.6.1.4.3.7.7,1.1,1,.7-1,1.3-2.1,1.7-3.2M74.2,88.4c-.4.5-.7,1.1-.9,1.7.1.2.2.5.5.4.7,0,1.3-.4,1.8-.9-.3-.5-.8-1-1.3-1.3Z"/>
    <path class="st0" d="M52.4,85.9c.1-.3.3-.6.5-.9.4.2.8.5,1.2.8-.1.4-.4.7-.6,1.1-.4-.2-.8-.5-1.2-.7-.2.3-.3.6-.6.9-.4-.2-.8-.5-1.2-.8.2-.4.3-.8.6-1.1.4.2.8.5,1.2.7Z"/>
    <path class="st0" d="M79,85.1c.5.6,1,1.3,1.3,2-.2,0-.4-.1-.6-.2.2.7.7,1.3.8,2.1,0,.8,0,1.7-.5,2.4-.3.4-.8.7-1.2,1-1.4.9-2.8,1.6-4.3,2.3-.8.4-1.7.4-2.6.6-1,.2-2,.5-3,.5.5-.3,1.2-.5,1.8-.8,2.5-.9,4.9-1.9,7.2-3.3.8-.5,1.7-1.1,2.4-1.8-.4-.9-.9-1.8-1.2-2.8-.1-.4-.2-.7-.4-1.1.1-.4.3-.8.4-1.2Z"/>
    <path class="st0" d="M85.9,85.1c.5.6,1,1.3,1.4,2-.2,0-.4-.1-.6-.2.2.6.6,1.2.8,1.9,0,.8,0,1.6-.3,2.3-.2.5-.7.9-1.1,1.2-1.3.9-2.8,1.7-4.2,2.3-.5.2-1,.5-1.6.6-1.2.2-2.4.5-3.7.7-.2,0-.5,0-.7,0,1.4-.7,3-1.1,4.4-1.8,1.8-.8,3.5-1.6,5.1-2.6.6-.4,1.2-.8,1.7-1.4-.4-1-.9-1.9-1.2-2.9,0-.3-.2-.7-.4-1,.2-.4.3-.8.4-1.2Z"/>
    <path class="st0" d="M57,85.5c.2-.3.6-.2.8,0,.3.2.2.5.2.7-.5,0-.9.1-1.3.3,0-.2,0-.3.2-.4.2-.1.4-.2.6-.3-.2-.1-.3-.3-.5-.4Z"/>
    <path class="st0" d="M91.1,85.7c.6-.2,1.2.2,1.5.6.8.9,1.1,2.3.9,3.5-.2,1.1-1.2,1.7-2,2.4-1.2.9-2.5,1.9-3.9,2.4-1.5.3-3,.7-4.5,1-.2,0-.4,0-.7,0,1.1-.7,2.4-1,3.6-1.5,1.6-.7,3.2-1.5,4.6-2.6.9-.7,1.9-1.3,2.6-2.2-.3-.4-.7-.7-1.3-.7-.6,0-1.5.2-1.9-.4-.6-.9,0-2.1.9-2.5M91,86.9c-.1.2-.2.3-.3.5.5.1.9.1,1.4,0-.3-.3-.7-.5-1.1-.5Z"/>
    <path class="st0" d="M60.4,87.1c.2-.4.4-.7.6-1.1.4.2.8.5,1.2.8-.2.4-.4.8-.6,1.1-.4-.2-.8-.5-1.2-.8Z"/>
    <path class="st0" d="M36.8,87.1c.2-.3.4-.6.5-.9.4.2.8.5,1.2.8-.2.4-.4.7-.6,1.1-.4-.2-.8-.5-1.2-.7-.1.3-.3.6-.5.8-.4-.1-.8-.4-1.2-.7,0-.4.3-.8.5-1.1.5,0,.8.5,1.2.7Z"/>
    <path class="st0" d="M56.6,86.9s.1-.1.1-.2c.4,1.3.8,2.6.6,3.9-.1-.6-.2-1.3-.3-2-.1-.6-.4-1.2-.4-1.8Z"/>
    <path class="st0" d="M42.8,87.3c.4-.2.9,0,1.2.2,1.4,1.1,2,3.2,1.2,4.8-.5.7-1.3,1.1-2.1,1.4-.8.3-1.8.3-2.4-.3-.5-.6-.8-1.3-1.2-2-.6,0-1.1.5-1.5,1-.6.9-.5,2.3-1.4,3.1-.3.3-.8.3-1.1,0-.8-.7-1.1-1.7-1.1-2.7,0-.6,0-1.2.3-1.8,0,.9,0,2,.4,2.8.2.5.7.9,1.2.8.7-.5.9-1.5,1.2-2.3.3-1,1-2,2.1-2.2.5.8.7,1.8,1.5,2.4.8.5,1.9.3,2.7-.2.4-.3.9-.5,1.3-1-.1-.4-.5-.6-.9-.7-.7-.2-1.5,0-2.2-.2-.5-.3-.6-.8-.5-1.3.1-.7.5-1.3,1.1-1.6M42.4,89c.5.1,1,0,1.5,0-.3-.2-.5-.5-.9-.5-.3,0-.4.3-.5.5Z"/>
    <path class="st0" d="M62.2,87.5c.4.2.8.4,1.1.7,0,.4-.3.8-.5,1.1-.4-.2-.8-.5-1.2-.8-.2.3-.3.6-.5.9-.5-.1-.9-.4-1.2-.7,0-.4.4-.7.6-1.1.4.2.8.5,1.2.7.1-.3.3-.6.5-.9Z"/>
    <path class="st0" d="M45.7,94.7c.2-.5.4-1.1.8-1.6-.1.8-.9,1.5-.5,2.3.2-.1.3-.3.5-.4-.2.4-.3,1-.9.9-.1-.4,0-.8,0-1.2Z"/>
    <path class="st0" d="M39.2,94.4c.2-.2.3-.7.6-.6.2.3,0,.6,0,.9-.2.5-.4,1-.7,1.3.1-.6.6-1.1.5-1.8-.2,0-.3.1-.5.2Z"/>
    <path class="st0" d="M61.3,94.6c0-.3.3-.5.5-.6.2.7-.2,1.5-.6,2,.1-.5.5-1,.4-1.6,0,0-.3.1-.4.2Z"/>
    <path class="st0" d="M37.1,98.8c.3,0,.6,0,.9,0,0,1.3,0,2.5,0,3.8-.3,0-.5,0-.8,0,0-.8,0-1.6,0-2.5-.3.6-.7,1.3-1,1.9-.4-.6-.7-1.3-1-1.9,0,.8,0,1.7,0,2.5-.3,0-.5,0-.8,0,0-1.3,0-2.5,0-3.8.3,0,.6,0,.8,0,.3.6.6,1.2,1,1.8.3-.6.6-1.2.9-1.8Z"/>
    <path class="st0" d="M47.6,99.1c.5-.4,1.2-.4,1.8-.2.2.1.6.2.6.5-.1.2-.3.3-.4.5-.4-.3-.9-.4-1.4-.2,0,.2,0,.5.3.6.6.1,1.3.1,1.6.7.2.5.1,1.3-.4,1.6-.8.4-1.7.2-2.4-.3.1-.2.3-.4.5-.6.4.3.9.5,1.4.3.3-.1.2-.4.1-.7-.5-.3-1.1,0-1.6-.5-.5-.4-.4-1.2,0-1.6Z"/>
    <path class="st0" d="M56.9,98.8c.3,0,.6,0,.9,0,.3.5.5,1,.8,1.5.3-.5.5-1,.8-1.5.3,0,.6,0,.9,0-.4.8-.9,1.5-1.3,2.3,0,.5,0,1,0,1.5-.3,0-.6,0-.8,0,0-.5,0-1,0-1.5-.4-.8-.9-1.5-1.3-2.3Z"/>
    <path class="st0" d="M63.1,98.8c.5,0,1.1-.1,1.5.3.5.4.7,1,.6,1.6,0,.6-.1,1.3-.6,1.7-.4.4-1.1.4-1.6.2-.8-.2-1.2-1.2-1.1-1.9,0-.8.4-1.6,1.2-1.8M63.3,99.5c-.3,0-.5.3-.5.5,0,.5,0,.9,0,1.4.2.6,1.2.7,1.4,0,.2-.5.1-1,0-1.5-.1-.4-.6-.6-1-.5Z"/>
    <path class="st0" d="M70.3,100.1c.1-.6.5-1.2,1.1-1.3.4,0,.9,0,1.3,0,.3.1.5.4.7.7-.2.1-.4.3-.7.4-.3-.4-.7-.7-1.1-.4-.5.3-.4,1-.4,1.5,0,.5.4,1,.9.9.3,0,.5-.3.7-.5.2.1.5.2.6.4-.4,1-1.8,1.1-2.6.4-.6-.6-.6-1.4-.5-2.1Z"/>
    <path class="st0" d="M73.9,98.8c.3,0,.5,0,.8,0,0,.9,0,1.8,0,2.7.1.6,1.3.6,1.3,0,0-.9,0-1.8,0-2.7.3,0,.5,0,.8,0,0,.9,0,1.7,0,2.6,0,.6-.3,1.2-.9,1.3-.5,0-1.1.1-1.6-.2-.4-.4-.4-1-.4-1.5,0-.7,0-1.4,0-2.1Z"/>
    <path class="st0" d="M83.3,98.8c.3,0,.5,0,.8,0,0,.7,0,1.5,0,2.2,0,.3,0,.5.2.7.2.2.6.1.8.2.1-.2.3-.3.3-.6,0-.8,0-1.7,0-2.5.3,0,.5,0,.8,0,0,.8,0,1.6,0,2.4,0,.4-.1.9-.5,1.2-.4.3-.9.2-1.4.2-.6,0-1-.6-1-1.1,0-.9,0-1.8,0-2.7Z"/>
    <path class="st0" d="M38.6,98.8c.6-.1,1.2,0,1.8,0,0,.2,0,.4,0,.7-.2,0-.3,0-.5,0,0,.8,0,1.6,0,2.4.2,0,.3,0,.5,0,0,.2,0,.4,0,.7-.6,0-1.2,0-1.8,0,0-.2,0-.5,0-.7.2,0,.3,0,.5,0,0-.8,0-1.6,0-2.4-.2,0-.4,0-.5,0,0-.2,0-.4,0-.6Z"/>
    <path class="st0" d="M41.1,98.8c.3,0,.7,0,.9,0,.5.8,1,1.6,1.4,2.5,0-.8,0-1.7,0-2.5.3,0,.5,0,.8,0,0,1.3,0,2.5,0,3.8-.3,0-.6,0-.9,0-.5-.8-1-1.6-1.4-2.5,0,.8,0,1.7,0,2.5-.3,0-.5,0-.8,0,0-1.3,0-2.5,0-3.8Z"/>
    <path class="st0" d="M44.9,98.8c.6,0,1.2,0,1.8,0,0,.2,0,.4,0,.6-.2,0-.3,0-.5,0,0,.8,0,1.6,0,2.4.2,0,.3,0,.5,0,0,.2,0,.5,0,.7-.6,0-1.2,0-1.8,0,0-.2,0-.5,0-.7.2,0,.3,0,.5,0,0-.8,0-1.6,0-2.4-.2,0-.3,0-.5,0,0-.2,0-.5,0-.7Z"/>
    <path class="st0" d="M50.4,98.8c1,0,1.9,0,2.9,0,0,.2,0,.5,0,.7-.3,0-.7,0-1,0,0,1,0,2,0,3-.3,0-.6,0-.8,0,0-1,0-2,0-3.1-.3,0-.7,0-1,0,0-.3,0-.5,0-.7Z"/>
    <path class="st0" d="M53.8,98.8c.7,0,1.4,0,2.1,0,.6,0,.9.7.9,1.2,0,.5-.3.9-.7,1.1.2.5.5,1,.7,1.4-.3,0-.6,0-.9,0-.2-.5-.4-.9-.7-1.4-.2,0-.4,0-.5,0,0,.5,0,.9,0,1.4-.3,0-.5,0-.8,0,0-1.3,0-2.5,0-3.8M54.7,99.5c0,.3,0,.7,0,1,.4,0,.7,0,1.1,0,.3-.2.2-.6.2-.9-.4,0-.8,0-1.2,0Z"/>
    <path class="st0" d="M65.9,98.8c.8,0,1.7,0,2.5,0,0,.2,0,.5,0,.7-.6,0-1.1,0-1.7,0,0,.3,0,.5,0,.8.5,0,1,0,1.4,0,0,.2,0,.5,0,.7-.5,0-1,0-1.4,0,0,.5,0,1,0,1.6-.3,0-.6,0-.8,0,0-1.3,0-2.5,0-3.8Z"/>
    <path class="st0" d="M77.7,98.8c.3,0,.6,0,.8,0,0,1,0,2,0,3.1.5,0,1,0,1.5,0,0,.2,0,.5,0,.7-.7,0-1.5,0-2.2,0,0-1.3,0-2.5,0-3.8Z"/>
    <path class="st0" d="M79.9,99.5c0-.2,0-.5,0-.7,1,0,1.9,0,2.9,0,0,.2,0,.5,0,.8-.3,0-.7,0-1,0,0,1,0,2,0,3-.3,0-.5,0-.8,0-.1-.1,0-.4,0-.5,0-.8,0-1.7,0-2.5-.4,0-.7,0-1.1,0Z"/>
    <path class="st0" d="M87.1,98.8c.7,0,1.4,0,2,0,.7,0,1,.8.9,1.5,0,.4-.3.6-.6.9.2.5.5.9.7,1.4-.3,0-.6,0-.9,0-.2-.5-.5-.9-.7-1.4-.2,0-.4,0-.6,0,0,.5,0,.9,0,1.4-.3,0-.5,0-.8,0,0-1.3,0-2.5,0-3.8M87.9,99.5c0,.3,0,.6,0,1,.4,0,.8,0,1.2,0,0-.3.2-.7-.1-.9-.3,0-.7,0-1.1,0Z"/>
    <path class="st0" d="M90.8,98.8c.9,0,1.7,0,2.6,0,0,.2,0,.5,0,.7-.6,0-1.2,0-1.8,0,0,.3,0,.5,0,.8.5,0,1,0,1.5,0,0,.2,0,.5,0,.7-.5,0-1,0-1.5,0,0,.3,0,.5,0,.8.6,0,1.2,0,1.8,0,0,.2,0,.5,0,.7-.8,0-1.7,0-2.5,0,0-1.3,0-2.5,0-3.8Z"/>
  </g>
</svg>