<?xml version="1.0" encoding="UTF-8"?>
<svg id="Layer_1" data-name="Layer 1" xmlns="http://www.w3.org/2000/svg" viewBox="0 0 128 128">
  <defs>
    <style>
      .cls-1 {
        fill: #e2e2e2;
      }

      .cls-2 {
        fill: #b8a67b;
      }
    </style>
  </defs>
  <rect x="-.37" y="-.37" width="128.74" height="128.74"/>
  <g id="_b8a67bff" data-name="#b8a67bff">
    <path class="cls-2" d="M63.92,25.21s.1-.02.14-.03c.24.63.39,1.28.65,1.9.69.15,1.41,0,2.12.1-.46.51-1.08.81-1.58,1.27-.02.74.42,1.4.54,2.12-.65-.3-1.14-.86-1.77-1.19-.63.31-1.09.89-1.77,1.13.12-.71.45-1.35.53-2.06-.56-.38-1.12-.78-1.61-1.25.68-.08,1.36,0,2.04-.08.42-.55.42-1.29.71-1.9Z"/>
    <path class="cls-2" d="M55.08,26.8c.55.47.92,1.12,1.48,1.56.7-.14,1.32-.54,2.02-.7-.27.52-.62,1-.91,1.51-.06.14-.19.32-.08.47.36.56.88,1.01,1.25,1.57-.72-.02-1.41-.44-2.13-.36-.5.51-.76,1.2-1.21,1.76-.13-.73,0-1.51-.24-2.22-.65-.25-1.36-.27-2-.56.58-.41,1.33-.48,1.91-.89.03-.71-.08-1.43-.09-2.14Z"/>
    <path class="cls-2" d="M71.58,28.28c.49-.46.85-1.03,1.35-1.48.02.71-.09,1.42-.12,2.14.62.37,1.34.54,1.94.94-.66.28-1.46.23-2.07.6-.11.68-.09,1.38-.23,2.05-.52-.51-.66-1.33-1.25-1.76-.73.07-1.41.37-2.15.42.5-.56,1.04-1.09,1.47-1.72-.34-.65-.77-1.26-1.11-1.92.6.22,1.18.5,1.78.73.12.03.3.1.4-.02Z"/>
    <path class="cls-2" d="M46.13,33.61c1.06-.54,2.28-.32,3.43-.37.63.03,1.29-.08,1.9.12.52.21.86.73.9,1.28.08,1.01-.08,2.03.13,3.03.27,1.48,1.15,2.83,2.35,3.72,1.29,1.06,3.05,1.42,4.69,1.19.42-.06.86-.28.98-.72.36-1.18.66-2.38,1-3.57.05-.26.2-.57.01-.82-.3-.5-.96-.48-1.46-.39-.43.05-.76.36-1.07.63-.28-.51-.48-1.13-.19-1.68.24-.41.73-.56,1.14-.76.66-.28,1.18-.82,1.87-1.02,1.35-.41,2.88-.32,4.11.41.55.28.94.84,1.05,1.45.28,1.91.48,3.83.77,5.74.05.38.39.64.74.71,2.74.54,5.68-1.14,6.68-3.73.19-.54.38-1.09.43-1.66.07-.86-.03-1.72.05-2.57.05-.66.59-1.25,1.26-1.33.67-.07,1.35-.01,2.02-.03.84,0,1.72-.08,2.53.19.47.16.96.36,1.32.72.76.76,1.53,1.52,2.24,2.33,3.57,3.61,7.03,7.33,10.56,10.98.45.45.94.87,1.32,1.39-.97.05-1.95.03-2.93.02-.89,0-1.75-.42-2.3-1.11-.91-1.1-1.81-2.2-2.75-3.28-.53-.62-.99-1.29-1.59-1.84-.09.17-.38.34-.24.56.35.56.83,1.01,1.22,1.54,2.15,2.68,4.3,5.36,6.47,8.02-1.12-.01-2.23-.09-3.33-.22-.49-.06-.94-.31-1.33-.6-.65-.54-1-1.32-1.51-1.98-.8-1.06-1.5-2.18-2.28-3.25-.39-.54-.7-1.14-1.16-1.61-.16.09-.31.2-.45.3,2.53,3.88,5.18,7.67,7.69,11.55-.9-.04-1.78-.21-2.67-.32-.59-.07-1.18-.23-1.66-.6-.51-.34-.82-.88-1.12-1.4-1.44-2.55-2.91-5.09-4.37-7.63-.15.13-.29.26-.44.38.49,1.11,1.17,2.13,1.73,3.21,1.6,2.93,3.22,5.85,4.83,8.79.26.44.49.89.66,1.37-.89-.1-1.76-.3-2.63-.48-.98-.17-1.92-.73-2.34-1.65-1.56-3.34-3.1-6.69-4.64-10.04-.19.05-.38.1-.57.14.36,1.16.97,2.22,1.42,3.35.95,2.07,1.83,4.18,2.77,6.25.2.45.43.89.59,1.36-.76-.07-1.5-.29-2.24-.44-.96-.19-1.85-.84-2.21-1.77-.71-1.8-1.31-3.64-1.99-5.46-.32-.83-.59-1.67-.89-2.51-.19.01-.38.02-.57.03.1.7.37,1.36.59,2.03.68,1.9,1.29,3.83,1.96,5.73.16.45.32.91.44,1.37-.68-.1-1.36-.22-2.02-.41-.7-.21-1.3-.71-1.68-1.32-.35-.58-.47-1.25-.64-1.9-.42-1.55-.79-3.11-1.23-4.65-.02-.33-.41-.19-.63-.24.26,1.42.67,2.81.98,4.22.25,1.14.61,2.26.81,3.41-1.02-.13-2.13-.33-2.85-1.15-.71-.65-.8-1.66-.95-2.55-.16-.87-.21-1.77-.52-2.61-.33.61-.56,1.26-.87,1.88-.19.4-.45.89-.15,1.31,1.07,1.83,2.33,3.54,3.46,5.33.26.39.16.88.26,1.32.38.53.91.92,1.34,1.41.38.36.72.9,1.31.87,1.6.02,3.2-.02,4.8,0-.01.76,0,1.52-.03,2.29-.37-.3-.68-.67-1.03-.98-.34-.27-.8-.12-1.18-.06.34.34.73.64,1.01,1.03-.24.55-.79.91-1.23,1.32-.02-.4.03-.8-.06-1.19-.32-.43-.71-.82-1.14-1.16-.34-.13-.74-.14-1.09-.02-.4.36-.8.75-1.13,1.17-.06.32-.05.64-.06.97-.48-.42-.93-.89-1.38-1.35.34-.38.75-.71,1.06-1.11.02-.24-.19-.4-.34-.56-.55-.5-1.11-.98-1.61-1.53-.36,0-.73.09-1.08-.03-.43-.24-.8-.57-1.22-.81-.99-.6-1.89-1.36-2.93-1.88,1.34,1.83,2.69,3.66,4.04,5.49.95,1.19,1.77,2.47,2.72,3.66.39.52.8,1.03,1.08,1.62-1.09,0-2.24.17-3.28-.25-.69-.31-1.27-.87-1.58-1.56-.57-1.3-1.2-2.57-1.79-3.86-.15.07-.31.14-.46.21.32,1,.77,1.96,1.14,2.94.57,1.5,1.16,2.99,1.79,4.47-.64,0-1.29.06-1.91-.12-1.03-.3-1.93-1.13-2.15-2.2-.32-1.5-.58-3.01-.8-4.52-.16-.02-.32-.03-.47-.04-.02,1.21.28,2.39.39,3.59.07,1.02.4,2.06.08,3.07-.3.92-1.11,1.54-1.84,2.12-.88-.66-1.8-1.5-1.93-2.67-.09-1.09.18-2.16.3-3.24.09-.95.28-1.89.31-2.84-.15,0-.29,0-.44,0-.34,1.53-.5,3.11-.88,4.63-.19.82-.8,1.46-1.51,1.87-.74.4-1.61.38-2.42.35.28-1.12.82-2.15,1.22-3.24.53-1.42,1.18-2.79,1.64-4.22-.16-.05-.31-.09-.47-.14-.64,1.27-1.22,2.57-1.8,3.87-.47.97-1.44,1.72-2.54,1.8-.77.04-1.55.02-2.32,0,.41-.78.97-1.47,1.49-2.18.91-1.22,1.8-2.44,2.72-3.65.54-.77,1.09-1.54,1.69-2.28.67-.93,1.34-1.86,2.04-2.77-.87.46-1.62,1.09-2.46,1.61-.57.35-1.1.76-1.67,1.11-.44.28-1.05-.04-1.45.35-.64.54-1.22,1.16-1.79,1.78.35.41.8.74,1.1,1.19-.38.51-.9.89-1.35,1.34,0-.32.01-.64-.05-.96-.19-.36-.51-.63-.8-.91-.35-.4-.96-.34-1.42-.23-.44.3-.89.66-1.16,1.13-.07.4-.04.81-.05,1.21-.44-.39-.89-.78-1.25-1.25.25-.45.69-.74,1-1.14-.35,0-.73-.08-1.06.05-.41.29-.74.69-1.12,1.02-.02-.76,0-1.52,0-2.28,1.59,0,3.19,0,4.78,0,.47.04.77-.35,1.07-.64.47-.49,1-.93,1.43-1.46.25-.3.18-.71.24-1.06.03-.35.25-.63.43-.91.9-1.24,1.69-2.56,2.56-3.81.26-.39.55-.77.73-1.21.14-.33-.05-.68-.16-.99-.31-.68-.54-1.41-.98-2.02-.35,1.34-.43,2.74-.81,4.08-.25.85-.94,1.54-1.77,1.84-.54.19-1.11.28-1.67.36.26-1.76.85-3.44,1.2-5.18.16-.81.44-1.6.56-2.42-.19,0-.38-.02-.57-.03-.51,1.98-1.06,3.95-1.57,5.93-.22.85-.77,1.66-1.61,2-.77.32-1.61.5-2.44.54.72-2.29,1.54-4.54,2.3-6.81.24-.76.56-1.5.7-2.29-.19,0-.37,0-.56-.01-.97,2.62-1.89,5.26-2.85,7.88-.37.86-1.13,1.57-2.06,1.78-.79.17-1.58.36-2.39.45.52-1.46,1.25-2.83,1.83-4.27.87-1.87,1.66-3.77,2.52-5.64.15-.34.27-.7.38-1.06-.2-.03-.4-.05-.6-.08-1.44,3.25-2.99,6.45-4.45,9.69-.38.88-1.12,1.7-2.1,1.87-1.03.21-2.04.47-3.08.58,1.17-2.34,2.53-4.58,3.75-6.9.92-1.64,1.79-3.32,2.74-4.95.3-.53.62-1.06.76-1.66-.16-.03-.32-.07-.48-.09-.1.1-.18.22-.25.34-.73,1.28-1.4,2.59-2.2,3.82-.68,1.25-1.4,2.47-2.09,3.7-.24.41-.52.82-.93,1.07-.58.36-1.26.51-1.93.59-.79.1-1.58.2-2.38.26,1.88-2.94,3.92-5.78,5.82-8.72.64-.91,1.24-1.86,1.86-2.79-.13-.15-.27-.3-.4-.45-1.49,2.05-2.88,4.18-4.35,6.24-.49.67-1.22,1.22-2.06,1.31-1.05.13-2.1.19-3.16.19.91-1.27,1.96-2.44,2.92-3.68,1.61-2.01,3.25-4,4.83-6.03-.15-.14-.39-.46-.58-.19-1.07,1.19-2.02,2.47-3.08,3.67-.49.55-.92,1.16-1.47,1.66-.58.51-1.36.73-2.12.71-.91-.01-1.83.01-2.74-.03.38-.47.81-.87,1.24-1.28,1.69-1.76,3.38-3.52,5.09-5.26.91-1.05,1.94-1.99,2.85-3.04.67-.73,1.43-1.38,2.07-2.14.52-.64,1.16-1.16,1.72-1.77.65-.64,1.22-1.42,2.1-1.77Z"/>
  </g>
  <g id="_242324ff" data-name="#242324ff">
    <path class="cls-1" d="M85.25,81.29c.78-.35,1.54-.77,2.39-.94-.35.41-.92.49-1.38.73-.72.29-1.38.7-2.11.97.2-.45.71-.55,1.1-.77Z"/>
    <path class="cls-1" d="M81.51,80.47c.42.78.82,1.58,1.19,2.39.12.27.26.56.16.85-.23-.19-.45-.39-.67-.58.3,2.06.82,4.08,1,6.15.07,1.17.13,2.4-.33,3.51-.1-.52-.12-1.06-.15-1.58-.2-2.37-.68-4.71-1.04-7.06-.18-.9-.22-1.83-.48-2.71.07-.33.22-.65.33-.97Z"/>
    <path class="cls-1" d="M89.56,82.18c.13-.61.43-1.17.76-1.7-.1.5-.39.95-.49,1.45-.05.18-.01.33.13.46.11-.1.23-.21.34-.32-.11.32-.27.62-.55.82-.13-.22-.25-.45-.18-.71Z"/>
    <path class="cls-1" d="M68.19,81.43c.09-.31.24-.6.38-.89.3.66.57,1.33.84,1.99.16.43.35.87.33,1.34-.26-.19-.48-.44-.68-.7.3,2.31.83,4.6.87,6.94.02,1.11-.13,2.25-.61,3.27-.35.71-1.15,1.02-1.86,1.23.6-.67,1.3-1.26,1.8-2.02.15-.19.11-.45.12-.67-.03-2.75-.65-5.44-.9-8.17-.1-.77-.11-1.55-.29-2.31Z"/>
    <path class="cls-1" d="M37.75,80.73c.65,0,1.24.44,1.51,1.03.08.28.03.59-.13.84-.29-.06-.58-.13-.87-.19-.44.71-1.12,1.23-1.83,1.66-.49.3-1,.6-1.56.75,1.12-.75,2.3-1.44,3.2-2.46-.18-.11-.41-.17-.54-.35,0-.44.22-.85.21-1.29M37.73,81.5c.04.1.09.21.15.31.42.15.85.26,1.29.33-.13-.3-.38-.52-.64-.7-.04.09-.13.27-.17.36-.18-.03-.16-.28-.25-.39-.09.03-.28.07-.38.1Z"/>
    <path class="cls-1" d="M64.64,81.49c.08-.3.22-.58.35-.87.22.45.43.91.61,1.38.23.62.54,1.23.6,1.91-.26-.16-.47-.38-.68-.59.35,2.77.99,5.53.91,8.35-.09.84-.11,1.86-.84,2.42-.57.47-1.47.76-2.12.27-.29-.31-.34-.77-.41-1.17-1.63.43-3.16,1.2-4.79,1.64-1.61.44-3.31.86-4.97.48-.48-.09-.86-.42-1.3-.59-.57.29-1.14.71-1.82.65-.78.03-1.38-.63-1.7-1.28-.45-.98-.56-2.08-.61-3.14-.05-1.59-.12-3.17-.19-4.76-.11-1.36-.18-2.77-.76-4.02-.12.25-.21.51-.35.75.1-.71.32-1.43.69-2.05.42.61.54,1.35.67,2.06.5,2.86.39,5.78.68,8.66.08.77.2,1.62.8,2.17.53.46,1.29.38,1.92.2-.37-1.01-.06-2.16.54-3.02.29-.34.64-.81,1.14-.67.32.19.44.58.5.93.1.94-.08,1.92-.57,2.74.74.41,1.6.32,2.41.29,1.74-.2,3.46-.57,5.1-1.18.99-.34,1.94-.8,2.95-1.08.28.38.07,1.04.56,1.3.67.35,1.39-.13,1.93-.5-.04-2.36-.43-4.68-.75-7.01-.21-1.42-.28-2.85-.5-4.27M51.99,91.83c-.14.17-.32.33-.37.56.11.39.37.71.66.98.26-.25.57-.46.75-.77.04-.42-.16-.83-.46-1.12-.26-.05-.42.18-.58.34Z"/>
    <path class="cls-1" d="M43.13,81.98c1.02-.44,2.05-.94,3.15-1.15-.1.17-.14.39-.32.5-2.06.7-4.02,1.66-5.94,2.67.1-.26.18-.56.44-.7.84-.54,1.77-.91,2.67-1.32Z"/>
    <path class="cls-1" d="M52.17,82.5c1.25-.55,2.5-1.15,3.83-1.48-.05.15-.11.3-.18.44-.25.14-.52.21-.78.31-1.83.68-3.6,1.54-5.32,2.46.13-.28.23-.62.53-.77.61-.37,1.27-.66,1.91-.97Z"/>
    <path class="cls-1" d="M61.35,81.2c.26.52.76,1.14.42,1.74-.24.37-.69.06-.9-.19-.1.15-.2.31-.3.46-.2,0-.4,0-.59-.02-.04-.51-.26-1.11.07-1.57.06.41.05.82.16,1.22.16-.06.32-.12.48-.17.08-.46-.08-.92-.01-1.38.35.32.25.87.51,1.25.16.06.32.11.49.14-.15-.49-.53-.95-.33-1.5Z"/>
    <path class="cls-1" d="M76.92,82.6c1.11-.55,2.24-1.07,3.43-1.44-.01.09-.04.26-.06.34-1.38.53-2.76,1.09-4.03,1.86.04-.38.33-.61.65-.76Z"/>
    <path class="cls-1" d="M73.51,82.25c.23-.27.36-.61.56-.91.42.24.84.49,1.22.79-.19.36-.39.72-.6,1.08-.42-.22-.81-.5-1.23-.72-.16.3-.33.59-.51.88-.43-.2-.82-.48-1.21-.74.14-.4.36-.76.57-1.12.42.22.81.47,1.2.74Z"/>
    <path class="cls-1" d="M85.07,83.45c.07-.42.33-.77.56-1.12.41.25.82.5,1.21.78-.19.37-.39.74-.62,1.09-.41-.21-.81-.44-1.15-.75Z"/>
    <path class="cls-1" d="M91.77,83.47c.63-.25,1.23-.57,1.9-.7-.08.43-.56.46-.89.61-1.33.53-2.6,1.18-3.88,1.83.08-.19.13-.44.35-.53.82-.45,1.67-.81,2.52-1.21Z"/>
    <path class="cls-1" d="M57.8,83.17c.2-.06.37.07.53.18-.04.13-.07.26-.11.39-.16-.06-.31-.13-.47-.19-.16.39-.23.8-.36,1.2-.1-.54.03-1.17.41-1.58Z"/>
    <path class="cls-1" d="M56.23,83.47c.46-.14.75.33.87.69.1.36.48.77.15,1.12-.26-.03-.16-.4-.28-.58-.05-.4-.49-.46-.75-.68-.02-.19,0-.38,0-.56Z"/>
    <path class="cls-1" d="M42.61,85.01c-.03-.44.34-.78.55-1.14.39.26.78.51,1.18.75-.15.41-.37.78-.63,1.13-.37-.24-.77-.44-1.1-.75Z"/>
    <path class="cls-1" d="M76.28,83.97c.1.5-.09.99-.24,1.46-.26.75-.66,1.44-1.05,2.13.46.35.9.81,1,1.4.17.76.06,1.7-.63,2.18-.55.4-1.2.9-1.93.72-.34-.27-.39-.74-.37-1.14-.01-.91.4-1.75.81-2.54-.46-.42-.92-.87-1.22-1.42-.13-.24-.32-.44-.54-.59.02-.4.07-.8.13-1.19.59.36,1.23.64,1.76,1.1-.2.08-.41.12-.62.14.39.33.73.71,1.16,1,.66-1.03,1.27-2.1,1.74-3.23M74.3,88.5c-.35.55-.66,1.12-.88,1.74.14.16.2.46.46.45.69.02,1.28-.45,1.76-.9-.34-.53-.8-.97-1.34-1.29Z"/>
    <path class="cls-1" d="M52.32,86c.14-.31.31-.61.49-.91.42.23.83.47,1.21.76-.14.39-.37.75-.58,1.11-.43-.21-.82-.48-1.22-.74-.17.31-.35.62-.57.9-.4-.24-.79-.5-1.18-.76.2-.37.33-.79.64-1.08.41.22.79.49,1.2.72Z"/>
    <path class="cls-1" d="M79.04,85.26c.5.64,1.03,1.29,1.35,2.04-.21-.05-.41-.1-.62-.15.2.73.74,1.35.79,2.12.06.84-.04,1.73-.52,2.44-.33.43-.79.74-1.23,1.04-1.38.89-2.85,1.63-4.35,2.3-.81.39-1.73.44-2.6.64-1,.19-1.98.51-3,.52.55-.35,1.18-.52,1.77-.76,2.47-.92,4.92-1.94,7.2-3.28.84-.52,1.67-1.09,2.37-1.8-.41-.92-.89-1.82-1.17-2.79-.1-.37-.23-.74-.42-1.08.14-.41.27-.83.41-1.24Z"/>
    <path class="cls-1" d="M86.01,85.26c.51.64,1.04,1.28,1.36,2.04-.21-.05-.42-.11-.62-.16.22.65.64,1.22.78,1.91.05.77.08,1.59-.28,2.3-.22.51-.67.86-1.11,1.17-1.33.94-2.8,1.66-4.27,2.35-.52.24-1.05.48-1.61.57-1.23.21-2.45.52-3.67.74-.24.05-.48.03-.71,0,1.45-.67,2.99-1.14,4.46-1.78,1.78-.76,3.54-1.58,5.16-2.65.61-.41,1.21-.84,1.7-1.38-.43-.96-.91-1.9-1.2-2.91-.09-.34-.21-.66-.39-.96.15-.4.28-.82.4-1.23Z"/>
    <path class="cls-1" d="M56.92,85.67c.24-.28.65-.19.84.09.26.17.18.49.18.75-.47-.02-.9.13-1.33.27-.03-.16.04-.29.18-.39.19-.12.4-.22.61-.32-.16-.13-.33-.27-.49-.4Z"/>
    <path class="cls-1" d="M91.26,85.87c.59-.19,1.16.16,1.55.58.84.93,1.14,2.27.93,3.49-.2,1.11-1.22,1.73-2,2.41-1.23.93-2.5,1.86-3.95,2.42-1.49.35-2.99.66-4.49,1.02-.22.06-.45.07-.67.08,1.15-.66,2.45-.99,3.65-1.54,1.62-.7,3.19-1.53,4.63-2.57.94-.67,1.9-1.35,2.64-2.25-.3-.4-.75-.71-1.27-.67-.65-.03-1.46.17-1.92-.42-.55-.88,0-2.14.9-2.54M91.13,87.02c-.11.16-.21.32-.31.48.46.12.94.12,1.41.03-.32-.26-.66-.54-1.09-.51Z"/>
    <path class="cls-1" d="M60.4,87.27c.16-.38.37-.75.58-1.1.43.23.83.49,1.23.76-.17.39-.39.75-.61,1.11-.43-.22-.82-.48-1.2-.77Z"/>
    <path class="cls-1" d="M36.65,87.22c.19-.3.35-.61.53-.92.42.24.84.49,1.22.79-.19.37-.37.75-.62,1.09-.41-.24-.8-.52-1.22-.73-.14.29-.3.57-.46.85-.43-.15-.8-.41-1.16-.67-.06-.4.29-.76.48-1.09.48.03.82.46,1.24.67Z"/>
    <path class="cls-1" d="M56.51,87.06s.1-.12.14-.15c.4,1.26.83,2.6.64,3.95-.12-.65-.16-1.32-.35-1.96-.14-.61-.4-1.2-.43-1.83Z"/>
    <path class="cls-1" d="M42.67,87.4c.41-.19.89-.07,1.24.19,1.46,1.07,2.04,3.22,1.24,4.85-.52.67-1.32,1.08-2.09,1.39-.78.27-1.81.34-2.41-.34-.54-.58-.82-1.34-1.17-2.05-.63-.02-1.11.49-1.46.96-.65.94-.49,2.28-1.36,3.09-.3.33-.81.26-1.12-.03-.77-.65-1.13-1.7-1.12-2.7,0-.6,0-1.25.32-1.77.06.95-.1,1.96.37,2.84.22.45.71.9,1.26.78.72-.55.86-1.5,1.17-2.3.31-.99,1-1.97,2.07-2.2.54.78.71,1.83,1.54,2.39.85.54,1.95.26,2.76-.23.44-.29.93-.55,1.26-.96-.11-.39-.5-.61-.87-.72-.72-.17-1.5.06-2.2-.24-.45-.26-.62-.83-.55-1.32.1-.67.48-1.33,1.11-1.63M42.28,89.11c.48.1.97.09,1.46.04-.28-.22-.54-.54-.92-.55-.3-.04-.42.3-.54.52Z"/>
    <path class="cls-1" d="M62.2,87.65c.39.23.8.44,1.15.73.04.43-.34.77-.52,1.14-.43-.21-.81-.5-1.22-.76-.15.29-.31.58-.46.87-.47-.11-.88-.4-1.24-.72.09-.4.35-.73.56-1.08.44.21.84.48,1.25.73.13-.32.3-.62.48-.91Z"/>
    <path class="cls-1" d="M45.6,94.92c.23-.54.39-1.14.8-1.58-.11.77-.88,1.49-.5,2.29.17-.13.33-.26.5-.38-.18.37-.33.96-.86.86-.14-.39-.1-.81.06-1.19Z"/>
    <path class="cls-1" d="M39.05,94.54c.16-.23.26-.68.63-.6.17.26.1.59.02.87-.16.48-.36.96-.68,1.35.14-.61.56-1.15.49-1.79-.16.05-.32.11-.47.17Z"/>
    <path class="cls-1" d="M61.32,94.75c.09-.28.26-.52.53-.65.25.73-.16,1.48-.58,2.06.15-.53.51-1.02.42-1.59-.09.05-.28.14-.37.18Z"/>
    <path class="cls-1" d="M36.9,98.96c.3,0,.61,0,.91,0,0,1.28,0,2.56,0,3.84-.27,0-.54,0-.81,0,0-.83.01-1.66,0-2.49-.31.65-.67,1.26-1.02,1.89-.36-.62-.68-1.27-1.01-1.9-.06.83,0,1.67-.02,2.51-.26,0-.52,0-.77,0,0-1.27-.01-2.55,0-3.82.28,0,.57,0,.85,0,.33.59.62,1.2.96,1.78.3-.59.62-1.18.9-1.78Z"/>
    <path class="cls-1" d="M47.53,99.26c.49-.41,1.21-.42,1.8-.25.21.12.56.19.58.47-.13.17-.3.32-.45.48-.4-.31-.94-.41-1.4-.18.02.22-.02.52.26.58.56.15,1.27.13,1.6.68.23.53.13,1.31-.44,1.59-.77.38-1.72.22-2.37-.32.14-.23.32-.44.52-.63.37.33.89.53,1.37.34.25-.12.19-.44.14-.66-.49-.26-1.14-.09-1.56-.48-.5-.39-.44-1.21-.03-1.64Z"/>
    <path class="cls-1" d="M56.87,98.97c.3,0,.61,0,.91,0,.27.51.55,1.01.81,1.52.29-.49.54-1.01.8-1.52.3,0,.61,0,.91,0-.41.77-.88,1.51-1.26,2.29-.1.5-.02,1.03-.05,1.54-.28,0-.56,0-.84-.02,0-.49.03-.99-.01-1.47-.38-.8-.88-1.54-1.27-2.34Z"/>
    <path class="cls-1" d="M63.09,98.96c.51-.08,1.11-.1,1.52.27.48.37.66,1,.64,1.58.03.62-.12,1.31-.63,1.71-.44.38-1.08.38-1.61.24-.81-.25-1.16-1.17-1.1-1.95-.03-.78.37-1.65,1.18-1.86M63.34,99.69c-.26.05-.46.29-.49.55-.05.46-.07.92,0,1.38.2.6,1.18.68,1.43.08.19-.49.13-1.04.03-1.54-.11-.41-.59-.59-.97-.46Z"/>
    <path class="cls-1" d="M70.34,100.28c.1-.6.53-1.17,1.14-1.32.42-.07.87-.09,1.26.1.31.14.49.45.67.73-.22.13-.44.25-.66.38-.27-.37-.69-.66-1.16-.45-.52.29-.45.96-.44,1.46-.06.48.37,1.01.89.91.35.03.52-.32.72-.53.2.14.52.19.59.45-.42.97-1.84,1.09-2.57.42-.56-.56-.58-1.42-.46-2.15Z"/>
    <path class="cls-1" d="M73.97,98.96c.26,0,.53,0,.8,0,.05.9-.03,1.8.05,2.69.11.62,1.26.63,1.29-.03.06-.89-.03-1.78.05-2.67.26,0,.52,0,.78,0,0,.86,0,1.73,0,2.59,0,.56-.35,1.18-.94,1.26-.53.05-1.15.12-1.61-.23-.42-.38-.43-.99-.44-1.52,0-.7,0-1.4,0-2.09Z"/>
    <path class="cls-1" d="M83.43,98.97c.27,0,.54,0,.81,0,.01.74,0,1.48,0,2.22,0,.26,0,.54.17.74.22.23.57.14.85.17.12-.18.35-.33.33-.57.01-.85,0-1.71,0-2.56.28,0,.55,0,.83,0-.02.82,0,1.64,0,2.46-.02.44-.13.94-.53,1.2-.42.28-.95.22-1.42.2-.57-.05-.99-.56-1.02-1.11-.06-.91,0-1.83-.03-2.74Z"/>
    <path class="cls-1" d="M38.5,99.02c.59-.12,1.22-.02,1.82-.05,0,.22,0,.45,0,.67-.17,0-.33.01-.5.02,0,.81,0,1.62,0,2.43.17,0,.33,0,.5.02,0,.22,0,.45,0,.68-.61,0-1.21,0-1.82,0,0-.23,0-.45.01-.68.16,0,.32,0,.48-.01-.02-.81-.02-1.62,0-2.43-.18-.01-.37-.02-.55-.03,0-.21,0-.41.04-.62Z"/>
    <path class="cls-1" d="M41,98.97c.31.03.66-.08.94.07.48.82.99,1.62,1.37,2.5.05-.85.01-1.71.03-2.56.25,0,.51-.01.76-.02.03,1.28.01,2.56.01,3.84-.31,0-.61,0-.92,0-.46-.84-.98-1.64-1.39-2.51-.03.84-.02,1.68,0,2.52-.26,0-.53,0-.79,0-.01-1.27,0-2.55,0-3.82Z"/>
    <path class="cls-1" d="M44.8,98.97c.59,0,1.18-.02,1.76,0,.1.2.05.43.07.64-.17.01-.34.03-.51.04.01.81,0,1.62,0,2.44.16,0,.33.01.49.02,0,.23,0,.45,0,.68-.61,0-1.22,0-1.82,0,0-.23,0-.46.01-.68.16,0,.32,0,.48,0,0-.82-.02-1.64,0-2.45-.16,0-.32,0-.48,0,0-.23,0-.45,0-.68Z"/>
    <path class="cls-1" d="M50.32,98.96c.97,0,1.94,0,2.91,0,0,.25,0,.5-.01.75-.35,0-.69,0-1.03,0,0,1.02,0,2.04,0,3.06-.28,0-.56,0-.84,0,0-1.02,0-2.05,0-3.07-.34,0-.68,0-1.02,0,0-.25,0-.5,0-.75Z"/>
    <path class="cls-1" d="M53.76,98.97c.69,0,1.38-.04,2.07.01.57.1.96.67.91,1.23.04.48-.28.87-.66,1.12.25.48.48.96.71,1.45-.31,0-.62,0-.93.01-.22-.46-.41-.95-.67-1.39-.18-.03-.36-.03-.54-.04-.05.47-.06.95-.05,1.42-.27,0-.53,0-.8,0-.09-1.27-.01-2.55-.04-3.82M54.6,99.71c0,.33,0,.65.01.98.35,0,.71.02,1.06-.03.3-.2.17-.59.16-.89-.41-.08-.82-.07-1.23-.06Z"/>
    <path class="cls-1" d="M65.96,98.97c.84,0,1.68,0,2.53-.01,0,.25.01.5.02.74-.57.01-1.14,0-1.71.02,0,.26,0,.52,0,.78.48-.01.96-.01,1.44,0,0,.24,0,.48,0,.72-.48,0-.96,0-1.44,0,0,.52-.01,1.04,0,1.56-.28,0-.57,0-.85,0,0-1.27,0-2.54,0-3.81Z"/>
    <path class="cls-1" d="M77.77,98.97c.28,0,.55,0,.83,0,0,1.03.02,2.05,0,3.08.49,0,.98,0,1.48.01-.03.24.05.51-.07.73-.74.01-1.48-.01-2.22,0,0-1.28,0-2.55,0-3.82Z"/>
    <path class="cls-1" d="M79.96,99.71c0-.25.01-.5.02-.75.96,0,1.92.01,2.89,0,0,.25,0,.5,0,.75-.34,0-.68,0-1.02.02,0,1.02,0,2.04,0,3.07-.26,0-.52,0-.78,0-.11-.15-.05-.35-.07-.52,0-.85,0-1.7,0-2.54-.35,0-.71,0-1.06-.02Z"/>
    <path class="cls-1" d="M87.23,98.97c.68,0,1.36-.03,2.04.01.68.09,1.04.83.91,1.46-.01.4-.35.65-.61.91.17.5.47.95.68,1.44-.3,0-.6,0-.9.02-.24-.47-.47-.94-.68-1.42-.19,0-.39,0-.58,0-.01.47,0,.94-.03,1.41-.27,0-.54,0-.81-.01,0-1.27,0-2.54,0-3.81M88.08,99.71c0,.32,0,.65,0,.98.4,0,.8,0,1.2-.04.02-.31.18-.73-.14-.93-.35-.04-.71-.02-1.06-.01Z"/>
    <path class="cls-1" d="M90.91,98.96c.87.01,1.73,0,2.6,0,0,.25.01.49.02.74-.6,0-1.19,0-1.79.02,0,.26,0,.51,0,.77.51,0,1.01,0,1.52,0,0,.24,0,.49,0,.73-.5,0-1.01,0-1.51,0,0,.27,0,.55,0,.83.59,0,1.19,0,1.78,0-.01.24.01.49-.05.72-.85.02-1.71,0-2.56,0-.01-1.28,0-2.55,0-3.83Z"/>
  </g>
</svg>