<svg width="198" height="70" viewBox="0 0 198 70" fill="none" xmlns="http://www.w3.org/2000/svg">
<g clip-path="url(#clip0_269_7337)">
<path d="M187.16 2.47339H12.202C7.18839 2.47339 3.12402 6.53775 3.12402 11.5514V59.4173C3.12402 64.4309 7.18839 68.4953 12.202 68.4953H187.16C192.174 68.4953 196.238 64.4309 196.238 59.4173V11.5514C196.238 6.53775 192.174 2.47339 187.16 2.47339Z" fill="white"/>
<path d="M187.16 2.47339H12.202C7.18839 2.47339 3.12402 6.53775 3.12402 11.5514V59.4173C3.12402 64.4309 7.18839 68.4953 12.202 68.4953H187.16C192.174 68.4953 196.238 64.4309 196.238 59.4173V11.5514C196.238 6.53775 192.174 2.47339 187.16 2.47339Z" stroke="black" stroke-width="1.65055"/>
<path d="M31.6868 34.5959L15.6514 51.9996C15.6529 52.0028 15.6529 52.0074 15.6544 52.0105C16.1469 53.9003 17.8337 55.291 19.8368 55.291C20.638 55.291 21.3897 55.0692 22.0342 54.6811L22.0854 54.6503L40.1344 44.0001L31.6868 34.5959Z" fill="#EA4335"/>
<path d="M47.9089 31.6322L47.8939 31.6215L40.1014 27.0024L31.3223 34.9913L40.1331 43.9981L47.8834 39.4255C49.2419 38.6738 50.1651 37.2091 50.1651 35.5211C50.1651 33.8423 49.2555 32.3854 47.9089 31.6322Z" fill="#FBBC04"/>
<path d="M15.651 18.968C15.5546 19.3315 15.5034 19.7134 15.5034 20.1077V50.8615C15.5034 51.2559 15.5546 51.6378 15.6525 51.9998L32.2377 35.0411L15.651 18.968Z" fill="#4285F4"/>
<path d="M31.8048 35.4842L40.1034 26.9994L22.0755 16.3107C21.4202 15.9088 20.6552 15.6777 19.8373 15.6777C17.8342 15.6777 16.1444 17.0716 15.6519 18.9628L15.6504 18.9675L31.8048 35.4842Z" fill="#34A853"/>
<path d="M71.7377 20.6296H72.9096V25.0366C72.3703 25.5098 71.7321 25.8729 70.9949 26.1259C70.2576 26.379 69.4819 26.5056 68.6677 26.5056C67.5123 26.5056 66.4724 26.2525 65.5481 25.7463C64.6238 25.2401 63.8976 24.5414 63.3694 23.6501C62.8412 22.7478 62.5771 21.7409 62.5771 20.6296C62.5771 19.5183 62.8412 18.5169 63.3694 17.6256C63.8976 16.7233 64.6238 16.0191 65.5481 15.5129C66.4724 15.0067 67.5177 14.7537 68.6842 14.7537C69.5644 14.7537 70.3732 14.8967 71.1105 15.1828C71.8476 15.4579 72.4694 15.8705 72.9756 16.4207L72.2163 17.1965C71.3029 16.2942 70.1421 15.843 68.7337 15.843C67.7983 15.843 66.9511 16.0521 66.1918 16.4702C65.4435 16.8774 64.8549 17.4495 64.4258 18.1868C63.9966 18.913 63.782 19.7273 63.782 20.6296C63.782 21.532 63.9966 22.3462 64.4258 23.0724C64.8549 23.7987 65.4435 24.3709 66.1918 24.789C66.94 25.2071 67.7818 25.4162 68.7172 25.4162C69.9056 25.4162 70.9124 25.1191 71.7377 24.5249V20.6296ZM84.5365 25.3502V26.4065H76.3663V14.8527H84.2889V15.909H77.5877V20.0189H83.5627V21.0588H77.5877V25.3502H84.5365ZM89.6524 15.909H85.5921V14.8527H94.9342V15.909H90.8738V26.4065H89.6524V15.909ZM101.205 14.8527H102.427V26.4065H101.205V14.8527ZM108.431 15.909H104.37V14.8527H113.712V15.909H109.652V26.4065H108.431V15.909ZM125.034 26.5056C123.89 26.5056 122.85 26.2525 121.915 25.7463C120.99 25.2292 120.264 24.5249 119.736 23.6336C119.219 22.7423 118.96 21.7409 118.96 20.6296C118.96 19.5183 119.219 18.5169 119.736 17.6256C120.264 16.7343 120.99 16.0356 121.915 15.5294C122.85 15.0123 123.89 14.7537 125.034 14.7537C126.178 14.7537 127.207 15.0067 128.121 15.5129C129.045 16.0191 129.771 16.7233 130.299 17.6256C130.827 18.5169 131.092 19.5183 131.092 20.6296C131.092 21.7409 130.827 22.7478 130.299 23.6501C129.771 24.5414 129.045 25.2401 128.121 25.7463C127.207 26.2525 126.178 26.5056 125.034 26.5056ZM125.034 25.4162C125.947 25.4162 126.773 25.2127 127.51 24.8055C128.247 24.3874 128.825 23.8152 129.243 23.0889C129.661 22.3516 129.87 21.532 129.87 20.6296C129.87 19.7273 129.661 18.913 129.243 18.1868C128.825 17.4495 128.247 16.8774 127.51 16.4702C126.773 16.0521 125.947 15.843 125.034 15.843C124.121 15.843 123.29 16.0521 122.542 16.4702C121.804 16.8774 121.221 17.4495 120.792 18.1868C120.374 18.913 120.165 19.7273 120.165 20.6296C120.165 21.532 120.374 22.3516 120.792 23.0889C121.221 23.8152 121.804 24.3874 122.542 24.8055C123.29 25.2127 124.121 25.4162 125.034 25.4162ZM143.485 14.8527V26.4065H142.478L135.051 17.0314V26.4065H133.829V14.8527H134.836L142.28 24.2278V14.8527H143.485Z" fill="black"/>
<path d="M156.655 55.1418H159.344V36.9667H156.655V55.1418ZM180.87 43.5135L177.787 51.3936H177.696L174.498 43.5135H171.601L176.397 54.5268L173.664 60.6535H176.467L183.86 43.5135H180.87ZM165.624 53.0772C164.742 53.0772 163.514 52.6338 163.514 51.5332C163.514 50.1316 165.043 49.5937 166.364 49.5937C167.546 49.5937 168.103 49.851 168.821 50.2014C168.612 51.8851 167.176 53.0772 165.624 53.0772ZM165.948 43.1166C164.001 43.1166 161.984 43.9816 161.152 45.8994L163.538 46.9041C164.048 45.8994 164.997 45.5708 165.994 45.5708C167.384 45.5708 168.798 46.4126 168.821 47.9101V48.0963C168.335 47.8157 167.291 47.3955 166.017 47.3955C163.445 47.3955 160.826 48.8217 160.826 51.4867C160.826 53.9191 162.935 55.4863 165.298 55.4863C167.107 55.4863 168.103 54.6678 168.729 53.7082H168.821V55.1113H171.416V48.1427C171.416 44.9165 169.029 43.1166 165.948 43.1166ZM149.333 45.7264H145.509V39.4964H149.333C151.343 39.4964 152.484 41.1757 152.484 42.6107C152.484 44.0196 151.343 45.7264 149.333 45.7264ZM149.264 36.9667H142.823V55.1418H145.509V48.2561H149.264C152.244 48.2561 155.173 46.0782 155.173 42.6107C155.173 39.1432 152.244 36.9667 149.264 36.9667ZM114.137 53.0801C112.28 53.0801 110.726 51.5114 110.726 49.3568C110.726 47.1788 112.28 45.5853 114.137 45.5853C115.971 45.5853 117.409 47.1788 117.409 49.3568C117.409 51.5114 115.971 53.0801 114.137 53.0801ZM117.225 44.5313H117.131C116.527 43.8059 115.368 43.1501 113.905 43.1501C110.841 43.1501 108.033 45.8659 108.033 49.3568C108.033 52.8228 110.841 55.5168 113.905 55.5168C115.368 55.5168 116.527 54.8612 117.131 54.1109H117.225V55.0022C117.225 57.3676 115.971 58.6326 113.951 58.6326C112.303 58.6326 111.282 57.4374 110.864 56.4299L108.52 57.4141C109.193 59.0541 110.981 61.0678 113.951 61.0678C117.108 61.0678 119.778 59.1937 119.778 54.627V43.5238H117.225V44.5313ZM121.635 55.1418H124.328V36.9653H121.635V55.1418ZM128.295 49.1459C128.226 46.7572 130.129 45.5388 131.498 45.5388C132.567 45.5388 133.472 46.0769 133.773 46.8503L128.295 49.1459ZM136.652 47.0843C136.142 45.7032 134.586 43.1501 131.406 43.1501C128.249 43.1501 125.627 45.6551 125.627 49.3335C125.627 52.7995 128.226 55.5168 131.707 55.5168C134.517 55.5168 136.142 53.7838 136.815 52.7763L134.725 51.3703C134.03 52.4013 133.077 53.0801 131.707 53.0801C130.338 53.0801 129.363 52.4476 128.736 51.2076L136.93 47.7865L136.652 47.0843ZM71.3745 45.0474V47.6703H77.5942C77.4084 49.1459 76.9214 50.2232 76.1794 50.972C75.2732 51.8864 73.8569 52.8941 71.3745 52.8941C67.5435 52.8941 64.5498 49.7784 64.5498 45.9139C64.5498 42.048 67.5435 38.9338 71.3745 38.9338C73.4406 38.9338 74.949 39.7538 76.0627 40.808L77.8968 38.957C76.3408 37.4582 74.2761 36.3096 71.3745 36.3096C66.1289 36.3096 61.7188 40.6203 61.7188 45.9139C61.7188 51.2076 66.1289 55.5168 71.3745 55.5168C74.2056 55.5168 76.3408 54.5792 78.012 52.8228C79.7308 51.0897 80.264 48.6545 80.264 46.6859C80.264 46.0769 80.2178 45.5155 80.1242 45.0474H71.3745ZM87.3366 53.0801C85.4794 53.0801 83.8773 51.5347 83.8773 49.3335C83.8773 47.1076 85.4794 45.5853 87.3366 45.5853C89.1923 45.5853 90.7943 47.1076 90.7943 49.3335C90.7943 51.5347 89.1923 53.0801 87.3366 53.0801ZM87.3366 43.1501C83.9465 43.1501 81.1845 45.7497 81.1845 49.3335C81.1845 52.8941 83.9465 55.5168 87.3366 55.5168C90.7251 55.5168 93.487 52.8941 93.487 49.3335C93.487 45.7497 90.7251 43.1501 87.3366 43.1501ZM100.754 53.0801C98.897 53.0801 97.295 51.5347 97.295 49.3335C97.295 47.1076 98.897 45.5853 100.754 45.5853C102.611 45.5853 104.212 47.1076 104.212 49.3335C104.212 51.5347 102.611 53.0801 100.754 53.0801ZM100.754 43.1501C97.3656 43.1501 94.6036 45.7497 94.6036 49.3335C94.6036 52.8941 97.3656 55.5168 100.754 55.5168C104.143 55.5168 106.905 52.8941 106.905 49.3335C106.905 45.7497 104.143 43.1501 100.754 43.1501Z" fill="black"/>
</g>
<defs>
<clipPath id="clip0_269_7337">
<rect width="196.415" height="69.323" fill="white" transform="translate(0.90625 0.530762)"/>
</clipPath>
</defs>
</svg>
