<svg width="765" height="360" viewBox="0 0 765 360" fill="none" xmlns="http://www.w3.org/2000/svg">
<g filter="url(#filter0_d_22_1954)">
<path fill-rule="evenodd" clip-rule="evenodd" d="M549.374 17.8685C550.517 19.2016 552.966 19.9073 554.68 20.0642C554.19 21.6325 554.027 21.7893 554.272 23.2792C556.966 24.6907 561.047 25.9454 565.21 25.0044L565.129 20.0642C564.149 19.9858 563.823 20.1426 563.578 20.1426C563.415 20.1426 563.251 20.1426 563.17 20.1426L559.905 18.9663C558.68 18.4174 559.415 18.9663 558.762 18.339C560.149 17.3196 560.802 17.2412 561.619 15.9865C557.374 13.1635 551.578 14.8887 549.374 17.8685ZM721.939 322.046V320.086C720.062 319.302 720.143 318.596 717.695 318.674C714.837 321.889 717.695 322.673 712.225 325.418C709.858 326.673 705.287 328.947 707.736 332.083C711.899 334.75 714.266 330.907 715.817 328.868C717.939 325.889 718.674 327.222 719.654 324.869C719.817 324.556 719.735 324.32 719.98 323.693C720.715 321.968 720.552 322.595 721.939 322.046ZM641.126 240.728C644.146 241.042 645.697 241.512 646.922 243.865C646.84 248.099 644.881 245.59 645.452 248.335C645.534 248.335 645.779 248.256 645.86 248.335C645.86 248.492 646.105 248.413 646.187 248.413C648.881 248.256 648.636 247.158 651.248 248.57C652.881 249.511 654.921 250.922 657.37 249.354C658.595 248.57 659.738 245.982 662.431 247.707C664.472 248.962 663.003 249.668 667.084 251.314L672.145 252.334C669.696 250.922 672.064 249.981 667.166 249.432C666.268 247.237 666.676 247.237 665.043 245.825C665.615 244.257 665.941 245.355 666.35 244.022C661.615 240.963 662.35 239.709 652.799 236.964C644.31 234.533 646.922 237.278 639.248 236.572C636.555 236.337 635.738 236.102 634.269 237.199C635.412 241.12 638.106 237.199 641.126 240.728ZM385.789 31.8266C387.421 32.6108 389.217 34.2576 391.094 34.8849C394.849 31.9835 394.931 30.2583 396.645 26.1807H399.013C399.094 26.2591 399.339 26.9648 399.421 27.0432C400.319 28.5332 400.482 27.9058 400.972 29.3173L399.829 31.2777C403.012 30.7288 401.38 31.0425 403.747 31.5914C405.788 32.0619 405.869 31.3561 407.992 30.8857L408.89 29.8662L406.931 28.9252C403.012 26.1022 405.788 28.0627 401.951 26.1022C399.666 24.926 397.462 22.6519 394.768 22.4951C395.013 20.8483 395.421 21.6325 394.604 20.3778C390.605 19.8289 390.686 21.7109 388.972 22.7303C388.237 21.162 388.809 21.7109 387.666 20.7699C382.931 22.2598 384.156 18.8095 379.258 22.1814C379.993 23.6713 379.666 22.7303 381.544 23.6713V26.4159C379.993 25.867 380.809 25.7886 379.095 25.2397L380.809 27.749C383.176 27.0432 380.564 26.6512 383.176 27.4353C384.319 27.749 383.585 28.5332 385.707 27.5137C386.931 26.9648 386.442 25.4749 391.339 26.808C390.278 28.4547 390.278 27.749 387.993 28.2195C386.605 28.5332 386.033 28.9252 385.135 29.3173C385.87 29.7878 385.299 29.631 386.605 29.7094L390.768 29.3173C390.605 29.3957 390.523 29.4742 390.441 29.4742C390.36 29.5526 390.197 29.631 390.033 29.7094L387.829 30.4151C385.462 31.1209 386.36 30.3367 385.789 31.8266ZM204.081 5.71395C202.285 5.63553 199.591 5.16503 198.04 5.32187C193.387 5.55712 197.795 6.81178 193.306 6.4197C188.898 5.9492 186.531 5.87078 183.102 7.59594C181.47 8.92903 181.714 7.83119 178.449 8.22328L164.164 11.6736C164.572 12.7714 164.246 12.0657 165.062 12.8499L169.633 15.5944C173.633 16.9275 174.205 15.1239 177.062 14.6534C175.919 15.5944 176 15.1239 175.837 16.7707C184.245 18.5743 187.918 13.9477 193.469 13.7124L191.265 15.2023L194.938 15.6728C191.837 17.5548 186.939 17.3196 184.653 17.7901C184.49 17.8685 184.327 17.8685 184.245 17.8685C184.082 17.9469 183.918 18.0253 183.837 18.0253L183.021 18.339C184.245 20.221 184.898 19.5937 186.775 21.2404C182.531 20.9268 179.919 18.8879 175.511 18.2606C176.572 23.2792 181.306 22.6519 185.143 24.5339L184.082 26.3375C181.878 25.4749 181.47 24.5339 178.776 24.6123C176.327 24.6907 174.368 25.4749 174.449 27.6706C176.327 28.5332 175.674 27.3569 178.368 29.1605C179.102 29.7094 178.204 30.0231 180.653 30.0231C181.714 30.0231 182.204 29.7094 182.939 29.4742C180.327 32.6108 176.327 29.5526 172.245 29.1605C171.347 30.9641 172.817 30.1799 170.531 32.9245C169.797 33.8655 170.123 32.9245 169.633 34.2576C173.388 35.9043 176.735 36.2964 181.959 35.6691C188.735 34.8849 188.245 38.6489 193.061 34.2576C192.571 32.2971 191.837 33.6302 191.183 32.2187C193.714 30.4152 192.326 30.9641 193.551 29.0821C196.898 29.2389 197.061 29.0821 196.653 26.1807C199.02 26.1022 198.693 26.1022 199.51 25.4749C198.775 23.9066 198.367 23.7497 196.081 23.9066C193.632 23.985 193.551 25.0044 192.245 24.0634C194.449 22.7303 195.265 23.2008 198.04 23.2792C201.061 23.4361 201.877 23.3577 202.857 21.5541C202.938 21.4757 202.938 21.3188 203.02 21.2404H207.428C207.346 19.3584 207.509 20.3778 206.611 19.0448C210.53 18.7311 216.978 15.8297 220.489 13.7124C221.468 13.1635 220.978 13.4772 221.386 13.0851C219.427 11.9873 216.815 12.7714 214.285 12.7714C217.876 10.1053 226.937 13.4772 228.325 8.85061C226.121 5.79237 220.162 6.96861 215.917 6.57653C214.203 6.4197 212.244 5.24345 210.122 4.85137C206.122 4.0672 207.999 5.4787 204.081 5.71395ZM160.572 14.7318L156.981 15.2023L157.879 16.8491C154.45 17.2412 154.695 17.3196 154.695 20.8483C157.797 22.103 160.491 21.5541 163.593 22.8872L159.021 24.2202C161.552 26.9648 168.899 29.631 172.245 24.6123L176.245 24.2987C177.225 20.4563 173.062 18.7311 169.878 17.2412C166.858 15.9081 162.45 13.5556 159.021 13.7124C160.817 14.4182 160.246 13.3203 160.572 14.7318ZM121.635 36.7669C119.023 36.7669 117.145 34.8065 114.941 35.277C112.737 35.7475 110.778 37.7863 110.86 40.2172C112.493 41.3935 113.799 41.4719 116.656 41.3935L117.39 42.4913C117.635 42.8834 117.554 42.8834 118.043 43.5107C123.023 43.9028 133.39 42.1776 134.859 38.4136C133.145 37.0806 124.737 30.9641 125.553 36.3748C125.88 38.4921 126.451 37.7079 127.839 38.6489C125.88 38.7273 122.941 38.0215 121.635 36.7669ZM96.085 43.3539L92.9831 52.7639C93.9626 53.3128 94.7789 53.2344 95.7585 54.3322C97.4727 54.7243 97.3094 54.9595 98.2074 56.5279C108.901 52.3718 103.432 52.2934 109.717 48.843C111.268 47.9804 112.819 47.6668 113.635 46.02C111.595 43.8244 99.1869 41.864 96.085 43.3539ZM151.43 55.1948C155.103 53.548 154.858 51.1171 151.512 49.1567C152.246 47.1963 152.409 49.2351 152.409 46.4121L150.695 45.2359C148.328 44.9222 147.022 45.628 144.736 46.2553C148.246 49.784 144.573 49.6272 141.879 49.6272C142.695 50.4114 142.124 50.8819 145.553 52.9991C147.185 54.0969 148.981 55.2732 151.43 55.1948ZM140.818 57.4688C136.083 56.1358 134.451 45.1575 130.696 48.5294C129.88 49.3135 130.288 47.3531 130.125 49.784C130.043 51.3524 131.104 51.0387 131.104 53.6264C126.778 53.4696 129.553 50.0977 125.308 48.9214L125.472 51.4308L122.941 51.5876L122.859 49.6272C116.166 49.5488 118.615 49.9409 116.656 47.902C112.411 47.902 108.248 50.6466 107.187 54.2538L113.309 54.489C112.248 55.9005 111.105 55.43 109.636 57.0768C112.901 57.8609 117.554 57.0768 120.656 57.9394C119.839 59.194 121.227 58.4883 118.941 59.0372C117.145 59.5077 113.554 59.194 111.268 60.2918C112.166 63.899 113.88 61.7033 117.227 63.5853C125.717 68.5256 124.819 63.5853 132.002 63.3501C135.349 63.2717 137.961 63.899 141.471 63.4285C143.349 61.3113 140.247 62.3307 144.573 60.4487L142.614 58.7235C141.553 58.0962 141.389 58.1746 140.818 57.4688ZM233.468 127.338C235.998 128.044 236.896 127.103 239.263 127.965C241.141 128.671 241.549 129.612 243.753 130.004C245.957 123.809 244.079 123.966 238.855 121.849L240.243 118.163C237.223 118.006 233.549 125.926 233.468 127.338ZM196.816 260.097C197.142 260.803 196.408 259.862 197.551 261.038C197.796 261.352 197.959 261.509 198.285 261.744C200.244 263.234 202.857 264.096 203.673 265.351C210.938 268.017 209.224 279.78 207.591 287.386C206.693 291.464 205.55 294.522 205.387 299.149C205.142 302.834 204.407 308.715 202.285 310.911C202.53 314.989 199.755 322.046 200.326 324.634C203.101 324.085 202.203 323.144 203.918 321.497L202.285 329.339L200.734 327.692L201.142 331.221C200.734 329.888 201.061 330.594 199.428 330.358L197.959 333.024L200.081 334.671L201.469 336.788C199.183 337.886 197.551 336.788 199.346 343.14C200.326 346.434 201.877 347.139 203.346 348.865C204.979 350.903 206.611 353.57 209.305 354.589C212.326 355.687 216.897 355.608 219.591 354.432L218.529 353.413C216.978 352.237 215.672 352.237 214.121 350.433C212.734 348.629 211.917 345.493 212.162 342.983C213.468 341.493 213.223 342.356 214.203 341.337L218.856 335.377L218.938 333.965C216.162 332.711 214.693 333.024 215.509 329.653C215.917 329.496 218.121 329.104 218.285 329.025C220.325 328.163 218.856 329.731 219.672 326.986C220.325 324.948 221.305 324.242 222.121 322.517C220.652 320.164 220.162 322.36 220.162 318.909C222.448 318.909 222.856 320.007 224.897 318.753C226.447 317.028 225.55 316.557 225.958 314.126C232.243 314.283 234.202 313.969 237.141 310.205C238.039 305.265 235.917 307.539 234.447 303.618C239.345 304.089 242.284 305.265 244.977 301.815C245.957 300.482 246.61 298.678 247.345 297.345C248.814 294.679 249.222 296.09 249.222 296.09C252.651 298.051 246.773 295.933 250.038 296.639C256.487 290.601 251.589 283.701 261.303 279.78C267.589 277.27 272.813 279.388 274.609 264.881C275.18 259.862 275.18 257.745 278.364 254.765C280.241 253.04 283.915 250.217 283.262 245.904C282.854 242.924 282.364 242.61 280.16 241.748C278.119 240.885 277.629 240.101 275.915 239.16C272.405 237.121 268.568 237.435 264.079 237.043C262.936 236.494 264.732 235.082 258.61 233.592C256.079 233.357 256.161 233.828 254.12 234.455C254.61 232.808 254.855 233.357 254.365 231.789L251.671 231.083C249.957 232.181 251.345 232.259 249.385 232.73L250.283 230.848C248.814 230.456 249.549 231.083 247.671 228.103L222.284 243.316C218.203 245.904 213.713 248.178 209.632 251.158C208.244 252.099 207.754 252.334 206.285 253.118L196.979 258.529C196.653 259.548 196.816 258.686 196.816 260.097ZM156.981 193.051C156.164 193.914 156.491 193.208 156.083 194.776C156.001 195.482 156.001 195.404 156.083 196.109C156.164 196.58 156.654 198.226 156.817 198.854C162.368 198.383 161.144 201.99 166.205 203.402C169.552 204.265 171.429 203.48 173.715 206.147C174.694 207.323 174.858 207.401 175.021 208.577C177.306 210.146 177.143 211.636 180.327 213.204C182.857 214.537 185.061 215.086 187.673 216.262L189.224 213.988L193.632 214.772C192 221.046 198.449 222.928 189.143 230.064C186.694 231.946 186.694 231.083 186.694 234.769L188.571 236.18C181.878 244.806 187.592 242.453 190.204 246.609C192.816 250.609 193.387 255.235 195.836 259.391C196.408 260.176 196 259.627 196.816 260.097C196.816 258.686 196.653 259.548 196.979 258.529L206.285 253.118C207.754 252.334 208.244 252.099 209.632 251.158C213.713 248.178 218.203 245.904 222.284 243.316L247.671 228.103C249.549 231.083 248.814 230.456 250.283 230.848C251.998 229.123 251.426 228.809 250.365 227.084C248.243 223.398 251.345 222.065 241.059 219.713C236.651 218.693 232.325 217.046 230.121 213.518C228.57 211.165 229.876 212.185 226.284 211.871C226.529 210.538 226.937 210.616 226.366 209.597C221.713 209.44 221.386 212.185 217.55 210.773C214.856 209.832 213.142 207.872 209.958 207.244C208.734 208.97 209.305 208.577 207.101 209.597C206.856 211.4 207.265 211.636 206.611 212.812C205.305 209.832 206.203 209.126 207.346 206.303L204.163 206.931C200.489 208.891 196.163 210.773 194.694 213.988C189.061 210.852 194.53 212.89 186.122 212.028C177.062 211.008 185.633 201.52 180.245 199.011C178.041 197.991 173.633 198.775 170.694 198.462C171.266 195.952 175.755 191.483 173.225 188.111C172.082 186.935 170.041 186.856 168.572 187.876C166.939 189.052 166.939 197.834 156.981 193.051ZM153.389 173.212C157.634 166.703 161.552 171.408 168.246 171.016C168.327 170.938 168.409 170.545 168.409 170.624C168.49 170.702 168.572 170.389 168.572 170.232C169.388 168.507 168.735 169.056 169.715 168.428C171.103 167.409 175.184 168.036 176.898 168.271C177.878 168.428 179.347 168.585 180.082 169.291C183.347 170.781 183.265 178.701 187.755 179.563C189.306 171.957 183.755 164.507 191.755 160.43L189.633 158.469C187.673 157.528 188.979 158.077 188.653 158.548C189.959 157.45 189.061 158.626 189.551 156.666C188.082 155.725 187.592 154.862 186.286 153.686C183.265 150.863 184.245 153.764 182.531 151.177L179.919 147.256C177.633 145.374 178.694 148.589 177.551 143.805L168.246 143.727L164.572 147.962C164.164 148.824 164.327 148.51 164.327 149.451C163.756 148.981 161.389 149.451 160.327 149.451C160.246 149.608 160.083 149.765 160.001 149.844L158.613 151.961C158.532 152.039 158.45 152.196 158.368 152.353H153.389V147.569L149.634 146.001C149.552 146.001 149.307 146.001 149.226 145.844C149.144 145.687 148.899 145.687 148.736 145.687C149.552 153.215 150.94 159.959 151.838 166.938C152.001 168.271 152.165 171.957 153.389 173.212ZM14.4554 61.9386C13.9656 62.6443 13.884 63.2717 11.7616 63.9774C10.0474 64.5263 9.72085 64.2127 8.25151 65.0753C10.2106 70.486 16.2512 69.545 16.9859 73.6227C13.3942 74.7205 13.6391 72.9169 11.9248 72.0543C9.14944 73.2306 7.19033 73.4658 4.98633 74.9557C6.04751 76.6809 4.98633 75.191 6.21077 76.2888C12.0065 81.6211 8.74129 79.4255 19.1899 78.014C18.5368 85.4635 11.5983 80.9154 9.39433 85.4635C8.25151 87.6592 9.72085 90.3254 10.7004 91.5016C12.9044 94.1678 13.4758 93.2268 16.4961 92.5994C16.9859 93.9325 17.394 95.2656 17.1491 96.9124C21.7204 97.3829 23.5979 95.7361 27.2712 96.2066C25.9651 104.911 13.6391 103.421 10.3739 108.988L13.9656 108.91C18.7817 107.106 20.7408 106.322 24.8223 103.656C27.6794 101.853 32.3322 98.0886 34.9444 97.226C34.5362 95.344 34.5363 96.0498 33.8832 94.6383C37.4749 91.6584 39.3524 88.6002 42.0462 89.8549C39.8422 91.58 38.6994 90.9527 38.781 94.7167C40.985 94.403 42.7808 93.0699 46.046 92.4426L46.2093 89.9333C49.9642 89.8549 50.9438 92.2858 54.862 92.8347C59.1068 93.462 60.5761 92.6779 64.576 94.6383C69.1472 96.8339 67.9228 97.3044 75.5959 100.676C78.0448 101.774 76.5755 101.696 78.1265 103.499C79.3509 104.832 80.1672 104.597 81.4733 106.009C82.2896 107.028 82.9426 108.44 83.6773 109.616C91.677 122.633 99.1053 118.242 99.6767 127.024C97.3911 125.534 95.8401 121.614 91.5137 119.732C89.3914 118.791 88.82 118.947 87.8404 119.418C90.8607 123.496 98.0441 124.358 95.8401 133.298C95.1871 138.473 95.1054 138.787 95.8401 143.962C96.6564 146.785 97.5543 149.216 98.6971 151.49C100.085 154.078 102.126 156.195 103.187 157.92C110.044 160.822 110.86 162.155 114.452 168.742C117.472 174.309 116.084 174.623 117.717 176.113C120.329 178.701 121.472 177.76 123.594 181.837L125.961 184.817C127.268 178.544 116.411 171.016 115.839 165.292C119.594 165.84 122.778 171.408 124.982 174.388L135.267 186.935C137.145 189.679 133.145 190.15 141.145 194.149C145.553 196.344 149.879 197.991 154.858 199.246C154.695 198.07 143.185 185.445 140.981 183.327L102.534 139.728C101.146 137.924 100.085 137.14 99.0237 135.65C99.7583 134.082 99.5134 134.709 101.391 132.906C103.268 131.102 102.942 131.808 104.248 130.788C104.411 130.71 105.636 129.455 105.636 129.377C111.186 122.555 109.146 126.475 111.758 123.26C113.635 120.986 115.431 119.104 117.635 117.065C120.084 114.87 122.941 112.909 125.064 110.322C127.512 107.499 125.553 109.224 128.655 106.636L133.39 102.088C134.941 100.284 136.247 99.8922 139.675 96.285L145.797 90.1685C146.859 89.2275 147.512 88.2081 149.389 88.0513L168.899 68.0551C171.919 65.3889 171.184 66.3299 171.347 64.4479C168.49 63.1148 165.878 63.4285 163.838 60.7623C161.878 58.253 162.613 55.9789 159.348 53.9401C159.266 53.9401 151.022 53.548 156.981 62.2523C156.491 63.4285 156.899 62.4091 156.164 63.3501C154.613 65.1537 156.246 62.4091 155.593 63.899C157.226 65.2321 157.47 65.0752 159.919 64.4479C158.94 66.6436 158.777 65.7026 157.47 67.0357C155.675 68.9177 157.307 68.9961 155.348 69.1529L154.858 67.5062C153.307 63.1933 154.287 66.5652 154.613 64.4479C155.103 61.4681 150.124 58.8019 148.654 63.6638C150.45 64.9184 150.369 64.6832 150.94 66.0163C148.001 69.6234 144.165 68.2903 139.512 66.9572C134.451 65.6242 131.022 65.0752 130.696 70.9565C129.635 70.2507 130.778 71.0349 129.798 70.1723C125.308 66.4083 122.37 68.2903 115.839 67.5062L117.635 65.6242C113.554 63.6637 105.309 60.3703 100.411 61.3113C97.4727 61.7818 96.5748 62.6443 95.4319 60.135C95.2687 60.2134 95.1871 60.3703 95.1054 60.3703C95.0238 60.4487 94.8605 60.5271 94.7789 60.6055L93.3096 61.5465C88.6567 59.4293 91.7586 59.7429 88.9016 58.4098C86.6976 59.194 87.5955 59.9782 84.7385 59.8213C82.6977 59.7429 82.1263 59.8998 80.004 60.4487C67.9228 63.5069 72.8205 63.2717 61.0659 60.7623L32.822 56.8415C28.9854 56.371 32.7404 55.5084 28.3324 55.8221C21.0674 56.2142 14.4554 61.9386 14.4554 61.9386ZM171.347 64.4479C171.184 66.3299 171.919 65.3889 168.899 68.0551L149.389 88.0513C147.512 88.2081 146.859 89.2275 145.797 90.1685L139.675 96.285C136.247 99.8922 134.941 100.284 133.39 102.088L128.655 106.636C125.553 109.224 127.512 107.499 125.064 110.322C122.941 112.909 120.084 114.87 117.635 117.065C115.431 119.104 113.635 120.986 111.758 123.26C109.146 126.475 111.186 122.555 105.636 129.377C105.636 129.455 104.411 130.71 104.248 130.788C102.942 131.808 103.268 131.102 101.391 132.906C99.5134 134.709 99.7583 134.082 99.0237 135.65C100.085 137.14 101.146 137.924 102.534 139.728L140.981 183.327C143.185 185.445 154.695 198.07 154.858 199.246L156.817 198.854C156.654 198.226 156.164 196.58 156.083 196.109C156.001 195.404 156.001 195.482 156.083 194.776C156.491 193.208 156.164 193.914 156.981 193.051C151.512 190.228 150.45 180.112 153.389 173.212C152.165 171.957 152.001 168.271 151.838 166.938C150.94 159.959 149.552 153.215 148.736 145.687C148.899 145.687 149.144 145.687 149.226 145.844C149.307 146.001 149.552 146.001 149.634 146.001L153.389 147.569V152.353H158.368C158.45 152.196 158.532 152.039 158.613 151.961L160.001 149.844C160.083 149.765 160.246 149.608 160.327 149.451C161.389 149.451 163.756 148.981 164.327 149.451C164.327 148.51 164.164 148.824 164.572 147.962L168.246 143.727L177.551 143.805C178.694 148.589 177.633 145.374 179.919 147.256L182.531 151.177C184.245 153.764 183.265 150.863 186.286 153.686C187.592 154.862 188.082 155.725 189.551 156.666C189.061 158.626 189.959 157.45 188.653 158.548C188.979 158.077 187.673 157.528 189.633 158.469L191.755 160.43C200.489 156.509 196 153.529 195.836 150.236C197.142 150.157 197.387 150.471 198.53 150.863C201.224 143.884 200.897 144.354 208.734 142.551C208.571 138.159 208.897 137.689 211.999 135.729C214.366 134.239 217.468 133.062 220.978 133.062C220.407 133.69 221.142 133.062 220.08 133.847C219.509 134.239 219.346 134.239 218.856 134.631C217.795 135.493 217.713 135.101 217.631 136.905C220.815 137.062 227.101 133.611 227.835 133.454C228.978 131.416 229.713 131.729 230.447 129.455C227.427 130.475 226.366 132.906 222.693 131.024C218.366 128.828 222.039 127.26 221.223 123.809C218.366 122.006 215.836 123.339 213.387 125.064C211.346 126.475 208.897 128.201 207.265 129.612C209.55 125.378 211.673 124.28 215.917 121.378C220.57 118.163 221.631 122.006 231.835 118.947C233.059 117.536 236.161 117.379 238.039 116.36C240.325 115.027 240.161 112.596 237.876 111.184C235.263 110.165 233.141 111.419 230.366 111.733C231.59 110.008 233.957 109.537 235.998 108.832C235.59 107.655 235.1 108.047 233.304 107.499C231.59 106.95 231.345 107.028 230.447 105.773C225.468 104.989 230.121 101.931 221.386 92.3642C217.958 95.0304 219.754 101.225 210.53 96.0498C211.346 89.306 207.428 87.3455 201.714 85.8556C194.449 84.052 189.877 86.875 194.041 93.2268L193.469 93.6189C192.408 94.6383 192.571 95.1088 192.326 96.5203C193.143 97.6181 194.285 98.0102 195.102 99.4217C198.775 105.617 190.612 107.734 190.122 107.969C191.51 111.027 192.326 113.537 191.183 117.144C185.306 119.732 184.327 112.282 184.245 107.028C171.674 105.146 172.001 101.617 162.94 101.147C162.287 100.284 161.878 98.8728 161.062 97.7749C160.246 96.5987 159.266 96.1282 158.368 95.1088C157.797 91.5016 159.266 88.757 161.225 86.875C162.858 85.2283 168.164 84.1305 164.899 81.4643C167.348 81.3859 166.531 81.1506 167.674 80.7586C170.531 79.7391 172.572 81.5427 173.715 76.9946C172.327 76.2104 169.307 75.8183 167.429 74.7205C169.47 74.7205 179.102 76.5241 175.021 72.5248C179.837 72.7601 174.776 79.6607 174.205 80.837C175.919 82.4837 177.143 83.5816 180.327 82.4837C185.143 80.7586 183.347 82.9542 187.347 81.9348C186.694 79.1902 181.47 76.7593 179.021 75.7399L180.327 74.25C182.204 72.6032 187.184 73.309 184.653 66.4867C186.286 65.0753 185.633 66.4867 186.367 64.6048C185.633 63.4285 185.469 63.2717 184.327 62.5659L181.959 60.6055L191.265 60.6839C191.755 59.6645 191.183 60.2918 191.592 59.4293C194.694 60.4487 196.979 62.3307 199.183 63.9774C201.714 65.781 204.979 66.8004 204.489 70.8781C203.673 71.5838 202.367 72.1327 201.714 72.9169C200.326 74.8773 201.795 74.4852 201.061 75.9752C197.795 75.9752 195.102 75.5046 192.734 77.073C191.755 84.9146 198.693 73.6227 204.897 81.3859C208.571 86.0909 211.999 85.4635 217.795 87.3456C217.55 84.5226 214.774 83.7384 213.142 81.778L220.897 85.3067L221.795 81.778C220.57 80.288 213.468 74.9557 213.958 73.7795C215.754 70.0155 219.999 76.5241 222.366 76.6809C224.897 76.2104 227.59 73.7011 228.325 71.6622C222.856 67.4277 220.652 68.1335 215.101 64.4479C215.183 62.8796 215.754 63.5069 215.672 62.1738C215.427 60.0566 214.856 60.4487 213.632 59.194L212.489 57.9394C211.836 57.4688 211.673 57.4688 210.693 57.2336C209.305 56.8415 208.407 56.6063 207.101 56.2926C206.122 54.489 207.509 56.5279 207.02 55.1164C201.632 53.9401 201.55 51.8229 198.367 50.8819C193.959 49.5488 190.939 53.0775 187.429 51.9797C187.265 48.6078 188.082 48.3725 185.143 46.3337C177.388 46.0985 176.409 49.3135 179.102 55.0379C176.409 54.8811 175.347 53.7833 175.592 50.8034C175.755 48.2941 177.306 47.1963 178.286 45.9416C172.245 45.628 167.429 48.2157 168.409 54.0969C170.286 55.6653 170.939 54.8027 172.654 56.6063L169.47 57.4688C171.919 59.194 175.674 59.6645 178.857 60.2134C178.204 62.1738 176.817 66.4867 175.755 67.9767C174.858 69.1529 170.858 71.6622 172.654 65.1537L171.347 64.4479ZM388.237 285.19C389.543 286.445 394.36 294.679 394.604 297.267C394.931 300.717 394.115 302.207 397.135 303.775C403.91 307.382 417.053 301.187 423.175 292.718C425.869 288.954 423.91 288.876 424.726 285.347C425.787 283.701 424.644 284.798 426.277 283.779C426.93 283.308 427.746 283.152 428.318 282.838C434.277 279.623 426.522 275.232 429.787 270.997C433.134 266.606 439.093 269.35 441.46 259.548C442.276 251.55 438.848 249.432 438.44 243.786C437.623 232.259 462.765 225.751 462.52 208.656C453.133 208.264 452.153 211.479 446.194 205.676C442.603 202.304 438.929 200.579 436.317 195.639C432.154 187.954 430.685 180.74 427.665 174.937C426.767 173.133 424.236 169.84 424.154 168.663C424.644 169.918 425.95 172.035 427.175 172.427C429.95 173.525 428.971 170.781 431.664 174.858C433.95 178.152 435.093 181.837 436.807 185.209C440.072 192.032 445.052 193.365 446.521 198.775C447.256 201.52 446.439 203.01 448.562 204.5C453.541 206.539 463.337 199.716 467.663 197.756C472.153 195.717 473.214 197.05 476.479 193.286C477.54 192.032 479.499 190.777 479.826 190.385C480.642 189.287 479.907 189.522 480.805 187.954C481.785 186.464 481.54 187.954 482.356 186.15C480.724 183.876 479.254 183.641 477.459 180.896C475.989 181.367 476.887 181.21 475.744 181.681C475.581 180.896 475.499 179.955 475.173 179.25C474.602 177.681 474.928 178.309 473.948 177.525C472.153 179.171 473.051 178.622 471.989 180.896L466.439 180.74C466.928 179.955 467.99 179.72 468.724 179.014C463.908 177.838 456.643 175.015 458.602 169.056C464.153 169.291 464.235 175.25 475.908 175.799C477.948 178.466 477.214 178.701 484.071 179.328C487.662 179.642 491.662 179.171 495.009 180.269C496.478 180.818 497.703 181.445 498.846 182.308C502.6 184.974 501.294 184.033 501.621 185.053C501.866 186.072 500.723 185.209 502.274 186.621C505.376 189.601 508.396 187.719 508.723 187.64C511.498 192.894 508.151 191.169 512.478 201.598C514.11 205.676 515.008 211.244 518.192 213.753C521.62 214.223 523.09 211.949 524.069 209.44C525.294 206.225 524.477 203.167 525.294 200.108C528.885 198.305 528.069 199.089 530.681 196.266C532.395 194.384 533.783 193.286 535.579 191.483C538.273 188.817 542.681 184.817 548.884 185.68C550.844 186.699 550.844 191.483 554.19 194.227C553.946 196.658 553.211 197.129 554.925 198.54C556.966 199.716 557.456 198.226 559.333 197.442C561.864 198.854 563.17 202.539 563.659 205.754C564.557 210.93 560.313 212.028 563.333 215.713C566.108 219.242 566.027 217.987 568.231 223.398C569.537 226.77 570.761 229.907 575.251 229.436C575.169 228.495 573.863 223.477 573.455 222.222C571.496 214.929 567.088 218.615 565.782 211.479C565.047 207.715 565.21 206.852 567.251 204.892C567.414 204.892 567.496 204.892 567.578 205.049L575.414 211.244C576.72 212.734 575.414 212.89 576.72 214.929L583.74 209.597C589.699 203.01 580.557 197.834 579.822 192.737C579.251 188.581 582.516 187.483 586.434 187.327C586.597 189.052 586.434 189.13 585.618 190.463C585.373 190.777 584.883 191.483 584.72 192.032C584.475 193.208 584.638 191.247 584.638 192.816C584.72 194.384 584.72 193.6 584.965 194.07C588.965 195.874 588.638 190.62 589.618 187.719C591.414 185.523 598.679 188.268 608.556 177.211C615.168 169.84 611.005 169.997 611.005 167.252C611.086 164.194 611.658 164.821 609.699 162.076C603.25 152.98 612.066 157.607 612.8 152.353L609.535 151.098C607.984 152.118 608.964 151.882 607.495 152.667C605.372 149.451 605.862 151.412 604.066 149.451C604.964 147.256 609.29 146.236 611.658 145.609L610.596 148.589C612.392 148.118 614.678 146.864 616.474 146.942C619.657 147.099 618.596 148.746 618.27 150.863L619.821 151.412C620.637 151.647 620.392 151.412 621.29 151.882C622.188 154.627 621.698 156.901 621.372 159.646C625.208 159.881 628.8 158.234 629.208 155.097C629.698 150.863 625.861 152.039 625.861 146.472C628.473 145.531 627.575 146.864 628.392 143.805C630.596 135.336 637.044 140.512 639.248 137.454C644.065 134.395 649.126 128.906 650.513 123.025C650.758 121.77 651.003 120.829 651.493 119.732L652.146 118.477C652.881 117.536 652.391 117.771 653.615 117.536C654.84 120.829 653.86 127.181 653.779 130.867C656.309 131.651 652.064 131.024 654.758 130.867C658.187 130.631 655.085 131.024 658.023 131.494C657.534 128.828 656.309 127.808 656.227 125.142L659.003 124.201L656.227 109.851C654.758 110.635 655.574 109.929 655.003 112.125C654.677 113.301 654.595 114.164 654.105 115.027C651.33 112.909 652.799 111.812 648.636 109.851C647.575 110.243 647.575 110.792 646.677 111.576C644.963 110.87 645.534 110.635 643.493 111.184C643.493 109.537 643.493 110.4 643.248 109.381C643.167 109.224 643.003 108.753 642.922 108.596C642.922 108.518 642.84 108.361 642.759 108.283C642.759 108.204 642.677 108.126 642.595 107.969C644.228 105.146 646.514 104.127 648.391 102.009C655.901 93.462 655.819 97.0692 665.941 95.4224C667.737 95.1872 669.125 94.403 670.594 94.1678C674.513 93.6189 673.288 94.7167 674.513 96.3634C678.186 96.9124 676.145 95.344 682.022 95.8929C680.961 92.9915 681.533 91.0311 685.533 88.5218C686.757 87.816 688.471 87.0319 690.185 87.5808C691.981 88.1297 691.9 89.7765 692.879 90.8743C697.532 89.6196 696.879 85.6204 702.022 84.8362C699.328 90.0901 696.389 93.0699 691.247 96.3634C684.798 100.441 683.573 101.147 683.492 110.478C683.655 113.145 683.982 115.968 684.961 117.85C687.818 117.614 688.716 116.438 689.859 114.634C690.349 113.693 690.92 112.674 691.41 111.89C692.553 110.165 692.226 110.478 693.532 110.165C694.104 109.459 693.777 109.851 694.838 109.381C695.573 109.067 695.165 109.537 696.144 108.91C695.573 106.401 695.573 105.773 697.042 104.911L698.756 104.205L698.675 99.8922L696.961 98.9512C697.45 97.3829 698.267 95.1088 699.246 94.1678C701.287 92.2074 703.736 93.3052 705.858 93.6189C707.654 90.9527 708.144 91.9721 711.98 92.0505C712.797 93.0699 712.389 92.9915 713.368 93.8541C714.674 91.7369 714.021 91.8937 716.144 90.2469C718.919 87.9729 729.612 83.9736 732.306 85.3067C732.714 78.6413 728.062 80.9938 726.266 78.1708C732.306 77.5435 733.776 79.0334 735 75.5047C735 75.3478 735.163 74.7989 735.245 74.7205L735.49 73.8579C739.326 76.6809 738.347 74.25 743.245 77.2298C749.693 81.0722 749.612 75.9751 749.938 75.2694L754.673 75.0341C754.999 71.8191 752.224 70.9565 749.367 70.7212C746.183 70.4076 746.673 71.1917 746.347 71.7407L746.428 72.6032C744.306 71.6622 745.285 71.6622 744.959 68.8392C735.898 65.8594 732.714 60.5271 720.633 60.135C711.327 59.8213 714.756 62.4875 714.266 63.5853C712.47 63.9774 712.062 64.2911 710.348 63.5853C711.083 61.8602 711.572 62.6443 712.225 60.7623C708.552 60.2918 703.736 63.9774 696.308 61.7033L695.491 63.5069C694.757 62.3307 692.144 58.8803 691.818 57.8609C682.022 53.9401 683.737 59.9782 673.288 55.1948C668.39 52.9991 671.819 54.489 670.349 52.3718H667.084L663.574 53.4696C663.492 53.3128 663.411 53.1559 663.329 53.0775L662.921 52.2934C661.778 49.8624 663.411 52.8423 662.595 51.4308C655.819 50.2545 654.758 49.3135 648.228 51.5876C649.044 53.7833 649.534 52.8423 650.268 55.0379L646.187 54.489L645.779 56.1358C645.779 56.0574 645.779 56.2926 645.697 56.371C642.514 54.8027 643.575 54.0969 638.187 54.2538C633.045 54.489 635.33 55.9789 632.31 57.6257C631.086 57.1552 628.473 54.9595 627.902 54.0185C626.759 52.1365 628.718 50.9603 627.331 47.902C625.045 46.961 624.31 48.1373 621.943 47.8236C619.984 47.6668 619.413 46.6474 616.637 46.3337L615.902 49.6272C607.984 50.4114 608.229 48.6862 605.78 47.1963C603.168 45.7064 598.107 47.0395 594.924 47.3531L594.189 45.7064C591.332 46.8826 591.74 46.02 591.74 46.02C593.454 44.7654 593.536 45.3143 594.107 43.5891C592.067 42.8834 591.658 43.9812 587.985 45.7848C586.271 46.569 585.21 49.3919 581.536 47.9804C585.291 46.8042 593.454 42.1776 595.169 39.3546C595.005 35.5122 592.067 34.5712 588.148 34.2576C586.271 34.1007 583.904 34.4144 582.353 33.8655L577.455 32.6108L578.761 30.3367C575.006 30.2583 572.231 30.9641 569.537 33.395C565.945 36.6101 568.149 33.6302 563.823 35.9827C561.7 37.159 561.374 37.6295 558.843 36.9237C552.395 35.277 553.619 37.7079 548.231 39.041C544.558 39.982 540.803 40.6093 538.028 42.6481C537.783 46.2553 538.518 43.0402 538.681 44.7654C538.762 45.7848 539.742 44.8438 537.946 45.8632C534.191 47.9804 528.64 44.9222 524.722 47.902C525.702 51.1171 529.293 51.0387 528.885 53.8617C525.62 53.6264 526.191 50.2545 518.355 51.4308C519.253 52.9991 519.008 51.1955 520.069 53.1559L517.131 53.2344C517.702 54.6459 519.824 55.5084 520.886 56.371C518.273 55.7437 516.886 55.8221 514.845 54.489C514.682 52.607 515.008 50.8819 514.192 49.3919C512.314 50.2545 514.029 49.7056 512.641 51.666C511.906 52.607 511.58 52.4502 510.682 53.6264C510.437 56.6847 511.008 60.9192 512.559 62.3307C514.763 62.958 519.661 60.9192 519.09 67.4277C518.273 66.5652 517.62 65.4673 516.804 64.6048C509.947 64.1343 514.518 67.5062 511.335 70.486C509.049 72.6817 506.519 72.9953 502.437 72.4464C504.56 70.1723 509.376 72.368 510.763 65.5457C509.213 62.5659 508.804 63.5069 508.07 59.1156C507.906 58.0178 507.58 55.5869 507.661 54.5674C508.151 50.4898 508.641 55.5084 508.968 51.2739C506.927 48.2157 502.192 48.5294 499.907 51.8229C496.56 56.8415 497.376 54.7243 496.805 61.3113C498.274 62.1738 498.111 62.4091 499.417 63.5069C500.968 64.7616 501.458 64.0558 501.05 66.3299C498.519 66.4867 499.335 65.1537 496.397 64.0558C493.05 62.8012 481.703 58.4098 479.907 58.4098C480.234 62.0954 485.703 62.1738 481.458 65.9378C479.01 65.3105 480.479 63.3501 475.091 65.1537C469.296 67.1141 470.438 65.781 470.112 65.4673L469.622 64.6048C469.622 64.3695 469.622 64.3695 469.54 64.2127C465.622 65.9378 462.112 66.0947 458.765 68.604C452.562 73.2306 451.909 70.3292 452.398 69.1529C452.97 67.8198 453.541 68.7608 454.112 67.4277C452.562 65.9378 450.847 65.3105 448.235 65.0753C448.562 66.0947 451.092 73.0737 448.643 73.309C448.562 73.309 448.398 73.309 448.317 73.309C446.194 73.3874 444.725 71.6622 440.317 76.0536L441.542 78.7197C440.317 78.5629 438.276 78.3276 437.215 78.014C434.766 77.1514 435.746 76.2104 433.379 77.4651C433.787 80.6017 435.338 78.4061 436.807 80.837C435.338 81.5427 433.624 81.3859 432.236 80.4449L425.134 70.7997C429.297 71.427 439.827 76.0536 442.929 71.8975C445.296 65.3889 432.807 64.0558 426.848 63.8206C425.542 62.1738 427.256 62.5659 425.216 61.3897C424.399 60.8408 422.359 60.7623 421.297 60.6839C421.216 60.5271 421.134 60.135 421.052 60.0566C420.073 58.1746 420.155 58.8019 419.42 57.9394C417.706 57.6257 417.706 57.312 416.726 58.5667L416.236 57.7825C414.93 55.9005 417.461 56.4494 414.441 56.4494C412.318 56.4494 413.951 56.1358 412.481 58.0962L410.441 56.2926C404.482 58.4883 408.237 57.3904 404.971 57.1552C404.074 57.0768 403.584 57.312 402.767 57.4688L403.421 59.8998C398.523 60.5271 401.788 59.0372 399.584 61.5465C398.359 59.8998 398.523 59.8213 396.074 59.3508C395.421 60.5271 395.911 60.4487 395.339 61.5465C393.951 64.2127 394.278 60.2134 392.809 62.8796L392.074 64.7616C389.87 63.8206 391.339 64.4479 390.115 62.8012C389.054 63.2717 389.299 63.0364 388.401 63.899C384.319 67.8198 385.38 64.9968 383.911 67.5846C385.952 67.1925 387.503 66.4083 389.87 66.2515C388.89 67.8982 387.993 67.9767 386.605 69.3882C383.748 72.368 383.34 75.0341 382.523 75.8183C381.625 76.8377 381.707 76.2104 380.646 76.9946C378.279 78.8765 380.156 77.7003 380.156 78.0924C380.156 78.2492 381.625 78.955 378.197 80.7586C376.483 81.6211 375.666 81.4643 374.524 82.4837C372.401 84.2873 376.483 81.8564 371.177 84.601C369.626 85.3067 369.463 86.0125 368.32 86.7182C367.83 88.4434 367.259 89.3844 366.687 91.2664C367.912 94.0894 365.218 89.0707 367.422 92.129C368.728 93.9325 367.34 92.5994 368.401 95.4224L369.299 97.7749C376.319 98.2454 375.095 96.9124 378.687 94.7167C380.156 95.6577 382.931 101.617 383.666 103.656C384.564 106.087 383.013 105.146 384.564 106.244C387.095 107.577 384.972 104.754 393.054 102.794C392.645 101.382 392.972 102.558 392.156 101.696C391.421 100.912 391.747 101.853 391.176 100.833C392.401 99.5001 395.339 95.6577 396.074 93.6973C394.033 92.2858 394.605 94.0894 393.707 91.6585C392.482 88.4434 392.972 85.0715 395.747 83.4247C401.461 80.0528 399.257 82.4837 401.625 77.073C403.91 72.1327 408.808 75.9751 409.053 77.4651C408.318 82.4837 397.543 83.5816 401.461 89.9333C405.38 96.5203 414.44 89.8549 419.338 92.7563C417.379 95.4224 413.134 94.403 409.543 94.7167C406.931 95.0304 402.523 96.4419 401.788 98.3239C403.339 99.4217 404.237 98.3238 406.033 97.8533C407.339 98.6375 407.91 99.0296 408.563 100.441L407.012 101.696C404.727 101.461 405.543 100.833 403.502 99.9706C400.645 101.225 400.645 104.048 400.645 107.655C398.441 107.655 398.849 107.42 397.053 107.969L395.502 108.283C389.952 108.989 390.85 110.086 388.156 109.93C385.707 109.851 384.564 108.204 382.115 109.381C380.483 110.165 382.523 110.635 379.83 110.322C377.462 110.008 378.197 109.381 378.197 108.44C381.054 106.95 382.931 109.145 383.013 104.597L379.666 105.381L378.197 100.441C373.054 100.363 374.605 106.244 374.605 110.714C371.095 112.204 369.381 113.537 364.81 114.242C365.789 117.614 363.667 116.987 360.973 118.163C358.932 119.104 359.014 120.751 357.381 122.711C354.116 123.182 355.177 122.084 352.728 122.084C353.382 123.103 353.382 123.182 353.218 124.593C350.361 124.985 349.463 124.044 346.851 125.064C347.423 127.024 347.586 125.848 349.382 127.495C351.667 129.612 355.014 134.788 353.055 137.218C351.831 138.63 348.81 138.238 346.443 138.081C344.402 137.924 342.362 137.689 340.158 137.689L337.872 137.924C337.301 139.257 337.219 148.51 337.709 150.706C338.443 153.529 338.28 151.726 339.668 153.294C345.872 155.097 343.586 155.646 348.484 153.764C351.749 152.51 353.953 150.392 356.728 149.844C355.749 141.767 359.341 144.276 362.769 141.845C364.81 140.434 363.177 140.434 364.402 138.159C369.626 137.375 367.585 140.982 372.238 137.062C375.503 134.239 377.054 136.434 378.687 138.552C382.931 144.041 389.054 144.825 389.217 149.608C387.339 150.471 385.462 150.549 382.931 150.706C384.238 156.509 393.135 150.157 392.645 147.569C392.401 146.08 393.054 147.883 392.237 146.785C390.033 143.962 392.89 148.432 391.421 146.001L395.013 146.472C394.278 143.649 391.503 142.394 388.809 141.218C385.299 139.806 387.992 140.669 385.87 138.316C384.972 137.297 383.585 136.983 382.36 135.65C383.503 130.318 386.442 135.18 393.135 139.414C396.645 141.61 398.033 143.805 399.094 147.569C400.4 151.961 398.359 146.864 398.604 150.941C399.176 151.098 400.155 151.177 400.808 151.569C402.114 152.353 402.114 155.489 407.829 150.706C409.298 149.451 408.645 150.785 408.971 148.981L407.175 149.138C407.094 149.138 406.931 149.216 406.849 149.295C406.767 149.295 406.604 149.373 406.441 149.373C405.543 148.118 404.4 147.413 404.155 145.374L406.931 145.139C407.502 144.354 406.686 144.982 407.584 144.198C408.4 143.492 408.237 143.335 409.706 143.884C412.237 144.746 413.787 152.902 414.93 155.96C416.318 155.568 414.685 156.744 416.4 154.156C421.297 156.038 419.991 154.156 423.338 154.313C425.134 154.392 424.971 155.097 426.603 155.333C428.154 155.568 427.991 154.47 428.807 153.686C433.95 155.176 433.052 158.548 430.848 162.312C428.073 167.095 426.032 166.154 424.481 165.997C421.95 165.762 422.93 165.056 422.114 166.625C416.726 168.585 404.4 163.488 398.686 162.782C398.523 170.545 397.788 166.781 388.646 166.389C386.197 163.488 387.584 164.664 383.34 163.566C374.197 161.214 380.972 159.567 377.544 155.646L379.34 153.607C375.503 152.196 374.36 153.294 370.524 154C367.177 154.627 364.238 153.372 360.891 153.843C357.79 154.235 355.749 155.96 353.055 156.744C348.729 157.999 347.178 156.117 343.423 156.587L342.77 159.724H339.831C340.158 164.272 338.77 161.528 336.484 163.253C335.505 164.037 335.423 166.703 335.096 168.115C334.199 172.976 331.831 171.722 329.138 174.78C327.178 177.211 325.709 179.955 323.587 182.308C322.117 184.033 318.934 187.17 319.26 190.542L322.934 190.699C322.607 192.973 322.852 194.776 322.444 196.972C321.219 203.48 320.566 205.127 325.546 210.067C327.423 211.871 329.709 214.067 331.831 215.87C333.056 216.89 333.954 217.36 334.933 218.615C340.892 225.829 340.647 219.869 348.729 221.203C354.688 222.222 353.055 221.124 357.3 219.477C360.32 218.301 365.871 218.144 368.075 220.183C371.911 223.712 371.503 221.987 375.585 222.928C379.911 223.947 375.422 232.965 374.769 234.376C382.36 237.356 386.931 251.628 384.646 258.607C382.605 265.116 380.074 263.861 383.829 271.781C385.87 276.016 386.931 280.564 388.237 285.19ZM313.138 74.4068C312.404 74.1716 311.424 73.7795 311.097 73.7011C308.24 73.1522 306.853 73.5442 306.2 75.5831C308.24 76.5241 307.832 74.9557 309.546 76.9946C308.077 78.0924 307.751 76.8377 305.547 77.9356C306.445 79.4255 304.975 77.6219 306.445 78.6413C310.526 81.3075 306.445 81.3859 310.771 81.6995C315.097 82.17 316.893 82.4837 320.403 80.6017C327.015 76.9946 326.199 80.2096 327.587 76.9946C326.689 75.3478 327.178 76.6809 326.199 75.5047L325.546 74.7205C325.464 74.5637 325.219 74.1716 325.138 74.0932C323.505 71.7407 318.934 75.3478 313.138 74.4068ZM259.018 4.77295C259.263 5.9492 260.487 7.20386 260.487 7.20386C260.569 7.12545 260.65 7.3607 260.732 7.43911L256.977 7.04703C257.957 9.08586 260.814 9.55636 262.365 11.2031C260.324 12.2225 253.793 8.30169 249.549 8.06644C250.447 10.1837 251.181 9.79161 252.161 11.8304C249.059 10.9679 247.998 8.92903 244.814 8.77219C245.222 10.811 245.794 11.5952 244.243 12.6146C243.263 11.5952 244.161 13.0067 243.753 11.5168C243.345 10.0269 243.998 10.2621 243.345 9.16427C241.957 6.73336 234.202 10.3405 233.468 10.7326C234.855 11.752 235.427 11.5168 236.814 12.7714C234.692 12.4578 232.162 11.2031 230.529 10.8894C228.978 10.6542 228.815 10.811 228.162 11.9089C227.019 13.8693 229.468 12.7714 226.366 14.1045C223.182 15.4376 216.489 16.3786 215.264 18.8095C215.917 19.3584 215.346 19.1232 216.489 19.3584C218.04 19.7505 218.529 19.3584 220.162 19.5153C221.142 28.4547 205.387 20.6131 204.571 28.3763C208.162 30.3367 211.917 30.0231 216.815 30.3367C215.019 33.2381 211.019 31.1993 207.999 32.5324C208.897 34.5712 208.652 33.395 210.856 34.7281C212.815 35.9043 212.244 36.7669 215.428 37.5511C217.632 36.1396 213.387 39.1194 216.162 36.7669C216.734 36.2964 216.162 36.5316 217.06 36.1396C217.876 35.7475 218.938 35.7475 219.835 35.7475C221.713 35.6691 223.917 35.9043 225.794 36.1396C231.998 37.0806 235.835 39.8251 238.447 45.7848C239.59 48.5294 239.998 49.9409 239.998 52.4502C239.998 53.7833 239.508 52.7639 240.243 54.0185C243.1 56.371 247.1 54.2538 249.141 57.9394C247.1 58.9588 246.447 56.8415 241.876 57.6257C241.712 60.4487 240.733 62.5659 244.161 62.5659C248.079 62.5659 246.773 60.2134 246.773 60.2134L246.692 59.7429C249.549 60.2918 249.385 61.8602 249.957 64.6048C248.161 65.4673 248.243 64.2911 246.528 65.9378C244.406 67.9767 247.263 66.0163 243.835 67.8982C243.1 73.1522 248.243 75.2694 248.324 75.2694C246.528 76.4456 246.937 76.5241 247.753 78.4061C249.712 79.2686 249.059 77.5435 250.12 78.4061C249.794 82.4837 250.773 85.6988 252.651 87.9729C255.018 90.7175 258.283 90.5606 260.324 92.3642L265.711 93.1484C267.344 90.8743 267.834 87.1103 267.099 84.601C268.323 83.66 268.65 83.8952 269.956 82.8758C272.323 74.4068 272.323 76.7593 275.589 74.7205C277.548 73.5442 274.772 74.6421 276.976 73.7795C278.037 74.4068 277.384 77.073 281.792 73.5442C283.343 72.2112 284.323 70.7997 286.119 69.8587C286.527 68.6824 286.527 68.7608 287.588 67.663C288.404 66.9572 288.731 66.6436 289.384 66.1731C294.69 68.5256 294.69 66.4083 299.669 64.9184C302.69 63.9774 307.261 62.958 308.567 60.5271C305.383 61.5465 301.873 60.5271 301.465 57.9394C305.71 54.5674 306.363 60.3703 310.199 58.8803C312.159 55.9789 308.159 53.2344 306.853 51.9797L310.036 52.0581C310.118 48.0589 309.057 49.3135 306.363 48.5294C308.812 46.7258 312.567 50.4114 314.118 46.4905C312.648 45.3927 312.159 45.8632 310.771 44.8438L316.893 43.5891C315.995 42.256 315.505 42.5697 314.607 40.7661C314.607 40.6877 314.771 40.5309 314.852 40.5309C314.934 40.4525 315.016 40.2956 315.097 40.2172C315.179 40.1388 315.505 39.8251 315.587 39.7467C316.158 39.1978 315.914 39.7467 316.403 38.8841C315.669 37.2374 315.505 37.2374 314.118 36.5316C312.24 35.4338 312.24 35.9827 312.24 34.1007C313.301 33.6302 314.689 33.1597 315.832 33.8655C317.22 34.7281 316.077 33.7871 316.648 35.0417L317.138 36.2964C317.138 36.218 317.22 36.5316 317.301 36.6885L317.873 32.2187L314.689 31.6698C315.914 29.7878 316.485 31.1993 316.24 29.7878C315.179 28.1411 312.648 29.9447 311.016 29.3957C309.791 25.3181 319.669 20.221 322.362 17.398C321.872 17.2412 321.628 17.2412 321.138 17.0059C320.648 16.8491 320.566 17.3196 320.322 16.6923C320.24 16.5354 320.077 16.5354 319.913 16.457C323.097 16.1433 323.26 15.7513 325.791 14.7318C328.893 13.4772 329.954 14.8887 329.627 11.5168C324.158 10.2621 317.791 12.6146 312.812 13.5556C311.587 14.6534 308.322 15.9865 306.281 16.3786C307.587 14.4182 308.893 13.9477 309.302 11.6736C307.914 10.4974 306.771 10.4189 304.73 10.3405C303.751 12.0657 302.281 13.8693 300.077 12.6146C301.302 10.811 301.547 12.3009 303.343 10.7326C297.873 8.77219 291.098 12.9283 287.996 11.6736C291.18 7.90961 305.22 8.69378 311.097 7.75278L310.689 6.73336C306.445 6.65495 303.751 5.71395 299.833 5.40028C295.914 5.08662 292.241 5.79236 288.323 5.4787C291.261 3.04779 299.343 4.61612 301.302 4.22403C302.853 3.91037 301.955 4.38087 302.934 3.43987C298.037 1.40104 292.159 1.79312 286.2 1.94996C283.915 2.10679 281.139 2.18521 278.935 2.57729C275.017 3.36145 276.976 4.92978 273.466 5.16503C271.181 5.40028 269.058 4.0672 266.038 4.0672C263.589 4.14562 261.222 4.85137 259.018 4.77295ZM343.015 100.833C343.586 103.656 343.913 100.52 343.668 103.029C343.504 104.754 343.015 103.186 343.096 105.617C347.504 107.185 344.321 105.93 347.178 108.204C348.81 109.616 349.708 109.381 349.871 112.282L346.198 113.458L347.504 114.634C346.77 115.419 346.198 115.732 345.872 117.144L350.116 117.222L345.627 120.829C345.708 120.908 345.708 121.378 347.504 120.908C348.076 120.673 348.729 120.202 349.545 119.967C352.239 119.104 353.218 119.967 355.83 119.653C358.932 119.339 360.647 116.124 359.994 113.929C359.422 112.36 359.749 113.301 359.341 113.223C357.137 112.674 359.667 115.575 356.647 111.498C354.851 109.067 351.178 105.773 351.014 104.519C350.688 102.558 352.075 102.166 352.157 100.049L348.647 99.8922C349.218 98.4023 349.79 98.2454 349.545 97.5397C348.892 96.285 347.749 97.226 347.178 97.6181C344.974 99.2649 346.851 99.1864 343.015 100.833ZM338.77 107.106L338.607 106.95L338.443 109.459C336.484 110.086 337.056 110.086 335.505 111.184C336.076 114.478 336.403 110.949 336.239 113.615C336.239 114.634 335.586 114.478 335.586 116.516L343.178 115.654L344.484 108.832C342.851 107.969 341.545 106.95 338.77 107.106ZM477.132 39.433C475.744 42.3345 476.071 39.8251 474.438 42.1776C474.193 42.4913 474.52 42.3345 473.867 43.1186C472.806 44.687 471.255 44.3733 469.785 45.9416C470.275 47.6668 470.602 45.1575 471.255 47.4315C469.867 48.1373 465.622 48.7646 464.398 54.5674L465.214 54.8027C465.377 54.8027 465.541 54.8811 465.622 54.8811L468.479 55.5084L469.051 57.9394C471.663 58.1746 473.459 58.4098 476.479 58.4098C476.071 54.5674 470.847 53.8617 474.602 48.9214C481.703 39.6683 490.356 39.1978 497.621 36.7669C498.111 36.6101 499.743 36.0611 500.152 35.8259C502.6 34.1791 500.886 33.7871 500.723 33.6302C498.846 32.1403 497.05 33.4734 495.091 34.336C490.193 36.5316 482.601 35.4338 477.132 39.433ZM585.863 227.633C585.046 231.632 586.271 234.533 589.128 236.729C590.679 237.905 597.046 239.081 599.577 239.003C600.311 237.748 601.209 236.729 601.536 234.925C602.189 231.318 603.821 231.71 605.944 230.064C604.066 226.692 604.148 229.123 603.495 223.79L606.515 220.967C604.964 219.791 603.25 218.223 602.025 217.595C600.229 218.536 599.821 219.556 598.597 220.967C597.454 222.3 596.393 222.849 595.169 223.869C591.332 227.005 591.822 227.241 585.863 227.633ZM559.17 224.574L561.619 226.378C563.578 228.26 565.7 231.789 567.006 234.22C569.455 237.199 575.169 246.139 578.353 241.591C578.924 240.807 578.924 240.179 579.414 239.317C580.475 237.513 580.23 238.768 581.128 237.199C580.312 235.082 579.822 234.847 577.21 234.769L575.741 234.925C574.353 231.005 566.925 225.202 563.333 222.849C561.129 221.438 560.966 221.751 559.251 221.124C558.354 220.81 558.598 220.967 558.354 220.575L556.394 220.183C556.966 222.771 558.109 222.771 559.17 224.574ZM667.492 312.636C668.145 312.166 668.717 311.93 669.451 311.46C670.839 310.519 670.268 310.676 671.411 310.205C672.472 307.931 673.043 307.304 673.941 304.246C674.757 301.736 675.247 300.874 676.39 298.6C678.92 293.738 679.247 290.601 677.778 284.877C674.757 278.603 675.329 281.74 673.696 278.917C669.615 271.781 672.798 280.093 668.88 273.585C667.901 271.938 666.349 271.703 665.125 270.919C662.186 269.115 662.186 265.273 660.554 261.979C659.248 259.156 658.431 260.568 657.37 258.372C656.636 256.882 656.799 255.549 655.738 253.824C651.983 255.627 654.595 263.469 651.575 266.527C647.82 266.998 644.473 263.547 641.861 262.058C641.534 258.529 642.84 258.686 643.983 256.098L639.901 255L633.861 253.589C633.371 255.078 633.698 253.981 634.269 255.627C627.167 258.137 629.29 259.94 627.902 260.724C623.984 262.136 624.8 258.999 621.208 260.332C618.759 261.273 620.31 262.371 616.637 263.861C616.8 265.586 617.29 265.351 616.392 266.527C615.249 266.135 616.474 266.527 615.576 266.057C614.678 265.508 615.494 265.665 614.433 265.351C610.841 268.174 611.494 271.624 606.188 273.114C604.393 273.585 601.617 273.977 599.821 274.604C597.209 275.624 599.087 275.075 597.617 276.408C595.903 277.976 597.291 276.878 595.413 276.486C594.189 281.113 595.087 280.015 595.25 283.622C595.413 286.916 593.944 282.132 594.679 286.602C594.76 287.151 595.822 288.954 596.148 289.503C597.209 291.385 598.026 293.346 598.842 295.541C600.066 298.835 599.658 300.168 597.862 302.442C597.944 302.599 598.107 302.52 598.189 302.677C598.189 302.834 598.434 302.913 598.515 302.913C606.188 307.696 606.188 303.226 609.127 302.442C612.474 301.579 612.719 304.324 615.739 302.285C616.637 301.658 619.004 299.541 620.31 299.07C622.106 298.521 622.678 299.697 626.433 298.364C639.412 293.424 637.779 303.305 642.759 304.089C644.554 302.677 643.738 302.364 645.207 300.717C646.187 302.05 645.779 301.658 645.126 303.461C645.207 303.461 645.452 303.461 645.452 303.618C645.697 304.167 646.84 302.677 646.677 306.755C651.411 307.931 648.636 308.715 651.166 311.538C652.472 313.028 655.656 313.812 658.023 313.734C658.595 313.499 658.268 312.636 660.064 311.852C661.615 312.871 660.472 312.166 661.125 312.871C661.86 313.656 661.125 313.028 662.105 313.969L667.492 312.636ZM453.133 284.171C459.01 282.603 455.337 279.858 457.949 273.663C458.684 272.016 458.847 272.565 460.888 271.311L461.622 266.214C462.031 261.901 462.684 258.294 458.929 256.647C457.051 264.724 453.133 261.273 449.133 265.273C448.725 268.174 449.541 269.272 449.46 271.468C449.378 272.487 443.337 284.798 453.133 284.171ZM639.738 156.43C634.596 155.725 629.29 159.175 628.31 162.782C629.779 163.566 629.453 162.782 630.596 163.723C630.024 165.448 629.29 165.997 631.33 166.938C634.677 163.488 632.392 161.528 632.392 160.508L639.085 159.097C636.391 159.41 634.596 159.802 634.514 162.704C636.881 162.782 637.289 161.528 639.33 161.135C639.983 160.508 641.208 161.057 642.677 160.822C644.636 157.215 643.493 159.018 648.064 157.92C650.84 157.215 651.003 156.274 651.738 153.294C653.37 146.707 655.248 145.923 651.656 140.434C653.289 140.434 655.493 140.982 656.88 140.59C657.534 140.434 667.166 136.199 668.309 133.062C665.533 133.768 664.309 135.18 661.125 135.336C657.452 135.415 656.636 134.003 654.105 133.376C653.126 135.65 653.779 137.218 651.983 138.787C651.248 139.414 650.595 138.787 650.268 140.982C650.024 142.708 650.758 142.786 651.656 143.727C649.697 145.923 649.044 149.295 648.146 150.471C647.575 151.333 647.82 150.941 647.248 151.177C646.35 151.647 647.248 150.706 645.779 151.961C644.799 152.98 645.452 152.902 643.901 153.215C643.656 153.294 642.595 151.804 641.534 156.509L639.738 156.43Z" fill="white" fill-opacity="0.8" shape-rendering="crispEdges"/>
</g>
<path d="M441.748 157.649C441.748 133.225 509.976 81.7228 582.452 107.474" stroke="url(#paint0_linear_22_1954)" stroke-width="1.06192"/>
<g filter="url(#filter1_d_22_1954)">
<ellipse cx="582.526" cy="107.74" rx="3.18575" ry="3.06776" fill="white" fill-opacity="0.3" shape-rendering="crispEdges"/>
<path d="M582.525 103.509C584.885 103.509 586.874 105.362 586.874 107.74C586.874 110.117 584.885 111.97 582.525 111.97C580.166 111.97 578.177 110.117 578.177 107.74C578.177 105.362 580.166 103.509 582.525 103.509Z" stroke="#428177" stroke-width="2.32525" shape-rendering="crispEdges"/>
</g>
<path d="M430.07 156.854C382.903 149.421 257.987 159.509 213.174 252.957" stroke="url(#paint1_linear_22_1954)" stroke-width="1.06192"/>
<g filter="url(#filter2_d_22_1954)">
<ellipse cx="213.174" cy="252.839" rx="3.18575" ry="3.06776" fill="white" fill-opacity="0.3" shape-rendering="crispEdges"/>
<path d="M213.174 248.608C215.533 248.608 217.522 250.461 217.522 252.838C217.522 255.216 215.534 257.069 213.174 257.069C210.814 257.069 208.825 255.216 208.825 252.838C208.825 250.461 210.814 248.608 213.174 248.608Z" stroke="#428177" stroke-width="2.32525" shape-rendering="crispEdges"/>
</g>
<path d="M440.157 153.668C436.529 104.908 310.338 -8.27496 157.422 81.1918" stroke="url(#paint2_linear_22_1954)" stroke-width="1.59287"/>
<g filter="url(#filter3_d_22_1954)">
<ellipse cx="157.229" cy="81.1921" rx="3.18575" ry="3.06776" fill="white" fill-opacity="0.3" shape-rendering="crispEdges"/>
<path d="M157.229 76.9612C159.588 76.9612 161.577 78.8146 161.577 81.1917C161.577 83.5691 159.588 85.4222 157.229 85.4222C154.869 85.4221 152.88 83.569 152.88 81.1917C152.88 78.8146 154.869 76.9613 157.229 76.9612Z" stroke="#428177" stroke-width="2.32525" shape-rendering="crispEdges"/>
</g>
<path d="M436.832 154.729C438.425 144.818 403.647 111.456 365.152 129.244" stroke="url(#paint3_linear_22_1954)" stroke-width="1.06192"/>
<g filter="url(#filter4_d_22_1954)">
<ellipse cx="364.959" cy="128.978" rx="2.65479" ry="2.55646" fill="white" fill-opacity="0.3" shape-rendering="crispEdges"/>
<path d="M364.96 125.453C366.926 125.453 368.583 126.998 368.583 128.979C368.583 130.959 366.926 132.504 364.96 132.504C362.994 132.504 361.336 130.96 361.336 128.979C361.336 126.997 362.993 125.453 364.96 125.453Z" stroke="#428177" stroke-width="1.9377" shape-rendering="crispEdges"/>
</g>
<path d="M438.299 159.508C433.609 155.349 411.573 168.242 404.849 182.869C386.828 222.07 389.185 257.735 388.654 251.895" stroke="url(#paint4_linear_22_1954)" stroke-width="1.06192"/>
<g filter="url(#filter5_d_22_1954)">
<ellipse cx="388.92" cy="252.308" rx="3.18575" ry="3.06776" fill="white" fill-opacity="0.3" shape-rendering="crispEdges"/>
<path d="M388.92 248.077C391.28 248.077 393.268 249.93 393.269 252.307C393.269 254.685 391.28 256.538 388.92 256.538C386.56 256.538 384.571 254.685 384.571 252.307C384.571 249.93 386.56 248.077 388.92 248.077Z" stroke="#428177" stroke-width="2.32525" shape-rendering="crispEdges"/>
</g>
<path d="M441.482 158.446C520.403 129.085 617.903 209.333 641.123 281.363" stroke="url(#paint5_linear_22_1954)" stroke-width="1.06192"/>
<g filter="url(#filter6_d_22_1954)">
<ellipse cx="641.127" cy="282.041" rx="3.18575" ry="3.06776" fill="white" fill-opacity="0.3" shape-rendering="crispEdges"/>
<path d="M641.127 277.81C643.487 277.81 645.475 279.664 645.476 282.041C645.476 284.418 643.487 286.271 641.127 286.271C638.767 286.271 636.778 284.418 636.778 282.041C636.779 279.664 638.767 277.811 641.127 277.81Z" stroke="#428177" stroke-width="2.32525" shape-rendering="crispEdges"/>
</g>
<g filter="url(#filter7_d_22_1954)">
<path d="M429.087 168.873L429.194 168.713L429.392 168.478L429.421 168.356L429.406 168.298L429.453 168.155L429.522 168.039L429.549 168.03L429.607 167.923L429.511 167.769L429.49 167.711L429.438 167.258L429.45 167.197L429.302 167.133V167.063L429.345 166.993L429.389 166.901L429.374 166.764L429.287 166.709L429.27 166.485L429.159 166.407L429.13 166.372L429.264 166.183L429.113 166.079L429.2 166.038L429.229 166.003L429.296 165.957L429.305 165.893L429.316 165.866L429.322 165.788L429.345 165.759L429.339 165.736L429.435 165.678L429.534 165.617L429.607 165.573L429.729 165.469L429.793 165.318L429.74 165.222L429.784 165.158L429.877 165.129H429.97L430.045 165.094L430.129 165.042L430.19 164.969L430.202 164.879L430.167 164.827L430.1 164.777L430.028 164.74L429.97 164.725L429.88 164.673L429.79 164.655L429.737 164.623L429.755 164.522L429.769 164.504L429.822 164.484L429.839 164.466L429.851 164.42L429.839 164.333L429.845 164.295L429.874 164.252L429.946 164.185L429.97 164.13L430.025 164.048L430.156 163.935L430.211 163.833L430.249 163.781L430.312 163.755L430.388 163.737L430.455 163.705L430.597 163.618L430.623 163.633L430.676 163.697L430.707 163.717H430.789L430.853 163.676L430.908 163.633L430.969 163.61L431.039 163.624L431.242 163.723L431.393 163.761L431.468 163.746L431.515 163.685L431.509 163.586L431.439 163.543L431.285 163.517L431.166 163.427L431.143 163.398L431.117 163.351L431.108 163.334L431.195 163.159L431.248 163.075L431.312 162.997L431.468 162.857L431.602 162.689L431.686 162.648L431.73 162.651L431.817 162.683L431.869 162.68L431.936 162.648L431.956 162.605L431.965 162.547L431.988 162.48L432.067 162.381L432.244 162.23L432.334 162.073L432.447 161.951L432.444 161.945L432.424 161.899L432.328 161.803L432.302 161.733L432.282 161.643L432.314 161.582L432.351 161.53L432.36 161.466L432.34 161.428L432.314 161.423L432.285 161.425L432.256 161.414L432.212 161.367L432.128 161.245L432.107 161.208L432.096 161.17L432.102 161.129L432.113 161.106L432.128 161.083L432.137 161.048L432.151 160.969L432.154 160.917L432.134 160.874L432.07 160.83L432.041 160.839L432.012 160.821L431.956 160.749L431.887 160.72L431.834 160.676L431.794 160.612L431.771 160.531L431.715 160.513L431.605 160.505L431.492 160.508L431.413 160.531L431.402 160.537H431.39H431.381L431.37 160.531L431.358 160.51L431.32 160.435L431.384 160.365L431.495 160.307L431.57 160.246L431.59 160.168L431.585 160.098L431.593 160.04L431.651 160.002L431.71 160.02L431.753 160.054L431.782 160.031L431.797 159.88L431.701 159.912L431.602 159.915L431.509 159.88L431.428 159.81L431.335 159.639L431.277 159.598L431.193 159.657L431.181 159.694L431.178 159.79L431.163 159.834L431.126 159.871L431.088 159.892L430.847 159.903L430.824 159.895L430.777 159.86L430.757 159.851L430.734 159.857L430.684 159.886L430.667 159.892L430.495 159.88L430.397 159.871L430.289 159.889L430.199 159.886L430.115 159.86L430.045 159.805L430.016 159.79L429.981 159.779L429.929 159.781L429.915 159.691L429.842 159.543L429.816 159.413L429.775 159.343L429.766 159.299V159.102L429.755 159.073L429.685 158.951L429.671 158.904L429.65 158.803L429.522 158.457L429.546 158.442L429.549 158.419L429.572 158.39L429.578 158.355L429.572 158.323L429.549 158.291V158.257L429.569 158.236V158.233L429.56 158.227L429.549 158.193L429.581 158.123L429.604 158.088L429.633 158.056L429.656 157.984L429.642 157.911L429.618 157.847L429.604 157.792V157.559L429.63 157.501L429.816 157.214L429.9 157.13L429.865 156.999L429.714 156.691L429.766 156.528L429.749 156.447L429.72 156.13L429.729 156.061L429.688 156.02L429.496 155.762L429.415 155.721L429.374 155.692L429.36 155.642L429.328 155.616L429.264 155.625L429.203 155.648L429.183 155.66L429.139 155.64L429.145 155.584L429.165 155.518L429.168 155.459L429.145 155.433L429.005 155.358L429.014 155.335L429.02 155.285L429.032 155.259H429.005L428.953 155.288V155.259L429.032 155.23L429.11 155.181L429.171 155.108L429.194 155.021L429.185 154.969L429.151 154.902L429.142 154.841L429.162 154.806L429.255 154.774L429.409 154.478L429.415 154.452V154.338L429.398 154.242L429.357 154.129L429.302 154.022L429.249 153.952L429.441 153.964L429.537 153.94L429.578 153.868L429.595 153.772L429.697 153.618L429.734 153.63L429.813 153.615L429.894 153.586L429.97 153.574L430.022 153.63V153.693L430.01 153.757L430.019 153.815L430.066 153.856L430.127 153.871L430.251 153.874L430.368 153.929L430.6 154.097L430.667 154.086L430.676 154.083L430.719 153.94L430.742 153.595L430.829 153.452L430.957 153.406L431.053 153.432L431.117 153.418L431.149 153.243H431.152L431.23 153.211L431.387 153.272L431.471 153.243L431.46 153.104L431.471 152.395L431.48 152.323L431.503 152.285L431.535 152.253L431.541 152.209L431.483 152.142L431.529 152.096L431.579 152.157L431.628 152.192L431.683 152.209L431.794 152.224L431.817 152.232H431.837L431.872 152.218L431.89 152.189L431.895 152.154L431.91 152.122L431.956 152.108L432.029 152.096L432.328 152.142H432.404L432.685 152.09L432.709 152.049L432.706 151.936L432.691 151.867L432.662 151.788L432.624 151.713V151.71L432.578 151.657L432.514 151.631L432.383 151.617L432.343 151.579L432.36 151.576L432.383 151.532L432.407 151.46L432.41 151.416L432.404 151.379L432.392 151.344L432.375 151.312L432.354 151.297L432.29 151.268L432.264 151.245L432.244 151.207L432.168 150.94L432.157 150.859L432.174 150.783L432.293 150.594L432.311 150.379L432.308 150.162L432.363 149.952L432.41 149.836L432.424 149.737L432.427 149.642L432.444 149.534L432.494 149.435L432.558 149.348L432.601 149.252L432.59 149.13L432.624 149.128L432.662 149.133L432.668 149.136L433.397 149.389L433.647 149.406L433.725 149.424L433.804 149.456L433.879 149.499L433.94 149.557L434.059 149.668L434.091 149.732L434.094 149.836L434.059 149.993L434.077 150.051L434.149 150.118L434.228 150.162L434.266 150.15L434.298 150.103L434.359 150.042L434.431 150.008L434.498 150.013L434.562 150.034L434.637 150.042L434.89 149.979L434.977 149.97L435.622 150.089L435.788 150.092L436.371 149.714L436.612 149.607L437.272 149.464L437.908 149.171L438.018 149.142L438.091 149.096L438.474 148.852L438.741 148.747L438.875 148.732L439.137 148.764L439.892 148.994L440.086 149.101L440.507 149.546L440.621 149.668L440.865 149.796L441.144 149.83L441.788 149.801L441.876 149.775L442.082 149.761L442.692 149.967L442.907 149.958L443.708 149.804L444.992 149.557L445.843 149.235L446.238 148.997L446.38 148.95L446.529 148.921L446.677 148.852L446.961 148.66L447.487 148.308L447.566 148.256L447.65 148.224L447.737 148.207L447.827 148.201L448.01 148.149L448.541 147.852L448.736 147.777L449.48 147.667L450.427 147.858L450.604 147.931L450.691 147.954L451.795 147.902L453.45 147.51L453.897 147.405L454.069 147.298L454.368 147.016L454.568 146.752L454.627 146.717L454.699 146.659L454.743 146.714L454.749 146.772L454.743 146.821L454.746 146.842L454.801 146.853L454.92 146.911L454.943 146.9L454.969 146.874L454.995 146.85L455.019 146.859L455.036 146.885L455.056 146.935L455.074 146.961L455.207 147.071L455.236 147.086L455.263 147.147L455.19 147.425L455.236 147.489L455.268 147.518L455.274 147.591L455.277 147.73L455.303 147.789L455.332 147.841L455.356 147.896V147.969L455.234 148.064L454.978 148.306V148.308L454.568 148.747L453.776 149.598L453.241 150.17L453.136 150.26L453.026 150.313L451.795 150.577L451.539 150.618L451.42 150.673L451.341 150.783L450.99 151.471L450.958 151.602L450.83 152.837V152.918L450.848 153.002L450.949 153.243L451.254 153.911L451.298 154.068L451.318 154.231L451.333 154.902L451.312 155.056L451.249 155.201L451.115 155.404L450.929 155.686V155.689L450.891 155.834L450.856 156.31L450.691 156.909L450.653 157.205L450.656 157.318L450.676 158.117L450.711 158.962L450.702 159.09L450.668 159.209L449.988 160.531L449.843 160.847L449.753 160.975L449.637 161.051L448.663 161.315L448.083 161.666L447.641 161.934L447.202 162.198L446.764 162.465L446.61 162.558L446.325 162.73L445.887 162.997L445.448 163.261L445.01 163.525L444.571 163.79L444.132 164.054L443.694 164.318L443.255 164.583L442.817 164.847L442.375 165.111L441.937 165.376L441.498 165.637L441.059 165.901L440.089 166.505L439.238 167.043L438.901 167.255L438.213 167.691L437.707 168.016L437.025 168.454L436.345 168.893L435.982 169.128L435.666 169.329L434.986 169.767L434.547 170.049L433.94 170.447L433.301 170.883L433.249 170.903L433.194 170.9L432.941 170.833L432.854 170.83L432.787 170.871L432.642 170.761L432.099 170.694L431.956 170.676L431.89 170.636L431.666 170.615L431.588 170.589L431.529 170.557L431.181 170.226L430.925 170.049L430.798 169.918L430.754 169.895L430.734 169.901L430.687 169.942L430.667 169.95L430.644 169.947L430.603 169.93L430.577 169.927L430.432 169.947H430.373L430.327 169.944L430.312 169.942V169.921L430.289 169.866L430.112 169.593L430.074 169.515L430.071 169.427L430.083 169.346L430.063 169.291L429.97 169.285L429.915 169.297L429.871 169.282L429.836 169.247L429.801 169.204L429.816 169.207L429.827 169.186L429.833 169.154L429.827 169.125L429.813 169.117H429.761L429.743 169.111L429.673 169.041L429.636 169.018L429.209 168.919L429.174 168.873V168.87L429.156 168.858L429.136 168.855L429.113 168.858L429.087 168.873Z" fill="#428177"/>
</g>
<defs>
<filter id="filter0_d_22_1954" x="0.00033164" y="2.14577e-05" width="764.218" height="368.057" filterUnits="userSpaceOnUse" color-interpolation-filters="sRGB">
<feFlood flood-opacity="0" result="BackgroundImageFix"/>
<feColorMatrix in="SourceAlpha" type="matrix" values="0 0 0 0 0 0 0 0 0 0 0 0 0 0 0 0 0 0 127 0" result="hardAlpha"/>
<feOffset dx="2.26636" dy="5.43927"/>
<feGaussianBlur stdDeviation="3.62618"/>
<feComposite in2="hardAlpha" operator="out"/>
<feColorMatrix type="matrix" values="0 0 0 0 0.455769 0 0 0 0 0.455769 0 0 0 0 0.455769 0 0 0 0.3 0"/>
<feBlend mode="normal" in2="BackgroundImageFix" result="effect1_dropShadow_22_1954"/>
<feBlend mode="normal" in="SourceGraphic" in2="effect1_dropShadow_22_1954" result="shape"/>
</filter>
<filter id="filter1_d_22_1954" x="562.132" y="88.3955" width="40.7866" height="40.5492" filterUnits="userSpaceOnUse" color-interpolation-filters="sRGB">
<feFlood flood-opacity="0" result="BackgroundImageFix"/>
<feColorMatrix in="SourceAlpha" type="matrix" values="0 0 0 0 0 0 0 0 0 0 0 0 0 0 0 0 0 0 127 0" result="hardAlpha"/>
<feMorphology radius="5.58059" operator="dilate" in="SourceAlpha" result="effect1_dropShadow_22_1954"/>
<feOffset dy="0.930098"/>
<feGaussianBlur stdDeviation="4.65049"/>
<feComposite in2="hardAlpha" operator="out"/>
<feColorMatrix type="matrix" values="0 0 0 0 0.294118 0 0 0 0 0.635294 0 0 0 0 0.643137 0 0 0 0.32 0"/>
<feBlend mode="normal" in2="BackgroundImageFix" result="effect1_dropShadow_22_1954"/>
<feBlend mode="normal" in="SourceGraphic" in2="effect1_dropShadow_22_1954" result="shape"/>
</filter>
<filter id="filter2_d_22_1954" x="192.781" y="233.494" width="40.7866" height="40.5492" filterUnits="userSpaceOnUse" color-interpolation-filters="sRGB">
<feFlood flood-opacity="0" result="BackgroundImageFix"/>
<feColorMatrix in="SourceAlpha" type="matrix" values="0 0 0 0 0 0 0 0 0 0 0 0 0 0 0 0 0 0 127 0" result="hardAlpha"/>
<feMorphology radius="5.58059" operator="dilate" in="SourceAlpha" result="effect1_dropShadow_22_1954"/>
<feOffset dy="0.930098"/>
<feGaussianBlur stdDeviation="4.65049"/>
<feComposite in2="hardAlpha" operator="out"/>
<feColorMatrix type="matrix" values="0 0 0 0 0.294118 0 0 0 0 0.635294 0 0 0 0 0.643137 0 0 0 0.32 0"/>
<feBlend mode="normal" in2="BackgroundImageFix" result="effect1_dropShadow_22_1954"/>
<feBlend mode="normal" in="SourceGraphic" in2="effect1_dropShadow_22_1954" result="shape"/>
</filter>
<filter id="filter3_d_22_1954" x="136.835" y="61.8476" width="40.7866" height="40.5492" filterUnits="userSpaceOnUse" color-interpolation-filters="sRGB">
<feFlood flood-opacity="0" result="BackgroundImageFix"/>
<feColorMatrix in="SourceAlpha" type="matrix" values="0 0 0 0 0 0 0 0 0 0 0 0 0 0 0 0 0 0 127 0" result="hardAlpha"/>
<feMorphology radius="5.58059" operator="dilate" in="SourceAlpha" result="effect1_dropShadow_22_1954"/>
<feOffset dy="0.930098"/>
<feGaussianBlur stdDeviation="4.65049"/>
<feComposite in2="hardAlpha" operator="out"/>
<feColorMatrix type="matrix" values="0 0 0 0 0.294118 0 0 0 0 0.635294 0 0 0 0 0.643137 0 0 0 0.32 0"/>
<feBlend mode="normal" in2="BackgroundImageFix" result="effect1_dropShadow_22_1954"/>
<feBlend mode="normal" in="SourceGraphic" in2="effect1_dropShadow_22_1954" result="shape"/>
</filter>
<filter id="filter4_d_22_1954" x="347.966" y="112.858" width="33.9882" height="33.791" filterUnits="userSpaceOnUse" color-interpolation-filters="sRGB">
<feFlood flood-opacity="0" result="BackgroundImageFix"/>
<feColorMatrix in="SourceAlpha" type="matrix" values="0 0 0 0 0 0 0 0 0 0 0 0 0 0 0 0 0 0 127 0" result="hardAlpha"/>
<feMorphology radius="4.65049" operator="dilate" in="SourceAlpha" result="effect1_dropShadow_22_1954"/>
<feOffset dy="0.775082"/>
<feGaussianBlur stdDeviation="3.87541"/>
<feComposite in2="hardAlpha" operator="out"/>
<feColorMatrix type="matrix" values="0 0 0 0 0.294118 0 0 0 0 0.635294 0 0 0 0 0.643137 0 0 0 0.32 0"/>
<feBlend mode="normal" in2="BackgroundImageFix" result="effect1_dropShadow_22_1954"/>
<feBlend mode="normal" in="SourceGraphic" in2="effect1_dropShadow_22_1954" result="shape"/>
</filter>
<filter id="filter5_d_22_1954" x="368.527" y="232.963" width="40.7866" height="40.5492" filterUnits="userSpaceOnUse" color-interpolation-filters="sRGB">
<feFlood flood-opacity="0" result="BackgroundImageFix"/>
<feColorMatrix in="SourceAlpha" type="matrix" values="0 0 0 0 0 0 0 0 0 0 0 0 0 0 0 0 0 0 127 0" result="hardAlpha"/>
<feMorphology radius="5.58059" operator="dilate" in="SourceAlpha" result="effect1_dropShadow_22_1954"/>
<feOffset dy="0.930098"/>
<feGaussianBlur stdDeviation="4.65049"/>
<feComposite in2="hardAlpha" operator="out"/>
<feColorMatrix type="matrix" values="0 0 0 0 0.294118 0 0 0 0 0.635294 0 0 0 0 0.643137 0 0 0 0.32 0"/>
<feBlend mode="normal" in2="BackgroundImageFix" result="effect1_dropShadow_22_1954"/>
<feBlend mode="normal" in="SourceGraphic" in2="effect1_dropShadow_22_1954" result="shape"/>
</filter>
<filter id="filter6_d_22_1954" x="620.734" y="262.697" width="40.7866" height="40.5492" filterUnits="userSpaceOnUse" color-interpolation-filters="sRGB">
<feFlood flood-opacity="0" result="BackgroundImageFix"/>
<feColorMatrix in="SourceAlpha" type="matrix" values="0 0 0 0 0 0 0 0 0 0 0 0 0 0 0 0 0 0 127 0" result="hardAlpha"/>
<feMorphology radius="5.58059" operator="dilate" in="SourceAlpha" result="effect1_dropShadow_22_1954"/>
<feOffset dy="0.930098"/>
<feGaussianBlur stdDeviation="4.65049"/>
<feComposite in2="hardAlpha" operator="out"/>
<feColorMatrix type="matrix" values="0 0 0 0 0.294118 0 0 0 0 0.635294 0 0 0 0 0.643137 0 0 0 0.32 0"/>
<feBlend mode="normal" in2="BackgroundImageFix" result="effect1_dropShadow_22_1954"/>
<feBlend mode="normal" in="SourceGraphic" in2="effect1_dropShadow_22_1954" result="shape"/>
</filter>
<filter id="filter7_d_22_1954" x="425.78" y="143.939" width="35.4678" height="33.3098" filterUnits="userSpaceOnUse" color-interpolation-filters="sRGB">
<feFlood flood-opacity="0" result="BackgroundImageFix"/>
<feColorMatrix in="SourceAlpha" type="matrix" values="0 0 0 0 0 0 0 0 0 0 0 0 0 0 0 0 0 0 127 0" result="hardAlpha"/>
<feOffset dx="1.35982" dy="1.81309"/>
<feGaussianBlur stdDeviation="2.26636"/>
<feComposite in2="hardAlpha" operator="out"/>
<feColorMatrix type="matrix" values="0 0 0 0 0.258824 0 0 0 0 0.505882 0 0 0 0 0.466667 0 0 0 1 0"/>
<feBlend mode="normal" in2="BackgroundImageFix" result="effect1_dropShadow_22_1954"/>
<feBlend mode="normal" in="SourceGraphic" in2="effect1_dropShadow_22_1954" result="shape"/>
</filter>
<linearGradient id="paint0_linear_22_1954" x1="580.063" y1="61.0154" x2="421.572" y2="173.844" gradientUnits="userSpaceOnUse">
<stop stop-color="#428177"/>
<stop offset="1" stop-color="white"/>
</linearGradient>
<linearGradient id="paint1_linear_22_1954" x1="203.617" y1="229.329" x2="429.787" y2="159.123" gradientUnits="userSpaceOnUse">
<stop stop-color="#428177"/>
<stop offset="1" stop-color="white"/>
</linearGradient>
<linearGradient id="paint2_linear_22_1954" x1="209.456" y1="15.0875" x2="460.25" y2="155.559" gradientUnits="userSpaceOnUse">
<stop stop-color="#428177"/>
<stop offset="1" stop-color="white"/>
</linearGradient>
<linearGradient id="paint3_linear_22_1954" x1="389.311" y1="117.562" x2="420.394" y2="163.058" gradientUnits="userSpaceOnUse">
<stop stop-color="#428177"/>
<stop offset="1" stop-color="white"/>
</linearGradient>
<linearGradient id="paint4_linear_22_1954" x1="370.071" y1="269.416" x2="444.948" y2="177.643" gradientUnits="userSpaceOnUse">
<stop stop-color="#428177"/>
<stop offset="1" stop-color="white"/>
</linearGradient>
<linearGradient id="paint5_linear_22_1954" x1="608.986" y1="210.944" x2="425.789" y2="208.624" gradientUnits="userSpaceOnUse">
<stop stop-color="#428177"/>
<stop offset="1" stop-color="white"/>
</linearGradient>
</defs>
</svg>
