<?xml version="1.0" encoding="UTF-8"?>
<svg id="Layer_1" data-name="Layer 1" xmlns="http://www.w3.org/2000/svg" viewBox="0 0 750 611">
  <defs>
    <style>
      .cls-1 {
        fill: #b9a779;
      }

      .cls-2 {
        fill: #fafafa;
      }
    </style>
  </defs>
  <path class="cls-1" d="M235.69,15.83c1.4-4.2,2.78-8.41,3.88-12.7,1.15,4.28,2.53,8.49,3.93,12.69,4.29.01,8.57,0,12.86-.04-3.46,2.6-7.01,5.08-10.46,7.68,1.37,3.97,2.7,7.95,3.95,11.96-3.49-2.39-6.85-4.96-10.26-7.45-3.4,2.52-6.79,5.05-10.24,7.5,1.25-4.02,2.57-8.01,3.95-11.98-3.44-2.63-7.01-5.09-10.45-7.71,4.27.04,8.56.04,12.84.05Z"/>
  <path class="cls-1" d="M1.09,3.6c3.83.02,7.67.02,11.52.02v603.76c-3.85,0-7.69,0-11.52.02-.18-92.13-.03-184.26-.08-276.39.05-109.13-.1-218.27.08-327.41Z"/>
  <path class="cls-1" d="M190,13.29c2.79,3.23,5.47,6.55,8.24,9.79,3.96-1.62,7.91-3.27,11.86-4.91-2.28,3.63-4.52,7.29-6.84,10.89,2.76,3.26,5.59,6.45,8.29,9.76-4.11-1.05-8.23-2.03-12.31-3.15-2.3,3.63-4.46,7.35-6.85,10.93-.18-4.25-.49-8.48-.76-12.72-4.15-.99-8.28-2.07-12.45-2.92,3.89-1.76,7.87-3.31,11.83-4.91-.28-4.26-.73-8.5-1.01-12.76Z"/>
  <path class="cls-1" d="M281,23.01c2.83-3.19,5.55-6.47,8.36-9.68-.32,4.23-.68,8.46-1.1,12.68,3.91,1.69,7.89,3.24,11.77,5.01-4.17.89-8.32,1.87-12.46,2.87-.32,4.23-.65,8.46-.9,12.7-2.34-3.61-4.48-7.36-6.74-11.02-4.11,1.11-8.25,2.06-12.38,3.04,2.79-3.23,5.61-6.44,8.44-9.64-2.25-3.64-4.48-7.29-6.71-10.94,3.92,1.62,7.83,3.29,11.72,4.98Z"/>
  <path class="cls-1" d="M133.99,56.46c4-4.22,9.72-6.69,15.53-6.77,5.68-.02,11.37-.03,17.06,0,4.12-.24,8.16,3.01,8.56,7.16.44,6.52-.63,13.19,1.23,19.57,3.77,15.03,18.72,26.31,34.26,25.38,3.36-.24,8.27-.09,9.6-4,2.15-7.3,4.17-14.65,6.09-22.02.96-2.88-2.29-4.77-4.7-5.09-3.9-.74-7.53,1.4-10.02,4.24-.89-3.26-2.63-7.16-.28-10.22,2.55-3.05,6.73-3.8,9.88-6.04,7.47-5.49,17.87-6.09,26.27-2.5,4.01,1.78,7.98,5.09,8.55,9.7,1.45,10.34,2.68,20.72,4.16,31.07.17,1.86,1.41,3.56,3.2,4.18,15.69,3.61,32.82-6.14,38.27-21.19,3.01-6.97,2.08-14.66,2.29-22.03-.09-4.55,4.14-8.5,8.68-8.21,6.28.04,12.57-.16,18.85.11,5.41.49,10.52,3.11,14.16,7.13,25.46,26.46,50.79,53.06,76.29,79.48-6.47-.21-12.97.36-19.4-.29-5.81-.86-9.85-5.43-13.23-9.83-6.84-8.27-13.74-16.48-20.58-24.75-.72.93-1.43,1.86-2.13,2.79,14.53,17.94,28.95,35.96,43.41,53.95-6.68-1-13.54-.41-20.14-1.9-3.67-1.11-6.93-3.47-9.08-6.64-8.02-11.55-16.07-23.07-24.06-34.64-.84.84-1.67,1.67-2.49,2.51,14.39,21.27,28.51,42.71,42.93,63.96-5.91-.98-11.88-1.5-17.78-2.5-5.12-.92-9.45-4.49-11.84-9.03-8.29-14.57-16.68-29.08-24.95-43.66-1.02.58-2.02,1.17-3.03,1.76,13.76,24.83,27.28,49.81,41.11,74.6-5.69-1.19-11.4-2.23-17.06-3.47-5.21-1.11-9.63-4.87-11.76-9.72-8.47-18.3-16.91-36.6-25.36-54.91-1.11.42-2.21.84-3.31,1.26,9.1,20.19,17.83,40.53,26.91,60.72-6.86-1.99-14.93-1.53-20.57-6.52-3.37-2.77-4.89-6.98-6.24-10.99-4.74-13.16-9.39-26.35-14.24-39.48-.84.23-2.53.69-3.37.92,6.01,16.8,11.49,33.78,17.39,50.62-3.49-.8-7.04-1.33-10.51-2.22-5.94-1.46-10.76-6.44-12.2-12.37-2.91-11.11-5.89-22.21-8.76-33.33-.83.24-2.5.71-3.33.95,3.51,14,6.87,28.03,10.36,42.04-4.25-1.01-8.84-1.31-12.59-3.75-4.06-2.5-6.89-6.81-7.67-11.49-1.28-7.03-2.38-14.1-3.64-21.13-2.11,4.98-4.35,9.9-6.37,14.92-1.08,2.12.34,4.27,1.48,6.02,6.03,8.98,11.97,18.01,17.95,27.02,1.67,2.31,1.25,5.3,1.56,7.98,4.07,4.19,8.23,8.29,12.34,12.43,9.67-.01,19.35-.01,29.02,0-.01,4.3-.04,8.61.05,12.92-2.16-2.11-4.28-4.24-6.38-6.4-2.22-.02-4.44-.05-6.65-.06,2.19,2.16,4.36,4.34,6.57,6.49-2.46,2.46-4.89,4.95-7.35,7.4,0-2.46.03-4.92.05-7.37-2.18-2.16-4.33-4.33-6.5-6.49-1.98,0-3.97,0-5.94-.01-2.23,2.19-4.44,4.39-6.66,6.59.02,1.92.04,3.84.07,5.77-2.57-2.66-5.17-5.29-7.8-7.88,2.24-2.09,4.45-4.22,6.66-6.34-3.89-3.76-7.67-7.61-11.49-11.43-2.24.05-4.75,1.01-6.7-.49-7.76-5.11-15.45-10.31-23.17-15.47,14.97,20.32,29.94,40.64,45.05,60.86-6.48-.43-13.42,1.16-19.51-1.76-3.71-1.81-6.62-5.05-8.28-8.8-3.3-7.1-6.58-14.2-9.87-21.3-.7.34-2.09,1.02-2.78,1.36,5.58,13.62,10.83,27.37,16.37,41-4.35-.07-8.99.6-13.01-1.47-4.93-2.24-8.58-6.97-9.53-12.3-1.5-8.09-2.99-16.19-4.37-24.3-.72.15-2.15.45-2.87.6,1.22,8.5,2.19,17.03,3.34,25.54.54,3.97.88,8.2-.81,11.96-1.84,4.66-6.17,7.52-9.6,10.92-5.03-4.45-11.04-9.45-10.84-16.85.67-10.63,2.63-21.15,3.75-31.74-.71-.04-2.14-.11-2.85-.15-1.39,8.04-2.87,16.05-4.35,24.07-.99,5.57-5.01,10.43-10.23,12.56-3.87,1.72-8.21,1.06-12.3,1.18,5.55-13.63,10.77-27.4,16.36-41.02-.69-.34-2.09-1.01-2.78-1.35-3.43,7.38-6.81,14.78-10.28,22.14-2.17,4.57-6.47,8.09-11.41,9.21-5.26.99-10.64.24-15.95.51,15.04-20.21,30.03-40.46,44.94-60.75-7.74,5.06-15.35,10.33-23.1,15.38-1.99,1.47-4.51.5-6.74.47-3.79,3.83-7.58,7.68-11.47,11.42,2.25,2.08,4.45,4.22,6.66,6.34-2.65,2.62-5.28,5.27-7.82,8,.01-1.96.07-3.91.1-5.86-2.2-2.19-4.34-4.44-6.54-6.64-2.01.03-4,.04-6,.07-2.21,3-7.03,4.93-6.56,9.2,0,1.54.02,3.08.05,4.62-2.48-2.45-4.91-4.94-7.32-7.45,2.26-2.11,4.46-4.27,6.67-6.44-2.27,0-4.53.03-6.79.06-2.1,2.16-4.23,4.29-6.39,6.38.07-4.3.05-8.59.04-12.89,9.67-.05,19.35-.02,29.03,0,3.99-4.14,8.28-8,12.1-12.29.97-2.59.04-5.77,1.85-8.11,6.09-9.22,12.23-18.42,18.34-27.62.97-1.51,2.05-3.37,1.19-5.18-2.01-5.14-4.31-10.16-6.51-15.21-1.15,7.03-2.35,14.06-3.58,21.08-.79,4.48-3.34,8.69-7.15,11.23-3.83,2.76-8.69,3.04-13.14,4.08,3.54-13.97,6.8-28.01,10.4-41.97-1.12-.35-2.24-.69-3.35-1.02-2.86,11.12-5.86,22.21-8.76,33.32-1.47,5.92-6.28,10.96-12.24,12.4-3.48.87-7.04,1.41-10.52,2.24,5.97-16.83,11.41-33.85,17.44-50.66-.85-.22-2.54-.67-3.39-.9-4.55,12.42-8.96,24.89-13.47,37.33-1.65,4.44-2.82,9.38-6.49,12.67-5.57,5.53-14.04,4.93-21.1,7,9.12-20.19,17.83-40.55,26.92-60.76-1.11-.41-2.21-.82-3.31-1.23-8.33,18.17-16.78,36.28-25.12,54.44-1.99,4.69-5.99,8.57-10.96,9.89-5.97,1.49-12.06,2.47-18.08,3.76,13.83-24.81,27.35-49.78,41.14-74.61-1.04-.58-2.06-1.16-3.08-1.74-8.12,14.38-16.42,28.67-24.58,43.03-2.42,4.78-6.83,8.69-12.2,9.66-5.89.98-11.86,1.54-17.76,2.48,14.42-21.24,28.49-42.7,42.93-63.92-.84-.85-1.68-1.7-2.51-2.54-8.51,12.11-16.74,24.43-25.45,36.39-6.98,8.01-18.51,5.12-27.81,6.77,14.46-17.97,28.87-35.99,43.39-53.92-.7-.95-1.41-1.9-2.1-2.84-7.91,9.55-15.83,19.09-23.79,28.59-2.99,3.64-7.45,6.08-12.19,6.27-5.75.13-11.51-.03-17.26.05,25.66-26.57,51.13-53.32,76.73-79.95Z"/>
  <g id="_002723ff" data-name="#002723ff">
    <path class="cls-2" d="M249.93,321.2c1.32-1.29,2.64-2.58,3.97-3.87,1.28,1.28,2.58,2.56,3.88,3.84-1.29,1.34-2.58,2.68-3.86,4.02-1.34-1.33-2.67-2.66-3.99-3.99Z"/>
    <path class="cls-2" d="M157.21,322.84c4.45-.04,8.9-.04,13.35.02-1.15,1.37-2.3,2.74-3.46,4.1.07,12.86.08,25.73-.02,38.6,14.29.06,28.58-.09,42.87.07-2.77-2.64-5.4-5.73-6.01-9.64-1.76-7.92,3.93-16.53,11.94-17.9,5.41-.79,10.9-.22,16.34-.38-.13,5.77.25,11.55-.17,17.31-.33,4.3-3.11,7.79-6.13,10.62,6.7-.2,13.4.05,20.09-.1,2.46.17,4.79-1.96,4.68-4.46.17-7.79,0-15.58.04-23.37,3.32,0,6.63,0,9.95.04-1.16,1.39-2.33,2.78-3.5,4.17.28,5.87-.25,11.78.24,17.65,1.71,3.58,5.63,6.02,9.6,5.99,2.93.1,5.86,0,8.79-.02-.1-12.88-.09-25.75,0-38.62-1.16-1.36-2.31-2.71-3.44-4.07,4.45-.05,8.9-.05,13.35,0-1.15,1.38-2.31,2.76-3.47,4.12.1,11.69.01,23.39.02,35.08-.39,2.66,2.04,4.35,3.35,6.33-6.88-.06-13.77.16-20.64-.08-3.22-.02-6.09-1.57-8.75-3.2-2.05,1.78-4.41,3.54-7.29,3.27-30.55.04-61.1,0-91.65.02,1.35-1.94,3.74-3.64,3.33-6.31,0-11.73-.08-23.46.03-35.18-1.15-1.35-2.31-2.7-3.44-4.06M212.18,346.2c-4.46,6.31-1.25,16,5.97,18.59,4.04-.79,6.87-4.73,7.32-8.68.52-5.21.12-10.45.28-15.67-5.11-.39-10.78,1.12-13.57,5.76Z"/>
    <path class="cls-2" d="M290.56,322.86c4.44-.06,8.89-.06,13.33,0-1.14,1.34-2.29,2.68-3.44,4.02.03,12.46.08,24.91-.03,37.37,1.17,1.36,2.34,2.72,3.52,4.09-4.47.09-8.93.09-13.4,0,1.17-1.42,2.36-2.82,3.55-4.22-.03-12.36.01-24.71-.02-37.06-1.19-1.39-2.36-2.79-3.51-4.19Z"/>
    <path class="cls-2" d="M376.68,322.85c4.44-.05,8.88-.05,13.33,0-1.15,1.33-2.3,2.67-3.45,4,.02,12.48.07,24.96-.02,37.44,1.18,1.34,2.36,2.69,3.55,4.04-4.49.09-8.97.09-13.46,0,1.17-1.41,2.37-2.79,3.56-4.18-.06-12.38-.01-24.76-.03-37.13-1.17-1.39-2.34-2.77-3.48-4.17Z"/>
    <path class="cls-2" d="M81.2,324c1.63,1.56,3.25,3.14,4.85,4.73-1.57,1.56-3.14,3.12-4.71,4.69-1.56-1.47-3.15-2.9-4.51-4.55,1.25-1.8,2.85-3.31,4.37-4.87Z"/>
    <path class="cls-2" d="M211.27,328.76c1.56-1.63,3.14-3.24,4.72-4.85,1.59,1.61,3.17,3.23,4.72,4.89-1.57,1.54-3.13,3.08-4.71,4.62-1.58-1.56-3.15-3.11-4.73-4.66Z"/>
    <path class="cls-2" d="M221.51,328.8c1.48-1.65,3.01-3.26,4.54-4.87,1.64,1.6,3.27,3.22,4.89,4.85-1.6,1.54-3.2,3.09-4.81,4.63-1.55-1.54-3.09-3.07-4.62-4.61Z"/>
    <path class="cls-2" d="M332.04,328.79c1.6-1.64,3.22-3.26,4.86-4.87,1.53,1.61,3.07,3.21,4.57,4.85-1.54,1.55-3.08,3.09-4.62,4.64-1.61-1.54-3.21-3.08-4.81-4.62Z"/>
    <path class="cls-2" d="M342.28,328.79c1.52-1.66,3.08-3.28,4.66-4.89,1.6,1.62,3.19,3.24,4.78,4.88-1.6,1.54-3.19,3.1-4.78,4.65-1.56-1.55-3.12-3.09-4.66-4.64Z"/>
    <path class="cls-2" d="M66.47,328.8c1.54-1.62,3.09-3.22,4.65-4.82,1.6,1.58,3.2,3.18,4.77,4.81-1.59,1.54-3.17,3.09-4.77,4.62-1.55-1.54-3.1-3.08-4.65-4.61Z"/>
    <path class="cls-2" d="M131.5,328.74c1.54-1.61,3.09-3.2,4.64-4.78,1.65,1.58,3.28,3.19,4.91,4.81-1.62,1.55-3.23,3.1-4.85,4.64-1.56-1.56-3.13-3.12-4.7-4.67Z"/>
    <path class="cls-2" d="M244.25,328.77c1.55-1.62,3.12-3.23,4.7-4.83,1.54,1.59,3.07,3.2,4.57,4.83-1.52,1.54-3.05,3.07-4.57,4.61-1.57-1.54-3.14-3.08-4.7-4.61Z"/>
    <path class="cls-2" d="M254.42,328.85c1.5-1.66,3.04-3.29,4.59-4.91,1.59,1.6,3.19,3.22,4.77,4.85-1.61,1.54-3.2,3.09-4.8,4.63-1.53-1.52-3.05-3.05-4.56-4.57Z"/>
    <path class="cls-2" d="M398.49,328.81c1.52-1.62,3.06-3.22,4.61-4.81,1.62,1.57,3.23,3.17,4.84,4.78-1.61,1.54-3.21,3.08-4.82,4.61-1.55-1.53-3.09-3.06-4.63-4.58Z"/>
    <path class="cls-2" d="M64.32,339.44c7.51-2.96,15.81-1.33,23.68-1.68-1.17,1.38-2.34,2.75-3.52,4.12.15,6.38-.13,12.77.09,19.14-.11,2.81,2.66,4.87,5.33,4.55,17.33,0,34.66-.02,51.99,0-.06-8.47-.06-16.94.01-25.4-4.13.02-8.73-.22-12.11,2.58-4.18,3.03-5.33,9.37-2.19,13.55,2.44,4.04,7.4,4.72,11.53,5.99-7.76,2.58-18.71-1.38-20.05-10.23-1.29-6.86,4.6-12.92,11.1-13.84,7.17-1.03,14.45-.32,21.67-.47-1.2,1.39-2.4,2.78-3.6,4.17.11,8.82,0,17.65.06,26.47-20.76-.04-41.53.06-62.3-.04-4.05.22-7.96-3.12-7.86-7.27-.17-7.01.03-14.02-.05-21.02-3.77.13-7.9.47-10.77,3.24-4.97,4.02-6.06,12.15-1.64,16.98,2.41,3.09,6.61,3.36,9.72,5.42-6.96.29-14.99-2.27-18.11-9.02-3.19-6.45.44-14.68,7.02-17.24Z"/>
    <path class="cls-2" d="M324.14,346.28c2.34-4.88,7.45-8.22,12.86-8.47,5.54-.27,11.1-.05,16.65-.06-1.16,1.39-2.33,2.78-3.5,4.17.15,8.87.03,17.75.08,26.62-2.33-.16-4.65-.28-6.95-.65-5.62,1.29-12.08.26-16.24-3.99-4.56-4.49-5.86-11.91-2.9-17.62M332.92,344c-4.91,4.46-5.19,12.91-.46,17.61,2.76,3.27,7.16,4.13,11.25,4.06-.03-8.43-.05-16.86.01-25.29-3.85.06-8.01.7-10.8,3.62Z"/>
    <path class="cls-2" d="M361.74,337.71h9.9c-1.33,1.94-3.78,3.61-3.38,6.27-.04,8.31.11,16.63,0,24.95-.05,4.67-1.58,9.89-5.84,12.39-3.04,2-6.79,1.76-10.23,1.5-.09-.53-.26-1.6-.35-2.14,5.27.49,9.68-3.72,9.76-8.94.36-11.33.05-22.69.14-34.03Z"/>
    <path class="cls-2" d="M399.84,337.72c3.3-.01,6.61-.01,9.93,0-1.29,1.95-3.75,3.58-3.39,6.22-.07,8.7.12,17.41-.03,26.11-.11,4.67-2.23,9.74-6.69,11.77-2.87,1.53-6.2,1.24-9.3.99-.11-.52-.33-1.58-.44-2.11,2.28-.37,4.95-.24,6.71-2.02,2.69-2.41,3.29-6.25,3.23-9.68-.03-10.43-.02-20.86-.02-31.28Z"/>
    <path class="cls-2" d="M415.01,355.98c.12-8.71,7.25-16.62,15.82-17.9,5.18-.72,10.44-.28,15.65-.33-1.14,1.39-2.3,2.76-3.45,4.14.09,8.71.1,17.42.04,26.14.08,5.42-2.95,10.75-7.77,13.3-3.76,2.16-8.25,1.83-12.39,1.35-.14-.79-.27-1.56-.39-2.34,3.68-.12,7.73-.51,10.49-3.26,2.86-2.45,3.28-6.39,4.06-9.83-6.21,2.21-12.94.71-19.39,1.15-1.44-4-2.88-8.12-2.67-12.42M422.45,348.61c-2.55,5.52-.35,11.59,1.51,16.96,4.2-.01,8.4,0,12.6-.03-.05-8.52.02-17.04-.04-25.56-5.8.12-11.71,3.12-14.07,8.63Z"/>
    <path class="cls-2" d="M208.56,415.24c5.18-3.41,11.74-2.42,17.44-1.11.05,2.47.09,4.94.13,7.42-2.89-3.43-6.89-7.34-11.82-5.65-4.73,1.18-5.82,7.49-2.82,10.92,4.43,5.3,11.47,7.75,15.53,13.44,4.25,5.72,2.31,15.1-4.31,18.15-6.31,2.89-13.76,1.5-19.83-1.37-.02-4.06-.14-8.11.07-12.16,1.91,3.48,2.84,7.77,6.17,10.28,3.57,2.9,9.53,2.94,12.55-.78,2.79-3.44,1.94-8.71-1.07-11.74-4.48-4.56-10.97-6.92-14.56-12.4-3.18-4.63-2.4-11.88,2.52-15Z"/>
    <path class="cls-2" d="M379.77,413.79c8.36-2.48,18.11.2,23.7,6.99,7.84,9.22,6.96,24.34-1.64,32.79-5.57,5.69-14.26,7.81-21.89,5.7-7.96-1.92-14.29-8.73-15.97-16.69-2.83-11.73,3.77-25.53,15.8-28.79M381.59,416.43c-7.4,2.81-10.77,11.2-11.01,18.62-.4,7.65,2.03,16.49,9.05,20.58,5.72,3.45,13.53,1.42,17.41-3.85,6.64-9.09,6.42-23.02-.92-31.65-3.56-3.93-9.51-5.71-14.53-3.7Z"/>
    <path class="cls-2" d="M471.67,416.48c8.32-5.17,18.66-3.83,27.7-1.64.01,2.76.02,5.52.04,8.29-2.49-2.56-4.99-5.4-8.5-6.52-6.09-2.24-13.55-.76-17.82,4.27-7.82,9.06-7.21,24.53,1.84,32.56,4.45,3.88,11.05,5.01,16.52,2.76,3.57-1.38,6.21-4.25,8.93-6.81-.01,2.53-.02,5.07-.04,7.62-8.41,3.33-18.27,4.49-26.7.61-7.57-3.37-12.92-11.22-13.05-19.53-.64-8.52,3.75-17.2,11.08-21.61Z"/>
    <path class="cls-2" d="M57.41,413.67c2.54,0,5.07,0,7.61,0,5.78,11.04,11.69,22.01,17.4,33.09,5.78-11.01,11.57-22.03,17.3-33.07,2.68-.02,5.36-.02,8.04-.01-1.15,1.37-2.31,2.74-3.47,4.11.18,11.77-.03,23.55.07,35.32-.24,2.56,1.9,4.32,3.17,6.27-4.35-.05-8.7-.05-13.06.02,1.29-1.98,3.52-3.73,3.33-6.32.07-9.78,0-19.55-.01-29.32-5.82,10.69-11.18,21.64-17.29,32.18-5.77-10.45-11.26-21.04-16.93-31.53-.07,9.57-.09,19.15-.03,28.72-.21,2.55,1.96,4.28,3.2,6.25-3.16-.03-6.32-.03-9.48-.01v-.5c1-1.3,2.06-2.55,3.11-3.81,0-10.68.02-21.36.02-32.04.26-3.43-1.46-6.44-2.98-9.36Z"/>
    <path class="cls-2" d="M113.87,413.69c4.41-.03,8.81-.02,13.22,0-1.32,1.92-3.79,3.56-3.39,6.2.02,11.09.02,22.18,0,33.27-.38,2.63,2.06,4.27,3.39,6.19-4.43,0-8.87.03-13.3-.03,1.13-1.4,2.29-2.77,3.44-4.14-.13-11.74-.04-23.48-.04-35.22.41-2.65-2.01-4.32-3.32-6.27Z"/>
    <path class="cls-2" d="M131.81,413.72c3.12-.05,6.25-.05,9.37-.05,10.44,11.85,20.78,23.78,31.25,35.6-.07-10.48-.04-20.95-.02-31.42-1.18-1.38-2.37-2.76-3.54-4.14,3.39-.05,6.79-.05,10.18,0-1.19,1.39-2.39,2.78-3.59,4.17.09,14.01.11,28.02,0,42.03-1.63-.65-3.27-1.36-4.37-2.78-10.07-11.35-20.17-22.68-30.21-34.06.06,10.73.07,21.46,0,32.19,1.18,1.35,2.36,2.7,3.54,4.06-3.41.05-6.82.05-10.23,0,1.17-1.37,2.34-2.72,3.51-4.08-.22-11.76.17-23.52-.17-35.27-1.28-2.51-3.84-4.16-5.71-6.25Z"/>
    <path class="cls-2" d="M184.61,413.67c4.46,0,8.92-.02,13.38.04-1.19,1.39-2.38,2.78-3.57,4.16.1,12.43.09,24.85,0,37.28,1.18,1.38,2.37,2.77,3.54,4.18-4.45.05-8.89.02-13.34.04,1.36-1.97,3.76-3.69,3.33-6.37-.02-11.01-.03-22.03.01-33.04.43-2.67-2-4.36-3.36-6.29Z"/>
    <path class="cls-2" d="M231.54,413.69c13.17-.03,26.34-.02,39.51,0-.04,3-.02,6.01-.1,9.01-1.83-2.03-3.51-4.18-5.19-6.32-3.79-.01-7.58-.01-11.36.01.1,12.92.09,25.83,0,38.75,1.19,1.39,2.37,2.78,3.55,4.19-4.45.05-8.9.02-13.35.04,1.35-1.95,3.73-3.65,3.33-6.31,0-12.23-.07-24.45.03-36.68-3.74-.01-7.47-.01-11.21,0-1.67,2.12-3.33,4.26-5.12,6.3-.07-3-.06-6-.09-8.99Z"/>
    <path class="cls-2" d="M276.2,413.74c6.01,0,12.04-.28,18.05.07,5.93.27,11.58,5,11.86,11.12.71,5.29-2.51,10.06-6.69,12.95,5.1,7.33,8.09,16.78,16.3,21.38-4.13.89-8.97.72-11.9-2.77-4.37-5.11-6.97-11.43-10.62-17.03-2.44-.07-4.88-.31-7.25-.92.27,5.55.14,11.1.13,16.66,1.19,1.37,2.37,2.73,3.55,4.12-4.47.06-8.95.06-13.42-.02,1.17-1.39,2.35-2.76,3.53-4.14-.08-12.45-.07-24.9,0-37.35-1.18-1.36-2.36-2.71-3.53-4.07M286.1,416.21c.01,6.87,0,13.74.01,20.61,3.05-.16,6.36.58,9.21-.75,5.65-3.7,6.13-12.94,1.4-17.56-2.83-2.74-7.02-2.21-10.62-2.3Z"/>
    <path class="cls-2" d="M309.01,413.72c5.15-.07,10.3-.07,15.45,0-1.19,1.32-2.37,2.64-3.56,3.97,3.68,5.46,7.21,11.03,10.84,16.52,3.72-5.44,7.19-11.05,10.91-16.49-1.18-1.34-2.37-2.67-3.54-4,3.72-.06,7.45-.07,11.17,0-3.1,2.66-5.84,5.72-7.87,9.27-2.8,4.74-6.42,9.02-8.82,13.97-.33,5.35-.07,10.73-.15,16.09-.41,2.66,2,4.35,3.32,6.32-4.42-.01-8.85-.02-13.27-.01,1.12-1.44,2.47-2.73,3.34-4.35.32-5.01.09-10.05.13-15.07.22-2.87-2.12-4.94-3.47-7.23-4.71-6.41-8.18-13.9-14.48-18.99Z"/>
    <path class="cls-2" d="M412.92,413.71c9.74-.07,19.49-.03,29.24-.02-.03,2.99,0,5.98-.03,8.97-1.82-2.02-3.51-4.14-5.19-6.27-4.71-.02-9.41-.01-14.11-.02.02,5.77.03,11.53-.02,17.3,4.62.03,9.25.04,13.87-.01,1.45-1.23,2.91-2.44,4.39-3.62-.03,3.3-.04,6.61-.07,9.93-1.58-1.12-2.86-2.75-4.68-3.45-4.49-.34-9-.04-13.5-.12.03,6.25.05,12.49,0,18.74,1.17,1.38,2.35,2.76,3.52,4.15-4.48.1-8.97.09-13.45.03,1.16-1.38,2.35-2.75,3.53-4.11-.02-12.48-.04-24.96.02-37.43-1.18-1.36-2.36-2.72-3.52-4.07Z"/>
    <path class="cls-2" d="M505.14,413.72c4.49-.07,8.99-.07,13.49-.01-1.2,1.37-2.4,2.74-3.6,4.11.14,8.72-.15,17.45.12,26.16.04,4.63,2.71,9.32,7.24,10.84,5.06,1.71,11.38,1.67,15.58-2.03,2.8-2.39,4.04-6.14,4.04-9.74.13-8.4-.09-16.8.09-25.19-1.2-1.39-2.4-2.77-3.57-4.16,3.38-.04,6.76-.04,10.14,0-1.17,1.38-2.34,2.76-3.51,4.14,0,8.71.1,17.43-.03,26.14-.01,5.14-2.58,10.24-6.89,13.09-4.82,3.29-11.06,3.53-16.61,2.36-4.56-.88-8.91-3.56-11.08-7.76-1.96-3.57-1.96-7.74-1.95-11.69.05-7.42-.03-14.84.07-22.26-1.18-1.33-2.36-2.67-3.53-4Z"/>
    <path class="cls-2" d="M554.11,413.72c4.5-.07,9-.07,13.51-.01-1.18,1.37-2.36,2.74-3.53,4.12.06,12.9.02,25.79.02,38.69,5.14.03,10.29.01,15.45.04,2.09-3.1,4.13-6.25,6.52-9.14.08,3.97.01,7.95.07,11.93-10.68-.01-21.36.05-32.04-.03,1.2-1.4,2.42-2.78,3.64-4.16-.07-12.47-.08-24.94,0-37.4-1.21-1.35-2.43-2.7-3.64-4.04Z"/>
    <path class="cls-2" d="M583.44,413.69c13.18-.02,26.36-.03,39.54,0-.04,3-.03,5.99-.11,8.99-1.8-2.03-3.46-4.17-5.12-6.3-3.78-.01-7.56-.01-11.34.01.13,12.23.03,24.47.04,36.7-.38,2.64,2.02,4.31,3.32,6.27-4.46,0-8.92.02-13.37-.05,1.19-1.41,2.41-2.81,3.62-4.21-.12-12.91-.08-25.81-.01-38.71-3.79-.02-7.57-.02-11.34-.02-1.68,2.12-3.34,4.26-5.13,6.3-.07-3-.06-5.99-.1-8.98Z"/>
    <path class="cls-2" d="M627.79,413.66c4.42.01,8.84.01,13.27.02-1.36,1.94-3.88,3.59-3.47,6.29.04,7.7-.04,15.4.05,23.1-.04,4.02,1.43,8.33,4.96,10.57,7.16,4.55,19.46,2.46,21.48-6.84,1.18-9.6.17-19.37.55-29.03-1.21-1.36-2.43-2.72-3.63-4.07,3.4-.04,6.8-.04,10.21.02-1.17,1.34-2.33,2.69-3.49,4.04.07,8.42.07,16.85.04,25.27.04,5.04-1.99,10.23-6.04,13.36-4.34,3.48-10.27,4.2-15.62,3.38-4.85-.62-9.86-2.83-12.48-7.14-2.22-3.42-2.53-7.61-2.56-11.57-.02-7.05.05-14.1.04-21.14.44-2.66-1.97-4.34-3.31-6.26Z"/>
    <path class="cls-2" d="M676.69,413.69c6.2.08,12.42-.26,18.62.15,5.83.47,11.08,5.29,11.4,11.25.56,5.21-2.63,9.9-6.75,12.76,5.05,7.36,8.11,16.75,16.29,21.37-4.03.89-8.72.75-11.65-2.57-4.6-5.09-7.22-11.59-10.89-17.32-1.8,0-3.6.01-5.38.03-.43-.34-1.3-1.01-1.73-1.35.28,5.61-.14,11.24.21,16.85.65,1.74,2.2,2.98,3.27,4.48-4.47.02-8.94.04-13.4-.01,1.16-1.42,2.36-2.81,3.56-4.2-.08-12.44-.1-24.88.01-37.31-1.2-1.38-2.39-2.75-3.56-4.13M686.68,416.08c.03,6.92.02,13.84.02,20.76,3.52-.23,7.8.89,10.58-1.9,4.4-4.58,4.37-13.18-.88-17.11-2.78-2.09-6.46-1.56-9.72-1.75Z"/>
    <path class="cls-2" d="M719.42,413.71c9.79-.07,19.58-.03,29.37-.03-.03,3.02-.03,6.03-.11,9.05-1.81-2.04-3.5-4.18-5.16-6.34-4.7-.02-9.39-.02-14.08,0,.07,5.75.09,11.51-.02,17.27,4.55-.06,9.12.3,13.65-.13,1.71-.94,3.06-2.4,4.57-3.62.02,3.38.02,6.76.02,10.14-1.58-1.16-2.89-2.76-4.71-3.51-4.49-.39-9.01-.05-13.51-.12.08,6.7.08,13.41,0,20.12,5.11,0,10.22-.01,15.34.03,1.78-2.65,3.57-5.3,5.57-7.79.06,3.52.05,7.05.06,10.57-10.34-.02-20.67.05-31-.03,1.18-1.41,2.4-2.8,3.61-4.2-.09-12.42-.12-24.85.01-37.27-1.2-1.38-2.42-2.77-3.61-4.14Z"/>
  </g>
</svg>