<?xml version="1.0" encoding="UTF-8" ?>
<!DOCTYPE svg PUBLIC "-//W3C//DTD SVG 1.1//EN" "http://www.w3.org/Graphics/SVG/1.1/DTD/svg11.dtd">
<svg width="750pt" height="611pt" viewBox="0 0 750 611" version="1.1" xmlns="http://www.w3.org/2000/svg">
<g id="#b9a779ff">
<path fill="#b9a779" opacity="1.00" d=" M 507.13 15.83 C 508.53 11.63 509.91 7.42 511.01 3.13 C 512.16 7.41 513.54 11.62 514.94 15.82 C 519.23 15.83 523.51 15.82 527.80 15.78 C 524.34 18.38 520.79 20.86 517.34 23.46 C 518.71 27.43 520.04 31.41 521.29 35.42 C 517.80 33.03 514.44 30.46 511.03 27.97 C 507.63 30.49 504.24 33.02 500.79 35.47 C 502.04 31.45 503.36 27.46 504.74 23.49 C 501.30 20.86 497.73 18.40 494.29 15.78 C 498.56 15.82 502.85 15.82 507.13 15.83 Z" />
<path fill="#b9a779" opacity="1.00" d=" M 738.48 3.60 C 742.31 3.62 746.15 3.62 750.00 3.62 L 750.00 607.38 C 746.15 607.38 742.31 607.38 738.48 607.40 C 738.30 515.27 738.45 423.14 738.40 331.01 C 738.45 221.88 738.30 112.74 738.48 3.60 Z" />
<path fill="#b9a779" opacity="1.00" d=" M 461.44 13.29 C 464.23 16.52 466.91 19.84 469.68 23.08 C 473.64 21.46 477.59 19.81 481.54 18.17 C 479.26 21.80 477.02 25.46 474.70 29.06 C 477.46 32.32 480.29 35.51 482.99 38.82 C 478.88 37.77 474.76 36.79 470.68 35.67 C 468.38 39.30 466.22 43.02 463.83 46.60 C 463.65 42.35 463.34 38.12 463.07 33.88 C 458.92 32.89 454.79 31.81 450.62 30.96 C 454.51 29.20 458.49 27.65 462.45 26.05 C 462.17 21.79 461.72 17.55 461.44 13.29 Z" />
<path fill="#b9a779" opacity="1.00" d=" M 552.44 23.01 C 555.27 19.82 557.99 16.54 560.80 13.33 C 560.48 17.56 560.12 21.79 559.70 26.01 C 563.61 27.70 567.59 29.25 571.47 31.02 C 567.30 31.91 563.15 32.89 559.01 33.89 C 558.69 38.12 558.36 42.35 558.11 46.59 C 555.77 42.98 553.63 39.23 551.37 35.57 C 547.26 36.68 543.12 37.63 538.99 38.61 C 541.78 35.38 544.60 32.17 547.43 28.97 C 545.18 25.33 542.95 21.68 540.72 18.03 C 544.64 19.65 548.55 21.32 552.44 23.01 Z" />
<path fill="#b9a779" opacity="1.00" d=" M 405.43 56.46 C 409.43 52.24 415.15 49.77 420.96 49.69 C 426.64 49.67 432.33 49.66 438.02 49.69 C 442.14 49.45 446.18 52.70 446.58 56.85 C 447.02 63.37 445.95 70.04 447.81 76.42 C 451.58 91.45 466.53 102.73 482.07 101.80 C 485.43 101.56 490.34 101.71 491.67 97.80 C 493.82 90.50 495.84 83.15 497.76 75.78 C 498.72 72.90 495.47 71.01 493.06 70.69 C 489.16 69.95 485.53 72.09 483.04 74.93 C 482.15 71.67 480.41 67.77 482.76 64.71 C 485.31 61.66 489.49 60.91 492.64 58.67 C 500.11 53.18 510.51 52.58 518.91 56.17 C 522.92 57.95 526.89 61.26 527.46 65.87 C 528.91 76.21 530.14 86.59 531.62 96.94 C 531.79 98.80 533.03 100.50 534.82 101.12 C 550.51 104.73 567.64 94.98 573.09 79.93 C 576.10 72.96 575.17 65.27 575.38 57.90 C 575.29 53.35 579.52 49.40 584.06 49.69 C 590.34 49.73 596.63 49.53 602.91 49.80 C 608.32 50.29 613.43 52.91 617.07 56.93 C 642.53 83.39 667.86 109.99 693.36 136.41 C 686.89 136.20 680.39 136.77 673.96 136.12 C 668.15 135.26 664.11 130.69 660.73 126.29 C 653.89 118.02 646.99 109.81 640.15 101.54 C 639.43 102.47 638.72 103.40 638.02 104.33 C 652.55 122.27 666.97 140.29 681.43 158.28 C 674.75 157.28 667.89 157.87 661.29 156.38 C 657.62 155.27 654.36 152.91 652.21 149.74 C 644.19 138.19 636.14 126.67 628.15 115.10 C 627.31 115.94 626.48 116.77 625.66 117.61 C 640.05 138.88 654.17 160.32 668.59 181.57 C 662.68 180.59 656.71 180.07 650.81 179.07 C 645.69 178.15 641.36 174.58 638.97 170.04 C 630.68 155.47 622.29 140.96 614.02 126.38 C 613.00 126.96 612.00 127.55 610.99 128.14 C 624.75 152.97 638.27 177.95 652.10 202.74 C 646.41 201.55 640.70 200.51 635.04 199.27 C 629.83 198.16 625.41 194.40 623.28 189.55 C 614.81 171.25 606.37 152.95 597.92 134.64 C 596.81 135.06 595.71 135.48 594.61 135.90 C 603.71 156.09 612.44 176.43 621.52 196.62 C 614.66 194.63 606.59 195.09 600.95 190.10 C 597.58 187.33 596.06 183.12 594.71 179.11 C 589.97 165.95 585.32 152.76 580.47 139.63 C 579.63 139.86 577.94 140.32 577.10 140.55 C 583.11 157.35 588.59 174.33 594.49 191.17 C 591.00 190.37 587.45 189.84 583.98 188.95 C 578.04 187.49 573.22 182.51 571.78 176.58 C 568.87 165.47 565.89 154.37 563.02 143.25 C 562.19 143.49 560.52 143.96 559.69 144.20 C 563.20 158.20 566.56 172.23 570.05 186.24 C 565.80 185.23 561.21 184.93 557.46 182.49 C 553.40 179.99 550.57 175.68 549.79 171.00 C 548.51 163.97 547.41 156.90 546.15 149.87 C 544.04 154.85 541.80 159.77 539.78 164.79 C 538.70 166.91 540.12 169.06 541.26 170.81 C 547.29 179.79 553.23 188.82 559.21 197.83 C 560.88 200.14 560.46 203.13 560.77 205.81 C 564.84 210.00 569.00 214.10 573.11 218.24 C 582.78 218.23 592.46 218.23 602.13 218.25 C 602.12 222.55 602.09 226.86 602.18 231.17 C 600.02 229.06 597.90 226.93 595.80 224.77 C 593.58 224.75 591.36 224.72 589.15 224.71 C 591.34 226.87 593.51 229.05 595.72 231.20 C 593.26 233.66 590.83 236.15 588.37 238.60 C 588.37 236.14 588.40 233.68 588.42 231.23 C 586.24 229.07 584.09 226.90 581.92 224.74 C 579.94 224.74 577.95 224.74 575.98 224.73 C 573.75 226.92 571.54 229.12 569.32 231.32 C 569.34 233.24 569.36 235.16 569.39 237.09 C 566.82 234.43 564.22 231.80 561.59 229.21 C 563.83 227.12 566.04 224.99 568.25 222.87 C 564.36 219.11 560.58 215.26 556.76 211.44 C 554.52 211.49 552.01 212.45 550.06 210.95 C 542.30 205.84 534.61 200.64 526.89 195.48 C 541.86 215.80 556.83 236.12 571.94 256.34 C 565.46 255.91 558.52 257.50 552.43 254.58 C 548.72 252.77 545.81 249.53 544.15 245.78 C 540.85 238.68 537.57 231.58 534.28 224.48 C 533.58 224.82 532.19 225.50 531.50 225.84 C 537.08 239.46 542.33 253.21 547.87 266.84 C 543.52 266.77 538.88 267.44 534.86 265.37 C 529.93 263.13 526.28 258.40 525.33 253.07 C 523.83 244.98 522.34 236.88 520.96 228.77 C 520.24 228.92 518.81 229.22 518.09 229.37 C 519.31 237.87 520.28 246.40 521.43 254.91 C 521.97 258.88 522.31 263.11 520.62 266.87 C 518.78 271.53 514.45 274.39 511.02 277.79 C 505.99 273.34 499.98 268.34 500.18 260.94 C 500.85 250.31 502.81 239.79 503.93 229.20 C 503.22 229.16 501.79 229.09 501.08 229.05 C 499.69 237.09 498.21 245.10 496.73 253.12 C 495.74 258.69 491.72 263.55 486.50 265.68 C 482.63 267.40 478.29 266.74 474.20 266.86 C 479.75 253.23 484.97 239.46 490.56 225.84 C 489.87 225.50 488.47 224.83 487.78 224.49 C 484.35 231.87 480.97 239.27 477.50 246.63 C 475.33 251.20 471.03 254.72 466.09 255.84 C 460.83 256.83 455.45 256.08 450.14 256.35 C 465.18 236.14 480.17 215.89 495.08 195.60 C 487.34 200.66 479.73 205.93 471.98 210.98 C 469.99 212.45 467.47 211.48 465.24 211.45 C 461.45 215.28 457.66 219.13 453.77 222.87 C 456.02 224.95 458.22 227.09 460.43 229.21 C 457.78 231.83 455.15 234.48 452.61 237.21 C 452.62 235.25 452.68 233.30 452.71 231.35 C 450.51 229.16 448.37 226.91 446.17 224.71 C 444.16 224.74 442.17 224.75 440.17 224.78 C 437.96 227.78 433.14 229.71 433.61 233.98 C 433.61 235.52 433.63 237.06 433.66 238.60 C 431.18 236.15 428.75 233.66 426.34 231.15 C 428.60 229.04 430.80 226.88 433.01 224.71 C 430.74 224.72 428.48 224.74 426.22 224.77 C 424.12 226.93 421.99 229.06 419.83 231.15 C 419.90 226.85 419.88 222.56 419.87 218.26 C 429.54 218.21 439.22 218.24 448.90 218.25 C 452.89 214.11 457.18 210.25 461.00 205.96 C 461.97 203.37 461.04 200.19 462.85 197.85 C 468.94 188.63 475.08 179.43 481.19 170.23 C 482.16 168.72 483.24 166.86 482.38 165.05 C 480.37 159.91 478.07 154.89 475.87 149.84 C 474.72 156.87 473.52 163.90 472.29 170.92 C 471.50 175.40 468.95 179.61 465.14 182.15 C 461.31 184.91 456.45 185.19 452.00 186.23 C 455.54 172.26 458.80 158.22 462.40 144.26 C 461.28 143.91 460.16 143.57 459.05 143.24 C 456.19 154.36 453.19 165.45 450.29 176.56 C 448.82 182.48 444.01 187.52 438.05 188.96 C 434.57 189.83 431.01 190.37 427.53 191.20 C 433.50 174.37 438.94 157.35 444.97 140.54 C 444.12 140.32 442.43 139.87 441.58 139.64 C 437.03 152.06 432.62 164.53 428.11 176.97 C 426.46 181.41 425.29 186.35 421.62 189.64 C 416.05 195.17 407.58 194.57 400.52 196.64 C 409.64 176.45 418.35 156.09 427.44 135.88 C 426.33 135.47 425.23 135.06 424.13 134.65 C 415.80 152.82 407.35 170.93 399.01 189.09 C 397.02 193.78 393.02 197.66 388.05 198.98 C 382.08 200.47 375.99 201.45 369.97 202.74 C 383.80 177.93 397.32 152.96 411.11 128.13 C 410.07 127.55 409.05 126.97 408.03 126.39 C 399.91 140.77 391.61 155.06 383.45 169.42 C 381.03 174.20 376.62 178.11 371.25 179.08 C 365.36 180.06 359.39 180.62 353.49 181.56 C 367.91 160.32 381.98 138.86 396.42 117.64 C 395.58 116.79 394.74 115.94 393.91 115.10 C 385.40 127.21 377.17 139.53 368.46 151.49 C 361.48 159.50 349.95 156.61 340.65 158.26 C 355.11 140.29 369.52 122.27 384.04 104.34 C 383.34 103.39 382.63 102.44 381.94 101.50 C 374.03 111.05 366.11 120.59 358.15 130.09 C 355.16 133.73 350.70 136.17 345.96 136.36 C 340.21 136.49 334.45 136.33 328.70 136.41 C 354.36 109.84 379.83 83.09 405.43 56.46 Z" />
</g>
<g id="#002723ff">
<path fill="#002723" opacity="1.00" d=" M 499.98 321.20 C 501.30 319.91 502.62 318.62 503.95 317.33 C 505.23 318.61 506.53 319.89 507.83 321.17 C 506.54 322.51 505.25 323.85 503.97 325.19 C 502.63 323.86 501.30 322.53 499.98 321.20 Z" />
<path fill="#002723" opacity="1.00" d=" M 407.26 322.84 C 411.71 322.80 416.16 322.80 420.61 322.86 C 419.46 324.23 418.31 325.60 417.15 326.96 C 417.22 339.82 417.23 352.69 417.13 365.56 C 431.42 365.62 445.71 365.47 460.00 365.63 C 457.23 362.99 454.60 359.90 453.99 355.99 C 452.23 348.07 457.92 339.46 465.93 338.09 C 471.34 337.30 476.83 337.87 482.27 337.71 C 482.14 343.48 482.52 349.26 482.10 355.02 C 481.77 359.32 478.99 362.81 475.97 365.64 C 482.67 365.44 489.37 365.69 496.06 365.54 C 498.52 365.71 500.85 363.58 500.74 361.08 C 500.91 353.29 500.73 345.50 500.78 337.71 C 504.10 337.71 507.41 337.70 510.73 337.75 C 509.57 339.14 508.40 340.53 507.23 341.92 C 507.51 347.79 506.98 353.70 507.47 359.57 C 509.18 363.15 513.10 365.59 517.07 365.56 C 520.00 365.66 522.93 365.56 525.86 365.54 C 525.76 352.66 525.77 339.79 525.86 326.92 C 524.70 325.56 523.55 324.21 522.42 322.85 C 526.87 322.80 531.32 322.80 535.77 322.85 C 534.62 324.23 533.46 325.61 532.30 326.97 C 532.40 338.66 532.31 350.36 532.32 362.05 C 531.93 364.71 534.36 366.40 535.67 368.38 C 528.79 368.32 521.90 368.54 515.03 368.30 C 511.81 368.28 508.94 366.73 506.28 365.10 C 504.23 366.88 501.87 368.64 498.99 368.37 C 468.44 368.41 437.89 368.37 407.34 368.39 C 408.69 366.45 411.08 364.75 410.67 362.08 C 410.68 350.35 410.59 338.62 410.70 326.90 C 409.55 325.55 408.39 324.20 407.26 322.84 M 462.23 346.20 C 457.77 352.51 460.98 362.20 468.20 364.79 C 472.24 364.00 475.07 360.06 475.52 356.11 C 476.04 350.90 475.64 345.66 475.80 340.44 C 470.69 340.05 465.02 341.56 462.23 346.20 Z" />
<path fill="#002723" opacity="1.00" d=" M 540.61 322.86 C 545.05 322.80 549.50 322.80 553.94 322.85 C 552.80 324.19 551.65 325.53 550.50 326.87 C 550.53 339.33 550.58 351.78 550.47 364.24 C 551.64 365.60 552.81 366.96 553.99 368.33 C 549.52 368.42 545.06 368.42 540.59 368.33 C 541.76 366.91 542.95 365.51 544.14 364.11 C 544.11 351.75 544.15 339.40 544.12 327.05 C 542.93 325.66 541.76 324.26 540.61 322.86 Z" />
<path fill="#002723" opacity="1.00" d=" M 626.73 322.85 C 631.17 322.80 635.61 322.80 640.06 322.85 C 638.91 324.18 637.76 325.52 636.61 326.85 C 636.63 339.33 636.68 351.81 636.59 364.29 C 637.77 365.63 638.95 366.98 640.14 368.33 C 635.65 368.42 631.17 368.42 626.68 368.33 C 627.85 366.92 629.05 365.54 630.24 364.15 C 630.18 351.77 630.23 339.39 630.21 327.02 C 629.04 325.63 627.87 324.25 626.73 322.85 Z" />
<path fill="#002723" opacity="1.00" d=" M 331.25 324.00 C 332.88 325.56 334.50 327.14 336.10 328.73 C 334.53 330.29 332.96 331.85 331.39 333.42 C 329.83 331.95 328.24 330.52 326.88 328.87 C 328.13 327.07 329.73 325.56 331.25 324.00 Z" />
<path fill="#002723" opacity="1.00" d=" M 461.32 328.76 C 462.88 327.13 464.46 325.52 466.04 323.91 C 467.63 325.52 469.21 327.14 470.76 328.80 C 469.19 330.34 467.63 331.88 466.05 333.42 C 464.47 331.86 462.90 330.31 461.32 328.76 Z" />
<path fill="#002723" opacity="1.00" d=" M 471.56 328.80 C 473.04 327.15 474.57 325.54 476.10 323.93 C 477.74 325.53 479.37 327.15 480.99 328.78 C 479.39 330.32 477.79 331.87 476.18 333.41 C 474.63 331.87 473.09 330.34 471.56 328.80 Z" />
<path fill="#002723" opacity="1.00" d=" M 582.09 328.79 C 583.69 327.15 585.31 325.53 586.95 323.92 C 588.48 325.53 590.02 327.13 591.52 328.77 C 589.98 330.32 588.44 331.86 586.90 333.41 C 585.29 331.87 583.69 330.33 582.09 328.79 Z" />
<path fill="#002723" opacity="1.00" d=" M 592.33 328.79 C 593.85 327.13 595.41 325.51 596.99 323.90 C 598.59 325.52 600.18 327.14 601.77 328.78 C 600.17 330.32 598.58 331.88 596.99 333.43 C 595.43 331.88 593.87 330.34 592.33 328.79 Z" />
<path fill="#002723" opacity="1.00" d=" M 316.52 328.80 C 318.06 327.18 319.61 325.58 321.17 323.98 C 322.77 325.56 324.37 327.16 325.94 328.79 C 324.35 330.33 322.77 331.88 321.17 333.41 C 319.62 331.87 318.07 330.33 316.52 328.80 Z" />
<path fill="#002723" opacity="1.00" d=" M 381.55 328.74 C 383.09 327.13 384.64 325.54 386.19 323.96 C 387.84 325.54 389.47 327.15 391.10 328.77 C 389.48 330.32 387.87 331.87 386.25 333.41 C 384.69 331.85 383.12 330.29 381.55 328.74 Z" />
<path fill="#002723" opacity="1.00" d=" M 494.30 328.77 C 495.85 327.15 497.42 325.54 499.00 323.94 C 500.54 325.53 502.07 327.14 503.57 328.77 C 502.05 330.31 500.52 331.84 499.00 333.38 C 497.43 331.84 495.86 330.30 494.30 328.77 Z" />
<path fill="#002723" opacity="1.00" d=" M 504.47 328.85 C 505.97 327.19 507.51 325.56 509.06 323.94 C 510.65 325.54 512.25 327.16 513.83 328.79 C 512.22 330.33 510.63 331.88 509.03 333.42 C 507.50 331.90 505.98 330.37 504.47 328.85 Z" />
<path fill="#002723" opacity="1.00" d=" M 648.54 328.81 C 650.06 327.19 651.60 325.59 653.15 324.00 C 654.77 325.57 656.38 327.17 657.99 328.78 C 656.38 330.32 654.78 331.86 653.17 333.39 C 651.62 331.86 650.08 330.33 648.54 328.81 Z" />
<path fill="#002723" opacity="1.00" d=" M 314.37 339.44 C 321.88 336.48 330.18 338.11 338.05 337.76 C 336.88 339.14 335.71 340.51 334.53 341.88 C 334.68 348.26 334.40 354.65 334.62 361.02 C 334.51 363.83 337.28 365.89 339.95 365.57 C 357.28 365.58 374.61 365.55 391.94 365.57 C 391.88 357.10 391.88 348.63 391.95 340.17 C 387.82 340.19 383.22 339.95 379.84 342.75 C 375.66 345.78 374.51 352.12 377.65 356.30 C 380.09 360.34 385.05 361.02 389.18 362.29 C 381.42 364.87 370.47 360.91 369.13 352.06 C 367.84 345.20 373.73 339.14 380.23 338.22 C 387.40 337.19 394.68 337.90 401.90 337.75 C 400.70 339.14 399.50 340.53 398.30 341.92 C 398.41 350.74 398.30 359.57 398.36 368.39 C 377.60 368.35 356.83 368.45 336.06 368.35 C 332.01 368.57 328.10 365.23 328.20 361.08 C 328.03 354.07 328.23 347.06 328.15 340.06 C 324.38 340.19 320.25 340.53 317.38 343.30 C 312.41 347.32 311.32 355.45 315.74 360.28 C 318.15 363.37 322.35 363.64 325.46 365.70 C 318.50 365.99 310.47 363.43 307.35 356.68 C 304.16 350.23 307.79 342.00 314.37 339.44 Z" />
<path fill="#002723" opacity="1.00" d=" M 574.19 346.28 C 576.53 341.40 581.64 338.06 587.05 337.81 C 592.59 337.54 598.15 337.76 603.70 337.75 C 602.54 339.14 601.37 340.53 600.20 341.92 C 600.35 350.79 600.23 359.67 600.28 368.54 C 597.95 368.38 595.63 368.26 593.33 367.89 C 587.71 369.18 581.25 368.15 577.09 363.90 C 572.53 359.41 571.23 351.99 574.19 346.28 M 582.97 344.00 C 578.06 348.46 577.78 356.91 582.51 361.61 C 585.27 364.88 589.67 365.74 593.76 365.67 C 593.73 357.24 593.71 348.81 593.77 340.38 C 589.92 340.44 585.76 341.08 582.97 344.00 Z" />
<path fill="#002723" opacity="1.00" d=" M 611.79 337.71 C 615.09 337.71 618.39 337.71 621.69 337.71 C 620.36 339.65 617.91 341.32 618.31 343.98 C 618.27 352.29 618.42 360.61 618.31 368.93 C 618.26 373.60 616.73 378.82 612.47 381.32 C 609.43 383.32 605.68 383.08 602.24 382.82 C 602.15 382.29 601.98 381.22 601.89 380.68 C 607.16 381.17 611.57 376.96 611.65 371.74 C 612.01 360.41 611.70 349.05 611.79 337.71 Z" />
<path fill="#002723" opacity="1.00" d=" M 649.89 337.72 C 653.19 337.71 656.50 337.71 659.82 337.72 C 658.53 339.67 656.07 341.30 656.43 343.94 C 656.36 352.64 656.55 361.35 656.40 370.05 C 656.29 374.72 654.17 379.79 649.71 381.82 C 646.84 383.35 643.51 383.06 640.41 382.81 C 640.30 382.29 640.08 381.23 639.97 380.70 C 642.25 380.33 644.92 380.46 646.68 378.68 C 649.37 376.27 649.97 372.43 649.91 369.00 C 649.88 358.57 649.89 348.14 649.89 337.72 Z" />
<path fill="#002723" opacity="1.00" d=" M 665.06 355.98 C 665.18 347.27 672.31 339.36 680.88 338.08 C 686.06 337.36 691.32 337.80 696.53 337.75 C 695.39 339.14 694.23 340.51 693.08 341.89 C 693.17 350.60 693.18 359.31 693.12 368.03 C 693.20 373.45 690.17 378.78 685.35 381.33 C 681.59 383.49 677.10 383.16 672.96 382.68 C 672.82 381.89 672.69 381.12 672.57 380.34 C 676.25 380.22 680.30 379.83 683.06 377.08 C 685.92 374.63 686.34 370.69 687.12 367.25 C 680.91 369.46 674.18 367.96 667.73 368.40 C 666.29 364.40 664.85 360.28 665.06 355.98 M 672.50 348.61 C 669.95 354.13 672.15 360.20 674.01 365.57 C 678.21 365.56 682.41 365.57 686.61 365.54 C 686.56 357.02 686.63 348.50 686.57 339.98 C 680.77 340.10 674.86 343.10 672.50 348.61 Z" />
<path fill="#002723" opacity="1.00" d=" M 151.30 415.24 C 156.48 411.83 163.04 412.82 168.74 414.13 C 168.79 416.60 168.83 419.07 168.87 421.55 C 165.98 418.12 161.98 414.21 157.05 415.90 C 152.32 417.08 151.23 423.39 154.23 426.82 C 158.66 432.12 165.70 434.57 169.76 440.26 C 174.01 445.98 172.07 455.36 165.45 458.41 C 159.14 461.30 151.69 459.91 145.62 457.04 C 145.60 452.98 145.48 448.93 145.69 444.88 C 147.60 448.36 148.53 452.65 151.86 455.16 C 155.43 458.06 161.39 458.10 164.41 454.38 C 167.20 450.94 166.35 445.67 163.34 442.64 C 158.86 438.08 152.37 435.72 148.78 430.24 C 145.60 425.61 146.38 418.36 151.30 415.24 Z" />
<path fill="#002723" opacity="1.00" d=" M 322.51 413.79 C 330.87 411.31 340.62 413.99 346.21 420.78 C 354.05 430.00 353.17 445.12 344.57 453.57 C 339.00 459.26 330.31 461.38 322.68 459.27 C 314.72 457.35 308.39 450.54 306.71 442.58 C 303.88 430.85 310.48 417.05 322.51 413.79 M 324.33 416.43 C 316.93 419.24 313.56 427.63 313.32 435.05 C 312.92 442.70 315.35 451.54 322.37 455.63 C 328.09 459.08 335.90 457.05 339.78 451.78 C 346.42 442.69 346.20 428.76 338.86 420.13 C 335.30 416.20 329.35 414.42 324.33 416.43 Z" />
<path fill="#002723" opacity="1.00" d=" M 414.41 416.48 C 422.73 411.31 433.07 412.65 442.11 414.84 C 442.12 417.60 442.13 420.36 442.15 423.13 C 439.66 420.57 437.16 417.73 433.65 416.61 C 427.56 414.37 420.10 415.85 415.83 420.88 C 408.01 429.94 408.62 445.41 417.67 453.44 C 422.12 457.32 428.72 458.45 434.19 456.20 C 437.76 454.82 440.40 451.95 443.12 449.39 C 443.11 451.92 443.10 454.46 443.08 457.01 C 434.67 460.34 424.81 461.50 416.38 457.62 C 408.81 454.25 403.46 446.40 403.33 438.09 C 402.69 429.57 407.08 420.89 414.41 416.48 Z" />
<path fill="#002723" opacity="1.00" d=" M 0.15 413.67 C 2.69 413.67 5.22 413.67 7.76 413.68 C 13.54 424.72 19.45 435.69 25.16 446.77 C 30.94 435.76 36.73 424.74 42.46 413.70 C 45.14 413.68 47.82 413.68 50.50 413.69 C 49.35 415.06 48.19 416.43 47.03 417.80 C 47.21 429.57 47.00 441.35 47.10 453.12 C 46.86 455.68 49.00 457.44 50.27 459.39 C 45.92 459.34 41.57 459.34 37.21 459.41 C 38.50 457.43 40.73 455.68 40.54 453.09 C 40.61 443.31 40.54 433.54 40.53 423.77 C 34.71 434.46 29.35 445.41 23.24 455.95 C 17.47 445.50 11.98 434.91 6.31 424.42 C 6.24 433.99 6.22 443.57 6.28 453.14 C 6.07 455.69 8.24 457.42 9.48 459.39 C 6.32 459.36 3.16 459.36 0.00 459.38 L 0.00 458.88 C 1.00 457.58 2.06 456.33 3.11 455.07 C 3.10 444.39 3.13 433.71 3.13 423.03 C 3.39 419.60 1.67 416.59 0.15 413.67 Z" />
<path fill="#002723" opacity="1.00" d=" M 56.61 413.69 C 61.02 413.66 65.42 413.67 69.83 413.69 C 68.51 415.61 66.04 417.25 66.44 419.89 C 66.46 430.98 66.46 442.07 66.44 453.16 C 66.06 455.79 68.50 457.43 69.83 459.35 C 65.40 459.36 60.96 459.38 56.53 459.32 C 57.66 457.92 58.82 456.55 59.97 455.18 C 59.84 443.44 59.93 431.70 59.93 419.96 C 60.34 417.31 57.92 415.64 56.61 413.69 Z" />
<path fill="#002723" opacity="1.00" d=" M 74.55 413.72 C 77.67 413.67 80.80 413.67 83.92 413.67 C 94.36 425.52 104.70 437.45 115.17 449.27 C 115.10 438.79 115.13 428.32 115.15 417.85 C 113.97 416.47 112.78 415.09 111.61 413.71 C 115.00 413.66 118.40 413.66 121.79 413.71 C 120.60 415.10 119.40 416.49 118.20 417.88 C 118.29 431.89 118.31 445.90 118.19 459.91 C 116.56 459.26 114.92 458.55 113.82 457.13 C 103.75 445.78 93.65 434.45 83.61 423.07 C 83.67 433.80 83.68 444.53 83.61 455.26 C 84.79 456.61 85.97 457.96 87.15 459.32 C 83.74 459.37 80.33 459.37 76.92 459.32 C 78.09 457.95 79.26 456.60 80.43 455.24 C 80.21 443.48 80.60 431.72 80.26 419.97 C 78.98 417.46 76.42 415.81 74.55 413.72 Z" />
<path fill="#002723" opacity="1.00" d=" M 127.35 413.67 C 131.81 413.67 136.27 413.65 140.73 413.71 C 139.54 415.10 138.35 416.49 137.16 417.87 C 137.26 430.30 137.25 442.72 137.17 455.15 C 138.35 456.53 139.54 457.92 140.71 459.33 C 136.26 459.38 131.82 459.35 127.37 459.37 C 128.73 457.40 131.13 455.68 130.70 453.00 C 130.68 441.99 130.67 430.97 130.71 419.96 C 131.14 417.29 128.71 415.60 127.35 413.67 Z" />
<path fill="#002723" opacity="1.00" d=" M 174.28 413.69 C 187.45 413.66 200.62 413.67 213.79 413.69 C 213.75 416.69 213.77 419.70 213.69 422.70 C 211.86 420.67 210.18 418.52 208.50 416.38 C 204.71 416.37 200.92 416.37 197.14 416.39 C 197.24 429.31 197.23 442.22 197.14 455.14 C 198.33 456.53 199.51 457.92 200.69 459.33 C 196.24 459.38 191.79 459.35 187.34 459.37 C 188.69 457.42 191.07 455.72 190.67 453.06 C 190.68 440.83 190.60 428.61 190.70 416.38 C 186.96 416.37 183.23 416.37 179.49 416.38 C 177.82 418.50 176.16 420.64 174.37 422.68 C 174.30 419.68 174.31 416.68 174.28 413.69 Z" />
<path fill="#002723" opacity="1.00" d=" M 218.94 413.74 C 224.95 413.73 230.98 413.46 236.99 413.81 C 242.92 414.08 248.57 418.81 248.85 424.93 C 249.56 430.22 246.34 434.99 242.16 437.88 C 247.26 445.21 250.25 454.66 258.46 459.26 C 254.33 460.15 249.49 459.98 246.56 456.49 C 242.19 451.38 239.59 445.06 235.94 439.46 C 233.50 439.39 231.06 439.15 228.69 438.54 C 228.96 444.09 228.83 449.64 228.82 455.20 C 230.01 456.57 231.19 457.93 232.37 459.32 C 227.90 459.38 223.42 459.38 218.95 459.30 C 220.12 457.91 221.30 456.54 222.48 455.16 C 222.40 442.71 222.41 430.26 222.47 417.81 C 221.29 416.45 220.11 415.10 218.94 413.74 M 228.84 416.21 C 228.85 423.08 228.84 429.95 228.85 436.82 C 231.90 436.66 235.21 437.40 238.06 436.07 C 243.71 432.37 244.19 423.13 239.46 418.51 C 236.63 415.77 232.44 416.30 228.84 416.21 Z" />
<path fill="#002723" opacity="1.00" d=" M 251.75 413.72 C 256.90 413.65 262.05 413.65 267.20 413.72 C 266.01 415.04 264.83 416.36 263.64 417.69 C 267.32 423.15 270.85 428.72 274.48 434.21 C 278.20 428.77 281.67 423.16 285.39 417.72 C 284.21 416.38 283.02 415.05 281.85 413.72 C 285.57 413.66 289.30 413.65 293.02 413.72 C 289.92 416.38 287.18 419.44 285.15 422.99 C 282.35 427.73 278.73 432.01 276.33 436.96 C 276.00 442.31 276.26 447.69 276.18 453.05 C 275.77 455.71 278.18 457.40 279.50 459.37 C 275.08 459.36 270.65 459.35 266.23 459.36 C 267.35 457.92 268.70 456.63 269.57 455.01 C 269.89 450.00 269.66 444.96 269.70 439.94 C 269.92 437.07 267.58 435.00 266.23 432.71 C 261.52 426.30 258.05 418.81 251.75 413.72 Z" />
<path fill="#002723" opacity="1.00" d=" M 355.66 413.71 C 365.40 413.64 375.15 413.68 384.90 413.69 C 384.87 416.68 384.89 419.67 384.87 422.66 C 383.05 420.64 381.36 418.52 379.68 416.39 C 374.97 416.37 370.27 416.38 365.57 416.37 C 365.59 422.14 365.60 427.90 365.55 433.67 C 370.17 433.70 374.80 433.71 379.42 433.66 C 380.87 432.43 382.33 431.22 383.81 430.04 C 383.78 433.34 383.77 436.65 383.74 439.97 C 382.16 438.85 380.88 437.22 379.06 436.52 C 374.57 436.18 370.06 436.48 365.56 436.40 C 365.59 442.65 365.61 448.89 365.56 455.14 C 366.73 456.52 367.91 457.90 369.08 459.29 C 364.60 459.39 360.11 459.38 355.63 459.32 C 356.79 457.94 357.98 456.57 359.16 455.21 C 359.14 442.73 359.12 430.25 359.18 417.78 C 358.00 416.42 356.82 415.06 355.66 413.71 Z" />
<path fill="#002723" opacity="1.00" d=" M 447.88 413.72 C 452.37 413.65 456.87 413.65 461.37 413.71 C 460.17 415.08 458.97 416.45 457.77 417.82 C 457.91 426.54 457.62 435.27 457.89 443.98 C 457.93 448.61 460.60 453.30 465.13 454.82 C 470.19 456.53 476.51 456.49 480.71 452.79 C 483.51 450.40 484.75 446.65 484.75 443.05 C 484.88 434.65 484.66 426.25 484.84 417.86 C 483.64 416.47 482.44 415.09 481.27 413.70 C 484.65 413.66 488.03 413.66 491.41 413.70 C 490.24 415.08 489.07 416.46 487.90 417.84 C 487.89 426.55 488.00 435.27 487.87 443.98 C 487.86 449.12 485.29 454.22 480.98 457.07 C 476.16 460.36 469.92 460.60 464.37 459.43 C 459.81 458.55 455.46 455.87 453.29 451.67 C 451.33 448.10 451.33 443.93 451.34 439.98 C 451.39 432.56 451.31 425.14 451.41 417.72 C 450.23 416.39 449.05 415.05 447.88 413.72 Z" />
<path fill="#002723" opacity="1.00" d=" M 496.85 413.72 C 501.35 413.65 505.85 413.65 510.36 413.71 C 509.18 415.08 508.00 416.45 506.83 417.83 C 506.89 430.73 506.85 443.62 506.85 456.52 C 511.99 456.55 517.14 456.53 522.30 456.56 C 524.39 453.46 526.43 450.31 528.82 447.42 C 528.90 451.39 528.83 455.37 528.89 459.35 C 518.21 459.34 507.53 459.40 496.85 459.32 C 498.05 457.92 499.27 456.54 500.49 455.16 C 500.42 442.69 500.41 430.22 500.49 417.76 C 499.28 416.41 498.06 415.06 496.85 413.72 Z" />
<path fill="#002723" opacity="1.00" d=" M 526.18 413.69 C 539.36 413.67 552.54 413.66 565.72 413.69 C 565.68 416.69 565.69 419.68 565.61 422.68 C 563.81 420.65 562.15 418.51 560.49 416.38 C 556.71 416.37 552.93 416.37 549.15 416.39 C 549.28 428.62 549.18 440.86 549.19 453.09 C 548.81 455.73 551.21 457.40 552.51 459.36 C 548.05 459.36 543.59 459.38 539.14 459.31 C 540.33 457.90 541.55 456.50 542.76 455.10 C 542.64 442.19 542.68 429.29 542.75 416.39 C 538.96 416.37 535.18 416.37 531.41 416.37 C 529.73 418.49 528.07 420.63 526.28 422.67 C 526.21 419.67 526.22 416.68 526.18 413.69 Z" />
<path fill="#002723" opacity="1.00" d=" M 570.53 413.66 C 574.95 413.67 579.37 413.67 583.80 413.68 C 582.44 415.62 579.92 417.27 580.33 419.97 C 580.37 427.67 580.29 435.37 580.38 443.07 C 580.34 447.09 581.81 451.40 585.34 453.64 C 592.50 458.19 604.80 456.10 606.82 446.80 C 608.00 437.20 606.99 427.43 607.37 417.77 C 606.16 416.41 604.94 415.05 603.74 413.70 C 607.14 413.66 610.54 413.66 613.95 413.72 C 612.78 415.06 611.62 416.41 610.46 417.76 C 610.53 426.18 610.53 434.61 610.50 443.03 C 610.54 448.07 608.51 453.26 604.46 456.39 C 600.12 459.87 594.19 460.59 588.84 459.77 C 583.99 459.15 578.98 456.94 576.36 452.63 C 574.14 449.21 573.83 445.02 573.80 441.06 C 573.78 434.01 573.85 426.96 573.84 419.92 C 574.28 417.26 571.87 415.58 570.53 413.66 Z" />
<path fill="#002723" opacity="1.00" d=" M 619.43 413.69 C 625.63 413.77 631.85 413.43 638.05 413.84 C 643.88 414.31 649.13 419.13 649.45 425.09 C 650.01 430.30 646.82 434.99 642.70 437.85 C 647.75 445.21 650.81 454.60 658.99 459.22 C 654.96 460.11 650.27 459.97 647.34 456.65 C 642.74 451.56 640.12 445.06 636.45 439.33 C 634.65 439.33 632.85 439.34 631.07 439.36 C 630.64 439.02 629.77 438.35 629.34 438.01 C 629.62 443.62 629.20 449.25 629.55 454.86 C 630.20 456.60 631.75 457.84 632.82 459.34 C 628.35 459.36 623.88 459.38 619.42 459.33 C 620.58 457.91 621.78 456.52 622.98 455.13 C 622.90 442.69 622.88 430.25 622.99 417.82 C 621.79 416.44 620.60 415.07 619.43 413.69 M 629.42 416.08 C 629.45 423.00 629.44 429.92 629.44 436.84 C 632.96 436.61 637.24 437.73 640.02 434.94 C 644.42 430.36 644.39 421.76 639.14 417.83 C 636.36 415.74 632.68 416.27 629.42 416.08 Z" />
<path fill="#002723" opacity="1.00" d=" M 662.16 413.71 C 671.95 413.64 681.74 413.68 691.53 413.68 C 691.50 416.70 691.50 419.71 691.42 422.73 C 689.61 420.69 687.92 418.55 686.26 416.39 C 681.56 416.37 676.87 416.37 672.18 416.39 C 672.25 422.14 672.27 427.90 672.16 433.66 C 676.71 433.60 681.28 433.96 685.81 433.53 C 687.52 432.59 688.87 431.13 690.38 429.91 C 690.40 433.29 690.40 436.67 690.40 440.05 C 688.82 438.89 687.51 437.29 685.69 436.54 C 681.20 436.15 676.68 436.49 672.18 436.42 C 672.26 443.12 672.26 449.83 672.18 456.54 C 677.29 456.54 682.40 456.53 687.52 456.57 C 689.30 453.92 691.09 451.27 693.09 448.78 C 693.15 452.30 693.14 455.83 693.15 459.35 C 682.81 459.33 672.48 459.40 662.15 459.32 C 663.33 457.91 664.55 456.52 665.76 455.12 C 665.67 442.70 665.64 430.27 665.77 417.85 C 664.57 416.47 663.35 415.08 662.16 413.71 Z" />
</g>
</svg>
