<?xml version="1.0" encoding="utf-8"?>
<!-- Generator: Adobe Illustrator 27.8.1, SVG Export Plug-In . SVG Version: 6.00 Build 0)  -->
<svg version="1.1" id="Layer_2_00000161592902186533096910000005350303278266939057_"
	 xmlns="http://www.w3.org/2000/svg" xmlns:xlink="http://www.w3.org/1999/xlink" x="0px" y="0px" viewBox="0 0 100 100"
	 style="enable-background:new 0 0 100 100;" xml:space="preserve">
<style type="text/css">
	.st0{clip-path:url(#SVGID_00000024710528266235133060000001159627907976636304_);}
	.st1{fill:#B9A779;}
</style>
<g id="Layer_1-2">
	<g>
		<defs>
			<rect id="SVGID_1_" width="100" height="100"/>
		</defs>
		<clipPath id="SVGID_00000176040315075327666370000012011409413804811453_">
			<use xlink:href="#SVGID_1_"  style="overflow:visible;"/>
		</clipPath>
		<g style="clip-path:url(#SVGID_00000176040315075327666370000012011409413804811453_);">
			<g>
				<path class="st1" d="M53.2,99.8L53.2,99.8l3.8-1.3l-0.9,1.3h0.6l1.1-1.6l2.7-0.9l0,0l1.7,2.4v0.1H63l-0.2-0.3v-2.9l2.7-0.9
					l4.4,1.5l-1.9,2.7h0.6l1.8-2.5l1.5,0.5h0v1.6l-0.5,0.2l-0.8,0.3h1.8v0l1.5-0.5l0.4,0.5h0.6L74,98.7l-1.7,0.6v-1.8l-1.7-0.6
					l1-1.5l-1-1.5l1.7-0.6v-1.8l1.7,0.6l1-1.5l1,1.5l1.7-0.6v1.8l1.7,0.6l-1,1.5l1,1.5l-1.7,0.6v1.8L76,98.7l-0.8,1.2h0.6l0.4-0.5
					l1.5,0.5v0h1.8l-1.3-0.4v-1.6l1.5-0.5l1.5,2.1l0.3,0.4h0.6l-0.4-0.6l-1.5-2.1l4.4-1.5l2.7,0.9v2.9L87,99.8h0.7v-0.1l1.7-2.4
					l2.7,0.9l1.1,1.6h0.6l-0.9-1.3l2.4,0.8l1.5-2.1v2.6l0.1,0h1.7l-1.3-0.4v-8.6l-5.2,1.8l-2.7,0.9l-2.2-3.1v3.8l-2.7,0.9l-0.3,0.1
					l-0.5,0.2l-3.8,1.3l-0.9-1.3l1.2-1.8l-2-0.7v-2.2l-2,0.7L75,89.7l-1.2,1.8l-2-0.7v2.2l-2,0.7l1.2,1.8l-0.9,1.3l-3.8-1.3
					l-0.5-0.2l-0.3-0.1l-2.7-0.9v-3.8l-2.2,3.1l-2.7-0.9l-3.2-1.1l-2,2.8v5.5H53.2z M92.4,93l4.4-1.5v4.8l-1.7,2.4l-2.7-0.9
					l-1.7-2.4L92.4,93z M87.7,94.6V92l1.5,2.1l2.4-0.8l-1.5,2.1l1.5,2.1l-2.4-0.8l-1.5,2.1v-2.6l-2.4-0.8L87.7,94.6z M60.8,94.1
					l1.5-2.1v2.6l2.4,0.8l-2.4,0.8v2.6l-1.5-2.1l-2.4,0.8l1.5-2.1l-1.5-2.1L60.8,94.1z M53.2,94.5l1.7-2.4l2.7,0.9l1.7,2.4l-1.7,2.4
					l-4.4,1.5V94.5z"/>
				<path class="st1" d="M28.2,99.8v-0.4l-2.4-0.8l2.4-0.8v-2.6l0,0l1.5,2.1l2.4-0.8l-1.5,2.1l0.8,1.2H32l-0.8-1.2l1.7-2.4l2-0.7h0
					l2.4-0.8v4.8l-0.2,0.3h0.7v-0.1l1.7-2.4l2.7,0.9v0l1.1,1.6h0.6l-0.9-1.3l3.4,1.1l0.4,0.1h1.6l-1.1-0.4v-4.2l0,0.1l2.3,3.3
					l-0.8,1.2h0.6l0.5-0.7l0.5,0.7h0.6l-0.8-1.2l2.3-3.3l0-0.1v4.2l-1.1,0.4h1.7l3.8-1.3l-0.9,1.3h0.6l1.1-1.6l2.7-0.9l1.7,2.4v0.1
					h0.7l-0.2-0.3v-2.9l2.7-0.9l4.4,1.5l-1.4,2l0,0L68,99.8h0.6l0.3-0.5l1.4-2l1.5,0.5v1.6l-1.1,0.4h1.6v-2.4l-1.7-0.6l1-1.5l-1-1.5
					l1.7-0.6V83l3.5-1.2l-3.5-1.2V72l-5.2,1.8l-2.7,0.9l-2.2-3.1v3.8l-2.7,0.9l-0.3,0.1l-0.5,0.2l-3.8,1.3L54,76.5l1.2-1.8l-2-0.7
					V72l-2,0.7L50,70.9l-1.2,1.8l-2-0.7v2.2l-2,0.7l1.2,1.8l-0.9,1.3l-3.8-1.3l-0.5-0.2l-0.3-0.1l-2.7-0.9v-3.8l-2.2,3.1l-2.7-0.9
					l-3.2-1.1l-2,2.8V83l1.7,0.6l-1,1.5l1,1.5L27.7,87v10.4l-3.5,1.2l3.5,1.2H28.2z M37.3,94.2l-2.6,0.9l-1.3,0.4l1.5-2.1l-1.5-2.1
					l2.4,0.8l1.5-2.1V94.2z M37.3,89.1l-1.7,2.4l-2.7-0.9L31,87.9l-0.8-1.2l4.4-1.5l2.7,0.9V89.1z M40.8,85l1.7-2.4l0,0l3.2-1.1
					l1.1-0.4v4.8l-0.4,0.6l-1.2,1.8l-2.7-0.9L40.8,85z M43.8,90.2l-1.7,2.4L37.9,94l-0.2,0.1v-4.8l1.7-2.4l2.7,0.9L43.8,90.2z
					 M40.1,85l1.5,2.1l-2.4-0.8l-1.5,2.1v-2.6L35.4,85l2.4-0.8v-2.6l1.5,2.1l2.4-0.8L40.1,85z M37.3,83.8l-2.7,0.9l-4.4-1.5l2.7-3.9
					l2.7-0.9l0,0l1.7,2.4V83.8z M39.2,96.7l-1.5,2.1v-4.2l3.8-1.3l-1.5,2.1l1.5,2.1L39.2,96.7z M46.8,99.3l-1.1-0.4l-3.2-1.1
					l-1.7-2.4l1.7-2.4l2.7-0.9l1.7,2.4V99.3z M46.8,91v2.6l-1.5-2.1l-2.4,0.8l1.5-2.1l-1.5-2.1l2.4,0.8l1.5-2.1v2.6l2.4,0.8v0
					L46.8,91z M52.7,86.1V89L50,89.9L47.3,89v-2.9l2.7-3.9L52.7,86.1z M50.3,81.8l0.9-1.3l1.5,0.5v4.2l0-0.1L50.3,81.8z M62.2,85.8
					l-1.1,0.4l-2.8,0.9l1.5-2.1l-1.5-2.1l2.4,0.8h0l1.5-2.1V85.8z M62.2,86.3v4.8l0,0l-1.7,2.4l-2.7-0.9l-1.7-2.4l1.7-2.4l3.2-1.1
					L62.2,86.3z M59.2,85l-1.7,2.4l-2.7,0.9l-1.7-2.4v-4.8l4.4,1.5L59.2,85z M53.2,89.4v-2.6l1.5,2.1l2.4-0.8l-1.5,2.1l1.5,2.1
					l-2.4-0.8l-1.5,2.1V91l-2.4-0.8L53.2,89.4z M47.4,85.1L47.4,85.1l0-4.1l1.5-0.5l0.9,1.3L47.4,85.1z M52.7,94.3L50,98.2l-2.7-3.9
					v-2.9l2.7-0.9l2.7,0.9V94.3z M57.6,97.8l-4.4,1.5v-4.8l1.7-2.4l2.7,0.9l1.7,2.4L57.6,97.8z M64.6,95.4l-2.4,0.8v2.6l-1.5-2.1
					l-2.4,0.8l1.5-2.1l-1.5-2.1l2.4,0.8l1.5-2.1v2.6L64.6,95.4L64.6,95.4z M65.4,95.1l-2.7-0.9v-2.9l1.7-2.4l2.7,0.9l1.2,1.7
					l1.5,2.1l0,0L65.4,95.1z M71.8,90.8l-3-1l-1.4-0.5L65.8,87l1.7-2.4l2.7-0.9l1.7,2.4L71.8,90.8L71.8,90.8z M67.1,84.1l-3.2,1.1
					l-1.2,0.4v-4.8l1.7-2.4l2.7,0.9l1.7,2.4L67.1,84.1z M63.8,85.8l2.8-0.9L65.1,87l1.5,2.1l-2.4-0.8l-1.5,2.1v-4.2L63.8,85.8z
					 M71,95.4l-0.9,1.3v0l-3.8-1.3l-0.1,0l3.8-1.3L71,95.4z M71.8,93L71.8,93l-1.5,0.5l-1.5-2.1l-0.9-1.3l1.1,0.4l2.7,0.9V93z
					 M74.2,81.8l-2.4,0.8v2.6l-1.5-2.1l-2.4,0.8l1.5-2.1l-1.5-2.1l2.4,0.8l1.5-2.1V81L74.2,81.8z M67.4,74.2l4.4-1.5v4.8l-1.7,2.4
					l-2.7-0.9l-1.7-2.4L67.4,74.2z M62.7,75.7v-2.6l1.5,2.1l2.4-0.8l-1.5,2.1l1.5,2.1l-2.4-0.8L62.7,80v-2.6l-2.4-0.8L62.7,75.7z
					 M59.5,76.8l2.7,0.9v2.9l-1.7,2.4l-2.7-0.9l-1.2-1.7l-1.5-2.1L59.5,76.8z M56.1,80.6l0.9,1.3l-3.8-1.3V79l1.5-0.5L56.1,80.6z
					 M46.7,76.5L46.7,76.5l-1-1.5l1.7-0.6v-1.8l1.7,0.6l1-1.5l1,1.5l1.7-0.6v1.8l1.7,0.6l-1,1.5l1,1.5l-1.7,0.6v1.8L51,79.8l-1,1.5
					l-1-1.5l-1.7,0.6v-1.8L45.6,78L46.7,76.5z M45.3,78.5l1.5,0.5v1.6l-0.5,0.2l-3.4,1.1L45.3,78.5z M44.8,78.3l-2.7,3.9v0l-2.7,0.9
					l-1.7-2.4v-2.9l2.7-0.9L44.8,78.3z M35.8,75.2l1.5-2.1v2.6l2.4,0.8l-2.4,0.8v2.6l-1.5-2.1l-2.4,0.8l1.5-2.1l-1.5-2.1L35.8,75.2z
					 M28.2,75.6l1.7-2.4l2.7,0.9l1.7,2.4l-1.7,2.4l-4.4,1.5V75.6z M28.2,82.6V81l3.8-1.3l-2.4,3.4L28.2,82.6z M29,85l0.9-1.3
					l3.8,1.3l-3.8,1.3L29,85z M29.7,86.9l0.8,1.2l1.5,2.2L28.2,89v-1.6L29.7,86.9z M28.2,89.6l4.4,1.5l1.7,2.4l-1.7,2.4l-2.7,0.9
					l-1.7-2.4V89.6z"/>
				<path class="st1" d="M2.7,91.5L4.4,92l-1,1.5l1,1.5l-1.7,0.6v4.3h0.5v-1.7l0.9,0.3l3.4,1.2l0.2,0.3H10l-2.1-0.7l-2.7-3.9
					l4.4-1.5l0,0l2.7,0.9v2.9l-1.5,2.2h0.6l0.9-1.3v1.3h0.5v-2h0l1.7-2.4l2.7,0.9l1.7,2.4L18,99.8h0.6l0.8-1.1L18,96.6l2.4,0.8
					l1.5-2.1v2.6l2.4,0.8l-2.4,0.8v0.3h0.7L25,99l2.5,0.8h0.7v-0.3l-2.4-0.8l2.4-0.8v-2.6l1.5,2.1l2.4-0.8l-1.5,2.1l0.8,1.1H32
					l-0.8-1.1l1.7-2.4l2.9-1l1.5-0.5v4.8h0l-0.1,0.2h0.7v0l1.7-2.4l2.7,0.9l1,1.5h0.6l-0.9-1.2l2.9,1l0.7,0.2h0.7v-8.4l3.5-1.2
					l-3.5-1.2v-2.9h0v-7.5l-1.7-0.6l1-1.5l-1-1.5l1.7-0.6V64.1l3.5-1.2l-3.5-1.2v-8.6l-5.2,1.8l-2.7,0.9l-2.2-3.1v3.8l-2.7,0.9
					l-0.3,0.1l-0.5,0.2L29.9,59L29,57.7l1.2-1.8l-2-0.7v-2.2l-2,0.7L25,52.1l-1.2,1.8l-2-0.7v2.2l-2,0.7l1.2,1.8L20.1,59l-3.8-1.3
					l-0.5-0.2l-0.3-0.1l-2.7-0.9v-3.8l-2.2,3.1l-2.7-0.9l-3.2-1.1l-2,2.8v7.5l1.7,0.6l-1,1.5l1,1.5l-1.7,0.6v10.4l-2.8,0.9v0.5
					L2.7,81V91.5z M3.2,91.1v-1.6l3.3-1.1l0.6-0.2L6,89.8l-1.3,1.8L3.2,91.1z M46.8,72l-3-1l-1.4-0.5l-1.7-2.4l1.7-2.4l2.7-0.9
					l1.7,2.4L46.8,72L46.8,72z M39.8,93.4l-2,0.7v-4.8l1.7-2.4l2.7,0.9l1.7,2.4l-1.7,2.4L39.8,93.4L39.8,93.4z M40.8,85l1.7-2.4
					l4.4-1.5V86l-1.7,2.4l-2.7-0.9L40.8,85z M42.1,82.2l-2.7,0.9l-1.7-2.4v-2.9l2.7-0.9l4.4,1.5l-1.4,2l0,0L42.1,82.2z M40.5,76.3
					l-2.7-0.9v-2.9l1.7-2.4l2.7,0.9l1.2,1.7l1.5,2.1l0,0L40.5,76.3z M42.1,65.3l-3.2,1.1l-1.2,0.4V62l1.7-2.4l2.7,0.9l1.7,2.4
					L42.1,65.3z M38.8,67l2.8-0.9l-1.5,2.1l1.5,2.1l-2.4-0.8l-1.5,2.1v-4.2L38.8,67z M39.6,76.6L39.6,76.6l-2.4,0.8V80l-1.5-2.1
					l-2.4,0.8l1.5-2.1l-1.5-2.1l2.4,0.8l1.5-2.1v2.6L39.6,76.6z M32.1,79.7L31.2,81l-1.5,2.1l-1.5-0.5V81L32.1,79.7z M28.2,80.5
					v-4.8l1.7-2.4l2.7,0.9l1.7,2.4L32.6,79L28.2,80.5z M29.9,83.7l3.8,1.3l-3.8,1.3L29,85L29.9,83.7z M32.1,90.4L32.1,90.4l-3.8-1.3
					v-1.6l1.5-0.5L32.1,90.4z M30.2,86.8l3.3-1.1l1-0.4l2.7,0.9v2.9l-1.7,2.4l-2.7-0.9l0,0L30.2,86.8z M30.2,83.3l1.5-2.1l1.2-1.7
					l2.7-0.9l1.7,2.4v2.9l-2.7,0.9L30.2,83.3z M37.3,72.3L37.3,72.3l-1.7,2.4l-2.7-0.9l-1.7-2.4l1.7-2.4l3.2-1.1l1.2-0.4V72.3z
					 M37.3,67l-1.1,0.4l-2.8,0.9l1.5-2.1l-1.5-2.1l2.4,0.8l1.5-2.1V67z M34.2,66.2l-1.7,2.4l-2.7,0.9l-1.7-2.4v-4.8l4.4,1.5
					L34.2,66.2z M29.7,70.1l2.4-0.8l-1.5,2.1l1.5,2.1l-2.4-0.8l-1.5,2.1v-2.6l-2.4-0.8l2.4-0.8V68L29.7,70.1z M25,79.4l-2.7-3.9
					v-2.9l2.7-0.9l2.7,0.9v2.9L25,79.4z M27.7,76.4v4.2l-1.5,0.5l-0.9-1.3L27.7,76.4L27.7,76.4z M24.7,79.8l-0.9,1.3l-1.5-0.5v-4.2
					l0,0.1L24.7,79.8z M27.7,66.4L27.7,66.4l-2.4-3.4l0.9-1.3l1.5,0.5V66.4z M27.7,67.3v2.9L25,71.1l-2.7-0.9v-2.9l2.7-3.9
					L27.7,67.3z M22.4,66.3L22.4,66.3l0-4.1l1.5-0.5l0.9,1.3L22.4,66.3z M24.2,71.4L24.2,71.4l-2.4,0.8v2.6l-1.5-2.1L18,73.5
					l1.5-2.1L18,69.3l2.4,0.8l1.5-2.1v2.6L24.2,71.4z M14.6,85l-2.4,0.8v2.6l-1.5-2.1l-2.4,0.8L9.9,85l-1.5-2.1l2.4,0.8l1.5-2.1v2.6
					L14.6,85z M16.6,74.5l-1.5,2.1l1.5,2.1l-2.4-0.8L12.8,80v-4.2L16.6,74.5z M12.8,75.2v-4.8l1.7-2.4l2.7,0.9l1.7,2.4l-1.7,2.4
					L13,75.2L12.8,75.2z M14.4,78.5l2.7,0.9v0l2.7,3.9l-4.4,1.5l-2.7-0.9v-2.9L14.4,78.5z M12.8,86.2l2.7-0.9l0.9,0.3l3.5,1.2
					l-1.1,1.5l-1.6,2.3l-2.7,0.9l-1.7-2.4V86.2z M16.3,85l3.8-1.3l0.9,1.3l-0.9,1.3L16.3,85z M18,79.7l3.4,1.1l0.5,0.2v1.6l-1.5,0.5
					L18,79.7z M20.7,80.1L17.5,79l-1.7-2.4l1.7-2.4l2.7-0.9l1.7,2.4v4.8L20.7,80.1z M21.8,67.1l-0.4,0.6l-1.2,1.8l-2.7-0.9l-1.7-2.4
					l1.7-2.4l0,0l3.2-1.1l1.1-0.4V67.1z M15.2,66.2l1.5,2.1l-2.4-0.8l-1.5,2.1V67l-2.4-0.8l2.4-0.8v-2.6l1.5,2.1l2.4-0.8L15.2,66.2z
					 M12.3,65l-2.7,0.9l-4.4-1.5l2.7-3.9l2.7-0.9l0,0l1.7,2.4V65z M9.6,66.5l2.7,0.9v2.9l-1.7,2.4l-2.7-0.9l-1.8-2.6l-0.8-1.2
					L9.6,66.5z M10.8,73.3l1.5-2.1v4.2l-2.6,0.9l-1.3,0.4l1.5-2.1l-1.5-2.1L10.8,73.3z M9.9,76.8L9.9,76.8l2.4-0.8v4.8l-1.7,2.4
					l-2.7-0.9l-1.7-2.4l1.7-2.4L9.9,76.8z M9.3,85L9.3,85l-1.7,2.4l-4,1.4l-0.4,0.1v-4.8l1.7-2.4l2.7,0.9L9.3,85z M7.1,98.8
					l-3.8-1.3v-1.6l1.5-0.5L7.1,98.8z M4.9,94.8L4,93.5l0.9-1.3v0l3.8,1.3L4.9,94.8z M9.6,93.2l-4.4-1.5l2-2.8h0l0.7-1.1l2.7-0.9
					l1.7,2.4v2.9L9.6,93.2z M14.2,94.8l-1.5,2.1v-2.6l-2.4-0.8v0l2.4-0.8v-2.6l1.5,2.1l2.4-0.8l-1.5,2.1l1.5,2.1L14.2,94.8z
					 M21.8,94.4l-1.7,2.4l-2.7-0.9l-1.7-2.4l1.7-2.4l0.5-0.2l3.8-1.3V94.4z M21.8,89.1l-3.3,1.1L18,90.4l1.4-2l0.9-1.4l1.5,0.5V89.1
					z M27.7,97.5L25,98.4l-2.7-0.9v-2.9l1.9-2.7l0.8-1.2l0.8,1.2l1.9,2.7V97.5z M22.3,93.7v-4.2l1.5-0.5l0.9,1.3l-1.8,2.6L22.3,93.7
					z M27.7,93.7l-0.6-0.8l-1.8-2.6l0.9-1.3l1.5,0.5V93.7z M27.7,87.1v1.8L26,88.3l-1,1.5l-1-1.5l-1.7,0.6v-1.8l-1.7-0.6l1-1.5
					l-1-1.5l1.7-0.6v-1.8l1.7,0.6l1-1.5l1,1.5l1.7-0.6V83l1.7,0.6l-1,1.5l1,1.5L27.7,87.1z M32.6,95.9l-2.7,0.9l-1.7-2.4v-4.8
					l4.4,1.5l1.7,2.4L32.6,95.9z M37.3,94.3l-3.8,1.3l1.5-2.1l-1.5-2.1l2.4,0.8l1.5-2.1V94.3z M35.4,85l2.4-0.8v-2.6l1.5,2.1
					l2.4-0.8L40.1,85l1.5,2.1l-2.4-0.8v0l-1.5,2.1v-2.6L35.4,85z M39.2,96.8l-1.5,2.1v-4.2l1.8-0.6l2-0.7l-1.5,2.1l1.5,2.1
					L39.2,96.8z M46.8,99.3l-1.3-0.5l-3-1l-1.7-2.4l1.7-2.4l1.7-0.6l1-0.3l1.3,1.9l0.4,0.5V99.3z M49.2,90.3l-2.4,0.8v2.6l-1.5-2.1
					l-2.4,0.8l1.5-2.1l-1.5-2.1l2.4,0.8l1.5-2.1v2.6L49.2,90.3z M46.8,79v1.6l-3.8,1.3l1-1.4l1.4-2L46.8,79z M46,76.6l-0.9,1.3v0
					l-3.8-1.3l-0.1,0l3.8-1.3L46,76.6z M46.8,74.2L46.8,74.2l-1.5,0.5l-1.5-2.1l-0.9-1.3l1.1,0.4l2.7,0.9V74.2z M49.2,62.9l-2.4,0.8
					v2.6l-1.5-2.1l-2.4,0.8l1.5-2.1l-1.5-2.1l2.4,0.8l1.5-2.1v2.6L49.2,62.9z M42.4,55.4l4.4-1.5v4.8L45.1,61l-2.7-0.9l-1.7-2.4
					L42.4,55.4z M37.8,56.9v-2.6l1.5,2.1l2.4-0.8l-1.5,2.1l1.5,2.1L39.2,59l-1.5,2.1v-2.6l-2.4-0.8L37.8,56.9z M34.6,58l2.7,0.9v2.9
					l-1.7,2.4l-2.7-0.9l-1.2-1.7l-1.5-2.1L34.6,58z M31.2,61.8l0.9,1.3l-3.8-1.3v-1.6l1.5-0.5L31.2,61.8z M21.7,57.7l-1-1.5l1.7-0.6
					v-1.8l1.7,0.6l1-1.5l1,1.5l1.7-0.6v1.8l1.7,0.6l-1,1.5l1,1.5l-1.7,0.6v1.8L26,61l-1,1.5L24,61l-1.7,0.6v-1.8l-1.7-0.6L21.7,57.7
					z M20.3,59.7l1.5,0.5v1.6l-0.5,0.2L18,63.1L20.3,59.7z M19.8,59.5l-2.7,3.9v0l-2.7,0.9l-1.7-2.4v-2.9l2.7-0.9L19.8,59.5z
					 M10.8,56.4l1.5-2.1v2.6l2.4,0.8l-2.4,0.8v2.6L10.8,59l-2.4,0.8l1.5-2.1l-1.5-2.1L10.8,56.4z M3.2,56.8l1.7-2.4l2.7,0.9l1.7,2.4
					l-1.7,2.4l-4.4,1.5V56.8z M3.2,63.8v-1.6l3.8-1.3l-2.4,3.4L3.2,63.8z M4,66.2l0.9-1.3l3.8,1.3l-3.8,1.3L4,66.2z M3.2,68.6
					l1.5-0.5l0.8,1.2l1.5,2.2l-3.8-1.3V68.6z M3.2,70.8l4.4,1.5l1.7,2.4L7.6,77l-2.7,0.9l-1.7-2.4V70.8z M0.9,79.8L3.2,79v-2.6l0,0
					l1.5,2.1l2.4-0.8l-1.5,2.1l1.5,2.1l-0.3-0.1l-2.1-0.7l-1.2,1.7l-0.3,0.4v-2.6L0.9,79.8z"/>
				<path class="st1" d="M1.3,97.5l2,0.7V96l1.5-0.5l2.9,4.1l0.6,0.2h1.7l-2-0.7l-2.7-3.9l3.3-1.1l1-0.4l2.7,0.9v2.9l0,0l-1.5,2.1
					h0.6l1.4-2l1.7-2.4l2.7,0.9l3.2,1.1l2-2.8v-7.5l-1.7-0.6l1-1.5l-1-1.5l1.7-0.6V72.6l3.5-1.2l-3.5-1.2v-2.9l0,0v-7.5l-1.7-0.6
					l1-1.5l-1-1.5l1.7-0.6V45.3l3.5-1.2l-3.5-1.2v-8.6l-5.2,1.8L14.4,37l-2.2-3.1v3.8l-2.7,0.9l-0.3,0.1l-0.5,0.2l-3.8,1.3L4,38.9
					l1.2-1.8l-2-0.7v-2.2l-2,0.7L0,33.2l-0.1,0.1v0.9L0,34.2l1,1.5l1.7-0.6v1.8l1.7,0.6l-1,1.5l1,1.5L2.7,41v1.8l-1.7-0.6l-1,1.5
					l-0.1-0.1v1.1L0,44.6l2.7,3.9v2.9L0,52.3l-0.1,0v0.6l0.1,0l2.7,0.9v2.9L0,60.6l-0.1-0.1v1.1L0,61.5l1,1.5l1.7-0.6v1.8l1.7,0.6
					l-1,1.5l1,1.5l-1.7,0.6v1.8l-1.7-0.6L0,71l-0.1-0.1V72L0,71.9l0.8,1.2l1.9,2.7v2.9L0,79.6l-0.1,0v0.6l0.1,0l2.7,0.9V84L0,87.9
					l-0.1-0.1v1.1L0,88.8l1,1.5l1.7-0.6v1.8l1.7,0.6l-1,1.5l1,1.5l-1.7,0.6v1.8l-1.7-0.6l-1,1.5l-0.1-0.1v0.9L0,99.2L1.3,97.5z
					 M2.7,61.8l-1.5,0.5L0.3,61l2.3-3.3l0-0.1V61.8z M2.7,89.1l-1.5,0.5l-0.9-1.3l2.4-3.4V89.1z M9.6,93.3L8,92.7v0l-2.7-0.9
					l2.7-3.9l2.7-0.9l1.7,2.4v2.9L9.6,93.3z M11.1,49.1l1.2-0.4v4.8l0,0l-1.7,2.4L7.9,55l-1.7-2.4l1.7-2.4L11.1,49.1z M8.4,49.5
					l1.5-2.1l-1.5-2.1l2.4,0.8l1.5-2.1v4.2l-1.1,0.4L8.4,49.5z M21.8,53.2l-3-1l-1.4-0.5l-1.7-2.4l1.7-2.4l2.7-0.9l1.7,2.4
					L21.8,53.2L21.8,53.2z M17.1,46.5l-3.2,1.1L12.8,48v-4.8l1.7-2.4l2.7,0.9l1.7,2.4L17.1,46.5z M13.8,48.2l2.8-0.9l-1.5,2.1
					l1.5,2.1l-2.4-0.8l-1.5,2.1v-4.2L13.8,48.2z M14.4,51.3l2.7,0.9l1.2,1.7l1.5,2.1l0,0l-4.3,1.5l-2.7-0.9v-2.9L14.4,51.3z
					 M15.5,84.8L15.5,84.8l-2.7-0.9V81l1.7-2.4l2.7,0.9l2.7,3.9L15.5,84.8z M15.5,85.4l4.4,1.5l-2.7,3.9l-2.7,0.9l0,0l-1.7-2.4v-2.9
					L15.5,85.4z M12.8,69.6V67l-2.4-0.8l2.4-0.8v-2.6l1.5,2.1l2.4-0.8l-1.5,2.1l1.5,2.1l-2.4-0.8v0L12.8,69.6z M14.2,78l-1.5,2.1
					v-4.2l1.8-0.6l2-0.7l-1.5,2.1l1.5,2.1L14.2,78z M14.8,74.6l-2,0.7v-4.8l1.7-2.4l2.7,0.9l1.7,2.4l-1.7,2.4L14.8,74.6L14.8,74.6z
					 M15.8,66.2l1.7-2.4l4.4-1.5v4.8l-1.7,2.4l-2.7-0.9L15.8,66.2z M17.1,63.4l-2.7,0.9l-1.7-2.4V59l2.7-0.9l4.4,1.5l-1.4,2l0,0
					L17.1,63.4z M14.6,57.8L14.6,57.8l-2.4,0.8v2.6l-1.5-2.1l-2.4,0.8l1.5-2.1l-1.5-2.1l2.4,0.8l1.5-2.1V57L14.6,57.8z M9.3,57.8
					l-1.7,2.4l-4.4,1.5v-4.8l1.7-2.4l2.7,0.9L9.3,57.8z M7.9,60.6l2.7-0.9l1.7,2.4V65L9.6,66l-4.4-1.5l1.5-2.1L7.9,60.6z M12.3,67.4
					v2.9l-1.7,2.4l-2.7-0.9v0L5.2,68l3.3-1.1l1-0.4L12.3,67.4z M12.3,71.3v4.2l-3.8,1.3l1.5-2.1l-1.5-2.1l2.4,0.8L12.3,71.3z
					 M9.3,74.7l-1.7,2.4L4.9,78l-1.7-2.4v-4.8l4.4,1.5L9.3,74.7z M7.9,77.5l2.9-1l1.5-0.5v4.8h0l-1.7,2.4l-2.7-0.9l-1.7-2.4
					L7.9,77.5z M10.8,83.8l1.5-2.1v2.6l2.4,0.8v0l-2.4,0.8v2.6l-1.5-2.1l-2.4,0.8l1.5-2.1L8.4,83L10.8,83.8z M14.2,94.8L12.8,97
					v-2.6l-2.4-0.8l2.4-0.8v-2.6l1.5,2.1l2.4-0.8l-1.5,2.1l1.5,2.1L14.2,94.8z M21.8,94.5l-1.7,2.4l-2.7-0.9l-1.7-2.4l1.7-2.4
					l3.3-1.1l1-0.4V94.5z M21.8,87.5v1.6L18,90.4l2.4-3.4L21.8,87.5z M21.1,85.1l-0.9,1.3l-3.8-1.3l3.8-1.3L21.1,85.1z M21.8,82.7
					l-1.5,0.5L18,79.8l2.9,1l1,0.3V82.7z M21.8,80.5l-1.3-0.5l-3-1l-1.7-2.4l1.7-2.4l1.7-0.6l1-0.3l1.3,1.9l0.4,0.5V80.5z
					 M24.2,71.4l-2.4,0.8v2.6l-1.5-2.1L18,73.6l1.5-2.1L18,69.3l2.4,0.8l1.5-2.1v2.6L24.2,71.4z M21.8,60.2v1.6L18,63.1l1-1.4l1.4-2
					L21.8,60.2z M21.1,57.8l-0.9,1.3v0l-3.8-1.3l-0.1,0l3.8-1.3L21.1,57.8z M21.8,55.4L21.8,55.4l-1.5,0.5l-1.5-2.1L18,52.5l1.1,0.4
					l2.7,0.9V55.4z M24.2,44.1l-2.4,0.8v2.6l-1.5-2.1L18,46.2l1.5-2.1L18,42l2.4,0.8l1.5-2.1v2.6L24.2,44.1z M17.5,36.5l4.4-1.5v4.8
					l-1.7,2.4l-2.7-0.9l-1.7-2.4L17.5,36.5z M12.8,38.1v-2.6l1.5,2.1l2.4-0.8l-1.5,2.1l1.5,2.1l-2.4-0.8l-1.5,2.1v-2.6l-2.4-0.8
					L12.8,38.1z M9.6,39.2l2.7,0.9v2.9l-1.7,2.4l-2.7-0.9l-1.2-1.7l-1.5-2.1L9.6,39.2z M3.2,41.3l1.5-0.5l1.5,2.1l0.9,1.3l-3.8-1.3
					V41.3z M3.2,43.5L7.6,45l1.7,2.4l-1.7,2.4v0l-2.7,0.9l-1.7-2.4V43.5z M2.7,47.5l-2.3-3.3l0.9-1.3l1.5,0.5L2.7,47.5L2.7,47.5z
					 M0.9,52.6l2.4-0.8v-2.6l1.5,2.1l2.4-0.8l-1.5,2.1l1.5,2.1l-2.4-0.8L3.2,56v-2.6L0.9,52.6z M3.2,63.8v-1.6l3.8-1.3l-0.9,1.3
					l-1.5,2.1L3.2,63.8z M4,66.2l0.9-1.3l3.8,1.3l-3.8,1.3L4,66.2z M3.2,68.7l1.5-0.5l2.4,3.4l-0.1,0l-3.8-1.3V68.7z M2.2,74.1
					l-1.8-2.6l0.9-1.3l1.5,0.5v4.2L2.2,74.1z M0.9,79.9l2.4-0.8v-2.6l1.5,2.1l2.4-0.8l-1.5,2.1L7.1,82l-2.4-0.8l-1.5,2.1v-2.6
					L0.9,79.9z M3.2,84.2L3.2,84.2l1.7-2.4l1.6,0.5l1.1,0.4l1.7,2.4l-1.7,2.4l-0.5,0.2L3.2,89V84.2z M3.2,91.1v-1.6l3.8-1.3
					l-2.4,3.4L3.2,91.1z M4,93.5l0.9-1.3l2.7,0.9l1.2,0.4l-3.8,1.3L4,93.5z"/>
				<path class="st1" d="M77.7,93.3l1.7,0.6l-1,1.5l1,1.5l-1.7,0.6v2.4h1.8l-1.3-0.5v-1.6l1.5-0.5l1.8,2.6h0.6l-1.9-2.7l4.4-1.5l0,0
					l2.7,0.9v2.9L87,99.8h0.8v-0.2l0,0l1.7-2.4l2.7,0.9l1.1,1.6h0.6l-1-1.4l2.4,0.8l1.5-2.1v2.6l0.2,0.1h1.7l-1.3-0.5v-2.9l1.9-2.7
					l0.8-1.2l0.2,0.2v-1.4l-0.2,0.2l-1-1.5l-1.7,0.6v-1.8l-1.7-0.6l1-1.5l-1-1.5l1.7-0.6V83l1.7,0.6l1-1.5l0.2,0.2V81l-0.2,0.2
					l-2.7-3.9v-2.9l2.7-0.9l0.2,0.1v-0.7L100,73L97.3,72v-2.9l2.7-3.9l0.2,0.2v-1.4l-0.2,0.2l-1-1.5l-1.7,0.6v-1.8l-1.7-0.6l1-1.5
					l-1-1.5l1.7-0.6v-1.8l1.7,0.6l1-1.5l0.2,0.2v-0.9l-0.2-0.2l-1.2,1.8l-2-0.7v2.2l-2,0.7l1.2,1.8l-0.9,1.3l-3.8-1.3l-0.5-0.2
					l-0.3-0.1l-2.7-0.9v-3.8l-2.2,3.1l-2.7-0.9l-3.2-1.1l-2,2.8V66l1.7,0.6l-1,1.5l1,1.5l-1.7,0.6v10.4l-3.5,1.2l3.5,1.2V93.3z
					 M78.2,92.9v-1.6l3.3-1.1L82,90l-1.1,1.6l-1.3,1.8L78.2,92.9z M89.6,86.9l-2.4,0.8v2.6l-1.5-2.1L83.4,89l1.5-2.1l-1.5-2.1
					l2.4,0.8l1.5-2.1v2.6L89.6,86.9z M87.7,81.9v-4.2l3.8-1.3l-1.5,2.1l1.5,2.1l-2.4-0.8L87.7,81.9L87.7,81.9z M87.7,88.1l2.7-0.9
					l0.9,0.3l3.5,1.2h0l-1.1,1.5l-1.6,2.3l-2.7,0.9L87.7,91V88.1z M90.4,86.6l-2.7-0.9v-2.9l1.7-2.4l2.7,0.9v0l2.7,3.9L90.4,86.6z
					 M90.7,78.5l1.7-2.4l2.7-0.9l1.7,2.4v4.8l-1.1-0.4l-3.2-1.1L90.7,78.5z M92.1,75.6L87.9,77l-0.2,0.1v-4.8l1.7-2.4l2.7,0.9
					l1.7,2.4L92.1,75.6z M90.7,68l1.7-2.4l0,0l3.2-1.1l1.1-0.4v4.8l-0.4,0.6l-1.2,1.8l-2.7-0.9L90.7,68z M90.1,68l1.5,2.1l-2.4-0.8
					l-1.5,2.1v-2.6L85.4,68l2.4-0.8v-2.6l1.5,2.1l2.4-0.8L90.1,68z M87.2,66.8l-2.7,0.9l-4.4-1.5l2.7-3.9l2.7-0.9l0,0l1.7,2.4V66.8z
					 M87.2,69.2v2.9l-1.7,2.4l-2.7-0.9L81,71l-0.8-1.2l4.4-1.5L87.2,69.2z M85.8,75.2l1.5-2.1v4.2l-2.6,0.9l-1.3,0.4l1.5-2.1
					l-1.5-2.1L85.8,75.2z M84.8,78.6L84.8,78.6l2.4-0.8v4.8L85.6,85l-2.7-0.9l-1.7-2.4l1.7-2.4L84.8,78.6z M84.2,86.9L84.2,86.9
					l-1.7,2.4l-4,1.4l-0.4,0.1V86l1.7-2.4l2.7,0.9L84.2,86.9z M79.9,96.6l-0.9-1.3l0.9-1.3v0l3.8,1.3L79.9,96.6z M84.5,95.1
					l-4.4-1.5l2-2.8h0l0.7-1.1l2.7-0.9l1.7,2.4v2.9L84.5,95.1z M89.2,96.6l-1.5,2.1v-2.6l-2.4-0.8v0l2.4-0.8v-2.6l1.5,2.1l2.4-0.8
					l-1.5,2.1l1.5,2.1L89.2,96.6z M96.8,96.2l-1.7,2.4l-2.7-0.9l-1.7-2.4l1.7-2.4l0.5-0.2l3.8-1.3V96.2z M97.3,91.3L97.3,91.3
					l1.5-0.5l0.9,1.3l-1.8,2.6l-0.6,0.8V91.3z M96.8,89.3v1.6l-3.3,1.1l-0.5,0.2l1.4-2l0.9-1.4L96.8,89.3z M96,86.9l-0.9,1.3
					l-3.8-1.3l3.8-1.3L96,86.9z M96.8,84.5L95.3,85l-2.4-3.4l3.4,1.1l0.5,0.2V84.5z M97.3,78.3l2.3,3.3L98.7,83l-1.5-0.5L97.3,78.3
					L97.3,78.3L97.3,78.3z M97.3,68.2V64l1.5-0.5l0.9,1.3L97.3,68.2L97.3,68.2L97.3,68.2z M99.1,73.2L99.1,73.2L96.8,74v2.6
					l-1.5-2.1l-2.4,0.8l1.5-2.1l-1.5-2.1l2.4,0.8l1.5-2.1v2.6L99.1,73.2z M95.3,61.5l1.5,0.5h0v1.6l-0.5,0.2l-3.4,1.1L95.3,61.5z
					 M94.8,61.3l-2.7,3.9v0l-2.7,0.9l-1.7-2.4v-2.9l2.7-0.9L94.8,61.3z M85.8,58.3l1.5-2.1v2.6l2.4,0.8l-2.4,0.8V63l-1.5-2.1
					l-2.4,0.8l1.5-2.1l-1.5-2.1L85.8,58.3z M78.2,58.7l1.7-2.4l2.7,0.9l1.7,2.4L82.5,62l-4.4,1.5V58.7z M78.2,65.6V64l3.8-1.3
					l-2.4,3.4L78.2,65.6z M78.9,68l0.9-1.3l3.8,1.3l-3.8,1.3L78.9,68z M78.2,70.4l1.5-0.5l0.8,1.2l1.5,2.2L78.2,72V70.4z M78.2,72.6
					l4.4,1.5l1.7,2.4l-1.7,2.4l-2.7,0.9l-1.7-2.4V72.6z M75.8,81.7l2.4-0.8v-2.6l0,0l1.5,2.1l2.4-0.8l-1.5,2.1l1.5,2.1l-0.3-0.1
					L79.7,83l-1.2,1.7l-0.3,0.4v-2.6L75.8,81.7z"/>
				<path class="st1" d="M52.7,89l-3.5,1.2l3.5,1.2v8.4h0.5l4.6-1.6l0.1,0l2.7-0.9l1.7,2.5h0.6l-0.2-0.3v-2.9l2.7-0.9l1.2,0.4
					l3.2,1.1l-1.9,2.7h0.6l1.7-2.5l1.5,0.5v2h0.5l1.5-0.5l0.4,0.5h0.6L74,98.7l-1.7,0.6v-1.8l-1.7-0.6l1-1.5l-1-1.5l1.7-0.6v-1.8
					l1.7,0.6l1-1.5l1,1.5l1.7-0.6v1.8l1.7,0.6l-1,1.5l1,1.5l-1.7,0.6v1.8L76,98.7l-0.8,1.1h0.6l0.4-0.5l1.5,0.5h0.5v-2l1.5-0.5
					l1.7,2.5H82l-1.9-2.7l3.3-1.1l1-0.4l2.7,0.9v2.9L87,99.8h0.6l0.1-0.1l1.7-2.4l2.7,0.9l3.2,1.1l2-2.8V89l-1.7-0.6l1-1.5l-1-1.5
					l1.7-0.6V74.5l2.9-1v-0.4l-2.9-1v-2.9l0,0v-7.5l-1.7-0.6l1-1.5l-1-1.5l1.7-0.6V47.2l2.9-1v-0.4l-2.9-1v-8.6l-5.2,1.8l-2.7,0.9
					l-2.2-3.1v3.8l-2.7,0.9l-0.3,0.1l-0.5,0.2l-3.8,1.3l-0.9-1.3l1.2-1.8l-2-0.7v-2.2l-2,0.7L75,35.1l-1.2,1.8l-2-0.7v2.2l-2,0.7
					l1.2,1.8l-0.9,1.3l-3.8-1.3l-0.5-0.2l-0.3-0.1l-2.7-0.9v-3.8l-2.2,3.1l-2.7-0.9l-3.2-1.1l-2,2.8v7.5l1.7,0.6l-1,1.5l1,1.5
					l-1.7,0.6v10.4l-3.5,1.2l3.5,1.2v10.4l1.7,0.6l-1,1.5l1,1.5l-1.7,0.6V89z M57.6,97.8l-4.4,1.5v-4.8l1.7-2.4l2.7,0.9l1.7,2.4
					L57.6,97.8z M74.2,54.4L74.2,54.4l-2.4,0.8v2.6l-1.5-2.1l-2.4,0.8l1.5-2.1l-1.5-2.1l2.4,0.8l1.5-2.1v2.6L74.2,54.4z M96.8,55.1
					l-3-1l-1.4-0.5l-1.7-2.4l1.7-2.4l2.7-0.9l1.7,2.4L96.8,55.1L96.8,55.1z M75.8,81.7l2.4-0.8v-2.6l1.5,2.1l2.4-0.8l-1.5,2.1
					l1.5,2.1L79.7,83l-1.5,2.1v-2.6L75.8,81.7z M64.5,85l-1.8,0.6v-4.8h0l1.7-2.4l2.7,0.9l1.7,2.4l-1.7,2.4L64.5,85z M66.6,84.8
					L65.1,87l1.5,2.1l-2.4-0.8l-1.5,2.1v-4.2l1.6-0.5L66.6,84.8z M64.6,68.1l-2.4,0.8v2.6l-1.5-2.1l-2.4,0.8l1.5-2.1L58.4,66
					l2.4,0.8l1.5-2.1v2.6L64.6,68.1z M66.3,68.1l3.8-1.3l0.9,1.3l-0.9,1.3L66.3,68.1z M69.8,69.8L69.8,69.8l-1.1,1.5l-1.6,2.3
					l-2.7,0.9l-1.7-2.4v-2.9l2.7-0.9l0.9,0.3L69.8,69.8z M67.9,62.8l3.4,1.1l0,0l0.5,0.2v1.6l-1.5,0.5L67.9,62.8z M71.8,63.5
					l-1.1-0.4L67.4,62l-1.7-2.4l1.7-2.4l2.7-0.9l1.7,2.4V63.5z M67.1,56.8l-4.2,1.4l-0.2,0.1v-4.8l1.7-2.4l2.7,0.9l1.7,2.4
					L67.1,56.8z M66.6,57.5l-1.5,2.1l1.5,2.1l-2.4-0.8L62.7,63h0v-4.2L66.6,57.5z M64.4,61.6l2.7,0.9v0l2.7,3.9l-4.4,1.5l-2.7-0.9
					v-2.9L64.4,61.6z M62.7,75.7v-2.6l1.5,2.1l2.4-0.8l-1.5,2.1l1.5,2.1l-2.4-0.8l-1.5,2.1v-2.6l-2.4-0.8v0L62.7,75.7z M65.8,76.5
					l1.7-2.4L68,74l3.8-1.3v4.8l-1.7,2.4l-2.7-0.9L65.8,76.5z M68.4,73.2l-0.5,0.2l1.4-2l0.9-1.4l1.5,0.5v1.6L68.4,73.2z M70.6,69.6
					l1-1.5l-1-1.5l1.7-0.6v-1.8l1.7,0.6l1-1.5l1,1.5l1.7-0.6V66l1.7,0.6l-1,1.5l1,1.5l-1.7,0.6v1.8L76,71.4l-1,1.5l-1-1.5l-1.7,0.6
					v-1.8L70.6,69.6z M77.7,58.6L75,62.4l-2.7-3.9v-2.9l2.7-0.9l2.7,0.9V58.6z M77.7,59.5L77.7,59.5l0,4.2l-1.5,0.5l-0.9-1.3
					L77.7,59.5L77.7,59.5z M72.3,59.5l2.3,3.3l-0.9,1.3l-1.5-0.5L72.3,59.5L72.3,59.5L72.3,59.5z M87.7,71.5v-2.6l-2.4-0.8l2.4-0.8
					v-2.6l1.5,2.1l2.4-0.8l-1.5,2.1l1.5,2.1l-2.4-0.8v0L87.7,71.5z M79.9,69.4l-0.9-1.3l0.9-1.3l3.8,1.3L79.9,69.4z M84.5,68.4
					l2.7,0.9v2.9l-1.7,2.4l-2.7-0.9v0l-2.7-3.9l3.3-1.1L84.5,68.4z M82,73.4L82,73.4l-3.8-1.3v-1.6l1.5-0.5L82,73.4z M82.5,74.1
					l1.7,2.4l-1.7,2.4l-2.7,0.9l-1.7-2.4v-4.8L82.5,74.1z M84.8,76.5l-1.5-2.1l2.4,0.8l1.5-2.1v4.2h0l-3.8,1.3L84.8,76.5z
					 M87.2,66.9l-2.7,0.9l-4.4-1.5l1.5-2.1l1.2-1.7l2.7-0.9l1.7,2.4V66.9z M82.5,62l-4.4,1.5v-4.8l1.7-2.4l2.7,0.9l1.7,2.4L82.5,62z
					 M82,62.8l-0.9,1.3l-1.5,2.1l-1.5-0.5v-1.6L82,62.8z M77.7,72.5v4.2l-0.6-0.8l-1.8-2.6l0.9-1.3L77.7,72.5L77.7,72.5z M72.3,72.5
					L72.3,72.5l1.5-0.5l0.9,1.3l-1.8,2.6l-0.6,0.8V72.5z M72.3,77.6l1.9-2.7l0.8-1.2l0.8,1.2l1.9,2.7v2.9L75,81.5l-2.7-0.9V77.6z
					 M81.2,81.7l1.7-2.4l2.9-1l1.5-0.5v4.8h0L85.6,85l-2.7-0.9L81.2,81.7z M85.8,85.7l1.5-2.1v2.6l2.4,0.8v0l-2.4,0.8v2.6l-1.5-2.1
					l-2.4,0.8l1.5-2.1l-1.5-2.1L85.8,85.7z M87.7,88.1l2.7-0.9l4.4,1.5l-2.7,3.9l-2.7,0.9l0,0l-1.7-2.4V88.1z M90.4,86.7L90.4,86.7
					l-2.7-0.9v-2.9l1.7-2.4l2.7,0.9l2.7,3.9L90.4,86.7z M89.2,79.8l-1.5,2.1v-4.2l1.8-0.6l2-0.7l-1.5,2.1l1.5,2.1L89.2,79.8z
					 M89.8,76.5l-2,0.7v-4.8l1.7-2.4l2.7,0.9l1.7,2.4l-1.7,2.4L89.8,76.5L89.8,76.5z M90.7,68.1l1.7-2.4l4.4-1.5V69l-1.7,2.4
					l-2.7-0.9L90.7,68.1z M92.1,65.2l-2.7,0.9l-1.7-2.4v-2.9l2.7-0.9l4.4,1.5l-1.4,2l0,0L92.1,65.2z M90.4,59.4l-2.7-0.9v-2.9
					l1.7-2.4l2.7,0.9l1.2,1.7l1.5,2.1l0,0L90.4,59.4z M87.7,54.6v-4.2l1-0.3l2.8-0.9l-1.5,2.1l1.5,2.1l-2.4-0.8L87.7,54.6z
					 M92.1,48.4l-3.2,1.1l-1.2,0.4v-4.8l1.7-2.4l2.7,0.9l1.7,2.4L92.1,48.4z M89.6,59.6L89.6,59.6l-2.4,0.8V63l-1.5-2.1l-2.4,0.8
					l1.5-2.1l-1.5-2.1l2.4,0.8l1.5-2.1v2.6L89.6,59.6z M87.2,55.3L87.2,55.3l-1.7,2.4l-2.7-0.9l-1.7-2.4l1.7-2.4L86,51l1.2-0.4V55.3
					z M87.2,50l-1.1,0.4l-2.8,0.9l1.5-2.1l-1.5-2.1l2.4,0.8h0l1.5-2.1V50z M84.2,49.2l-1.7,2.4l-2.7,0.9l-1.7-2.4v-4.8l4.4,1.5
					L84.2,49.2z M79.7,53.1l2.4-0.8l-1.5,2.1l1.5,2.1l-2.4-0.8l-1.5,2.1v-2.6l-2.4-0.8l2.4-0.8V51L79.7,53.1z M77.7,49.4L77.7,49.4
					L75.3,46l0.9-1.3l1.5,0.5V49.4z M77.7,50.3v2.9L75,54.1l-2.7-0.9v-2.9l2.7-3.9L77.7,50.3z M72.3,49.3L72.3,49.3L72.3,49.3l0-4.1
					l1.5-0.5l0.9,1.3L72.3,49.3z M71.8,50.1l-0.4,0.6l-1.2,1.8l-2.7-0.9l-1.7-2.4l1.7-2.4l0,0l3.2-1.1l1.1-0.4V50.1z M65.1,49.2
					l1.5,2.1l-2.4-0.8l-1.5,2.1V50l-2.4-0.8l2.4-0.8v-2.6l1.5,2.1l2.4-0.8L65.1,49.2z M62.2,48l-2.7,0.9l-4.4-1.5l2.7-3.9l2.7-0.9
					l0,0l1.7,2.4V48z M59.5,49.5l2.7,0.9v2.9l-1.7,2.4l-2.7-0.9L56,52.2L55.2,51L59.5,49.5z M60.8,56.3l1.5-2.1v4.2l-2.6,0.9
					l-1.3,0.4l1.5-2.1l-1.5-2.1L60.8,56.3z M59.8,59.8L59.8,59.8l2.4-0.8v4.8l-1.7,2.4l-2.7-0.9l-1.7-2.4l1.7-2.4L59.8,59.8z
					 M59.2,68.1L59.2,68.1l-1.7,2.4l-4,1.4l-0.4,0.1v-4.8l1.7-2.4l2.7,0.9L59.2,68.1z M57.1,72l0.7-1.1l2.7-0.9l1.7,2.4v2.9
					l-2.7,0.9l-4.4-1.5L57.1,72L57.1,72z M59.5,76.8L59.5,76.8l2.7,0.9v2.9L60.6,83l-2.7-0.9l-2.7-3.9L59.5,76.8z M60.8,83.7
					L60.8,83.7l1.5-2.1v4.2l-2,0.7l-1.9,0.6l1.5-2.1l-1.5-2.1L60.8,83.7z M60.1,87l2.1-0.7v4.8l-1.7,2.4l-2.7-0.9l-1.7-2.4l1.7-2.4
					L60.1,87z M62.2,96.2v2.6l-1.5-2.1l-2.4,0.8l1.5-2.1l-1.5-2.1l2.4,0.8l1.5-2.1v2.6l2.4,0.8L62.2,96.2z M62.7,94.2L62.7,94.2
					l0-2.9l1.7-2.4l2.7,0.9l0.4,0.5l2.3,3.3l-2.7,0.9l-1.7,0.6L62.7,94.2z M71,95.4l-0.9,1.3l-3.6-1.2v0l-0.3-0.1l1.3-0.4l2.6-0.9
					L71,95.4z M71.8,93l-1.5,0.5l-2.2-3.2l-0.2-0.2l2.9,1l1,0.3V93z M71.8,90.8l-1.3-0.4l-3.1-1L65.8,87l1.7-2.4l2.7-0.9l1.7,2.4
					V90.8z M71.8,85.1L70.3,83l-2.4,0.8l1.5-2.1l-1.5-2.1l2.4,0.8l1.5-2.1v2.6l2.4,0.8l-2.4,0.8V85.1z M73.8,91.5L72.3,91v-4.2
					l2.4,3.4L73.8,91.5z M75,89.7l-2.7-3.9v-2.9L75,82l2.7,0.9v2.9L75,89.7z M77.7,91l-1.5,0.5l-0.9-1.3l2.4-3.4V91z M78.2,86
					L78.2,86l1.7-2.4l1.6,0.5l1.1,0.4l1.7,2.4l-1.7,2.4l-0.5,0.2l-3.9,1.3V86z M78.2,93v-1.6l3.8-1.3l-2.4,3.4L78.2,93z M79.9,96.7
					l-0.9-1.3l0.9-1.3l2.7,0.9l1.2,0.4L79.9,96.7z M84.5,95.1l-1.6-0.5v0l-2.7-0.9l2.7-3.9l2.7-0.9l1.7,2.4v2.9L84.5,95.1z
					 M89.2,96.7l-1.5,2.1v-2.6l-2.4-0.8l2.4-0.8V92l1.5,2.1l2.4-0.8l-1.5,2.1l1.5,2.1L89.2,96.7z M96.8,96.3l-1.7,2.4l-2.7-0.9
					l-1.7-2.4l1.7-2.4l3.3-1.1l1-0.4V96.3z M96.8,89.4V91l-3.8,1.3l2.4-3.4L96.8,89.4z M96,87l-0.9,1.3L91.3,87l3.8-1.3L96,87z
					 M96.8,84.5L95.3,85l-2.4-3.4l2.9,1l1,0.3V84.5z M96.8,82.4l-1.3-0.5l-3-1l-1.7-2.4l1.7-2.4l1.7-0.6l1-0.3l1.3,1.9l0.4,0.5V82.4
					z M99.1,73.3l-2.4,0.8v2.6l-1.5-2.1l-2.4,0.8l1.5-2.1l-1.5-2.1l2.4,0.8l1.5-2.1v2.6L99.1,73.3z M96.8,62.1v1.6L92.9,65l1-1.4
					l1.4-2L96.8,62.1z M96,59.6l-0.9,1.3v0l-3.8-1.3l-0.1,0l3.8-1.3L96,59.6z M96.8,57.2L96.8,57.2l-1.5,0.5l-1.5-2.1l-0.9-1.3
					l1.1,0.4l2.7,0.9V57.2z M99.1,46l-2.4,0.8v2.6l-1.5-2.1l-2.4,0.8l1.5-2.1l-1.5-2.1l2.4,0.8l1.5-2.1v2.6L99.1,46z M92.4,38.4
					l4.4-1.5v4.8l-1.7,2.4l-2.7-0.9l-1.7-2.4L92.4,38.4z M87.7,40v-2.6l1.5,2.1l2.4-0.8l-1.5,2.1l1.5,2.1l-2.4-0.8l-1.5,2.1v-2.6
					l-2.4-0.8L87.7,40z M84.5,41l2.7,0.9v2.9l-1.7,2.4l-2.7-0.9l-1.2-1.7l-1.5-2.1L84.5,41z M81.1,44.8l0.9,1.3l-3.8-1.3v-1.6
					l1.5-0.5L81.1,44.8z M71.7,40.8l-1-1.5l1.7-0.6v-1.8l1.7,0.6l1-1.5l1,1.5l1.7-0.6v1.8l1.7,0.6l-1,1.5l1,1.5l-1.7,0.6v1.8
					L76,44.1l-1,1.5l-1-1.5l-1.7,0.6v-1.8l-1.7-0.6L71.7,40.8z M70.3,42.7l1.5,0.5h0v1.6L71.3,45l-3.4,1.1L70.3,42.7z M69.8,42.5
					l-2.7,3.9v0l-2.7,0.9l-1.7-2.4V42l2.7-0.9L69.8,42.5z M60.8,39.5l1.5-2.1V40l2.4,0.8l-2.4,0.8v2.6l-1.5-2.1l-2.4,0.8l1.5-2.1
					l-1.5-2.1L60.8,39.5z M53.2,39.9l1.7-2.4l2.7,0.9l1.7,2.4l-1.7,2.4l-4.4,1.5V39.9z M53.2,46.8v-1.6l3.8-1.3l-2.4,3.4L53.2,46.8z
					 M54,49.2l0.9-1.3l3.8,1.3l-3.8,1.3L54,49.2z M53.2,51.6l1.5-0.5l0.8,1.2l1.5,2.2l-3.8-1.3V51.6z M53.2,53.8l4.4,1.5l1.7,2.4
					L57.6,60l-2.7,0.9l-1.7-2.4V53.8z M50.8,62.9l2.4-0.8v-2.6l0,0l1.5,2.1l2.4-0.8l-1.5,2.1l1.5,2.1l-0.3-0.1l-2.1-0.7l-1.2,1.7
					l-0.3,0.4v-2.6L50.8,62.9z M53.2,74.1v-1.6l3.3-1.1l0.6-0.2l-1.1,1.6l-1.3,1.8L53.2,74.1z M54,76.5l0.9-1.3v0l3.8,1.3l-3.8,1.3
					L54,76.5z M53.2,78.9l1.5-0.5l2.4,3.4l-3.8-1.3V78.9z M53.2,81.1l0.9,0.3l3.4,1.2l1.7,2.4l-1.7,2.4l-2.7,0.9l-1.7-2.4V81.1z
					 M53.2,86.8l1.5,2.1l2.4-0.8l-1.5,2.1l1.5,2.1l-2.4-0.8l-1.5,2.1V91l-2.4-0.8l2.4-0.8V86.8z"/>
				<path class="st1" d="M72.3,50.3v-7.5l-1.7-0.6l0,0l1-1.5l-1-1.5l1.7-0.6V28.4l3.5-1.2L72.3,26v-8.6l-5.2,1.8l0,0L64.4,20
					l-2.2-3.1v3.8l-2.7,0.9l0,0l-0.3,0.1l-0.5,0.2l0,0l-3.8,1.3L54,21.9l1.2-1.8l-2-0.7v-2.2l-2,0.7L50,16.3L48.8,18l-2-0.7v2.2
					l-2,0.7l1.2,1.8l-0.9,1.3l-3.8-1.3l0,0l-0.5-0.2l-0.3-0.1l0,0l-2.7-0.9v-3.8L35.6,20l-2.7-0.9L29.7,18l-2,2.8v7.5l1.7,0.6l0,0
					l-1,1.5l1,1.5l-1.7,0.6v10.4L24.2,44l3.5,1.2v10.4l1.7,0.6l-1,1.5l1,1.5l-1.7,0.6v10.4l-3.5,1.2l3.5,1.2v8.6l5.1-1.7l0.1,0
					l2.7-0.9l2.2,3.1l0,0l1.5,2.1l3.2-1.1l2.9-4.1l1.5,0.5v2.2l2-0.7l1.2,1.8l1.2-1.8l2,0.7V79l1.5-0.5l2.9,4.1l3.2,1.1l2-2.8l0,0
					l1.7-2.4l2.7,0.9l3.2,1.1l2-2.8v-7.5l-1.7-0.6l1-1.5l-1-1.5l1.7-0.6V55.7l3.5-1.2l-3.5-1.2L72.3,50.3L72.3,50.3z M71.8,77.5
					l-1.7,2.4L67.4,79l-1.7-2.4l1.7-2.4l0,0l0,0l3.3-1.1l1-0.4V77.5z M62.2,80.7l-1.7,2.4l-2.7-0.9l-2.7-3.9l0,0l0,0l3.3-1.1l1-0.4
					l2.7,0.9V80.7L62.2,80.7z M52.7,80.4L51,79.9l-1,1.5l-1-1.5l-1.7,0.6v-1.8l-1.7-0.6l1-1.5l-1-1.5l1.7-0.6v-1.8l0,0l1.7,0.6
					l1-1.5l1,1.5l1.7-0.6l0,0v1.8l1.7,0.6l-1,1.5l1,1.5l-1.7,0.6V80.4z M39.4,83.1l-1.7-2.4v-2.9l2.7-0.9l1.2,0.4l3.2,1.1l0,0l0,0
					l-2.7,3.9L39.4,83.1L39.4,83.1z M37.3,80l-1.5-2.1l-2.4,0.8l1.5-2.1l-1.5-2.1l2.4,0.8l1.5-2.1v2.6l2.4,0.8l-2.4,0.8V80L37.3,80z
					 M28.2,21l1.7-2.4l2.7,0.9l1.7,2.4l-1.7,2.4l0,0l0,0l-4.4,1.5V21z M37.3,18.5v2.6l2.4,0.8l-2.4,0.8v2.6l-1.5-2.1l-2.4,0.8
					l1.5-2.1l-1.5-2.1l2.4,0.8L37.3,18.5L37.3,18.5z M46.7,21.9l-1-1.5l1.7-0.6v-1.8l1.7,0.6l1-1.5l1,1.5l1.7-0.6v1.8l1.7,0.6
					l-1,1.5l1,1.5L52.7,24v1.8l0,0L51,25.2l-1,1.5l-1-1.5l-1.7,0.6l0,0V24l-1.7-0.6L46.7,21.9L46.7,21.9z M55.2,23.7l4.4-1.5
					l2.7,0.9v2.9l-1.7,2.4l-2.7-0.9l-1.2-1.7L55.2,23.7L55.2,23.7L55.2,23.7L55.2,23.7z M62.7,18.5l1.5,2.1l2.4-0.8L65.1,22l1.5,2.1
					l-2.4-0.8l-1.5,2.1l0,0v-2.6L60.4,22l2.4-0.8V18.5L62.7,18.5z M30.2,32.1l4.4-1.5l2.7,0.9v2.9l-1.7,2.4L32.9,36L31,33.3
					L30.2,32.1L30.2,32.1z M69.8,39.1L69.8,39.1l-4.4,1.5l-2.7-0.9v-2.9l1.7-2.4l2.7,0.9l1.2,1.7L69.8,39.1L69.8,39.1z M64.6,68.1
					l-2.4,0.8v2.6l-1.5-2.1l-2.4,0.8l1.5-2.1L58.4,66l2.4,0.8l1.5-2.1v2.6L64.6,68.1L64.6,68.1L64.6,68.1L64.6,68.1z M52.7,68
					L52.7,68v4.2l-1.5,0.5l-0.9-1.3L52.7,68L52.7,68z M49.7,71.4l-0.9,1.3l-1.5-0.5V68l0,0L49.7,71.4L49.7,71.4z M42.9,71.3l2.9,1
					l1,0.3v1.6l-1.5,0.5l-2.2-3.2L42.9,71.3z M37.3,67.5v4.8l-1.7,2.4l-2.7-0.9l-1.7-2.4l1.7-2.4l2.2-0.8L37.3,67.5L37.3,67.5z
					 M34.9,49.3l-1.5-2.1l2.4,0.8l1.5-2.1v2.6l2.4,0.8l-2.4,0.8v2.6l0,0l-1.5-2.1l-2.4,0.8L34.9,49.3L34.9,49.3z M47.3,30.6
					L47.3,30.6v-4.2l1.5-0.5l0.9,1.3L47.3,30.6L47.3,30.6L47.3,30.6z M50.3,27.2l0.9-1.3l1.5,0.5v4.2l0,0l0-0.1L50.3,27.2L50.3,27.2
					z M62.7,31v-4.8l1.7-2.4l2.7,0.9l1.7,2.4l-1.7,2.4l-3.2,1.1L62.7,31L62.7,31z M49.2,35.6l-2.4,0.8V39l-1.5-2.1l-2.4,0.8l1.5-2.1
					l-1.5-2.1l2.4,0.8l1.5-2.1v2.6L49.2,35.6L49.2,35.6z M55.6,62.9l1.5,2.1l-2.4-0.8l-1.5,2.1v-2.6l-2.4-0.8l2.4-0.8v-2.6l1.5,2.1
					l2.4-0.8L55.6,62.9L55.6,62.9z M56.1,45.2l-1.5,2.1l-1.5-0.5v-1.6l3.8-1.3L56.1,45.2L56.1,45.2z M53.3,49.3l1,1.5l-1.7,0.6v1.8
					l0,0L51,52.6L50,54l-1-1.5l-1.7,0.6l0,0v-1.8l-1.7-0.6l1-1.5l-1-1.5l1.7-0.6v-1.8l0,0L49,46l1-1.5l1,1.5l1.7-0.6l0,0v1.8
					l1.7,0.6L53.3,49.3z M47.3,53.7l1.5-0.5l0.9,1.3l-1.8,2.6l-0.6,0.8V53.7L47.3,53.7z M52.7,53.7v4.2l-0.6-0.8l-1.8-2.6l0.9-1.3
					L52.7,53.7L52.7,53.7z M57,54.6l-3.8-1.3l0,0v-1.6l1.5-0.5L57,54.6L57,54.6z M52.7,40.6v4.2l-1.5,0.5L50.3,44L52.7,40.6
					L52.7,40.6L52.7,40.6L52.7,40.6z M47.3,40.6L47.3,40.6L47.3,40.6l2.4,3.4l-0.9,1.3l-1.5-0.5V40.6L47.3,40.6z M46.3,45.1l0.5,0.2
					v1.6l-1.5,0.5l-2.4-3.4L46.3,45.1z M57.6,43.2L57.6,43.2l-4.4,1.5v-4.8l1.7-2.4l2.7,0.9l1.7,2.4L57.6,43.2L57.6,43.2L57.6,43.2z
					 M52.7,36.8v2.9L50,43.6l0,0l0,0l-2.7-3.9v-2.9l2.7-0.9l0,0l0,0L52.7,36.8z M42.4,38.4L42.4,38.4l2.7-0.9l1.7,2.4v4.8l-1.1-0.4
					l-3.2-1.1l0,0l0,0l-1.7-2.4L42.4,38.4L42.4,38.4L42.4,38.4z M42.1,43.7l2.7,3.9L40.5,49l-2.7-0.9v-2.9l1.7-2.4L42.1,43.7
					L42.1,43.7z M41.3,49.3l3.8-1.3l0.9,1.3l-0.9,1.3L41.3,49.3L41.3,49.3L41.3,49.3z M44.8,51L44.8,51L44.8,51l-1.1,1.5l-1.6,2.3
					l-2.7,0.9l-1.7-2.4v-2.9l2.7-0.9l0.9,0.3L44.8,51L44.8,51z M44.4,52.5l0.9-1.4l1.5,0.5v1.6l0,0l-3.3,1.1l-0.5,0.2L44.4,52.5
					L44.4,52.5z M43,55.1l3.8-1.3v4.8L45.1,61l-2.7-0.9l-1.7-2.4l1.7-2.4L43,55.1L43,55.1z M47.3,58.8l1.9-2.7l0.8-1.2l0.8,1.2
					l1.9,2.7v2.9L50,62.6l-2.7-0.9L47.3,58.8L47.3,58.8z M54.9,61l-1.7-2.4v-4.8l4.4,1.5l1.7,2.4l-1.7,2.4L54.9,61z M57.9,54.9
					L55.2,51l0,0l0,0l3.3-1.1l1-0.4l2.7,0.9v2.9l-1.7,2.4L57.9,54.9L57.9,54.9z M54.9,50.6L54,49.3l0.9-1.3l3.8,1.3l0,0l0,0
					L54.9,50.6z M55.2,47.5L55.2,47.5L55.2,47.5l1.5-2.1l1.2-1.7l2.7-0.9l1.7,2.4v2.9L59.5,49L55.2,47.5L55.2,47.5z M62.2,36.5
					l-1.7,2.4L57.9,38l-1.7-2.4l1.7-2.4l3.2-1.1l1.2-0.4L62.2,36.5L62.2,36.5z M55.6,35.6l1.5,2.1l-2.4-0.8L53.2,39v-2.6l-2.4-0.8
					l2.4-0.8v-2.6l1.5,2.1l2.4-0.8L55.6,35.6L55.6,35.6z M37.8,39.5v-4.8l1.7-2.4l2.7,0.9l1.7,2.4L42.1,38l-4.2,1.4L37.8,39.5
					L37.8,39.5z M37.8,44.2V40l3.8-1.3l-1.5,2.1l1.5,2.1l-2.4-0.8L37.8,44.2L37.8,44.2z M37.8,62l1.7-2.4l2.7,0.9l1.7,2.4l-1.7,2.4
					l-2.6,0.9l-1.8,0.6L37.8,62L37.8,62z M37.8,71.5v-4.2l1.6-0.5l2.3-0.8l-1.5,2.1l1.5,2.1l-2.4-0.8L37.8,71.5L37.8,71.5L37.8,71.5
					z M44.4,62.9l-1.5-2.1l2.4,0.8l1.5-2.1v2.6l2.4,0.8l-2.4,0.8v2.6l-1.5-2.1L42.9,65L44.4,62.9L44.4,62.9z M53.2,67.2l1.7-2.4
					l1.6,0.5l1.1,0.4l1.7,2.4l-1.7,2.4l-0.5,0.2L53.2,72L53.2,67.2L53.2,67.2z M62.2,63.8l-1.7,2.4l-2.7-0.9l0,0l0,0l-1.7-2.4
					l1.7-2.4l2.9-1l1.5-0.5L62.2,63.8L62.2,63.8z M62.2,58.5l-3.8,1.3l0,0l0,0l1.5-2.1l-1.5-2.1l2.4,0.8l1.5-2.1L62.2,58.5
					L62.2,58.5z M64.6,40.8l-2.4,0.8v2.6l-1.5-2.1l-2.4,0.8l1.5-2.1l-1.5-2.1l2.4,0.8l1.5-2.1V40L64.6,40.8L64.6,40.8L64.6,40.8
					L64.6,40.8z M52.7,31.5v2.9L50,35.3l0,0l0,0l-2.7-0.9v-2.9l2.7-3.9l0,0l0,0L52.7,31.5z M34.9,41l2.4-0.8V45l-1.7,2.4l-2.7-0.9
					L31.2,44l1.7-2.4L34.9,41L34.9,41z M35.4,57.7l2.4-0.8v-2.6l1.5,2.1l2.4-0.8l-1.5,2.1l1.5,2.1L39.2,59l-1.5,2.1l0,0v-2.6
					L35.4,57.7L35.4,57.7L35.4,57.7L35.4,57.7z M46.8,72l-1.3-0.4l-3.1-1l-1.7-2.4l1.7-2.4l2.7-0.9l1.7,2.4V72L46.8,72z M47.3,67.1
					v-2.9l2.7-0.9l2.7,0.9v2.9L50,70.9l0,0l0,0L47.3,67.1L47.3,67.1z M53.2,72.6l3.8-1.3l-2.4,3.4l-1.5-0.5V72.6L53.2,72.6z
					 M64.8,57.7l-2,0.7v-4.8l1.7-2.4l2.7,0.9l1.7,2.4l-1.7,2.4L64.8,57.7L64.8,57.7z M64.2,50.6l-1.5,2.1l0,0v-2.6l-2.4-0.8l2.4-0.8
					v-2.6l0,0l1.5,2.1l2.4-0.8l-1.5,2.1l1.5,2.1L64.2,50.6L64.2,50.6z M71.8,45.4v4.8l-1.7,2.4l-2.7-0.9l-1.7-2.4l1.7-2.4l0,0l0,0
					L71.8,45.4L71.8,45.4z M71.8,44.9l-3.8,1.3l1-1.4l1.4-2l1.5,0.5V44.9z M68.4,44.6l-1.3,1.8l-2.7,0.9L62.7,45V42l2.7-0.9l4.4,1.5
					L68.4,44.6L68.4,44.6z M64.2,33.7l-1.5,2.1l0,0v-4.2l1-0.3l2.8-0.9l-1.5,2.1l1.5,2.1L64.2,33.7L64.2,33.7z M60.8,29.1l1.5-2.1
					v4.2l-1.1,0.4l-2.8,0.9l0,0l0,0l1.5-2.1l-1.5-2.1L60.8,29.1L60.8,29.1z M57.6,32.8l-2.7,0.9l-1.7-2.4v-4.8l4.4,1.5l0,0l0,0
					l1.7,2.4L57.6,32.8L57.6,32.8z M42.4,28L42.4,28l3.2-1.1l1.1-0.4v4.8l-0.4,0.6l-1.2,1.8l-2.7-0.9l0,0l0,0l-1.7-2.4L42.4,28
					L42.4,28L42.4,28z M40.1,30.4l1.5,2.1l0,0l0,0l-2.4-0.8l-1.5,2.1l0,0v-2.6l-2.4-0.8l0,0l0,0l2.4-0.8V27l0,0l1.5,2.1l2.4-0.8
					L40.1,30.4L40.1,30.4z M35.6,23.9l1.7,2.4v2.9l-2.7,0.9l-4.4-1.5l2.7-3.9L35.6,23.9L35.6,23.9z M35.8,37.5l1.5-2.1v4.2l-2.6,0.9
					l-1.3,0.4l1.5-2.1l-1.5-2.1L35.8,37.5L35.8,37.5z M34.2,49.3l-1.7,2.4l-4,1.4l-0.4,0.1v-4.8l1.7-2.4l2.7,0.9l0,0l0,0L34.2,49.3
					L34.2,49.3z M28.2,53.7l3.3-1.1l0.6-0.2L31,54l-1.3,1.8l-1.5-0.5V53.7L28.2,53.7z M32.2,53.2l0.7-1.1l2.7-0.9l1.7,2.4v2.9
					l-2.7,0.9L30.2,56L32.2,53.2L32.2,53.2z M34.6,58l2.7,0.9v2.9l-1.7,2.4l-2.7-0.9l-2.7-3.9L34.6,58L34.6,58z M35.8,64.8l1.5-2.1
					v4.2l-2,0.7l-1.9,0.6l1.5-2.1L33.4,64L35.8,64.8L35.8,64.8z M37.8,75.4v-2.9l1.7-2.4l2.7,0.9l0.4,0.5l2.3,3.3l0,0l0,0l-2.7,0.9
					l-1.7,0.6L37.8,75.4L37.8,75.4z M57.9,75.8l-2.7-0.9l0,0l0,0l2.7-3.9l2.7-0.9l1.7,2.4v2.9l-2.7,0.9L57.9,75.8L57.9,75.8z
					 M64.4,74.7l-1.7-2.4v-2.9l2.7-0.9l4.4,1.5l-2.7,3.9L64.4,74.7L64.4,74.7z M65.4,67.9l-2.7-0.9V64l1.7-2.4l2.7,0.9l2.7,3.9
					L65.4,67.9L65.4,67.9z M64.2,61l-1.5,2.1l0,0v-4.2l1.8-0.6l2-0.7l-1.5,2.1l1.5,2.1L64.2,61L64.2,61z M70.1,42.1l-3.8-1.3l-0.1,0
					l3.8-1.3l0.9,1.3L70.1,42.1L70.1,42.1z M71.8,38.4l-1.5,0.5l-1.5-2.1l-0.9-1.3l1.1,0.4l2.7,0.9L71.8,38.4L71.8,38.4z M71.8,36.2
					l-3-1l-1.4-0.5l0,0l0,0l-1.7-2.4l1.7-2.4l2.7-0.9l1.7,2.4L71.8,36.2L71.8,36.2z M71.8,30.6l-1.5-2.1l-2.4,0.8l1.5-2.1l-1.5-2.1
					l2.4,0.8l1.5-2.1v2.6l2.4,0.8L71.8,28V30.6L71.8,30.6z M71.8,18.1v4.8l-1.7,2.4l-2.7-0.9l-1.7-2.4l1.7-2.4L71.8,18.1z
					 M57.1,27.3L53.2,26v-1.6l1.5-0.5l1.5,2.1L57.1,27.3z M46.8,24.4V26l-0.5,0.2l-3.4,1.1l2.4-3.4L46.8,24.4z M42.1,27.6l-2.7,0.9
					l-1.7-2.4v-2.9l2.7-0.9l4.4,1.5L42.1,27.6L42.1,27.6z M28.2,26.4l3.8-1.3l-2.4,3.4L28.2,28V26.4L28.2,26.4z M29.9,29.1l3.8,1.3
					l-3.8,1.3L29,30.4L29.9,29.1z M28.2,32.8l1.5-0.5l0.8,1.2l1.5,2.2l-3.8-1.3L28.2,32.8L28.2,32.8z M28.2,35l4.4,1.5l0,0l0,0
					l1.7,2.4l-1.7,2.4l0,0l0,0l-2.7,0.9l-1.7-2.4V35L28.2,35z M28.2,40.6l1.5,2.1l2.4-0.8L30.6,44l1.5,2.1L31.8,46l-2.1-0.7L28.5,47
					l-0.3,0.4v-2.6L25.8,44l2.4-0.8L28.2,40.6L28.2,40.6z M29.9,56.4L29.9,56.4L29.9,56.4l3.8,1.3L29.9,59L29,57.7L29.9,56.4
					L29.9,56.4z M28.2,60.1l1.5-0.5l2.4,3.4l-3.8-1.3V60.1L28.2,60.1z M28.2,62.3l0.9,0.3l3.4,1.2l1.7,2.4l-1.7,2.4l-2.7,0.9
					l-1.7-2.4V62.3L28.2,62.3z M28.2,68l1.5,2.1l2.4-0.8l-1.5,2.1l1.5,2.1l-2.4-0.8l-1.5,2.1v-2.6l-2.4-0.8l2.4-0.8V68L28.2,68z
					 M28.2,80.4v-4.8l1.7-2.4l2.7,0.9l0,0l0,0l1.7,2.4L32.6,79L28.2,80.4z M41.6,76.7l-0.3-0.1l0,0l0,0l1.3-0.4l2.6-0.9l0.9,1.3
					l-0.9,1.3L41.6,76.7L41.6,76.7z M54.9,75.3l2.7,0.9l1.2,0.4l0,0l0,0l-3.8,1.3L54,76.6L54.9,75.3z M62.7,80v-2.6l-2.4-0.8
					l2.4-0.8v-2.6l1.5,2.1l2.4-0.8l-1.5,2.1l1.5,2.1l-2.4-0.8L62.7,80L62.7,80z M71.8,72.2l-3.8,1.3l0,0l0,0l2.4-3.4l1.5,0.5V72.2
					L71.8,72.2z M70.1,69.4l-3.8-1.3l3.8-1.3l0.9,1.3L70.1,69.4z M71.8,65.7l-1.5,0.5l-2.4-3.4l2.9,1l1,0.3V65.7L71.8,65.7z
					 M71.8,63.6l-1.3-0.5l-3-1l-1.7-2.4l1.7-2.4l1.7-0.6l1-0.3l1.3,1.9l0.4,0.5V63.6L71.8,63.6z M71.8,57.9l-1.5-2.1l0,0l0,0
					l-2.4,0.8l1.5-2.1l-1.5-2.1l2.4,0.8l1.5-2.1v2.6l2.4,0.8l-2.4,0.8V57.9L71.8,57.9z"/>
				<path class="st1" d="M47.3,31.5L47.3,31.5l0-7.5l-1.7-0.6l1-1.5l-1-1.5l1.7-0.6V9.5l3.5-1.2l-3.5-1.2v-7h-0.5V4l-1.7,2.4
					l-2.7-0.9l-1.7-2.4l1.7-2.4c0,0,0.9-0.3,1.6-0.6h-1.7l-0.3,0.1l-2.7,0.9l-0.7-1h-0.6l1.1,1.6L41.6,1l-1.5,2.1l1.5,2.1l-2.4-0.8
					l-1.5,2.1V3.9l-2.4-0.8l2.4-0.8V0.2h-0.5v1.7l-2.7,0.9L34.3,3l-0.5,0.2l-3.8,1.3L29,3.1l1.2-1.8l-2-0.7V0.2h-0.5v0.9l1.7,0.6
					l-1,1.5l1,1.5l-1.7,0.6V7L26,6.4l-1,1.5l-1-1.5L22.3,7V5.2l-1.7-0.6l1-1.5l-1-1.5l1.7-0.6V0.2h-0.5v0.5l-2,0.7l1.2,1.8l-0.9,1.3
					l-3.8-1.3L15.8,3l-0.3-0.1l-2.7-0.9V0.2h-0.5v2.1l2.4,0.8l-2.4,0.8v2.6l-1.5-2.1L8.4,5.2l1.5-2.1L8.4,1l2.4,0.8l1.1-1.6h-0.6
					l-0.7,1L7.9,0.3L7.6,0.2H6l1.6,0.6l1.7,2.4L7.6,5.5L3.2,7V2.2h0l1.4-2H4L2.7,2.1v7.5l1.7,0.6l-1,1.5l1,1.5l-1.7,0.6V24L-0.1,25
					v0.5l2.8,0.9v10.4l1.7,0.6l-1,1.5l1,1.5l-1.7,0.6v10.4l-2.8,0.9v0.5l2.8,0.9v8.6l5.1-1.7l0.1,0l2.7-0.9l2.2,3.1l1.5,2.1l3.2-1.1
					l2.9-4.1l1.5,0.5v2.2l2-0.7l1.2,1.8l1.2-1.8l2,0.7v-2.2l1.5-0.5l2.9,4.1l3.2,1.1l2-2.8l1.7-2.4l2.7,0.9l3.2,1.1l2-2.8v-7.5
					l-1.7-0.6l1-1.5l-1-1.5l1.7-0.6V36.9l3.5-1.2l-3.5-1.2V31.5z M46.8,24.4V26l-3.8,1.3l1-1.4l1.4-2L46.8,24.4z M32.9,56.9L30.2,56
					l2.7-3.9l2.7-0.9l1.7,2.4v2.9l-2.7,0.9L32.9,56.9L32.9,56.9z M10.3,48.8l-1.9,0.6l1.5-2.1l-1.5-2.1l2.4,0.8l1.5-2.1v4.2
					L10.3,48.8z M12.3,48.7v4.8l-1.7,2.4l-2.7-0.9l-1.7-2.4l1.7-2.4l2.2-0.8L12.3,48.7z M10.6,45.4l-2.7-0.9l-2.7-3.9l4.4-1.5l0,0
					l2.7,0.9V43L10.6,45.4z M39.6,22L39.6,22l-2.4,0.8v2.6l-1.5-2.1l-2.4,0.8l1.5-2.1l-1.5-2.1l2.4,0.8l1.5-2.1v2.6L39.6,22z
					 M46.8,17.4l-3-1l-1.4-0.5l-1.7-2.4l1.7-2.4l2.7-0.9l1.7,2.4L46.8,17.4L46.8,17.4z M43.3,18.2l1.5,2.1l0,0l-4.3,1.5l-2.7-0.9
					v-2.9l1.7-2.4l2.7,0.9L43.3,18.2z M37.8,33.9v-2.6l-2.4-0.8l2.4-0.8V27l1.5,2.1l2.4-0.8l-1.5,2.1l1.5,2.1l-2.4-0.8v0L37.8,33.9z
					 M37.3,34.6L35.6,37l-2.7-0.9l0,0l-2.7-3.9l3.3-1.1l1-0.4l2.7,0.9V34.6z M37.3,35.5v4.2L33.4,41l1.5-2.1l-1.5-2.1l2.4,0.8
					L37.3,35.5z M30.2,28.7l1.5-2.1l1.2-1.7l2.7-0.9l1.7,2.4v2.9l-2.7,0.9L30.2,28.7z M33.7,30.4l-3.8,1.3L29,30.4l0.9-1.3
					L33.7,30.4z M32.1,35.8L32.1,35.8l-3.8-1.3v-1.6l1.5-0.5L32.1,35.8z M32.6,36.5l1.7,2.4l-1.7,2.4l-2.7,0.9v0l-1.7-2.4V35
					L32.6,36.5z M32.9,41.7l2.9-1l1.5-0.5V45h0l-1.7,2.4l-2.7-0.9l-1.7-2.4L32.9,41.7z M39.4,28.5l-1.7-2.4v-2.9l2.7-0.9l4.4,1.5
					l-1.4,2l0,0l-1.3,1.8L39.4,28.5z M34.2,22l-1.7,2.4l-4.4,1.5v-4.8l1.7-2.4l2.7,0.9L34.2,22z M32.1,25.1l-0.9,1.3l-1.5,2.1
					L28.2,28v-1.6L32.1,25.1z M29.4,29l-1,1.5l1,1.5l-1.7,0.6v1.8L26,33.7l-1,1.5l-1-1.5l-1.7,0.6v-1.8l-1.7-0.6l1-1.5l-1-1.5
					l1.7-0.6v-1.8l1.7,0.6l1-1.5l1,1.5l1.7-0.6v1.8L29.4,29z M24.2,37.3l0.8-1.2l0.8,1.2l1.9,2.7v2.9L25,43.8l-2.7-0.9V40L24.2,37.3
					z M22.3,39.1v-4.2l1.5-0.5l0.9,1.3l-1.8,2.6L22.3,39.1z M27.2,38.3l-1.8-2.6l0.9-1.3l1.5,0.5v4.2L27.2,38.3z M21.3,26.3
					L21.3,26.3l0.5,0.2V28l-1.5,0.5L18,25.1L21.3,26.3z M17.5,24.4L15.8,22l1.7-2.4l2.7-0.9l1.7,2.4v4.8l-1.1-0.4L17.5,24.4z
					 M21.1,30.4l-0.9,1.3l-3.8-1.3l3.8-1.3L21.1,30.4z M16.3,31l3.5,1.2l-1.1,1.5l-1.6,2.3L14.4,37l-1.7-2.4v-2.9l2.7-0.9L16.3,31z
					 M17.5,36.5l0.5-0.2l3.8-1.3v4.8l-1.7,2.4l-2.7-0.9l-1.7-2.4L17.5,36.5z M18.5,35.6L18,35.8l1.4-2l0.9-1.4l1.5,0.5v1.6
					L18.5,35.6z M22.3,26v-4.2l0,0.1l2.3,3.3l-0.9,1.3L22.3,26z M25.3,25.2l2.3-3.3l0-0.1V26l-1.5,0.5L25.3,25.2z M27.7,20.9
					L25,24.8l-2.7-3.9V18l2.7-0.9l2.7,0.9V20.9z M24.2,16.8l-2.4,0.8v2.6l-1.5-2.1L18,18.9l1.5-2.1L18,14.7l2.4,0.8l1.5-2.1V16
					L24.2,16.8L24.2,16.8z M21.8,12.5l-0.4,0.6l-1.2,1.8L17.5,14l-1.7-2.4l1.7-2.4l0,0l3.2-1.1l1.1-0.4V12.5z M18.8,16.8l-1.7,2.4
					L13,20.6l-0.2,0.1v-4.8l1.7-2.4l2.7,0.9L18.8,16.8z M16.6,19.9L15.2,22l1.5,2.1l-2.4-0.8l-1.5,2.1v-4.2L16.6,19.9z M14.4,23.9
					l2.7,0.9v0l2.7,3.9l-4.4,1.5l-2.7-0.9v-2.9L14.4,23.9z M14.6,30.4l-2.4,0.8v2.6l-1.5-2.1l-2.4,0.8l1.5-2.1l-1.5-2.1l2.4,0.8
					l1.5-2.1v2.6L14.6,30.4z M12.3,15.7l-1.7,2.4l-2.7-0.9l-1.8-2.6l-0.8-1.2l4.4-1.5l2.7,0.9V15.7z M10.8,18.7l1.5-2.1v4.2
					l-2.6,0.9l-1.3,0.4L9.9,20l-1.5-2.1L10.8,18.7z M9.9,22.2L9.9,22.2l2.4-0.8v4.8l-1.7,2.4l-2.7-0.9l-1.7-2.4l1.7-2.4L9.9,22.2z
					 M9.3,30.4L9.3,30.4l-1.7,2.4l-4,1.4l-0.4,0.1v-4.8l1.7-2.4l2.7,0.9L9.3,30.4z M7.2,34.3l0.7-1.1l2.7-0.9l1.7,2.4v2.9l-2.7,0.9
					l-4.4-1.5L7.2,34.3L7.2,34.3z M10.4,38.9L10.4,38.9l2.4-0.8v-2.6l1.5,2.1l2.4-0.8l-1.5,2.1l1.5,2.1l-2.4-0.8l-1.5,2.1v-2.6
					L10.4,38.9z M12.8,43.2L12.8,43.2l1.7-2.4l2.7,0.9l1.7,2.4l-1.7,2.4l-2.6,0.9L12.8,48V43.2z M16.6,47.2l-1.5,2.1l1.5,2.1
					l-2.4-0.8l-1.5,2.1v-4.2l1.6-0.5L16.6,47.2z M12.8,53.6l1.7-2.4l2.7,0.9l0.4,0.5l2.3,3.3l-2.7,0.9l-1.7,0.6l-2.7-0.9V53.6z
					 M18.1,52.7L18,52.4l0,0l2.9,1l1,0.3v1.6l-1.5,0.5L18.1,52.7z M20.5,52.7l-3.1-1l-1.7-2.4l1.7-2.4l2.7-0.9l1.7,2.4v4.8
					L20.5,52.7z M20.3,45.4L18,46.2l1.5-2.1L18,42l2.4,0.8l1.5-2.1v2.6l2.4,0.8l-2.4,0.8v2.6L20.3,45.4z M22.3,49.1l2.4,3.4
					l-0.9,1.3l-1.5-0.5V49.1z M22.3,48.2v-2.9l2.7-0.9l2.7,0.9v2.9L25,52.1L22.3,48.2z M27.7,49.1v4.2l-1.5,0.5l-0.9-1.3L27.7,49.1z
					 M25.8,44.1l2.4-0.8v-2.6l1.5,2.1l2.4-0.8l-1.5,2.1l1.5,2.1l-2.4-0.8l-1.5,2.1v-2.6L25.8,44.1z M28.2,48.4L28.2,48.4l1.7-2.4
					l1.6,0.5l1.1,0.4l1.7,2.4l-1.7,2.4l-0.5,0.2l-3.9,1.3V48.4z M28.2,53.7l3.8-1.3l-2.4,3.4l-1.5-0.5V53.7z M35.8,50.6l-2.4,0.8
					l1.5-2.1l-1.5-2.1l2.4,0.8l1.5-2.1v2.6l2.4,0.8v0l-2.4,0.8v2.6L35.8,50.6z M37.8,50.5l2.7-0.9l4.4,1.5l-2.7,3.9l-2.7,0.9l0,0
					l-1.7-2.4V50.5z M40.5,49L40.5,49l-2.7-0.9v-2.9l1.7-2.4l2.7,0.9l2.7,3.9L40.5,49z M39.2,42.2l-1.5,2.1v-4.2l1.8-0.6l2-0.7
					l-1.5,2.1l1.5,2.1L39.2,42.2z M39.8,38.8l-2,0.7v-4.8l1.7-2.4l2.7,0.9l1.7,2.4L42.1,38L39.8,38.8L39.8,38.8z M40.8,30.4l1.7-2.4
					l4.4-1.5v4.8l-1.7,2.4l-2.7-0.9L40.8,30.4z M46,22l-0.9,1.3L41.4,22l-0.1,0l3.8-1.3L46,22z M46.8,19.6L46.8,19.6l-1.5,0.5
					L43.9,18l-0.9-1.3l1.1,0.4l2.7,0.9V19.6z M45.3,7.1l1.5-2.1v2.6l2.4,0.8l-2.4,0.8v2.6l-1.5-2.1l-2.4,0.8l1.5-2.1l-1.5-2.1
					L45.3,7.1z M37.8,7.4l1.7-2.4L42.1,6l1.7,2.4l-1.7,2.4l-3.2,1.1l-1.2,0.4V7.4z M37.8,12.8l1-0.3l2.8-0.9l-1.5,2.1l1.5,2.1
					l-2.4-0.8L37.8,17V12.8z M37.3,17.7L37.3,17.7l-1.7,2.4l-2.7-0.9l-1.7-2.4l1.7-2.4l3.2-1.1l1.2-0.4V17.7z M33.4,13.7l1.5-2.1
					l-1.5-2.1l2.4,0.8l1.5-2.1v4.2l-1.1,0.4L33.4,13.7z M34.6,3.4l2.7,0.9v2.9l-1.7,2.4l-2.7-0.9L31.7,7l-1.5-2.1L34.6,3.4z
					 M28.2,5.6l1.5-0.5l1.5,2.1l0.9,1.3l-3.8-1.3V5.6z M28.2,7.7l4.4,1.5l1.7,2.4L32.6,14l-2.7,0.9l-1.7-2.4V7.7z M28.2,13.4
					l1.5,2.1l2.4-0.8l-1.5,2.1l1.5,2.1l-2.4-0.8l-1.5,2.1v-2.6l-2.4-0.8l2.4-0.8V13.4z M26.2,7.1l1.5,0.5v4.2l0-0.1l-2.3-3.3
					L26.2,7.1z M25,8.8l2.7,3.9v2.9L25,16.5l-2.7-0.9v-2.9L25,8.8z M22.3,7.5l1.5-0.5l0.9,1.3l-2.3,3.3l0,0.1V7.5z M20.3,5.1
					l1.5,0.5v1.6l-0.5,0.2L18,8.5L20.3,5.1z M12.8,4.3l2.7-0.9l4.4,1.5l-2.7,3.9v0l-2.7,0.9l-1.7-2.4V4.3z M12.8,10.8V8.2l1.5,2.1
					l2.4-0.8l-1.5,2.1l1.5,2.1l-2.4-0.8L12.8,15v-2.6l-2.4-0.8L12.8,10.8z M7.9,6l2.7-0.9l0,0l1.7,2.4v2.9l-2.7,0.9L5.2,9.8L7.9,6z
					 M3.2,9.2V7.5l3.8-1.3L4.7,9.6L3.2,9.2z M4,11.6l0.9-1.3l3.8,1.3l-3.8,1.3L4,11.6z M3.2,14l1.5-0.5l0.8,1.2l1.5,2.2l-3.8-1.3V14
					z M3.2,16.2l4.4,1.5L9.3,20l-1.7,2.4l-2.7,0.9l-1.7-2.4V16.2z M0.9,25.2l2.4-0.8v-2.6l0,0l1.5,2.1l2.4-0.8l-1.5,2.1l1.5,2.1
					l-0.3-0.1l-2.1-0.7l-1.2,1.7l-0.3,0.4V26L0.9,25.2z M3.2,36.5v-1.6l3.3-1.1l0.6-0.2L6,35.2L4.7,37L3.2,36.5z M4,38.9l0.9-1.3v0
					l3.8,1.3l-3.8,1.3L4,38.9z M3.2,41.3l1.5-0.5l2.4,3.4l-3.8-1.3V41.3z M3.2,43.5l0.9,0.3l3.4,1.2l1.7,2.4l-1.7,2.4l-2.7,0.9
					l-1.7-2.4V43.5z M0.9,52.5l2.4-0.8v-2.6l1.5,2.1l2.4-0.8l-1.5,2.1l1.5,2.1l-2.4-0.8L3.2,56v-2.6L0.9,52.5z M7.6,60.1l-4.4,1.5
					v-4.8l1.7-2.4l2.7,0.9l1.7,2.4L7.6,60.1z M12.3,61.2l-1.5-2.1l-2.4,0.8l1.5-2.1l-1.5-2.1l2.4,0.8l1.5-2.1V57l2.4,0.8l-2.4,0.8
					V61.2z M17.1,63.4l-2.7,0.9v0l-1.7-2.4V59l2.7-0.9l1.2,0.4l3.2,1.1L17.1,63.4z M20.1,59.1l-3.6-1.2l0,0l-0.3-0.1l1.3-0.4
					l2.6-0.9l0.9,1.3L20.1,59.1z M27.7,59.8v1.8L26,61.1l-1,1.5l-1-1.5l-1.7,0.6v-1.8l-1.7-0.6l1-1.5l-1-1.5l1.7-0.6v-1.8l1.7,0.6
					l1-1.5l1,1.5l1.7-0.6v1.8l1.7,0.6l-1,1.5l1,1.5L27.7,59.8z M29,57.8l0.9-1.3l2.7,0.9l1.2,0.4l-3.8,1.3L29,57.8z M37.3,61.9
					L37.3,61.9l-1.7,2.4l-2.7-0.9l-2.7-3.9l3.3-1.1l1-0.4l2.7,0.9V61.9z M39.2,59.1l-1.5,2.1v-2.6l-2.4-0.8l2.4-0.8v-2.6l1.5,2.1
					l2.4-0.8l-1.5,2.1l1.5,2.1L39.2,59.1z M46.8,58.7L46.8,58.7l-1.7,2.4l-2.7-0.9l-1.7-2.4l1.7-2.4l3.3-1.1l1-0.4V58.7z M46.8,51.7
					v1.6l-3.8,1.3l2.4-3.4L46.8,51.7z M46,49.3l-0.9,1.3l-3.8-1.3l3.8-1.3L46,49.3z M46.8,46.9l-1.5,0.5L42.9,44l2.9,1l1,0.3V46.9z
					 M46.8,44.7l-1.3-0.5l-3-1l-1.7-2.4l1.7-2.4l1.7-0.6l1-0.3l1.3,1.9l0.4,0.5V44.7z M49.2,35.7l-2.4,0.8v2.6L45.3,37l-2.4,0.8
					l1.5-2.1l-1.5-2.1l2.4,0.8l1.5-2.1v2.6L49.2,35.7z"/>
				<path class="st1" d="M22.3,15.7v-2.9l0,0V5.2l-1.7-0.6l1-1.5l-1-1.5l1.7-0.6v-1h-0.5v0.6h0l-1.5,0.5l-0.7-1.1H19l0.9,1.2l0,0
					l-4.3,1.5L12.8,2V0.2h-0.5v2.2l2.4,0.8L12.3,4v2.6l-1.5-2.1L8.4,5.3l1.5-2.1L8.4,1.1l2.4,0.8L12,0.2h-0.6l-0.7,1.1L7.9,0.4
					L7.8,0.2h-2l1.8,0.6l1.7,2.4L7.6,5.6h0L3.2,7V2.3l1.5-2.1H4.1L3.2,1.4V0.2H2.7v1.9L0,6l-0.1-0.1V7L0,6.9l1,1.5l1.7-0.6v1.8
					l1.7,0.6l-1,1.5h0l1,1.5l-1.7,0.6v1.8l-1.7-0.6l-1,1.5l-0.1-0.1v1.1L0,17.3l0.8,1.2l1.9,2.7v2.9L0,25l-0.1,0v0.6l0.1,0l2.7,0.9
					v2.9L0,33.3l-0.1-0.1v1.1L0,34.2l1,1.5l1.7-0.6v1.8l1.7,0.6l-1,1.5l1,1.5L2.7,41v1.8l-1.7-0.6l-1,1.5l-0.1-0.1v0.9L0,44.6
					l1.2-1.8l2,0.7v-2.2l1.5-0.5L7.6,45l3.2,1.1l2-2.8l1.7-2.4l2.7,0.9l3.2,1.1l2-2.8v-7.5L20.7,32l1-1.5l-1-1.5l1.7-0.6V18l3.5-1.2
					L22.3,15.7z M2.7,7.2L1.3,7.7L0.3,6.4l2.3-3.3l0-0.1V7.2z M2.7,34.5L1.3,35l-0.9-1.3l2.4-3.4V34.5z M21.8,5.6v1.6L18,8.5l1-1.4
					l1.4-2L21.8,5.6z M10.8,31.8l-2.4,0.8l1.5-2.1l-1.5-2.1l2.4,0.8l1.5-2.1v2.6l2.4,0.8v0l-2.4,0.8v2.6L10.8,31.8z M12.3,34.8v2.9
					l-2.7,0.9L8,38.1v0l-2.7-0.9l2.7-3.9l2.7-0.9L12.3,34.8z M12.3,15.8l-1.7,2.4l-2.7-0.9v0l-2.7-3.9l3.3-1.1l1-0.4l2.7,0.9V15.8z
					 M12.3,16.7v4.2l-3.8,1.3l1.5-2.1L8.4,18l2.4,0.8L12.3,16.7z M9.3,20.1l-1.7,2.4l-2.7,0.9L3.2,21v-4.8l4.4,1.5L9.3,20.1z
					 M7.9,22.9l2.9-1l1.5-0.5v4.8h0l-1.7,2.4l-2.7-0.9l-1.7-2.4L7.9,22.9z M12.8,31.7l2.7-0.9l4.4,1.5l-2.7,3.9L14.4,37l0,0
					l-1.7-2.4V31.7z M15.5,30.2L15.5,30.2l-2.7-0.9v-2.9l1.7-2.4l2.7,0.9l2.7,3.9L15.5,30.2z M14.2,23.4l-1.5,2.1v-4.2l1.8-0.6
					l2-0.7l-1.5,2.1l1.5,2.1L14.2,23.4z M14.8,20l-2,0.7v-4.8l1.7-2.4l2.7,0.9l1.7,2.4l-1.7,2.4L14.8,20L14.8,20z M15.8,11.6
					l1.7-2.4l4.4-1.5v4.8l-1.7,2.4L17.5,14L15.8,11.6z M20.1,1.9l0.9,1.3l-0.9,1.3l-3.8-1.3l-0.1,0L20.1,1.9z M12.8,4.4l2.7-0.9
					l4.4,1.5l-1.4,2l0,0l-1.3,1.8l-2.7,0.9l-1.7-2.4V4.4z M12.8,10.8V8.2l1.5,2.1l2.4-0.8l-1.5,2.1l1.5,2.1l-2.4-0.8v0L12.8,15v-2.6
					l-2.4-0.8L12.8,10.8z M7.9,6l2.7-0.9l1.7,2.4v2.9l-2.7,0.9L5.2,9.9l1.5-2.1L7.9,6z M3.2,9.2V7.6l3.8-1.3L6.2,7.6L4.7,9.7
					L3.2,9.2z M4,11.6l0.9-1.3l3.8,1.3l-3.8,1.3L4,11.6z M3.2,14.1l1.5-0.5L7.1,17l-0.1,0l-3.8-1.3V14.1z M2.2,19.5l-1.8-2.6
					l0.9-1.3L2.7,16v4.2L2.2,19.5z M0.9,25.3l2.4-0.8v-2.6L4.7,24l2.4-0.8l-1.5,2.1l1.5,2.1l-2.4-0.8l-1.5,2.1v-2.6L0.9,25.3z
					 M3.2,29.6L3.2,29.6l1.7-2.4l1.6,0.5l1.1,0.4l1.7,2.4l-1.7,2.4L7.1,33l-3.9,1.3V29.6z M3.2,36.5v-1.6l3.8-1.3L4.7,37L3.2,36.5z
					 M4,38.9l0.9-1.3l2.7,0.9l1.2,0.4l-3.8,1.3L4,38.9z M12.3,43.1L12.3,43.1l-1.7,2.4l-2.7-0.9l-2.7-3.9l3.3-1.1l1-0.4l2.7,0.9
					V43.1z M14.2,40.2l-1.5,2.1v-2.6l-2.4-0.8l2.4-0.8v-2.6l1.5,2.1l2.4-0.8l-1.5,2.1l1.5,2.1L14.2,40.2z M21.8,39.9l-1.7,2.4
					l-2.7-0.9l-1.7-2.4l1.7-2.4l3.3-1.1l1-0.4V39.9z M21.8,32.9v1.6L18,35.8l2.4-3.4L21.8,32.9z M21.1,30.5l-0.9,1.3l-3.8-1.3
					l3.8-1.3L21.1,30.5z M21.8,28.1l-1.5,0.5L18,25.2l2.9,1l1,0.3V28.1z M21.8,25.9l-1.3-0.5l-3-1l-1.7-2.4l1.7-2.4l1.7-0.6l1-0.3
					l1.3,1.9l0.4,0.5V25.9z M21.8,17.7v2.6l-1.5-2.1L18,19l1.5-2.1L18,14.7l2.4,0.8l1.5-2.1V16l2.4,0.8L21.8,17.7z"/>
				<path class="st1" d="M100.1,64.1l-0.2,0.2l-1-1.5l-1.7,0.6v-1.8l-1.7-0.6l1-1.5l-1-1.5l1.7-0.6v-1.8l1.7,0.6l1-1.5l0.2,0.2v-1.4
					l-0.2,0.2l-2.7-3.9v-2.9l2.7-0.9l0.2,0.1v-0.7l-0.2,0.1l-2.7-0.9v-2.9l1.9-2.7L100,38l0.2,0.2v-1.4l-0.2,0.2l-1-1.5l-1.7,0.6
					v-1.8l-1.7-0.6l1-1.5l-1-1.5l1.7-0.6v-1.8l1.7,0.6l1-1.5l0.2,0.2v-1.4l-0.2,0.2l-2.7-3.9v-2.9l2.7-0.9l0.2,0.1v-0.7l-0.2,0.1
					l-2.7-0.9v-2.9l2.7-3.9l0.2,0.2V9.5L100,9.7l-1-1.5l-1.7,0.6V7l-1.7-0.6l1-1.5l-1-1.5l1.7-0.6V1.1l1.7,0.6l1-1.5l0.2,0.2V0.2
					h-0.8l-0.6,0.9l-2-0.7v2.2l-2,0.7L96,5l-0.9,1.3L91.3,5l-0.5-0.2l-0.3-0.1l-2.7-0.9V0.2h-0.2l-2,2.9l-2.7-0.9l-3.2-1.1l-2,2.8
					v7.5l1.7,0.6l-1,1.5l1,1.5l-1.7,0.6v10.4l-3.5,1.2l3.5,1.2v10.4l1.7,0.6l-1,1.5l1,1.5l-1.7,0.6v10.4l-3.5,1.2l3.5,1.2v8.6
					l5.1-1.7l0.1,0l2.7-0.9l2.2,3.1l1.5,2.1l3.2-1.1l2.9-4.1l1.5,0.5v2.2l2-0.7l1.2,1.8l0.2-0.2V64.1z M97.3,51l2.4,3.4l-0.9,1.3
					l-1.5-0.5V51z M96.8,57.2l-1.5,0.5l-2.2-3.2l-0.2-0.2l2.9,1l1,0.3V57.2z M85.3,50.6l-1.9,0.6l1.5-2.1l-1.5-2.1l2.4,0.8h0
					l1.5-2.1V50L85.3,50.6z M87.2,50.5v4.8l-1.7,2.4l-2.7-0.9l-1.7-2.4l1.7-2.4l2.2-0.8L87.2,50.5z M85.6,47.3l-2.7-0.9l-2.7-3.9
					l4.4-1.5l0,0l2.7,0.9v2.9L85.6,47.3z M92.1,37.9l-2.7,0.9l-1.7-2.4v-2.9l2.7-0.9l0.9,0.3l3.5,1.2l0,0l-1.1,1.5L92.1,37.9z
					 M92.4,38.4l0.5-0.2l3.8-1.3v4.8L95.1,44l-2.7-0.9l-1.7-2.4L92.4,38.4z M89.6,32.3l-2.4,0.8v2.6l-1.5-2.1l-2.4,0.8l1.5-2.1
					l-1.5-2.1l2.4,0.8l1.5-2.1v2.6L89.6,32.3z M87.7,27.3v-4.2l3.8-1.3l-1.5,2.1l1.5,2.1l-2.4-0.8L87.7,27.3L87.7,27.3z M90.4,32
					l-2.7-0.9v-2.9l1.7-2.4l2.7,0.9v0l2.7,3.9L90.4,32z M90.7,23.9l1.7-2.4l2.7-0.9l1.7,2.4v4.8l-1.1-0.4l-3.2-1.1L90.7,23.9z
					 M92.1,21l-4.2,1.4l-0.2,0.1v-4.8l1.7-2.4l2.7,0.9l1.7,2.4L92.1,21z M90.7,13.4l1.7-2.4l0,0l3.2-1.1l1.1-0.4v4.8l-0.4,0.6
					l-1.2,1.8l-2.7-0.9L90.7,13.4z M90.1,13.4l1.5,2.1l-2.4-0.8l-1.5,2.1v-2.6l-2.4-0.8l2.4-0.8V10l1.5,2.1l2.4-0.8L90.1,13.4z
					 M87.2,12.2l-2.7,0.9l-4.4-1.5l2.7-3.9l2.7-0.9l0,0l1.7,2.4V12.2z M87.2,14.6v2.9l-1.7,2.4L82.9,19L81,16.4l-0.8-1.2l4.4-1.5
					L87.2,14.6z M85.8,20.6l1.5-2.1v4.2l-2.6,0.9L83.4,24l1.5-2.1l-1.5-2.1L85.8,20.6z M84.8,24L84.8,24l2.4-0.8V28l-1.7,2.4
					l-2.7-0.9l-1.7-2.4l1.7-2.4L84.8,24z M84.2,32.3L84.2,32.3l-1.7,2.4l-4,1.4l-0.4,0.1v-4.8l1.7-2.4l2.7,0.9L84.2,32.3z
					 M82.1,36.2l0.7-1.1l2.7-0.9l1.7,2.4v2.9l-2.7,0.9L80.2,39L82.1,36.2L82.1,36.2z M85.4,40.7L85.4,40.7l2.4-0.8v-2.6l1.5,2.1
					l2.4-0.8l-1.5,2.1l1.5,2.1L89.2,42l-1.5,2.1v-2.6L85.4,40.7z M87.7,45L87.7,45l1.7-2.4l2.7,0.9l1.7,2.4l-1.7,2.4l-2.6,0.9
					l-1.8,0.6V45z M91.6,49.1l-1.5,2.1l1.5,2.1l-2.4-0.8l-1.5,2.1v-4.2l1.6-0.5L91.6,49.1z M87.7,55.5l1.7-2.4l2.7,0.9l0.4,0.5
					l2.3,3.3l-2.7,0.9l-1.7,0.6l-2.7-0.9v0V55.5z M96.8,55l-1.3-0.4l-3.1-1l-1.7-2.4l1.7-2.4l2.7-0.9l1.7,2.4V55z M99.1,46l-2.4,0.8
					v2.6l-1.5-2.1l-2.4,0.8l1.5-2.1l-1.5-2.1l2.4,0.8l1.5-2.1v2.6L99.1,46z M97.3,36.7L97.3,36.7l1.5-0.5l0.9,1.3l-1.8,2.6l-0.6,0.8
					V36.7z M96.8,34.7v1.6l-3.3,1.1l-0.5,0.2l1.4-2l0.9-1.4L96.8,34.7z M96,32.3l-0.9,1.3l-3.8-1.3l3.8-1.3L96,32.3z M96.8,29.9
					l-1.5,0.5L92.9,27l3.4,1.1l0.5,0.2V29.9z M97.3,23.7l2.3,3.3l-0.9,1.3l-1.5-0.5L97.3,23.7L97.3,23.7L97.3,23.7z M97.3,13.6V9.4
					l1.5-0.5l0.9,1.3L97.3,13.6L97.3,13.6L97.3,13.6z M99.1,18.6L99.1,18.6l-2.4,0.8V22l-1.5-2.1l-2.4,0.8l1.5-2.1l-1.5-2.1l2.4,0.8
					l1.5-2.1v2.6L99.1,18.6z M95.3,6.9l1.5,0.5h0V9l-0.5,0.2l-3.4,1.1L95.3,6.9z M94.8,6.7l-2.7,3.9v0l-2.7,0.9l-1.7-2.4V6.2
					l2.7-0.9L94.8,6.7z M85.8,3.7l1.5-2.1v2.6L89.6,5l-2.4,0.8v2.6l-1.5-2.1l-2.4,0.8L84.8,5l-1.5-2.1L85.8,3.7z M78.2,4.1l1.7-2.4
					l2.7,0.9L84.2,5l-1.7,2.4l-4.4,1.5V4.1z M78.2,11V9.4L82,8.1l-2.4,3.4L78.2,11z M78.9,13.4l0.9-1.3l3.8,1.3l-3.8,1.3L78.9,13.4z
					 M78.2,15.8l1.5-0.5l0.8,1.2l1.5,2.2l-3.8-1.3V15.8z M78.2,18l4.4,1.5l1.7,2.4l-1.7,2.4l-2.7,0.9l-1.7-2.4V18z M75.8,27.1
					l2.4-0.8v-2.6l0,0l1.5,2.1L82,25l-1.5,2.1l1.5,2.1l-0.3-0.1l-2.1-0.7l-1.2,1.7l-0.3,0.4v-2.6L75.8,27.1z M78.2,38.3v-1.6
					l3.3-1.1l0.6-0.2L80.9,37l-1.3,1.8L78.2,38.3z M78.9,40.7l0.9-1.3v0l3.8,1.3L79.9,42L78.9,40.7z M78.2,43.2l1.5-0.5l2.4,3.4
					l-3.8-1.3V43.2z M78.2,45.3l0.9,0.3l3.4,1.2l1.7,2.4l-1.7,2.4l-2.7,0.9l-1.7-2.4V45.3z M75.8,54.4l2.4-0.8V51l1.5,2.1l2.4-0.8
					l-1.5,2.1l1.5,2.1l-2.4-0.8l-1.5,2.1v-2.6L75.8,54.4z M82.5,62l-4.4,1.5v-4.8l1.7-2.4l2.7,0.9l1.7,2.4L82.5,62z M87.2,63
					l-1.5-2.1l-2.4,0.8l1.5-2.1l-1.5-2.1l2.4,0.8l1.5-2.1v2.6l2.4,0.8l-2.4,0.8V63z M92.1,65.2l-2.7,0.9v0l-1.7-2.4v-2.9l2.7-0.9
					l1.2,0.4l3.2,1.1L92.1,65.2z M95.1,60.9l-3.6-1.2v0l-0.3-0.1l1.3-0.4l2.6-0.9l0.9,1.3L95.1,60.9z"/>
				<path class="st1" d="M100.1,18.5l-2.9-1v-2.9h0V7.1l-1.7-0.6l1-1.5l-1-1.5L97.3,3V0.2h-0.5v0.3L96,0.2h-1.7L96.8,1v1.6l0,0
					l-1.5,0.5L93.8,1l-0.6-0.8h-0.6l0.7,1l1.5,2.1l0,0l-4.3,1.5l-2.7-0.9V0.9l0.5-0.7h-1v0.5h0l-1.7,2.4l-2.7-0.9l-1.4-2h-0.6
					L82,1.9l-2.4-0.8l-1.5,2.1V0.6l-1.3-0.4h-1.7L77.7,1V4L75,7.8L72.3,4V1l2.4-0.8H73l-1.3,0.4v2.6l-1.5-2.1l-2.4,0.8l1.2-1.7h-0.6
					l-1.4,2l-4.2,1.4l-0.2,0.1l0,0V0.2h-0.5v3.6l-2.6,0.9l-1.3,0.4L59.9,3l-1.5-2.1l2.4,0.8l1.1-1.5h-0.6l-0.6,0.9l-2.7-0.9l0,0
					h-1.7l1.4,0.5L59.2,3l-1.7,2.4l-2.7,0.9L53.2,4V0.2h-0.5v6.9l-3.5,1.2l3.5,1.2v10.4l1.7,0.6l-1,1.5l1,1.5L52.7,24v10.4l-3.5,1.2
					l3.5,1.2v8.6l5.1-1.7l0.1,0l2.7-0.9l2.2,3.1l1.5,2.1l3.2-1.1l2.9-4.1l1.5,0.5v2.2l2-0.7l1.2,1.8l1.2-1.8l2,0.7v-2.2l1.5-0.5
					l2.9,4.1l3.2,1.1l2-2.8l1.7-2.4l2.7,0.9l3.2,1.1l2-2.8v-7.5l-1.7-0.6l1-1.5l-1-1.5l1.7-0.6V19.9l2.9-1V18.5z M96.8,7.5
					c0,0,0,1.6,0,1.6l-3.8,1.3l1-1.4l1.4-2L96.8,7.5z M60.3,31.8l-1.9,0.6l1.5-2.1l-1.5-2.1l2.4,0.8h0l1.5-2.1v4.2L60.3,31.8z
					 M62.2,31.7v4.8l-1.7,2.4L57.9,38l-1.7-2.4l1.7-2.4l2.2-0.8L62.2,31.7z M60.6,28.4l-2.7-0.9l-2.7-3.9l4.4-1.5l0,0l2.7,0.9v2.9
					L60.6,28.4z M57.1,17.4l0.7-1.1l2.7-0.9l1.7,2.4v2.9l-2.7,0.9l-4.4-1.5L57.1,17.4L57.1,17.4z M53.6,17.2l-0.4,0.1v-4.8l1.7-2.4
					l2.7,0.9l1.7,2.4v0l-1.7,2.4L53.6,17.2z M60.4,21.9L60.4,21.9l2.4-0.8v-2.6l1.5,2.1l2.4-0.8l-1.5,2.1l1.5,2.1l-2.4-0.8l-1.5,2.1
					v-2.6L60.4,21.9z M68.4,18.6l-0.5,0.2l1.4-2l0.9-1.4l1.5,0.5v1.6L68.4,18.6z M71.8,18.1v4.8l-1.7,2.4l-2.7-0.9l-1.7-2.4l1.7-2.4
					l0.5-0.2L71.8,18.1z M70.1,14.8l-3.8-1.3l3.8-1.3l0.9,1.3L70.1,14.8z M66.3,14.1l3.5,1.2h0l-1.1,1.5l-1.6,2.3L64.4,20l-1.7-2.4
					v-2.9l2.7-0.9L66.3,14.1z M62.7,26.2L62.7,26.2l1.7-2.4l2.7,0.9l1.7,2.4l-1.7,2.4l-2.6,0.9L62.7,31V26.2z M66.6,30.3l-1.5,2.1
					l1.5,2.1l-2.4-0.8l-1.5,2.1v-4.2l1.6-0.5L66.6,30.3z M62.7,36.7l1.7-2.4l2.7,0.9l0.4,0.5l2.3,3.3l-2.7,0.9l-1.7,0.6l-2.7-0.9h0
					V36.7z M68.1,35.7l-0.2-0.2l2.9,1l1,0.3v1.6l-1.5,0.5L68.1,35.7z M70.5,35.8l-3.1-1l-1.7-2.4l1.7-2.4l2.7-0.9l1.7,2.4v4.8
					L70.5,35.8z M70.3,28.4l-2.4,0.8l1.5-2.1L67.9,25l2.4,0.8l1.5-2.1v2.6l2.4,0.8l-2.4,0.8v2.6L70.3,28.4z M75.8,20.3l1.9,2.7v2.9
					L75,26.9l-2.7-0.9V23l1.9-2.7l0.8-1.2L75.8,20.3z M75.3,18.7l0.9-1.3l1.5,0.5l0,0v4.2l-0.6-0.8L75.3,18.7z M72.8,21.3l-0.6,0.8
					v-4.2l0,0l1.5-0.5l0.9,1.3L72.8,21.3z M72.3,32.2l2.4,3.4l-0.9,1.3l-1.5-0.5V32.2z M72.3,31.3v-2.9l2.7-0.9l2.7,0.9v2.9L75,35.1
					L72.3,31.3z M77.7,32.2v4.2l-1.5,0.5l-0.9-1.3L77.7,32.2z M75.8,27.1l2.4-0.8v-2.6l1.5,2.1L82,25l-1.5,2.1l1.5,2.1l-2.4-0.8
					l-1.5,2.1v-2.6L75.8,27.1z M87.7,16.9v-2.6l-2.4-0.8l2.4-0.8v-2.6l1.5,2.1l2.4-0.8l-1.5,2.1l1.5,2.1l-2.4-0.8v0L87.7,16.9z
					 M85.8,20.6l1.5-2.1v4.2h0L83.4,24l1.5-2.1l-1.5-2.1L85.8,20.6z M82.9,19.1L82.9,19.1l-2.7-3.9l3.3-1.1l1-0.4l2.7,0.9v2.9
					L85.6,20L82.9,19.1z M85.7,23.8l1.5-0.5V28l0,0l-1.7,2.4l-2.7-0.9l-1.7-2.4l1.7-2.4L85.7,23.8z M87.2,12.3l-2.7,0.9l-4.4-1.5
					l1.5-2.1l1.2-1.7L85.6,7l1.7,2.4V12.3z M83.7,13.5l-3.8,1.3l-0.9-1.3l0.9-1.3L83.7,13.5z M82,18.8L82,18.8l-3.8-1.3v-1.6
					l1.5-0.5L82,18.8z M82.5,19.5l1.7,2.4l-1.7,2.4l-2.7,0.9l-1.7-2.4v-4.8L82.5,19.5z M78.2,31.4L78.2,31.4l1.7-2.4l1.6,0.5
					l1.1,0.4l1.7,2.4l-1.7,2.4l-0.5,0.2l-3.9,1.3V31.4z M78.2,36.8l3.8-1.3l-2.4,3.4l-1.5-0.5V36.8z M82.9,35.2l2.7-0.9l1.7,2.4v2.9
					l-2.7,0.9L82.9,40v0L80.2,39L82.9,35.2z M85.8,33.7l-2.4,0.8l1.5-2.1l-1.5-2.1l2.4,0.8l1.5-2.1v2.6l2.4,0.8v0l-2.4,0.8v2.6
					L85.8,33.7z M87.7,33.5l2.7-0.9l4.4,1.5L92.1,38l-2.7,0.9l0,0l-1.7-2.4V33.5z M90.4,32.1L90.4,32.1l-2.7-0.9v-2.9l1.7-2.4
					l2.7,0.9l2.7,3.9L90.4,32.1z M89.2,25.2l-1.5,2.1v-4.2l1.8-0.6l2-0.7l-1.5,2.1l1.5,2.1L89.2,25.2z M89.8,21.9l-2,0.7v-4.8
					l1.7-2.4l2.7,0.9l1.7,2.4l-1.7,2.4L89.8,21.9L89.8,21.9z M90.7,13.5l1.7-2.4l4.4-1.5v4.8l-1.7,2.4l-2.7-0.9L90.7,13.5z
					 M95.1,3.7L96,5l-0.9,1.3l-3.8-1.3l-0.1,0L95.1,3.7z M90.4,5.3l4.4,1.5l-1.4,2l0,0l-1.3,1.8l-2.7,0.9l-1.7-2.4V6.2L90.4,5.3z
					 M85.8,3.7l1.5-2.1v2.6L89.6,5v0l-2.4,0.8v2.6l-1.5-2.1l-2.4,0.8L84.8,5l-1.5-2.1L85.8,3.7z M78.2,4.1l1.7-2.4l2.7,0.9L84.2,5
					l-1.7,2.4l-4.4,1.5V4.1z M78.2,9.5L82,8.2l-0.9,1.3l-1.5,2.1l-1.5-0.5V9.5z M77.6,4.9L77.6,4.9L77.6,4.9l0,4.1l-1.5,0.5
					l-0.9-1.3L77.6,4.9z M72.3,4.9l2.3,3.3l-0.9,1.3l-1.5-0.5L72.3,4.9L72.3,4.9L72.3,4.9z M72.3,11.4V9.6l1.7,0.6l1-1.5l1,1.5
					l1.7-0.6v1.8l1.7,0.6l-1,1.5l1,1.5l-1.7,0.6v1.8L76,16.8l-1,1.5l-1-1.5l-1.7,0.6v-1.8L70.6,15l1-1.5l-1-1.5L72.3,11.4z
					 M71.8,11.1l-1.5,0.5l-2.4-3.4l3.4,1.1l0,0l0.5,0.2V11.1z M67.4,2.7l2.7-0.9l1.7,2.4v4.8l-1.1-0.4l-3.2-1.1L65.8,5L67.4,2.7z
					 M62.7,4.2l3.8-1.3L65.1,5l1.5,2.1l-2.4-0.8l-1.5,2.1h0V4.2z M62.7,9.3L64.4,7l2.7,0.9v0l2.7,3.9l-4.4,1.5l-2.7-0.9V9.3z
					 M64.6,13.5l-2.4,0.8v2.6l-1.5-2.1l-2.4,0.8l1.5-2.1l-1.5-2.1l2.4,0.8l1.5-2.1v2.6L64.6,13.5z M57.9,5.9l2-0.7h0l2.4-0.8v4.8
					l-1.7,2.4l-2.7-0.9l-1.7-2.4L57.9,5.9z M50.8,8.3l2.4-0.8V4.9l0,0L54.7,7l2.4-0.8l-1.5,2.1l1.5,2.1l-0.3-0.1l-2.1-0.7l-1.2,1.7
					l-0.3,0.4V9.1L50.8,8.3z M53.2,19.5v-1.6l3.3-1.1l0.6-0.2l-1.1,1.6L54.7,20L53.2,19.5z M54,21.9l0.9-1.3v0l3.8,1.3l-3.8,1.3
					L54,21.9z M53.2,24.3l1.5-0.5l2.4,3.4l-3.8-1.3V24.3z M53.2,26.5l0.9,0.3l3.4,1.2l1.7,2.4l-1.7,2.4l-2.7,0.9l-1.7-2.4V26.5z
					 M50.8,35.6l2.4-0.8v-2.6l1.5,2.1l2.4-0.8l-1.5,2.1l1.5,2.1l-2.4-0.8L53.2,39v-2.6L50.8,35.6z M57.6,43.2l-4.4,1.5v-4.8l1.7-2.4
					l2.7,0.9l1.7,2.4L57.6,43.2z M62.2,41.6v2.6l-1.5-2.1l-2.4,0.8l1.5-2.1l-1.5-2.1l2.4,0.8l1.5-2.1V40l2.4,0.8L62.2,41.6z
					 M67.1,46.4l-2.7,0.9v0l-1.7-2.4V42l2.7-0.9l1.2,0.4l3.2,1.1L67.1,46.4z M70.1,42.1l-3.6-1.2l-0.3-0.1l1.3-0.4l2.6-0.9l0.9,1.3
					L70.1,42.1z M77.7,42.8v1.8L76,44.1l-1,1.5l-1-1.5l-1.7,0.6v-1.8l-1.7-0.6l1-1.5l-1-1.5l1.7-0.6v-1.8l1.7,0.6l1-1.5l1,1.5
					l1.7-0.6v1.8l1.7,0.6l-1,1.5l1,1.5L77.7,42.8z M78.9,40.8l0.9-1.3l2.7,0.9l1.2,0.4l-3.8,1.3L78.9,40.8z M87.2,44.9l-1.7,2.4
					l-2.7-0.9l-2.7-3.9l3.3-1.1l1-0.4l2.7,0.9V44.9z M89.2,42.1l-1.5,2.1v-2.6l-2.4-0.8l2.4-0.8v-2.6l1.5,2.1l2.4-0.8l-1.5,2.1
					l1.5,2.1L89.2,42.1z M96.8,41.7l-1.7,2.4l-2.7-0.9l-1.7-2.4l1.7-2.4l3.3-1.1l1-0.4V41.7z M96.8,34.8v1.6l-3.8,1.3l2.4-3.4
					L96.8,34.8z M96,32.4l-0.9,1.3l-3.8-1.3l3.8-1.3L96,32.4z M96.8,29.9l-1.5,0.5L92.9,27l2.9,1l1,0.3V29.9z M96.8,27.8l-1.3-0.5
					l-3-1l-1.7-2.4l1.7-2.4l1.7-0.6l1-0.3l1.3,1.9l0.4,0.5V27.8z M96.8,19.5v2.6L95.3,20l-2.4,0.8l1.5-2.1l-1.5-2.1l2.4,0.8l1.5-2.1
					v2.6l2.4,0.8L96.8,19.5z"/>
				<path class="st1" d="M73.2,0.2l-1.4,0.5v2.6l-1.5-2.1L67.9,2l1.2-1.8h-0.6l-1.4,2.1l-2.3,0.8l0,0l-2,0.7V0.2h-0.5v3.7h0
					l-3.8,1.3l1.5-2.1L58.4,1l2.4,0.8l1.1-1.6h-0.6l-0.7,1l-2.7-0.9v0l0-0.1H56l1.5,0.5l1.7,2.4l-1.7,2.4l-2.7,0.9L53.2,4V0.2h-0.5
					v3.1l-0.6-0.8l-1.6-2.3h-1.1l-1.6,2.3l-0.6,0.8V0.2h-0.5V4l-1.7,2.4l-2.7-0.9l-1.7-2.4l1.7-2.4L43,0.5h0l1-0.3h-1.8l0,0.1
					l-2.7,0.9l-0.7-1h-0.6l1.1,1.6L41.6,1l-1.5,2.1l1.5,2.1l-2.4-0.8l-1.5,2.1V3.9l-2.4-0.8v0l2.4-0.8V0.2h-0.5v1.7l-2.7,0.9
					l-4.4-1.5L31,0.2h-0.6l-0.7,1l-1.5-0.5V0.2h-0.5v0.9l1.7,0.6l-1,1.5l1,1.5l-1.7,0.6v10.4l-3.5,1.2l3.5,1.2v8.6l5.1-1.7l0.1,0
					l2.7-0.9l2.2,3.1l1.5,2.1l3.2-1.1l2.9-4.1l1.5,0.5v2.2l2-0.7l1.2,1.8l1.2-1.8l2,0.7v-2.2l1.5-0.5l2.9,4.1l3.2,1.1l2-2.8l1.7-2.4
					l2.7,0.9l3.2,1.1l2-2.8v-7.5L70.6,15l1-1.5l-1-1.5l1.7-0.6V1.1l2.6-0.9H73.2z M62.7,4.3l1.8-0.6l2-0.7l-1.5,2.1l1.5,2.1
					l-2.4-0.8l-1.5,2.1V4.3z M62.7,9.4L64.4,7l2.7,0.9l2.7,3.9l-4.4,1.5l0,0l-2.7-0.9V9.4z M53.2,18l3.8-1.3l-2.4,3.4l-1.5-0.5V18z
					 M53.2,17.4v-4.8l0,0l1.7-2.4l1.6,0.5l1.1,0.4l1.7,2.4l-1.7,2.4l-0.5,0.2L53.2,17.4z M57.9,16.4l2.7-0.9l1.7,2.4v2.9l-2.7,0.9
					l-1.6-0.5v0l-2.7-0.9L57.9,16.4z M60.8,14.8l-2.4,0.8l1.5-2.1l-1.5-2.1l2.4,0.8l1.5-2.1v2.6l2.4,0.8v0l-2.4,0.8v2.6L60.8,14.8z
					 M62.7,14.7l2.7-0.9l4.4,1.5l-2.7,3.9l-2.7,0.9l0,0l-1.7-2.4V14.7z M57.9,5.9l2.9-1l1.5-0.5v4.8l0,0l-1.7,2.4l-2.7-0.9l-1.7-2.4
					L57.9,5.9z M53.2,7.5V4.9L54.7,7l2.4-0.8l-1.5,2.1l1.5,2.1l-2.4-0.8l-1.5,2.1V9.1l-2.4-0.8L53.2,7.5z M47.3,12.5V9.5L50,8.6
					l2.7,0.9v2.9L50,16.3L47.3,12.5z M49.7,16.8l-0.9,1.3l-1.5-0.5v-4.2L49.7,16.8z M52.7,13.4v4.2l-1.5,0.5l-0.9-1.3L52.7,13.4z
					 M47.3,4.2l1.9-2.7L50,0.3l0.8,1.2l1.9,2.7v2.9L50,8l-2.7-0.9V4.2z M45.3,7l1.5-2.1v2.6l2.4,0.8l-2.4,0.8v2.6l-1.5-2.1l-2.4,0.8
					l1.5-2.1l-1.5-2.1L45.3,7z M45.5,17l-3.1-1l-1.7-2.4l1.7-2.4l2.7-0.9l1.7,2.4v4.8L45.5,17z M37.8,17.8l1.7-2.4l2.7,0.9l0.4,0.5
					l2.3,3.3l-2.7,0.9l-1.7,0.6l-2.7-0.9V17.8z M37.8,16.9v-4.2l1.6-0.5l2.3-0.8l-1.5,2.1l1.5,2.1l-2.4-0.8L37.8,16.9z M43.1,16.9
					l-0.2-0.2v0l2.9,1l1,0.3v1.6l-1.5,0.5L43.1,16.9z M37.8,7.4L37.8,7.4L39.4,5l2.7,0.9l1.7,2.4l-1.7,2.4l-2.6,0.9l-1.8,0.6V7.4z
					 M37.3,12.4l-2,0.7l-1.9,0.6l1.5-2.1l-1.5-2.1l2.4,0.8l1.5-2.1V12.4z M35.1,13.6l2.1-0.7v4.8l-1.7,2.4l-2.7-0.9l-1.7-2.4
					l1.7-2.4L35.1,13.6z M34.6,3.4L34.6,3.4l2.7,0.9v2.9l-1.7,2.4l-2.7-0.9l-2.7-3.9L34.6,3.4z M29,3.1l0.9-1.3v0l3.8,1.3l-3.8,1.3
					L29,3.1z M28.2,5.5L29.7,5l2.4,3.4l-3.8-1.3V5.5z M28.2,7.7L29.2,8l3.4,1.2l1.7,2.4l-1.7,2.4l-2.7,0.9l-1.7-2.4V7.7z M25.8,16.8
					l2.4-0.8v-2.6l1.5,2.1l2.4-0.8l-1.5,2.1l1.5,2.1l-2.4-0.8l-1.5,2.1v-2.6L25.8,16.8z M32.6,24.4l-4.4,1.5v-4.8l1.7-2.4l2.7,0.9
					l1.7,2.4L32.6,24.4z M37.3,22.8v2.6l-1.5-2.1l-2.4,0.8l1.5-2.1l-1.5-2.1l2.4,0.8l1.5-2.1v2.6l2.4,0.8L37.3,22.8z M42.1,27.6
					l-2.7,0.9l0,0l-1.7-2.4v-2.9l2.7-0.9l1.2,0.4l3.2,1.1L42.1,27.6z M45.1,23.3l-3.6-1.2L41.3,22l1.3-0.4l2.6-0.9L46,22L45.1,23.3z
					 M52.7,24v1.8L51,25.3l-1,1.5l-1-1.5l-1.7,0.6V24l-1.7-0.6l1-1.5l-1-1.5l1.7-0.6v-1.8l1.7,0.6l1-1.5l1,1.5l1.7-0.6v1.8l1.7,0.6
					l-1,1.5l1,1.5L52.7,24z M54,22l0.9-1.3l2.7,0.9l1.2,0.4l-3.8,1.3L54,22z M62.2,26.1l-1.7,2.4l-2.7-0.9l-2.7-3.9l3.3-1.1l1-0.4
					l2.7,0.9V26.1z M64.2,23.3l-1.5,2.1v-2.6L60.4,22l2.4-0.8v-2.6l1.5,2.1l2.4-0.8L65.1,22l1.5,2.1L64.2,23.3z M71.8,22.9l-1.7,2.4
					l-2.7-0.9L65.8,22l1.7-2.4l3.3-1.1l1-0.4V22.9z M71.8,16v1.6l-3.8,1.3l2.4-3.4L71.8,16z M71,13.5l-0.9,1.3l-3.8-1.3l3.8-1.3
					L71,13.5z M71.8,11.1l-1.5,0.5l-2.4-3.4l2.9,1l1,0.3V11.1z M71.8,9l-1.3-0.5l-3-1l-1.7-2.4l1.7-2.4l1.7-0.6l1-0.3l1.3,1.9
					l0.4,0.5V9z"/>
				<path class="st1" d="M46.8,0.2v3.9h0l-1.7,2.4l-2.7-0.9l-1.7-2.4l1.7-2.4l1.7-0.6h-1.9l-0.1,0.1l-2.7,0.9l0,0l-0.7-1h-0.6
					l1.2,1.7l2.4-0.8l-1.5,2.1l1.5,2.1l-2.4-0.8l-1.5,2.1V4l-2.4-0.8l2.4-0.8V0.2h-0.5V2l-2.7,0.9l-1.6-0.5l0,0l-2.7-0.9L31,0.2
					h-0.6l-0.7,1l-1.5-0.5V0.2h-0.5v0.9l1.7,0.6l-1,1.5l1,1.5l-1.7,0.6V7L26,6.5l-1,1.5l-1-1.5L22.3,7V5.2l-1.7-0.6l1-1.5l-1-1.5
					l1.7-0.6V0.2h-0.5v0.5l-1.5,0.5l-0.7-1H19l0.8,1.2l-2.7,0.9l-1.7,0.6L12.8,2V0.2h-0.5v2.2l2.4,0.8L12.3,4v2.6l-1.5-2.1L8.4,5.3
					l1.5-2.1L8.4,1.1l2.4,0.8L12,0.2h-0.6l-0.7,1L7.9,0.3L7.8,0.2H5.9l1.7,0.6l1.7,2.4L7.6,5.5L3.2,7l0,0V2.3l1.4-2.1H4L3.2,1.4V0.2
					H2.7v7.5L7.8,6l0.1,0l2.7-0.9l2.2,3.1l1.5,2.1l3.2-1.1l2.9-4.1l1.5,0.5v2.2l2-0.7L25,8.8l1.2-1.8l2,0.7V5.6l1.5-0.5l2.9,4.1
					l3.2,1.1l2-2.8l1.7-2.4L42.2,6l3.2,1.1l2-2.8v-4H46.8z M17.1,8.8l-2.7,0.9v0l-1.7-2.4V4.4l2.7-0.9l1.2,0.4l3.2,1.1L17.1,8.8z
					 M20.1,4.5l-3.6-1.2h0l-0.3-0.1l1.3-0.4l2.6-0.9l0.9,1.3L20.1,4.5z M29,3.2l0.9-1.3l2.7,0.9l1.2,0.4l-3.8,1.3L29,3.2z M37.3,7.3
					L37.3,7.3l-1.7,2.4l-2.7-0.9l-2.7-3.9l3.3-1.1l1-0.4l2.7,0.9V7.3z"/>
			</g>
		</g>
	</g>
</g>
</svg>
