<?xml version="1.0" encoding="utf-8"?>
<!-- Generator: Adobe Illustrator 27.8.1, SVG Export Plug-In . SVG Version: 6.00 Build 0)  -->
<svg version="1.1" xmlns="http://www.w3.org/2000/svg" xmlns:xlink="http://www.w3.org/1999/xlink" x="0px" y="0px"
	 viewBox="0 0 500 153.51" style="enable-background:new 0 0 500 153.51;" xml:space="preserve">
<style type="text/css">
	.st0{fill:#FFFFFF;}
	.st1{fill:url(#SVGID_1_);}
	.st2{fill:url(#SVGID_00000062874450265703404450000008454526977834083745_);}
	.st3{fill:url(#SVGID_00000047776715341935870210000004809788719139101858_);}
	.st4{fill:url(#SVGID_00000109006400282934944340000014160856638966584466_);}
	.st5{fill:url(#SVGID_00000133498303307787504910000018216296079390333071_);}
	.st6{fill:url(#SVGID_00000028296653809086371470000004750757105489252004_);}
	.st7{fill:url(#SVGID_00000124867978384790605490000008391236112711294624_);}
	.st8{fill:url(#SVGID_00000076603936131833292520000008579984798151593916_);}
</style>
<g id="White_Text">
	<g>
		<g>
			<g>
				<polygon class="st0" points="217.08,96.07 172.6,96.07 172.6,100.71 192.36,100.71 192.36,153.51 197.32,153.51 197.32,100.71 
					217.08,100.71 				"/>
				<path class="st0" d="M234.44,109.5c-11.2,0-19.97,9.63-19.97,21.92v0.16c0,12.49,8.87,21.91,20.62,21.91
					c7.03,0,12.22-2.36,17.36-7.89l0.26-0.28l-3.32-2.93l-0.25,0.27c-4.05,4.34-8.47,6.36-13.9,6.36c-8.53,0-14.97-6.36-15.79-15.53
					h34.18l0.04-0.33c0.08-0.67,0.08-0.92,0.08-1.67C253.77,118.55,245.82,109.5,234.44,109.5z M248.69,129.19h-29.23
					c0.87-8.88,7.05-15.28,14.81-15.28C243.97,113.9,248.08,122.04,248.69,129.19z"/>
				<path class="st0" d="M297.01,142.27c-4.02,4.49-8.59,6.76-13.57,6.76c-9.32,0-16.63-7.7-16.63-17.52v-0.16
					c0-9.73,7.16-17.36,16.31-17.36c6.11,0,10.1,3.22,13.5,6.69l0.27,0.28l3.36-3.45l-0.25-0.26c-3.46-3.6-8.49-7.73-16.79-7.73
					c-11.82,0-21.43,9.87-21.43,22v0.16c0,12.04,9.61,21.84,21.43,21.84c6.78,0,12.06-2.56,17.13-8.31l0.25-0.28l-3.31-2.92
					L297.01,142.27z"/>
				<path class="st0" d="M330.08,110.48c-6.32,0-11.2,2.59-14.52,7.7V96.07h-4.72v57.44h4.72v-24.27c0-8.19,6-14.36,13.96-14.36
					c7.98,0,12.74,5.13,12.74,13.72v24.91h4.72v-25.64C346.98,117.3,340.35,110.48,330.08,110.48z"/>
			</g>
			<g>
				<path class="st0" d="M234.22,57.03c4.62-6.19,7.16-13.81,7.16-21.57v-0.19c0-19.96-14.9-35.02-34.64-35.02
					c-19.53,0-34.83,15.47-34.83,35.39c0,19.96,14.89,35.02,34.64,35.02c7.51,0,14.55-2.23,20.4-6.45l8.84,7.89l7.08-7.74
					L234.22,57.03z M226.52,50.43l-12.06-10.95l-6.98,7.76l11.88,10.15c-3.66,2.28-7.99,3.47-12.62,3.47
					c-13.57,0-24.19-11.16-24.19-25.59c0-14.37,10.32-25.22,24-25.22c13.56,0,24.19,11.16,24.19,25.59
					C230.75,41.13,229.29,46.21,226.52,50.43z"/>
				<polygon class="st0" points="286.61,35.75 263.67,1.39 253.92,1.39 253.92,70.71 264.09,70.71 264.09,20.23 285.2,51.2 
					285.54,51.69 287.5,51.69 308.94,20.15 308.94,70.71 319.3,70.71 319.3,1.39 309.54,1.39 				"/>
				<rect x="336.62" y="1.39" class="st0" width="10.35" height="69.32"/>
				<polygon class="st0" points="412.25,51.36 372.97,1.4 364.31,1.42 364.31,70.7 374.48,70.7 374.48,19.54 414.76,70.7 
					422.42,70.7 422.42,1.42 412.25,1.42 				"/>
				<path class="st0" d="M499.99,34.83c-0.23-19.4-15.35-33.43-36.12-33.43h-24.12v69.32h24.12c20.9,0,36.08-14.28,36.14-34.17
					v-1.72H499.99z M489.34,36.56h0.01c0.01,0.09,0.01,0.18,0.01,0.27c0,14.2-10.48,24.1-25.5,24.1h-13.76V11.2h13.76
					c14.72,0,25.08,9.6,25.48,23.63V36.56z"/>
			</g>
		</g>
		<g>
			<linearGradient id="SVGID_1_" gradientUnits="userSpaceOnUse" x1="-21.5343" y1="33.4807" x2="88.949" y2="145.0229">
				<stop  offset="1.385225e-07" style="stop-color:#7D2AE8"/>
				<stop  offset="1" style="stop-color:#00C6FF"/>
			</linearGradient>
			<path class="st1" d="M83.75,94.85c0.23,0.02,0.46,0.03,0.69,0.03c2.4,0,4.66-0.94,6.37-2.65c1.86-1.86,2.82-4.42,2.64-7.03
				c-0.11-2.18-1.05-4.25-2.64-5.85c-1.64-1.64-3.78-2.58-6.02-2.65c-2.55-0.13-5.05,0.84-6.86,2.65c-1.79,1.79-2.75,4.29-2.64,6.84
				c0,0.02,0.01,0.03,0.01,0.05c-32.03,30.29-57.31,37.65-62,32.97c-0.36-0.36-0.62-0.8-0.89-1.48l-0.22-0.83
				c-0.05-0.23-0.09-0.44-0.12-0.6c-0.07-0.63-0.1-1.34-0.09-2.16l0.01-0.11c0.03-0.35,0.06-0.71,0.07-0.99
				c0.04-0.45,0.1-0.89,0.16-1.34c0.14-0.88,0.35-1.86,0.61-2.98c0.56-2.16,1.43-4.58,2.46-7.11l0.34-0.1l0.01-0.01
				c1.27-0.44,2.45-1.19,3.43-2.16c2.45-2.45,3.29-6.19,2.14-9.53c-0.46-1.26-1.18-2.38-2.14-3.33c-2.22-2.22-5.45-3.15-8.43-2.43
				c-1.65,0.35-3.18,1.19-4.42,2.43C3.7,89,2.88,92.78,4.13,96.12l0.14,0.39c0.03,0.06,0.06,0.1,0.09,0.16
				c-0.36,0.85-0.72,1.68-1.06,2.57c-0.15,0.37-0.28,0.75-0.42,1.14l-0.28,0.27v0.48c-0.14,0.41-0.26,0.8-0.36,1.14
				c-0.17,0.52-0.33,1.02-0.42,1.39c-0.13,0.35-0.23,0.73-0.38,1.26c-0.12,0.43-0.22,0.86-0.32,1.27l-0.11,0.47
				c-0.16,0.69-0.3,1.35-0.4,1.92l-0.22,1.21c-0.13,0.89-0.21,1.59-0.24,2.17c-0.13,1.18-0.17,2.31-0.13,3.36
				c0.03,0.68,0.08,1.34,0.13,1.92c0.03,0.58,0.13,1.16,0.23,1.7c0.09,0.49,0.22,0.99,0.35,1.55c0.1,0.38,0.21,0.73,0.31,1
				c0.11,0.34,0.23,0.65,0.36,0.98c0.13,0.33,0.28,0.65,0.42,0.95c0.15,0.32,0.33,0.69,0.48,0.91c0.18,0.33,0.38,0.68,0.55,0.89
				c0.14,0.22,0.3,0.45,0.51,0.73l0.17,0.26c0.45,0.56,0.87,1.04,1.29,1.45c3.23,3.23,7.63,4.87,13.07,4.87
				c19.03,0,46.08-19.19,65.7-37.71C83.65,94.84,83.7,94.85,83.75,94.85z"/>
			
				<linearGradient id="SVGID_00000181774634563766346470000014827984051681785274_" gradientUnits="userSpaceOnUse" x1="32.9051" y1="-20.4419" x2="143.3884" y2="91.1003">
				<stop  offset="1.385225e-07" style="stop-color:#7D2AE8"/>
				<stop  offset="1" style="stop-color:#00C6FF"/>
			</linearGradient>
			<path style="fill:url(#SVGID_00000181774634563766346470000014827984051681785274_);" d="M47.33,39.05
				c-2.65-0.16-5.21,0.8-7.06,2.64c-1.87,1.87-2.83,4.43-2.63,7.03c0.13,2.21,1.07,4.29,2.63,5.85c1.61,1.61,3.76,2.55,6.04,2.64
				c0.13,0.01,0.26,0.01,0.4,0.01c2.41,0,4.76-0.97,6.45-2.65c1.82-1.81,2.78-4.3,2.65-6.82c0-0.02-0.01-0.05-0.01-0.07
				C87.82,17.36,113.12,10,117.8,14.7c0.33,0.33,0.61,0.76,0.76,1.16l0.27,0.85l0.07,0.27c0.07,0.36,0.16,0.85,0.19,1.42
				c0.01,0.21,0.03,0.42,0.03,0.65c0,0.23,0,0.5-0.01,0.73l-0.05,0.85c-0.02,0.5-0.1,1.02-0.2,1.66c-0.42,2.91-1.44,6.28-2.96,10
				l-0.43,0.14l-0.01,0.01c-1.29,0.46-2.47,1.2-3.42,2.15c-2.48,2.48-3.32,6.19-2.13,9.44c0.44,1.29,1.18,2.47,2.13,3.42
				c1.72,1.72,4,2.67,6.42,2.67c0.68,0,1.36-0.08,2.03-0.23c1.67-0.38,3.2-1.22,4.42-2.44c2.61-2.61,3.39-6.5,1.97-9.91l-0.1-0.23
				c2.19-5.23,3.6-10.02,4.08-14.2c0.11-0.9,0.17-1.66,0.22-2.38c0.03-0.7,0.04-1.25,0.03-1.74c0-0.54-0.03-1.12-0.08-1.72
				c-0.03-0.38-0.06-0.73-0.11-1.06c-0.09-0.8-0.22-1.55-0.38-2.07c-0.05-0.31-0.14-0.62-0.22-0.88c-0.05-0.19-0.1-0.37-0.25-0.84
				c-0.12-0.35-0.23-0.66-0.36-0.98c-0.13-0.33-0.28-0.65-0.41-0.92c-0.14-0.32-0.32-0.65-0.5-0.95c-0.17-0.31-0.36-0.61-0.55-0.88
				c-0.18-0.29-0.39-0.59-0.6-0.87c-0.42-0.55-0.88-1.08-1.38-1.58c-14.74-14.74-50.8,6.45-78.77,32.83
				C47.44,39.07,47.39,39.05,47.33,39.05z"/>
			
				<linearGradient id="SVGID_00000168814474215007527010000008512887854174529443_" gradientUnits="userSpaceOnUse" x1="8.4798" y1="3.7515" x2="118.9631" y2="115.2937">
				<stop  offset="1.385225e-07" style="stop-color:#7D2AE8"/>
				<stop  offset="1" style="stop-color:#00C6FF"/>
			</linearGradient>
			<path style="fill:url(#SVGID_00000168814474215007527010000008512887854174529443_);" d="M152.21,142.03l-0.18-0.61l-0.01-0.01
				c-0.44-1.27-1.19-2.46-2.16-3.43c-1.94-1.94-4.68-2.85-7.4-2.58l-12.81-12.81c7.05-16.86-12.47-48.54-36.21-73.7
				c0-0.05,0.02-0.09,0.02-0.14c0.2-2.62-0.75-5.19-2.62-7.06c-1.85-1.85-4.41-2.81-7.03-2.64c-2.18,0.11-4.25,1.05-5.85,2.64
				c-1.64,1.64-2.58,3.78-2.65,6.02c-0.13,2.55,0.83,5.04,2.65,6.86c1.68,1.69,4.03,2.65,6.44,2.65c0.13,0,0.27,0,0.4-0.01
				c0.02,0,0.03-0.01,0.05-0.01c30.29,32.03,37.65,57.32,32.97,62c-0.37,0.37-0.81,0.63-1.5,0.89l-0.82,0.22
				c-0.23,0.05-0.44,0.09-0.61,0.12c-0.62,0.07-1.35,0.11-2.16,0.09l-0.11-0.01c-0.35-0.03-0.71-0.06-0.99-0.07
				c-0.45-0.04-0.89-0.1-1.34-0.16c-0.87-0.14-1.85-0.34-2.98-0.61c-2.16-0.56-4.58-1.43-7.11-2.47l-0.11-0.35l-0.01-0.01
				c-0.44-1.27-1.19-2.46-2.16-3.43c-2.46-2.46-6.19-3.29-9.53-2.14c-1.26,0.46-2.38,1.18-3.33,2.14c-2.22,2.22-3.15,5.46-2.43,8.43
				c0.35,1.65,1.19,3.18,2.43,4.43c1.72,1.72,4.01,2.67,6.43,2.67c1.1,0,2.18-0.2,3.21-0.58l0.39-0.14
				c0.05-0.02,0.08-0.05,0.13-0.07c0.84,0.35,1.7,0.7,2.6,1.05c0.4,0.16,0.81,0.31,1.22,0.45l0.29,0.25h0.38
				c0.4,0.14,0.8,0.26,1.14,0.36c0.52,0.17,1.02,0.33,1.4,0.43c0.34,0.12,0.71,0.22,1.25,0.38c0.43,0.12,0.85,0.22,1.26,0.31
				l0.49,0.11c0.7,0.17,1.36,0.3,1.92,0.4l1.21,0.22c0.91,0.13,1.6,0.21,2.17,0.24c0.86,0.1,1.71,0.14,2.52,0.14
				c0.29,0,0.57-0.01,0.85-0.02c0.67-0.03,1.34-0.08,1.91-0.13c0.57-0.03,1.16-0.13,1.7-0.23c0.51-0.09,1.01-0.22,1.56-0.36
				c0.38-0.11,0.72-0.21,0.99-0.31c0.35-0.11,0.66-0.23,0.98-0.36c0.04-0.02,0.07-0.03,0.11-0.05l13.15,13.15
				c-0.02,0.74,0.05,1.49,0.23,2.22c0.35,1.65,1.19,3.18,2.43,4.43c1.72,1.72,4.01,2.67,6.43,2.67c1.1,0,2.18-0.2,3.21-0.58
				l0.39-0.14c1.08-0.49,2.03-1.15,2.83-1.95C152.14,148.55,153.04,145.17,152.21,142.03z"/>
			
				<linearGradient id="SVGID_00000087390503697414822390000012563271048571504300_" gradientUnits="userSpaceOnUse" x1="2.9069" y1="9.2716" x2="113.3901" y2="120.8138">
				<stop  offset="1.385225e-07" style="stop-color:#7D2AE8"/>
				<stop  offset="1" style="stop-color:#00C6FF"/>
			</linearGradient>
			<path style="fill:url(#SVGID_00000087390503697414822390000012563271048571504300_);" d="M37.65,85.17
				c-0.18,2.63,0.78,5.2,2.64,7.06c1.68,1.69,4,2.65,6.36,2.65c0.23,0,0.45-0.01,0.67-0.03c2.21-0.13,4.29-1.07,5.85-2.63
				c1.61-1.61,2.55-3.76,2.64-6.04c0.11-2.56-0.85-5.05-2.64-6.85c-1.8-1.8-4.28-2.77-6.82-2.65c-0.02,0-0.05,0.01-0.07,0.01
				C15.96,44.69,8.61,19.39,13.3,14.7c0.33-0.33,0.76-0.61,1.16-0.76c0.12-0.03,0.24-0.08,0.48-0.16l0.64-0.18
				c0.39-0.08,0.86-0.16,1.52-0.19c0.18-0.01,0.35-0.02,0.53-0.02l0.31,0c0.15,0,0.29,0,0.44,0.01l0.84,0.04
				c0.5,0.02,1.02,0.1,1.66,0.2c2.91,0.42,6.28,1.44,10,2.97l0.14,0.43l0.01,0.01c0.45,1.28,1.2,2.47,2.15,3.42
				c1.69,1.69,4.03,2.66,6.42,2.66c1.04,0,2.06-0.18,3.02-0.53c1.29-0.44,2.47-1.18,3.42-2.13c2.22-2.22,3.14-5.38,2.44-8.45
				c-0.38-1.67-1.23-3.2-2.44-4.41c-2.61-2.61-6.5-3.39-9.92-1.97l-0.23,0.11c-5.23-2.19-10.02-3.6-14.2-4.08
				c-0.9-0.11-1.66-0.17-2.37-0.22c-0.7-0.03-1.25-0.04-1.74-0.03c-0.54,0-1.12,0.03-1.72,0.08c-0.38,0.03-0.73,0.06-1.05,0.11
				c-0.8,0.09-1.55,0.23-2.08,0.39c-0.32,0.06-0.64,0.15-0.86,0.21c-0.19,0.05-0.37,0.1-0.85,0.25c-0.34,0.11-0.65,0.23-0.98,0.36
				C9.72,2.94,9.43,3.08,9.12,3.22C8.8,3.36,8.48,3.54,8.17,3.72c-0.31,0.17-0.6,0.36-0.88,0.55C7,4.45,6.7,4.65,6.42,4.86
				C5.87,5.28,5.33,5.75,4.84,6.24C-9.9,20.98,11.3,57.04,37.68,85.02C37.67,85.07,37.66,85.12,37.65,85.17z"/>
		</g>
	</g>
</g>
<g id="White">
</g>
<g id="Black">
</g>
<g id="Original">
</g>
</svg>
