<svg width="54" height="40" viewBox="0 0 54 40" fill="none" xmlns="http://www.w3.org/2000/svg">
<path d="M43.5878 16.182C43.4606 16.3042 43.3308 16.424 43.1986 16.5388L49.4293 25.8487L47.0613 25.5318C46.2953 25.4295 45.619 24.9754 45.2348 24.3042L41.5168 17.8114C41.3695 17.9062 41.2198 17.9985 41.0676 18.0859L47.0289 28.9404L44.6583 28.4613C43.8823 28.3041 43.226 27.7876 42.8942 27.0665L39.1762 19.0166C39.014 19.084 38.8493 19.1464 38.6821 19.2063L42.5773 28.0396L40.7682 27.6753C39.9173 27.5031 39.2161 26.8993 38.9216 26.0808L36.6509 19.7677C36.4787 19.8026 36.3041 19.8326 36.1319 19.86L38.6447 27.2461L37.2922 26.9741C36.364 26.787 35.6254 26.0883 35.3833 25.1725L34.0882 20.2743C33.9211 20.3217 33.7564 20.3691 33.5942 20.424L35.0939 26.5325L34.1257 26.3378C33.1201 26.1357 32.344 25.3347 32.1694 24.3241L31.6329 21.22L30.7071 23.3684C30.6048 23.608 30.6298 23.8825 30.772 24.0995L33.6266 28.4039C33.6665 28.4638 33.689 28.5312 33.694 28.6036L33.7489 29.417L35.548 31.2186H39.7775V33.0676L38.8767 32.1643H37.8836L38.8268 33.1101L37.7988 34.1381V33.1101L36.8555 32.1643H35.9473L35.004 33.1101V33.9235L33.9061 32.8231L34.8593 31.8924L33.18 30.2105L32.5761 30.2779C32.4813 30.2879 32.384 30.2654 32.3041 30.213L28.7758 27.8625L31.3135 31.2935L35.3534 36.7557H33.6491C32.6834 36.7557 31.8051 36.1943 31.3983 35.3184L29.9161 32.1294C29.7764 32.1943 29.6341 32.2567 29.4919 32.3116L31.8699 38.3128H31.049C29.8487 38.3128 28.8207 37.4544 28.6061 36.2716L27.9648 32.7482C27.8251 32.7732 27.6853 32.7957 27.5406 32.8131L28.0771 37.0202C28.1794 37.8287 27.88 38.6371 27.2761 39.1836L26.5175 39.8673L25.7589 39.1836C25.1551 38.6371 24.8557 37.8287 24.958 37.0202L25.4944 32.8131C25.3522 32.7957 25.2125 32.7732 25.0703 32.7482L24.429 36.2716C24.2144 37.4544 23.1863 38.3128 21.9861 38.3128H21.1651L23.5431 32.3116C23.4009 32.2567 23.2587 32.1943 23.1189 32.1294L21.6367 35.3184C21.23 36.1967 20.3516 36.7557 19.386 36.7557H17.6817L21.7216 31.2935L24.2593 27.8625L20.7309 30.2105C20.6511 30.2629 20.5538 30.2879 20.4589 30.2754L19.8551 30.208L18.1758 31.8899L19.129 32.8206L18.031 33.921V33.1076L17.0878 32.1618H16.1795L15.2338 33.1076V34.1356L14.2057 33.1076L15.149 32.1618H14.1558L13.255 33.0651V31.2161H17.4845L19.2837 29.4145L19.341 28.5986C19.346 28.5287 19.3685 28.4588 19.4084 28.4014L22.263 24.097C22.4078 23.88 22.4327 23.6055 22.3279 23.3659L21.4022 21.215L20.8657 24.3216C20.691 25.3347 19.9125 26.1332 18.9069 26.3353L17.9412 26.53L19.4409 20.419C19.2787 20.3641 19.1115 20.3167 18.9468 20.2693L17.6542 25.17C17.4122 26.0858 16.6711 26.7845 15.7428 26.9716L14.3904 27.2436L16.9056 19.855C16.731 19.8301 16.5588 19.7977 16.3866 19.7652L14.1159 26.0783C13.8215 26.8968 13.1203 27.5006 12.2694 27.6728L10.4603 28.0371L14.3555 19.2013C14.1883 19.1439 14.0261 19.079 13.8639 19.0141L10.1459 27.064C9.81401 27.7826 9.15775 28.3016 8.38171 28.4588L6.00868 28.9379L11.9749 18.0834C11.8227 17.996 11.673 17.9037 11.5258 17.8064L7.80778 24.3017C7.4235 24.9729 6.74729 25.427 5.98124 25.5294L3.61319 25.8463L9.84395 16.5363C9.7117 16.4215 9.58194 16.3017 9.45219 16.1795L5.9438 21.23C5.51211 21.8513 4.82341 22.2405 4.06733 22.2905L1.73923 22.4452L8.03236 14.6149C7.92257 14.4752 7.81777 14.3354 7.71297 14.1907L4.22204 18.3853C3.75043 18.9517 3.05176 19.2786 2.31564 19.2786H0L11.154 7.64056C11.7553 7.01424 12.5838 6.65991 13.4522 6.65991H15.94C16.6062 6.65991 17.1452 7.1989 17.1452 7.86514V9.27249C17.1452 10.4054 17.5245 11.4509 18.1583 12.2893C19.0666 13.4895 20.5063 14.2631 22.1258 14.2631C22.4851 14.2631 22.837 14.2232 23.1763 14.1508C23.4458 14.0934 23.6654 13.8938 23.7378 13.6268L24.6211 10.4253C24.6336 10.3679 24.6361 10.308 24.6261 10.2506C24.5662 9.86138 24.0422 9.62183 23.4533 9.71166C22.9817 9.78153 22.6149 10.046 22.5176 10.3455C22.5176 10.3455 22.2556 9.83643 22.2506 9.45714C22.2431 8.96557 22.4527 8.69358 22.9268 8.45653L23.7502 8.06975C24.2693 7.59315 25.1127 7.28374 26.0709 7.28374C27.5431 7.28374 28.7558 8.01735 28.9105 8.96307L28.9255 9.07786L29.5219 13.5694C29.5643 13.8913 29.8113 14.1458 30.1307 14.1982C30.3927 14.2406 30.6597 14.2631 30.9342 14.2631C32.5537 14.2631 33.9934 13.4895 34.9017 12.2893C35.538 11.4509 35.9148 10.4078 35.9148 9.27249V7.86514C35.9148 7.1989 36.4538 6.65991 37.12 6.65991H39.6078C40.4762 6.65991 41.3047 7.01424 41.906 7.64056L53.06 19.2786H50.7444C50.0082 19.2786 49.3096 18.9517 48.838 18.3853L45.3445 14.1907C45.2422 14.333 45.1374 14.4752 45.0276 14.6149L51.3183 22.4452L48.9877 22.2905C48.2341 22.2405 47.5429 21.8513 47.1112 21.23L43.6028 16.182H43.5878Z" fill="#988561"/>
<path d="M25.0402 4.54893L26.515 3.47345L27.9872 4.54893L27.4257 2.8122L28.898 1.73673H27.0764L26.515 0L25.951 1.73673H24.127L25.6017 2.8122L25.0402 4.54893Z" fill="#988561"/>
<path d="M32.407 4.59129L33.3502 6.15335L33.5024 4.33428L35.2766 3.91507L33.5972 3.2089L33.7494 1.38733L32.5592 2.77222L30.8798 2.06355L31.8231 3.62811L30.6328 5.0105L32.407 4.59129Z" fill="#988561"/>
<path d="M19.5236 4.33677L19.6583 6.15584L20.6165 4.60377L22.3882 5.04044L21.2104 3.64557L22.1686 2.0935L20.4818 2.7822L19.304 1.38733L19.4388 3.2089L17.752 3.90009L19.5236 4.33677Z" fill="#988561"/>
</svg>
