<svg width="59" height="59" viewBox="0 0 59 59" fill="none" xmlns="http://www.w3.org/2000/svg">
<rect x="0.5" y="0.5" width="58" height="58" rx="29" stroke="#737373"/>
<path fill-rule="evenodd" clip-rule="evenodd" d="M27.4357 35.9625C27.3522 36.2615 27.0178 36.5606 26.8506 36.8098C26.2823 37.6072 22.7048 42.209 22.6045 42.6576C25.0619 42.6576 25.2458 42.5579 26.2321 40.4148C26.4494 39.9828 26.7336 39.5011 26.8506 39.0193L27.1014 39.1522C27.0178 39.5675 26.8506 39.933 26.6668 40.3317L25.9981 42.0595C25.9145 42.2588 25.8309 42.4416 25.7473 42.6576L25.2792 43.8205C26.1987 43.8205 26.8339 43.8537 27.419 43.2224C28.1044 42.4748 28.188 40.5477 28.422 39.5343H28.6728C28.6728 39.7337 28.6059 40.0493 28.5725 40.2819L28.2716 42.7074C28.1546 43.4384 28.4053 44.1527 28.9737 44.5681C29.1743 44.7342 29.2746 44.8671 29.4585 45C29.7594 44.9335 29.7761 44.8505 29.9767 44.6511C31.1135 43.5048 30.8126 42.9566 30.5618 41.179C30.495 40.7637 30.3779 39.9995 30.3779 39.5343H30.6454C30.6454 39.8333 30.7123 40.0659 30.7624 40.3151C30.963 41.5445 31.0299 42.9566 32.0664 43.5713C32.5512 43.8703 32.9691 43.8205 33.7213 43.8205C33.6712 43.3221 33.0192 42.0595 32.8019 41.478C32.5177 40.6972 32.2335 39.8832 31.8825 39.1522C32.0329 39.1024 32.0329 39.0857 32.2168 39.0857C32.2837 39.3848 32.4341 39.6174 32.5512 39.8998C32.9356 40.6972 33.2366 41.694 33.9219 42.2422C34.4235 42.6409 35.0587 42.6409 35.9447 42.6576C36.7137 42.6576 36.4295 42.508 35.6605 41.4946L31.498 35.896C31.8658 35.9957 33.3201 37.059 33.7548 37.358C34.2563 37.6902 34.1226 37.574 34.6909 37.5241L35.9447 38.7369C35.8444 39.1024 35.4599 39.2519 35.276 39.5343C35.4432 39.7669 35.928 40.2985 36.1955 40.3816C36.1955 39.7337 36.1119 39.8333 36.4797 39.4845C36.7806 39.1854 36.7304 39.0525 37.3155 39.0691C37.7502 39.0857 37.8003 39.2851 38.0845 39.5509C38.2349 39.7004 38.2684 39.6672 38.2851 39.9164C38.3018 40.0825 38.2851 40.3982 38.2851 40.5809C38.5191 40.5145 38.6027 40.365 38.7699 40.1988C38.9371 40.0327 39.0875 39.9164 39.2045 39.7337L38.5359 39.1024C39.0206 39.0857 39.1042 39.0027 39.355 39.2519C39.5389 39.4346 39.6559 39.6506 39.9234 39.7337C39.9234 39.3848 39.9234 39.0359 39.9234 38.687C39.9401 38.1388 39.8899 38.2219 39.3383 38.2385C38.6362 38.2385 37.934 38.2385 37.2486 38.2385C36.2958 38.2385 36.4629 38.1388 35.8611 37.5407C34.8247 36.5107 35.4098 37.0423 35.1089 36.1286C35.0086 35.7797 34.507 35.1651 34.3064 34.8494L33.0192 32.9389C32.8521 32.7063 32.7183 32.5568 32.8353 32.1581C32.9356 31.8258 33.1697 31.4105 33.3034 31.0783L33.5207 30.6962C33.8216 31.992 33.621 33.6367 34.9083 34.3178C35.1924 34.4673 35.8611 34.6667 36.2623 34.6667C36.0784 33.8693 35.9113 33.1051 35.694 32.291L35.0921 29.9153C35.2426 29.8821 35.2426 29.8655 35.4098 29.8489L35.8946 31.5766C36.0617 32.2578 36.1955 32.7229 36.3626 33.3875C36.8474 35.3146 38.2182 34.866 39.0039 35.2481C38.9872 34.6667 37.1651 30.0815 37.1149 29.4668C37.6666 29.4668 37.4827 29.6329 37.7167 30.2144L38.8702 33.3709C39.1711 34.1683 39.2212 34.6833 39.8398 35.1983C40.1741 35.4475 40.358 35.5139 40.8762 35.597C41.2774 35.6635 41.6954 35.813 42.0799 35.8296C42.0464 35.381 39.7228 30.3805 39.2714 29.4003C39.2045 29.2342 39.1544 29.1013 39.0708 28.9352C39.2212 28.9019 39.2714 28.8853 39.472 28.8687C39.589 29.3837 41.3276 32.9555 41.6285 33.6201C41.8625 34.1517 42.13 34.8494 42.4476 35.3312C42.9491 36.1452 43.9856 36.2283 44.8382 36.3944C45.1224 36.4609 45.3397 36.5439 45.6072 36.5439C45.5069 36.1785 44.7044 34.8328 44.4537 34.4341C44.2364 34.0686 44.1026 33.753 43.8853 33.3875L42.13 30.1978C41.8793 29.7492 41.0768 28.5032 40.9765 28.0381L41.2273 27.955C41.4279 28.1045 41.6619 28.6361 41.8124 28.8853C41.9127 29.0681 41.9796 29.201 42.0966 29.3837C42.6817 30.3473 43.1999 31.3607 43.8017 32.3076C43.902 32.4904 43.9522 32.6233 44.0692 32.806C44.554 33.6201 45.1056 33.836 46.0418 33.9689C46.4263 34.0188 47.0281 34.1018 47.446 34.1351C47.4126 33.8526 47.0615 33.4705 46.8777 33.2047L42.8154 27.1742C42.6148 26.8918 42.6315 26.925 42.7987 26.6592C43.0829 26.7755 45.4734 30.3805 45.674 30.6297C46.3761 31.5434 47.7302 31.477 48.9506 31.477C48.332 30.5799 45.323 26.9582 44.3534 25.7621C44.2531 25.6292 44.1193 25.4963 44.0358 25.3634C44.1528 25.2139 44.1193 25.2969 44.1695 25.1142H44.3032C44.3701 25.3634 46.2926 27.5397 46.5099 27.7889C47.8305 29.3505 47.7804 29.0016 50.2545 29.0016C50.1709 28.7192 49.7864 28.4534 49.5858 28.2374L42.9826 21.3596C42.7318 21.0938 42.4811 20.8612 42.2303 20.612C42.0966 20.4791 41.9963 20.3795 41.8793 20.2466C41.5449 19.8312 41.0936 19.4325 40.5586 19.2664C40.2076 19.1501 39.6726 19.1335 39.2045 19.1335C38.1514 19.1335 37.1483 18.9673 36.8809 19.798C36.4964 21.0274 37.1316 22.1737 36.0784 23.4861C35.3763 24.3832 34.4569 25.0477 33.1195 25.0477C31.5147 25.0477 31.9493 24.7321 31.5648 22.1072C31.5147 21.7417 31.4645 21.0772 31.3642 20.8114C30.963 19.4824 28.6728 19.3827 27.6531 19.9974C27.4525 20.1303 27.4023 20.2133 27.185 20.313C26.3826 20.6785 25.764 20.8945 26.3324 22.0574C26.6333 21.858 26.6333 21.6587 27.1181 21.6088C28.3385 21.4593 27.954 22.2235 27.7366 22.9379C27.2519 24.5327 27.6531 25.0477 25.9981 25.0477C23.9419 25.0477 22.1866 23.403 22.2033 21.2101C22.2033 20.529 22.4039 19.582 21.6349 19.2332C21.2337 19.0504 19.7961 19.0836 19.211 19.1335C17.907 19.2664 17.3052 20.0306 16.5362 20.8945C16.4359 21.0274 16.3356 21.1104 16.2019 21.2267L12.0226 25.5793C12.0059 25.5793 11.9892 25.596 11.9892 25.596L9.96644 27.6892C9.54851 28.1045 9.06372 28.5365 8.74609 29.0016C11.9056 29.0016 11.3707 29.2508 13.6275 26.4598C13.8281 26.2272 14.012 26.0279 14.2126 25.7953C14.3296 25.6292 14.6974 25.1972 14.8144 25.1142C15.015 25.4797 14.7977 25.6126 14.5469 25.9282L13.5773 27.1244C13.0925 27.7556 10.2172 31.1115 10.1169 31.477C11.3874 31.477 12.591 31.5268 13.36 30.6131C13.9284 29.9486 14.5469 28.9352 15.0484 28.2042L15.8843 27.0081C16.0013 26.8419 16.0514 26.7256 16.252 26.6592C16.3022 26.8585 16.252 26.7589 16.3858 26.8585C15.7505 28.0713 14.4299 29.6828 13.6776 30.9121L12.7582 32.2744C12.4907 32.6731 11.6549 33.7696 11.5546 34.1351C14.4968 33.9025 14.3296 33.7862 15.4831 31.8757L17.7566 27.9052C17.9237 28.0048 17.8234 27.9882 18.024 28.0381C17.9906 28.4534 15.4496 32.7894 15.1654 33.321C14.8645 33.8693 13.5606 36.0954 13.4436 36.5439C13.9284 36.5107 14.363 36.3612 14.8645 36.2615C16.787 35.8794 16.7368 34.9657 17.673 33.0054L18.2247 31.8591C18.325 31.6431 18.3918 31.477 18.5088 31.2444L19.5954 28.8687C19.7626 28.8853 19.7626 28.9019 19.9131 28.9352C19.8295 29.3505 19.3781 30.2642 19.1775 30.6795C18.6426 31.7428 17.8234 33.8028 17.2885 34.9657C17.1548 35.2481 16.9876 35.5306 16.9207 35.8296C17.2551 35.8296 17.7064 35.6967 18.0742 35.6136C18.5423 35.5306 18.7094 35.4973 19.0772 35.2647C19.7626 34.7996 19.7961 34.3012 20.1137 33.5536C20.3644 32.9223 21.3842 30.1645 21.5513 29.4668H21.9526C21.8355 29.932 21.6182 30.4137 21.4678 30.8623C21.3675 31.1613 21.3006 31.2776 21.217 31.5933C21.1501 31.8591 21.0498 32.0584 20.9495 32.3076C20.6653 33.1217 20.1638 34.4507 19.9799 35.2481C21.2839 34.9491 22.2869 34.8993 22.6547 33.4207C22.8051 32.7562 23.5407 30.4137 23.5741 29.8489C24.1258 29.8655 23.8416 30.3307 23.6911 30.8623C23.5574 31.2942 23.4905 31.7096 23.3902 32.1249C23.2398 32.6897 22.7884 34.2181 22.7884 34.6667C23.6577 34.6334 24.527 34.268 24.9115 33.5204C25.0954 33.1549 25.4798 31.2942 25.4798 30.7626H25.6136C25.8142 31.6265 26.5665 32.1083 25.9981 32.9721C25.5969 33.5702 24.0422 35.7133 23.8917 36.1452C23.5908 36.9759 24.2929 36.3944 23.1729 37.5075C22.5544 38.1222 22.7048 38.2385 21.8188 38.2385C21.1167 38.2219 20.4146 38.2385 19.7292 38.2385C18.8432 38.2219 19.0772 38.2219 19.0772 39.7337C19.328 39.6672 19.445 39.4678 19.6122 39.2851C19.8964 38.9861 19.9131 39.0857 20.448 39.0857C20.2976 39.3516 20.0301 39.4678 19.8629 39.7337C19.8796 39.7669 19.9632 39.9164 20.0134 39.9662L20.6988 40.5809C20.6988 39.717 20.5818 39.8832 21.0498 39.418C21.5012 38.9695 21.3507 39.0857 22.2033 39.0857C22.6045 39.8167 22.7884 39.2851 22.7884 40.3816H22.989C23.106 39.9496 23.6744 39.8998 23.7078 39.4014C23.4738 39.3349 23.3735 39.1688 23.2063 39.0027C23.106 38.903 23.1395 38.9362 23.0559 38.8199L24.3097 37.5407C25.2124 37.5906 24.8279 37.6404 25.9646 36.8928C26.2154 36.7267 26.416 36.5938 26.6668 36.4277C26.8674 36.2948 27.2184 36.0123 27.4357 35.9625Z" fill="#B9A779"/>
<path fill-rule="evenodd" clip-rule="evenodd" d="M29.0744 15.2958H27.6367C27.7036 15.4786 27.6534 15.3789 27.8373 15.545L28.74 16.1431C28.74 16.6249 28.4057 17.007 28.3556 17.5718C29.6595 16.8907 29.0744 16.4587 30.1108 17.1731C30.278 17.2894 30.4953 17.522 30.7127 17.5718C30.6291 17.2229 30.395 16.492 30.2446 16.2095L31.1306 15.5782C31.3145 15.4453 31.2977 15.5284 31.3646 15.2958H29.9938C29.7263 14.7476 29.7431 14.1994 29.4589 14C29.3586 14.4319 29.1914 14.814 29.0744 15.2958Z" fill="#B9A779"/>
<path fill-rule="evenodd" clip-rule="evenodd" d="M23.9089 16.5249C23.5244 16.5581 23.0396 16.8904 22.6719 16.9901V17.1064C22.9895 17.123 23.8086 17.339 24.0427 17.4386C24.0427 17.9869 24.1095 18.2693 24.1095 18.8009C24.4104 18.6015 24.8284 17.638 24.9621 17.638C25.1293 17.638 26.0153 17.9038 26.266 17.9536C26.2326 17.6546 25.7478 17.2891 25.4135 16.7907L26.1323 15.6112C25.8815 15.6444 25.7144 15.7607 25.4469 15.8604C25.1627 15.9601 25.0123 16.0764 24.7615 16.1428C24.6946 15.8936 24.3101 15.5447 24.143 15.3288C23.9925 15.1294 24.0928 15.1626 23.8421 15.0962C23.8421 15.6278 23.9089 15.9601 23.9089 16.5249Z" fill="#B9A779"/>
<path fill-rule="evenodd" clip-rule="evenodd" d="M34.2389 16.0764C34.055 16.0764 33.0854 15.6444 32.935 15.5614C32.9517 15.8438 33.4532 16.4917 33.6538 16.8572C33.3863 17.0399 33.3863 17.1396 33.169 17.3556C32.9517 17.5881 32.9183 17.6214 32.7344 17.8872C33.2526 17.8872 33.6204 17.638 34.1052 17.638C34.2723 17.8706 34.707 18.668 34.8909 18.8009C34.9243 18.3856 35.0246 17.8373 35.0246 17.3722C35.4425 17.339 35.9273 17.123 36.3954 17.1064C36.1781 16.8073 35.4425 16.6578 35.0915 16.4585C35.0915 16.0764 35.2085 15.4783 35.2085 15.0962C34.8909 15.1793 34.3726 16.0764 34.2389 16.0764Z" fill="#B9A779"/>
</svg>
