<svg width="65" height="49" viewBox="0 0 65 49" fill="none" xmlns="http://www.w3.org/2000/svg">
<path fill-rule="evenodd" clip-rule="evenodd" d="M29.1368 34.4534C29.0065 34.9225 28.4853 35.3916 28.2247 35.7825C27.3386 37.0335 21.7614 44.2525 21.605 44.9562C25.4361 44.9562 25.7228 44.7998 27.2604 41.4379C27.5992 40.7603 28.0422 40.0045 28.2247 39.2487L28.6156 39.4572C28.4853 40.1087 28.2247 40.6821 27.938 41.3076L26.8955 44.018C26.7652 44.3307 26.6349 44.6174 26.5046 44.9562L25.7749 46.7805C27.2083 46.7805 28.1986 46.8326 29.1108 45.8423C30.1793 44.6695 30.3096 41.6464 30.6745 40.0566H31.0654C31.0654 40.3694 30.9611 40.8645 30.909 41.2294L30.4399 45.0344C30.2575 46.1811 30.6484 47.3017 31.5345 47.9533C31.8472 48.2139 32.0036 48.4224 32.2903 48.6309C32.7594 48.5266 32.7855 48.3963 33.0982 48.0836C34.8704 46.2853 34.4013 45.4253 34.0103 42.6367C33.9061 41.9852 33.7237 40.7863 33.7237 40.0566H34.1407C34.1407 40.5257 34.2449 40.8906 34.3231 41.2815C34.6358 43.2101 34.7401 45.4253 36.3559 46.3896C37.1117 46.8587 37.7632 46.7805 38.936 46.7805C38.8578 45.9987 37.8414 44.018 37.5026 43.1058C37.0596 41.8809 36.6165 40.6039 36.0692 39.4572C36.3038 39.379 36.3038 39.353 36.5904 39.353C36.6947 39.8221 36.9292 40.1869 37.1117 40.63C37.7111 41.8809 38.1802 43.4446 39.2487 44.3047C40.0306 44.9301 41.0209 44.9301 42.4022 44.9562C43.601 44.9562 43.158 44.7216 41.9591 43.1319L35.4698 34.3491C36.0431 34.5055 38.3105 36.1734 38.9881 36.6426C39.77 37.1638 39.5615 36.9814 40.4476 36.9032L42.4022 38.8057C42.2458 39.379 41.6464 39.6136 41.3597 40.0566C41.6203 40.4215 42.3761 41.2555 42.7931 41.3858C42.7931 40.3694 42.6628 40.5257 43.2361 39.9784C43.7052 39.5093 43.6271 39.3008 44.5392 39.3269C45.2168 39.353 45.295 39.6657 45.7381 40.0827C45.9726 40.3172 46.0247 40.2651 46.0508 40.656C46.0769 40.9167 46.0508 41.4118 46.0508 41.6985C46.4157 41.5943 46.546 41.3597 46.8066 41.0991C47.0672 40.8385 47.3017 40.656 47.4842 40.3694L46.4417 39.379C47.1975 39.353 47.3278 39.2226 47.7187 39.6136C48.0054 39.9002 48.1878 40.2391 48.6048 40.3694C48.6048 39.8221 48.6048 39.2748 48.6048 38.7275C48.6309 37.8674 48.5527 37.9978 47.6927 38.0238C46.5981 38.0238 45.5035 38.0238 44.435 38.0238C42.9495 38.0238 43.2101 37.8674 42.2719 36.9292C40.656 35.3134 41.5682 36.1474 41.0991 34.714C40.9427 34.1667 40.1609 33.2024 39.8481 32.7073L37.8414 29.7102C37.5808 29.3453 37.3723 29.1108 37.5547 28.4853C37.7111 27.9641 38.076 27.3125 38.2844 26.7913L38.6232 26.1919C39.0924 28.2247 38.7796 30.8048 40.7864 31.8733C41.2294 32.1078 42.2719 32.4206 42.8973 32.4206C42.6107 31.1696 42.35 29.9708 42.0112 28.6938L41.073 24.967C41.3076 24.9148 41.3076 24.8888 41.5682 24.8627L42.324 27.5731C42.5846 28.6417 42.7931 29.3714 43.0537 30.4138C43.8095 33.437 45.9465 32.7333 47.1714 33.3327C47.1454 32.4206 44.3047 25.2276 44.2265 24.2633C45.0865 24.2633 44.7998 24.5239 45.1647 25.4361L46.9629 30.3878C47.4321 31.6387 47.5102 32.4466 48.4745 33.2546C48.9958 33.6455 49.2824 33.7497 50.0903 33.88C50.7158 33.9843 51.3674 34.2188 51.9668 34.2449C51.9146 33.5412 48.2921 25.6967 47.5884 24.1591C47.4842 23.8984 47.406 23.69 47.2757 23.4293C47.5102 23.3772 47.5884 23.3512 47.9012 23.3251C48.0836 24.133 50.794 29.7362 51.2631 30.7787C51.628 31.6127 52.045 32.7073 52.5401 33.463C53.322 34.7401 54.9378 34.8704 56.2669 35.131C56.71 35.2352 57.0488 35.3655 57.4658 35.3655C57.3094 34.7922 56.0584 32.6812 55.6675 32.0557C55.3287 31.4824 55.1202 30.9872 54.7814 30.4138L52.045 25.41C51.654 24.7064 50.4031 22.7517 50.2467 22.022L50.6376 21.8917C50.9504 22.1263 51.3152 22.9602 51.5498 23.3512C51.7062 23.6378 51.8104 23.8463 51.9928 24.133C52.905 25.6446 53.7129 27.2343 54.6511 28.7198C54.8075 29.0065 54.8857 29.215 55.0681 29.5017C55.8239 30.7787 56.6839 31.1175 58.1434 31.326C58.7428 31.4042 59.681 31.5345 60.3325 31.5866C60.2804 31.1436 59.7331 30.5441 59.4464 30.1272L53.1135 20.6668C52.8007 20.2238 52.8268 20.2759 53.0874 19.8589C53.5305 20.0413 57.2573 25.6967 57.57 26.0876C58.6646 27.521 60.7756 27.4168 62.6781 27.4168C61.7138 26.0094 57.0227 20.328 55.5111 18.4516C55.3548 18.2431 55.1463 18.0346 55.016 17.8261C55.1984 17.5915 55.1463 17.7219 55.2245 17.4352H55.433C55.5372 17.8261 58.5343 21.2402 58.8731 21.6311C60.9319 24.0809 60.8538 23.5336 64.7109 23.5336C64.5806 23.0905 63.9812 22.6736 63.6684 22.3348L53.3741 11.5453C52.9832 11.1283 52.5922 10.7634 52.2013 10.3725C51.9928 10.164 51.8365 10.0076 51.654 9.79914C51.1328 9.1476 50.4291 8.52212 49.5952 8.2615C49.0479 8.07907 48.2139 8.05301 47.4842 8.05301C45.8423 8.05301 44.2786 7.7924 43.8616 9.09547C43.2622 11.024 44.2525 12.8223 42.6107 14.8811C41.5161 16.2885 40.0827 17.3309 37.9978 17.3309C35.4959 17.3309 36.1735 16.8358 35.574 12.718C35.4959 12.1447 35.4177 11.1022 35.2613 10.6852C34.6358 8.6003 31.0654 8.44394 29.4756 9.40821C29.1629 9.61671 29.0847 9.74701 28.7459 9.90338C27.495 10.4767 26.5307 10.8155 27.4168 12.6398C27.8859 12.3271 27.8859 12.0144 28.6417 11.9362C30.5442 11.7016 29.9447 12.9005 29.6059 14.0211C28.8502 16.523 29.4756 17.3309 26.8955 17.3309C23.69 17.3309 20.9535 14.7508 20.9796 11.3107C20.9796 10.2422 21.2923 8.75667 20.0935 8.20938C19.468 7.9227 17.2267 7.97483 16.3145 8.05301C14.2817 8.2615 13.3435 9.46034 12.1447 10.8155C11.9883 11.024 11.832 11.1543 11.6235 11.3368L5.10807 18.1649C5.08201 18.1649 5.05594 18.191 5.05594 18.191L1.90249 21.4747C1.25096 22.1263 0.49517 22.8039 0 23.5336C4.92564 23.5336 4.09167 23.9245 7.60998 19.5462C7.92272 19.1813 8.20939 18.8686 8.52213 18.5037C8.70456 18.2431 9.27792 17.5655 9.46035 17.4352C9.77309 18.0085 9.43429 18.217 9.04336 18.7122L7.53179 20.5886C6.77601 21.579 2.29342 26.8434 2.13705 27.4168C4.11773 27.4168 5.99416 27.4949 7.19299 26.0616C8.07909 25.0191 9.04336 23.4293 9.82521 22.2826L11.1283 20.4062C11.3107 20.1456 11.3889 19.9631 11.7016 19.8589C11.7798 20.1716 11.7016 20.0153 11.9101 20.1716C10.9198 22.0741 8.86093 24.6021 7.68816 26.5307L6.25478 28.6677C5.83779 29.2932 4.53471 31.0133 4.37834 31.5866C8.96518 31.2217 8.70456 31.0393 10.5028 28.0422L14.0472 21.8135C14.3078 21.9699 14.1514 21.9438 14.4642 22.022C14.412 22.6736 10.4507 29.4756 10.0076 30.3096C9.53853 31.1696 7.50573 34.6619 7.3233 35.3655C8.07909 35.3134 8.75669 35.0789 9.53853 34.9225C12.5356 34.3231 12.4574 32.8897 13.9169 29.8144L14.7769 28.0162C14.9333 27.6774 15.0375 27.4168 15.22 27.0519L16.914 23.3251C17.1746 23.3512 17.1746 23.3772 17.4091 23.4293C17.2788 24.0809 16.5752 25.5143 16.2624 26.1658C15.4284 27.8337 14.1514 31.0654 13.3175 32.8897C13.109 33.3327 12.8484 33.7758 12.7441 34.2449C13.2653 34.2449 13.969 34.0364 14.5424 33.9061C15.2721 33.7758 15.5327 33.7237 16.106 33.3588C17.1746 32.6291 17.2267 31.8472 17.7219 30.6745C18.1128 29.6841 19.7025 25.3579 19.9632 24.2633H20.5886C20.4062 24.993 20.0674 25.7488 19.8329 26.4525C19.6765 26.9216 19.5722 27.104 19.4419 27.5992C19.3377 28.0162 19.1813 28.3289 19.0249 28.7198C18.5819 29.9969 17.8001 32.0818 17.5134 33.3327C19.5462 32.8636 21.1099 32.7854 21.6832 30.466C21.9178 29.4235 23.0645 25.7488 23.1166 24.8627C23.9766 24.8888 23.5336 25.6185 23.299 26.4525C23.0905 27.1301 22.9863 27.7816 22.8299 28.4332C22.5954 29.3193 21.8917 31.7169 21.8917 32.4206C23.2469 32.3685 24.6021 31.7951 25.2015 30.6223C25.4882 30.049 26.0876 27.1301 26.0876 26.2961H26.2961C26.6089 27.6513 27.7816 28.4071 26.8955 29.7623C26.2701 30.7005 23.8463 34.0625 23.6118 34.7401C23.1427 36.0431 24.2373 35.131 22.4911 36.8771C21.5269 37.8414 21.7614 38.0238 20.3801 38.0238C19.2856 37.9978 18.191 38.0238 17.1224 38.0238C15.7412 37.9978 16.106 37.9978 16.106 40.3694C16.497 40.2651 16.6794 39.9524 16.94 39.6657C17.3831 39.1966 17.4091 39.353 18.2431 39.353C18.0085 39.7699 17.5916 39.9524 17.3309 40.3694C17.357 40.4215 17.4873 40.656 17.5655 40.7342L18.634 41.6985C18.634 40.3433 18.4516 40.6039 19.1813 39.8742C19.885 39.1705 19.6504 39.353 20.9796 39.353C21.605 40.4997 21.8917 39.6657 21.8917 41.3858H22.2045C22.3869 40.7082 23.273 40.63 23.3251 39.8481C22.9602 39.7439 22.8039 39.4833 22.5433 39.2226C22.3869 39.0663 22.439 39.1184 22.3087 38.936L24.2633 36.9292C25.6706 37.0074 25.0712 37.0856 26.8434 35.9128C27.2343 35.6522 27.5471 35.4437 27.938 35.1831C28.2507 34.9746 28.798 34.5316 29.1368 34.4534Z" fill="#988561"/>
<path fill-rule="evenodd" clip-rule="evenodd" d="M31.6905 2.0328H29.4492C29.5535 2.31948 29.4753 2.16311 29.762 2.42373L31.1693 3.36194C31.1693 4.11773 30.6481 4.71714 30.5699 5.60324C32.6027 4.53471 31.6905 3.85711 33.3063 4.97776C33.5669 5.16019 33.9057 5.52505 34.2445 5.60324C34.1142 5.05594 33.7494 3.90924 33.5148 3.46619L34.8961 2.47585C35.1828 2.26736 35.1567 2.39766 35.2609 2.0328H33.1239C32.7069 1.17277 32.733 0.312739 32.2899 0C32.1336 0.677601 31.8729 1.27702 31.6905 2.0328Z" fill="#988561"/>
<path fill-rule="evenodd" clip-rule="evenodd" d="M23.6375 3.96127C23.0381 4.01339 22.2823 4.53462 21.709 4.69099V4.87342C22.2042 4.89948 23.4812 5.23828 23.846 5.39465C23.846 6.25468 23.9503 6.69773 23.9503 7.5317C24.4194 7.21896 25.0709 5.70739 25.2794 5.70739C25.54 5.70739 26.9213 6.12438 27.3122 6.20256C27.2601 5.73345 26.5043 5.1601 25.9831 4.37825L27.1037 2.52788C26.7128 2.58 26.4522 2.76243 26.0352 2.9188C25.5922 3.07517 25.3576 3.2576 24.9667 3.36185C24.8624 2.97093 24.263 2.42363 24.0024 2.08483C23.7678 1.77209 23.9242 1.82422 23.5333 1.71997C23.5333 2.55394 23.6375 3.07517 23.6375 3.96127Z" fill="#988561"/>
<path fill-rule="evenodd" clip-rule="evenodd" d="M39.7459 3.2576C39.4593 3.2576 37.9477 2.58 37.7131 2.44969C37.7392 2.89274 38.521 3.90914 38.8338 4.4825C38.4168 4.76917 38.4168 4.92554 38.078 5.26434C37.7392 5.62921 37.6871 5.68133 37.4004 6.09831C38.2083 6.09831 38.7817 5.70739 39.5374 5.70739C39.7981 6.07225 40.4757 7.32321 40.7623 7.5317C40.8145 6.88016 40.9708 6.02013 40.9708 5.29041C41.6224 5.23828 42.3782 4.89948 43.1079 4.87342C42.7691 4.40431 41.6224 4.16976 41.0751 3.85702C41.0751 3.2576 41.2575 2.31939 41.2575 1.71997C40.7623 1.85028 39.9544 3.2576 39.7459 3.2576Z" fill="#988561"/>
</svg>
