<svg width="260" height="286" viewBox="0 0 260 286" fill="none" xmlns="http://www.w3.org/2000/svg">
<path fill-rule="evenodd" clip-rule="evenodd" d="M228.152 152.572C230.324 151.757 236.434 152.3 238.878 152.708L232.089 164.383C230.392 161.465 228.424 155.83 228.152 152.572ZM253.404 180.811L258.36 175.312L260.396 182.372C257.885 182.033 255.101 181.558 253.404 180.811ZM251.3 154.405L237.995 178.707C230.392 167.167 233.447 165.877 236.434 161.125C241.05 153.794 239.76 150.603 251.3 154.405ZM225.165 123.926C231.411 130.714 217.495 145.444 213.15 150.603L212.947 145.648L208.874 147.549C209.553 143.476 212.336 137.977 214.168 133.836C216.409 128.474 219.531 124.808 225.165 123.926ZM250.35 181.286C246.073 180.132 242.475 180.743 237.927 178.639L258.156 159.496L261.347 165.809L266.506 161.872C269.221 166.081 272.683 182.304 274.652 187.939C275.602 179.657 274.312 165.334 275.67 160.718L284.223 163.976C285.105 166.759 285.105 173.548 285.038 176.738C284.97 180.743 284.902 183.526 276.688 187.803C272.819 189.771 264.266 185.02 263.519 184.409C261.686 182.847 260.736 174.837 259.446 171.647L250.35 181.286ZM214.915 151.961C223.333 140.964 224.554 135.126 237.113 132.615C237.724 135.262 237.927 138.588 238.131 141.371C238.47 145.648 240.167 147.074 239.013 150.807C229.985 149.246 224.351 149.042 214.915 151.961ZM213.829 121.414C212.336 126.709 216.476 122.704 211.793 134.176C210.299 137.841 208.195 143.476 206.362 146.802L205.208 143.476L204.869 142.186C203.918 143.136 203.986 142.661 205.208 143.476C204.258 144.562 204.801 144.29 203.443 143.204C203.443 143.34 203.579 143.611 203.579 143.747L205.208 153.251L211.046 149.042C210.91 151.486 210.028 152.504 210.503 155.83C212.811 155.695 215.594 154.133 217.97 153.387C220.821 152.436 222.79 151.961 225.233 151.825C227.541 155.762 231.478 169.203 233.854 175.245C236.434 181.626 234.465 181.015 247.77 182.372C249.807 182.644 251.3 182.644 253.404 182.847C261.482 183.594 271.665 192.419 276.145 190.382C280.082 188.617 294.88 175.177 298.953 171.375C304.723 175.652 305.606 177.756 310.018 182.576L313.277 175.788L315.992 182.44L325.495 172.122C326.378 171.647 326.989 171.172 327.668 170.9L331.808 174.498C331.605 174.294 330.79 173.344 330.722 173.14L329.84 171.036C330.383 168.592 332.691 168.456 335.135 166.691C337.171 164.791 336.085 166.148 335.881 164.723C335.135 166.284 335.678 166.42 334.659 165.402C327.192 169.339 324.817 170.764 318.096 177.349C317.689 174.634 319.047 166.759 319.522 163.569C320.404 156.17 319.997 155.355 327.735 148.703L332.487 154.676C334.592 154.88 333.573 155.627 333.573 153.454L329.229 147.481L332.827 144.698L344.706 158.07C345.181 156.645 345.181 158.274 345.113 156.034L334.524 143.951L344.367 138.452C349.594 142.186 354.617 147.888 360.115 146.327C364.799 144.901 367.447 136.144 368.804 132.343L373.42 131.8C373.624 131.732 374.031 131.461 374.031 131.596C373.488 133.09 374.982 131.325 375.185 131.257L377.425 130.646C377.222 130.578 377.154 130.374 376.882 130.51C375.932 131.053 376.679 130.442 375.796 130.239L374.303 129.967C374.167 129.967 373.963 129.899 373.76 129.831C373.149 130.85 373.488 130.918 372.741 130.035C372.198 130.985 372.47 130.985 371.791 130.171C371.112 131.121 371.452 131.189 370.773 130.239C369.212 130.307 371.452 132.954 369.755 130.035C369.755 130.035 369.619 129.764 369.551 129.696C369.483 129.628 369.551 129.288 369.551 129.153L369.958 127.931C375.864 109.942 366.021 95.2115 363.985 88.1517C370.433 93.5144 381.566 102.339 388.422 102.271C390.798 95.5509 390.051 78.9197 388.015 74.0322L393.989 81.7708L397.179 85.097C397.111 84.8934 397.111 84.4861 396.908 84.554L395.414 81.0241C387.472 72.5388 386.861 68.6695 391.477 62.4243C397.926 71.4527 399.962 77.2906 410.212 84.4182C417.815 89.5773 426.165 91.5458 432.817 92.2247C433.768 86.6583 429.966 76.0687 425.554 69.4841C418.562 59.0981 412.181 56.9259 403.424 50.4771C410.145 45.1144 411.774 46.8793 419.784 52.5814C427.862 58.3514 429.084 62.5601 434.718 68.3301C436.958 71.3848 435.125 69.552 436.822 69.0768C434.243 66.3615 431.867 61.5419 428.133 57.6726C423.721 53.1245 419.987 51.0201 415.507 47.4903L422.363 48.237C428.744 49.1873 437.365 49.934 443.678 47.1509C438.927 35.7466 438.18 33.9138 428.88 22.849C442.253 29.4336 447.683 30.6555 460.31 30.2482C464.79 30.1124 467.301 28.9584 471.374 28.8227C472.664 29.5694 472.868 29.2299 471.714 29.9767C472.732 30.7234 472.664 30.3839 471.578 31.0628C472.528 31.7416 472.393 31.3343 471.374 32.081C472.189 32.7598 472.189 32.3525 471.239 33.0314C472.189 33.7102 472.121 33.3708 471.171 34.0496C471.985 34.7284 471.985 34.4569 470.967 35.0678C471.917 35.7466 471.85 35.4072 470.899 36.0861C472.121 36.3576 471.103 37.5116 472.257 35.543C471.306 34.8642 471.374 35.2036 472.325 34.5248C471.374 33.8459 471.442 34.1854 472.393 33.5065C471.442 32.8277 471.51 33.1671 472.528 32.5562C471.578 31.7416 471.714 32.1489 472.596 31.2664C473.275 26.5147 473.139 28.0081 478.502 25.768C498.188 17.6221 481.082 9.88351 479.995 3.77411C479.656 2.07705 483.322 -4.43965 485.154 -6.40824L500.428 7.2361L498.935 11.0375C500.021 12.1236 499.885 11.5806 498.459 12.3273C498.663 12.2594 499.002 11.92 499.002 12.0557L502.804 10.9696C504.365 10.9017 505.383 11.1054 506.877 11.3769C506.945 10.2229 507.216 9.5441 506.334 10.155L502.329 10.766C499.002 8.66162 501.921 10.6302 501.446 9.20468C500.36 8.52586 500.496 8.93315 501.65 8.05069C505.383 2.14493 502.532 0.108463 509.931 0.0405819C514.072 -0.0272947 517.806 0.312109 521.607 -0.638238L526.223 4.65658C526.291 4.45293 526.495 4.11352 526.427 4.1814C526.291 4.1814 526.427 3.77411 526.495 3.70622C526.495 3.57046 526.563 2.82375 526.631 2.62011L513.258 -13.6037C515.905 -20.1883 516.516 -19.1701 523.644 -24.8043L516.991 -28.1984L523.44 -31.1174C518.349 -35.2582 516.584 -36.4801 512.511 -41.9107C517.466 -48.3595 529.753 -59.6958 531.857 -66.1446C530.839 -71.6431 527.106 -77.2773 524.933 -82.8436C524.255 -84.7443 523.644 -89.8355 523.508 -91.4647C522.625 -102.122 523.644 -104.091 518.077 -106.399L493.165 -115.699C493.165 -117.192 493.232 -117.667 493.436 -119.229C493.708 -121.537 494.115 -119.772 493.504 -122.555L492.486 -121.672C494.115 -122.487 494.047 -122.012 492.757 -123.301C491.807 -122.08 491.671 -122.623 492.486 -121.672C489.16 -118.075 491.943 -106.331 491.128 -101.579L473.411 -104.091L475.651 -112.44C473.75 -109.997 475.108 -111.354 474.225 -111.558C475.651 -112.305 476.058 -111.897 474.633 -112.644C474.565 -112.848 474.565 -113.119 474.565 -113.255C474.497 -113.323 474.09 -113.459 474.158 -113.662C474.225 -113.866 473.682 -113.594 473.479 -113.662C472.732 -114.816 473.139 -114.68 472.257 -113.391C473.139 -112.508 472.732 -112.508 473.479 -113.662L474.633 -112.644C473.614 -112.033 473.614 -112.44 474.225 -111.558C471.307 -108.096 471.103 -101.783 470.899 -98.0493C470.763 -95.1982 470.56 -93.9085 470.831 -90.9216C470.899 -88.9531 470.628 -86.3735 470.831 -84.8122C469.813 -85.0159 468.863 -85.2874 467.437 -85.4911L463.568 -85.8305L463.907 -84.6765C463.161 -86.2378 463.636 -86.1699 462.55 -84.8122C463.636 -83.7261 463.161 -83.5225 463.907 -84.6765C466.419 -82.4364 481.828 -80.8751 485.087 -75.716C489.635 -68.3169 468.998 -47.5449 450.195 -45.169C441.031 -44.015 433.157 -40.8924 430.917 -50.4638C434.786 -51.0748 438.723 -50.5317 443.135 -51.2784C445.375 -51.7536 446.937 -51.6857 449.177 -52.2966C461.124 -55.4192 469.474 -60.9177 477.28 -71.711C473.886 -74.4263 467.709 -75.716 464.383 -76.327C450.806 -78.4992 439.198 -75.3087 426.504 -66.9592C424.536 -71.1 426.979 -70.4212 426.029 -74.3584C424.671 -73.1365 425.486 -73.9511 424.807 -73.6796C424.739 -73.6117 424.196 -73.4759 424.264 -73.5438C424.332 -73.6117 423.857 -73.5438 423.721 -73.5438C424.943 -71.3716 424.264 -72.3219 424.06 -69.6745C423.925 -68.1811 423.925 -67.5023 423.925 -66.1446C420.191 -66.7556 418.766 -67.2307 415.507 -70.4891C415.439 -72.0504 413.335 -70.0818 416.593 -72.6613L414.964 -72.3898C413.539 -71.9146 415.032 -72.7292 413.267 -71.2358L412.86 -70.557C412.113 -71.8467 412.52 -71.8467 411.638 -70.6927C412.453 -69.8782 412.045 -69.8781 412.86 -70.557C414.218 -68.9278 415.847 -66.8913 417.747 -65.8052C423.993 -62.1396 423.11 -68.8599 426.708 -54.9441C427.998 -50.1244 423.178 -50.4638 421.685 -45.4405C420.259 -40.3494 420.259 -39.9421 415.168 -39.7384C415.575 -41.9107 416.39 -46.5267 417.272 -48.9025C418.63 -52.5682 422.703 -55.0119 425.147 -57.9988C413.878 -62.479 420.802 -55.9623 409.737 -65.941C407.904 -64.9227 409.126 -65.0585 407.904 -65.0585C414.964 -56.5053 414.557 -60.0352 421.345 -56.7769C415.1 -49.5814 416.526 -53.1791 414.218 -44.8975C412.113 -37.6341 413.335 -38.9917 406.75 -37.2947C406.683 -39.2633 407.09 -39.399 407.837 -41.7749C408.38 -43.5398 408.651 -44.3544 409.194 -45.8478C410.28 -48.8347 410.62 -51.4821 411.502 -53.9937C409.33 -56.4375 407.361 -58.6776 404.85 -60.7819C397.383 -67.2986 398.944 -64.787 399.962 -67.2986C399.691 -67.1629 399.283 -67.2986 399.148 -67.1629C394.192 -64.1082 398.537 -67.9096 398.062 -65.1264C398.876 -64.4476 400.913 -63.2257 401.116 -63.022L402.542 -60.6462C402.745 -60.714 402.813 -60.2389 402.745 -60.0352L408.991 -53.7901C408.515 -50.3281 405.664 -40.1457 403.017 -36.4122C401.116 -36.6837 401.863 -36.7516 400.03 -36.2764C399.351 -37.6341 399.826 -37.702 398.876 -36.7516C399.691 -35.5297 399.283 -35.2582 400.03 -36.2764L402.61 -35.1903C401.456 -35.6655 401.795 -35.7334 400.641 -35.394C400.03 -36.548 400.37 -36.6158 399.623 -35.7334C398.876 -37.1589 399.283 -37.1589 398.537 -35.7334L397.654 -35.5297C395.143 -38.856 396.364 -36.6837 395.21 -36.6159C398.129 -34.24 396.568 -35.394 397.654 -35.5297C398.129 -34.1042 397.79 -34.4436 398.537 -35.7334C399.283 -34.8509 398.944 -34.783 399.623 -35.7334C400.302 -34.5115 399.894 -34.3757 400.641 -35.394L405.189 -35.0546C407.022 -35.2582 408.448 -35.4618 409.941 -35.4619C411.231 -33.3575 412.52 -30.167 414.625 -29.2846C415.304 -31.321 414.828 -32.0677 411.842 -36.0049C415.372 -37.9056 418.223 -37.7698 421.277 -38.9238C423.042 -36.7516 427.047 -30.3028 427.251 -28.1984C427.387 -26.162 422.703 -18.4913 420.938 -16.7263C418.223 -17.8125 415.168 -18.1519 412.385 -19.7132C413.064 -22.2927 414.625 -23.4467 414.964 -26.3656C413.674 -26.0262 414.761 -26.705 413.335 -25.551C411.502 -23.9897 411.774 -22.7679 409.669 -20.1205C407.701 -20.5956 405.257 -20.8672 403.153 -20.9351C399.623 -21.0708 398.265 -21.0708 395.957 -19.9847C385.164 -14.8935 382.177 -4.84696 388.286 5.87844C391.002 10.4944 396.704 11.309 401.116 13.9564C400.845 23.8672 402.474 23.3242 402.61 18.4366C402.678 15.7892 402.27 16.6038 403.56 13.9564C406.75 15.5177 409.33 14.9747 412.792 17.4863C412.113 30.2482 415.575 27.3292 401.727 36.0182C388.694 24.4782 399.351 29.8409 400.098 23.9351C397.179 24.4103 395.821 26.311 393.038 26.9219C391.07 26.311 388.897 24.003 386.522 22.5775C382.177 19.9979 382.72 20.2695 379.869 20.2695C376.475 20.2695 370.23 21.2198 366.293 24.7497C362.288 28.3475 361.609 34.4569 361.609 38.1225C361.541 41.5845 360.93 40.8378 363.102 44.6392C366.971 51.4953 369.279 49.8661 366.496 55.2288L364.935 59.0981C367.515 58.4193 368.125 55.7719 369.755 53.7354L376.814 60.3879C375.932 62.4922 372.063 69.8914 369.755 71.1133C368.329 71.9957 359.64 71.5884 357.875 71.1812C356.45 67.5834 355.635 65.2754 355.567 61.9492C357.672 62.1528 361.201 62.4243 362.491 60.8631C360.93 58.6229 358.35 60.2521 355.567 59.7769C351.019 58.8945 356.246 47.9654 337.918 44.164C335.067 43.621 333.438 43.3494 330.247 45.318C320.54 51.088 317.96 58.5551 321.219 68.4659C316.874 71.7242 315.109 70.9096 314.702 73.8964C317.282 73.8964 318.368 72.2673 321.355 71.3169C322.916 74.5074 323.73 78.173 323.459 80.8883C312.734 87.6765 313.48 87.8802 302.755 80.8204C302.619 78.1051 303.298 74.3037 304.859 71.3848C308.05 72.1315 308.457 73.8964 311.512 73.9643C310.969 70.706 309.475 71.9279 304.927 68.4659C306.285 64.3929 307.235 61.4061 305.81 58.8945C306.624 58.2156 306.556 58.5551 305.606 57.7405C306.692 56.9259 306.828 57.3332 306.013 56.5186C304.859 57.4011 304.656 57.0616 305.606 57.7405C304.52 58.5551 304.656 58.1478 305.81 58.8945C304.791 59.7769 305.334 59.6412 304.18 58.6229C303.502 64.8681 304.18 61.0667 299.496 65.2075L298.071 65.5469C299.293 66.7688 298.75 66.7688 299.496 65.2075L298.682 66.2936L303.366 65.5469C301.194 70.8417 306.149 70.6381 296.374 73.0818C288.635 74.9826 290.672 74.0322 284.223 80.481C283.137 78.0373 282.865 75.865 282.119 73.3534C279.471 72.6067 276.009 67.5155 272.683 66.3615C285.309 79.5307 278.046 70.9096 283.137 84.2824C285.852 81.4314 288.975 77.3584 292.369 76.1365C293.862 75.5935 299.564 74.2358 301.194 74.2359C300.583 77.6979 301.601 79.2591 297.392 80.481C291.69 82.1102 293.387 81.635 288.635 86.1152C287.21 85.9116 286.192 85.5722 284.223 85.097L280.014 84.4182C279.879 84.4182 279.607 84.4182 279.403 84.3503L280.897 85.8437L279.811 85.8437L278.725 85.3006C277.978 83.8751 278.453 83.6715 277.571 84.9612C277.027 83.8751 277.299 83.8751 276.688 84.8934C275.33 85.1649 275.195 85.5722 274.991 86.9977L276.688 84.8934C277.299 85.7758 277.027 85.7758 277.571 84.9612C278.317 86.1152 277.842 86.1831 278.725 85.3006L279.811 85.8437C282.458 87.1335 284.698 87.3371 287.889 88.6269C288.907 93.175 287.753 105.054 285.852 110.892C282.797 120.328 278.657 126.641 270.036 133.497C261.415 120.532 269.968 97.9946 269.764 96.1618L268.542 96.9764C270.307 96.026 270.375 96.637 269.085 95.3472L268.542 96.9764C263.247 102.407 261.958 126.912 269.357 136.348C277.978 129.628 283.612 122.907 287.21 113.472C289.246 108.041 290.604 95.4151 290.604 89.713L293.727 91.3422C297.664 93.7859 296.985 96.2297 296.713 100.846C296.374 105.258 296.102 108.924 294.88 113.947C292.708 123.179 286.056 132.682 277.638 139.471C266.709 148.227 264.062 147.345 258.563 130.171C256.255 122.84 255.645 117.07 256.866 110.417L257.817 103.629C256.595 104.715 257.138 104.987 256.255 103.968C257.681 103.222 257.681 103.629 256.595 102.543L256.255 103.968C254.558 107.566 254.151 113.132 254.287 116.526C254.423 118.834 254.762 120.396 255.169 123.111L256.052 129.831C253.608 130.103 251.843 129.56 249.264 129.424C242 128.949 235.008 130.782 228.22 132.954C228.22 129.424 228.763 123.45 227.609 120.532C227.473 120.532 227.27 120.464 227.066 120.532C226.862 120.735 226.591 120.599 226.523 120.667C222.654 121.414 220.142 123.79 216.409 125.894L215.187 122.229L214.915 120.871C213.897 121.889 213.829 121.414 215.187 122.229C215.187 122.364 215.187 122.5 215.119 122.704L214.983 123.926C213.625 121.618 214.372 123.722 213.829 121.414ZM337.375 165.809C336.492 165.198 336.424 163.908 336.9 166.42L337.375 165.809ZM239.76 132.275C241.729 131.664 241.525 131.596 243.426 131.596L247.295 148.906C247.431 151.079 247.431 150.128 247.091 151.689C241.389 151.146 241.389 150.332 240.71 144.358C240.235 140.082 239.828 136.28 239.76 132.275ZM270.714 158.342C274.991 160.311 273.633 161.804 273.43 166.081C273.294 168.796 272.819 173.48 273.158 175.72L269.085 163.094C268.135 159.835 268.135 160.786 270.714 158.342ZM270.103 156.645C265.487 160.311 262.025 163.908 259.446 156.984C256.866 150.332 255.509 153.183 250.146 151.622C247.77 146.123 247.023 137.366 246.345 131.8L256.799 132.072C258.563 135.873 261.143 144.833 265.487 146.327C271.257 148.431 276.349 142.39 281.643 138.724L291.554 143.611L277.91 159.7C275.263 158.274 272.276 156.916 270.103 156.645ZM286.802 165.605C289.789 165.877 294.202 168.117 296.713 170.629L287.413 179.521C286.599 177.077 286.531 168.049 286.802 165.605ZM293.251 144.765L296.781 147.345C294.88 151.011 292.233 154.201 289.721 157.527C285.716 162.619 285.648 163.773 280.014 160.039L293.251 144.765ZM298.478 148.771C307.846 156.916 305.877 158.07 307.439 169.678C307.642 171.375 307.778 171.783 307.982 173.208L307.914 176.942C304.248 173.548 301.804 171.24 297.867 168.796C294.677 166.827 289.925 165.062 287.481 163.162L298.478 148.771ZM315.72 177.01L313.209 172.597L310.426 177.01C309.068 173.887 308.728 165.945 308.118 162.075C307.574 158.953 306.964 157.392 308.118 154.473C308.932 152.572 310.833 147.413 313.073 147.481C315.381 147.481 317.01 152.097 317.757 153.93C319.386 157.731 318.571 158.003 318.028 161.532C317.621 165.062 316.942 174.294 315.72 177.01ZM320.812 95.0757L313.005 104.647L305.266 94.7363C316.806 100.438 310.833 97.7231 320.812 95.0757ZM297.053 87.4729L296.849 91.2064L290.672 87.2014C295.22 81.9744 294.948 83.1963 299.836 82.246C298.953 84.0788 299.632 86.9298 300.107 89.17L297.053 87.4729ZM325.699 93.175C326.921 99.1486 318.775 114.083 313.073 120.328C307.371 113.947 299.496 99.4202 300.447 93.175C306.42 98.1983 308.728 102.407 313.073 108.109C317.485 102.475 319.658 98.2662 325.699 93.175ZM327.192 98.1983C326.514 112.454 332.895 126.03 342.941 136.891C340.09 139.471 335.135 141.304 331.333 143.883C326.242 147.209 324.206 150.06 319.793 154.065C317.825 150.603 316.06 146.802 313.073 143.136C310.086 146.802 308.457 150.603 306.217 154.065C289.654 137.502 292.029 143.815 283.273 136.959C289.314 130.374 293.048 125.283 295.763 117.545C297.392 112.657 299.564 101.389 298.953 98.334C303.026 107.159 304.248 114.49 313.073 122.772C320.268 116.255 324.613 105.665 327.192 98.1983ZM301.94 83.1284C312.598 86.5904 311.036 92.7677 323.866 82.789C324.817 85.5043 325.088 89.3057 322.237 91.6137C315.72 96.9085 310.426 97.0443 303.909 91.6137C301.194 89.3057 301.872 85.3685 301.94 83.1284ZM329.5 91.1385L329.229 87.7444L326.378 88.559C326.106 88.559 325.767 88.6269 325.563 88.6948C326.514 84.3503 325.224 85.097 326.785 81.4992C331.333 83.6036 330.994 81.9065 335.542 87.1335L329.5 91.1385ZM338.257 88.6269L349.39 85.097C360.115 98.4019 363.849 122.364 356.11 133.769C347.761 126.505 343.348 121.007 340.362 111.503C339.072 107.498 338.393 103.968 338.257 100.303C338.121 98.1304 337.986 96.9085 337.85 94.7363C337.782 92.2247 338.257 90.6634 338.257 88.6269ZM335.813 89.8488C334.863 93.7859 336.696 106.751 338.936 112.929C342.398 122.772 347.829 129.017 356.721 136.144C361.88 129.764 362.152 116.051 361.541 110.96C360.047 99.0129 357.332 96.7049 352.241 85.2328C359.097 83.6715 361.269 86.7941 364.799 94.2611C369.958 105.122 370.976 116.051 368.329 127.659C367.718 130.85 363.917 141.982 361.405 143.951C356.993 147.549 349.865 141.1 345.589 137.095C340.294 132.207 336.289 126.709 333.573 120.599C331.062 114.965 329.772 108.924 329.568 103.833C329.297 98.5377 326.989 92.2925 335.813 89.8488ZM353.938 66.1579L355.567 72.1315C346.064 80.9562 352.037 80.4131 348.44 83.3321L337.511 86.251C333.37 82.3817 334.252 81.9066 329.229 80.6847C324.681 79.5307 325.495 77.9015 324.952 74.2358C334.863 73.9643 338.8 80.0737 343.077 84.0788C344.367 81.1598 344.367 77.63 345.521 74.9826C346.81 71.9279 351.019 68.398 353.938 66.1579ZM357.129 80.0737L358.622 83.1963C355.839 83.1284 354.006 82.9248 351.223 82.9927C352.309 77.019 352.241 77.63 356.518 73.7607L360.319 79.8701C358.622 80.3453 359.097 79.8701 357.129 80.0737ZM327.803 49.5267C331.537 46.3363 335.949 44.9107 338.868 47.0151L334.456 52.7851L327.803 49.5267ZM347.693 50.8165C351.562 55.5004 351.426 54.6858 347.421 59.2339C344.706 62.3565 342.059 65.4112 338.868 67.9228C336.017 67.9228 324.952 64.4608 322.101 62.4243L322.509 57.8084L337.171 62.6959L347.693 50.8165ZM341.719 47.0151L345.656 48.9158C344.57 52.7172 339.547 57.6047 336.424 60.7273C325.631 54.9573 319.861 58.1478 326.174 51.0201L334.863 54.6858L341.719 47.0151ZM351.494 57.7405L353.599 63.2389C350.883 66.3615 348.1 68.7374 345.521 71.5884C342.737 74.6431 343.756 76.7475 341.855 80.5489C335.406 74.1001 337.443 75.0504 329.772 73.0818C320.065 70.706 324.884 70.9096 322.712 65.479C327.125 66.633 333.098 69.2126 337.375 69.9593C339.751 70.4344 338.936 71.249 344.91 64.8681C347.082 62.4243 349.051 59.7769 351.494 57.7405ZM381.362 74.168C380.412 78.5124 380.344 83.6036 379.326 87.0656L367.514 82.3138C368.736 82.1781 374.167 81.7708 375.321 81.2956C378.172 80.3453 379.326 76.476 381.362 74.168ZM378.172 62.4243C380.752 65.9542 382.381 68.2622 380.684 71.4527C379.53 73.8286 376.746 78.6482 374.371 79.8022C373.488 80.2774 366.632 80.3453 365.682 80.3453C362.084 80.1416 359.912 77.1548 359.029 73.557C373.895 75.6614 373.488 69.1447 378.172 62.4243ZM384.824 70.5702C387.268 75.1862 387.472 80.6847 388.151 85.1649C388.965 90.324 388.558 94.9399 387.268 100.167C380.819 100.506 367.718 89.8488 362.423 83.7394C367.039 82.9248 377.086 87.8123 380.752 89.8488C381.566 87.405 381.023 87.6765 381.227 85.1649C381.566 81.8387 383.127 73.7607 384.824 70.5702ZM383.06 67.1761L379.394 60.6594C384.146 58.3514 385.368 58.8945 389.848 60.5236L386.997 66.4973L384.757 63.9856L383.06 67.1761ZM378.376 59.0981L373.828 54.6858C375.66 53.8033 383.603 51.4274 384.96 51.4274C386.929 51.4953 393.989 53.6675 395.618 54.6179L391.477 59.166C386.25 56.7901 383.535 56.9259 378.376 59.0981ZM392.902 60.8631C395.143 57.2653 398.401 54.4142 401.659 51.8347C415.1 58.4872 426.368 68.8053 430.306 83.6036L431.052 90.324C415.575 89.9167 401.048 77.2906 392.902 60.8631ZM364.799 32.081C365.003 27.6686 368.397 24.8176 372.741 23.5957C372.538 24.7497 373.081 25.0212 371.587 30.8591C369.212 31.47 367.107 31.8094 364.799 32.081ZM379.869 22.5775C380.344 24.4103 379.869 26.9219 379.326 29.5015C378.987 31.1985 378.376 34.932 377.493 36.7649C374.71 37.5116 365.41 39.3444 363.17 38.4619C363.306 37.1043 363.442 36.0182 363.645 34.5926C367.515 32.7598 369.687 34.389 373.963 31.8773L375.049 23.0526C377.425 22.5775 377.968 22.7132 379.869 22.5775ZM382.788 22.7811L387.336 25.2928C386.861 27.2613 384.553 40.4305 383.399 41.856C381.973 43.6888 369.279 45.5217 366.768 46.5399C364.799 44.164 364.392 43.621 364.324 41.2451C365.817 41.5166 376.136 39.3444 378.987 38.2583L381.77 26.9219C382.109 24.2745 381.77 25.4285 382.788 22.7811ZM395.821 33.0992C401.184 37.9189 399.691 36.697 398.469 42.1276C396.84 49.0515 403.696 47.083 395.889 54.4821C391.681 48.3727 392.02 38.8013 395.821 33.0992ZM389.644 27.3292L393.717 30.9949C388.83 52.0384 390.73 39.548 392.427 51.2917C383.738 49.6625 384.757 48.78 372.334 52.9208L367.854 48.3048C383.67 42.3991 384.621 50.8165 388.286 30.9949C389.033 26.5825 388.626 29.5693 389.644 27.3292ZM404.85 43.621L408.108 45.5217L401.659 49.1194C399.623 44.9107 399.759 42.3312 401.659 38.6656L408.176 41.9239L404.85 43.621ZM427.726 38.394C424.128 38.8692 419.309 40.0232 415.236 40.2947C417.544 38.5298 421.413 36.9685 422.567 34.0496C423.314 32.081 422.635 28.9584 423.246 26.311L427.726 38.394ZM413.946 29.5015C415.1 26.7183 413.403 21.0841 415.1 17.7578C415.168 17.69 419.512 20.6768 420.055 21.2198C423.314 24.8855 420.395 34.1853 420.327 34.2532C419.512 35.6109 413.403 39.4123 411.706 40.0232C409.194 40.9057 405.936 39.4123 403.56 37.0364C406.411 35.1357 412.656 32.5562 413.946 29.5015ZM388.083 -2.33532C384.757 -3.89661 388.354 -10.4812 390.662 -13.3322L393.242 -6.13672L388.083 -2.33532ZM430.306 40.0232C429.966 35.2036 423.246 26.5825 424.739 21.4235C433.021 28.7548 438.655 37.3758 441.574 46.1326C435.736 48.5764 418.63 47.4903 411.57 43.8246C416.322 41.2451 426.301 40.2269 430.306 40.0232ZM414.693 15.4498C418.29 11.7163 419.241 10.766 423.789 10.2908L424.196 14.3637C424.196 15.5856 424.128 16.4681 424.264 17.5542L421.345 15.5856L421.074 17.8936C421.006 19.1834 421.277 18.233 421.006 19.4549L414.693 15.4498ZM396.432 -18.1519L401.456 -4.03236L390.323 4.92808L387.879 0.719383L395.754 -5.93308L392.359 -15.1651L396.432 -18.1519ZM398.333 -18.1519C407.701 -22.3606 404.986 -10.9564 409.398 -2.47108L399.012 7.50761C395.414 10.5623 395.346 9.81561 391.816 6.69302L403.628 -3.8966L398.333 -18.1519ZM412.792 4.31715C409.737 6.96456 407.837 9.95137 404.103 12.463L398.672 10.4266L411.095 -1.45284C410.688 -4.43967 410.077 -6.67977 409.058 -10.006C408.176 -12.7892 406.75 -15.5724 406.615 -18.1519C412.724 -18.4234 412.588 -16.7942 414.218 -10.9564C416.593 -2.47108 415.304 -6.34037 421.413 1.12669C418.494 2.14491 415.236 2.28069 412.792 4.31715ZM412.928 14.4995C411.027 14.0922 409.194 14.0243 407.09 12.8703C417.747 1.39821 414.353 6.55726 425.011 1.87338C414.828 -8.03742 418.29 -5.25425 414.828 -16.0475C418.223 -16.4548 420.531 -15.776 421.549 -12.0425C423.042 -6.2046 423.517 -8.03742 427.251 -3.21778L425.214 5.19962C424.264 9.40831 421.685 8.3222 418.766 9.61196C416.322 10.6981 414.964 12.5988 412.928 14.4995ZM428.269 -5.45789C426.64 -6.81554 424.943 -8.1053 423.925 -9.93813C423.857 -10.1418 423.246 -12.3819 423.246 -12.5176C423.246 -12.6534 423.246 -12.9249 423.246 -13.0607C423.178 -13.1286 423.246 -13.468 423.178 -13.5359L423.314 -14.622C426.165 -14.7578 426.979 -14.622 429.898 -15.2329L428.676 -11.7031C430.849 -11.5673 430.306 -11.9746 432.071 -11.5673L428.269 -5.45789ZM439.062 -41.9107C444.629 -42.861 449.109 -41.7749 458.273 -45.1011C466.826 -48.0879 470.424 -51.4142 478.027 -57.6593C480.131 -55.0119 482.303 -49.8529 484.611 -46.4588C487.938 -41.3676 490.721 -38.9917 495.133 -34.8509C491.535 -32.475 487.802 -31.4568 484.136 -27.5196L495.133 -21.0029C490.585 -16.8621 487.53 -13.8074 484.34 -8.98777C482.846 -6.67976 479.52 1.39823 477.959 1.33034C475.379 0.787286 471.239 -3.8966 468.32 -5.72941C462.55 -9.32718 455.694 -11.9746 449.177 -12.7892L441.574 -13.468C441.438 -13.468 440.692 -13.5359 440.556 -13.5359C439.877 -13.5359 439.538 -13.3322 439.402 -13.6038L439.741 -14.3505C447.14 -15.6402 457.119 -21.4102 463.772 -27.7912C457.119 -35.5297 447.276 -39.2632 439.062 -41.9107ZM429.83 -2.94625C434.854 -4.16813 446.19 -2.7426 452.707 -0.570367C462.142 2.6201 467.844 6.8288 474.701 15.1783C461.192 23.2563 439.062 18.5045 426.233 8.66161C427.319 4.99597 427.658 1.12669 429.83 -2.94625ZM430.441 -5.4579C435.057 -14.4183 438.723 -12.1104 445.104 -11.4315C450.874 -10.8206 455.151 -10.2096 461.328 -7.56224C468.184 -4.50754 491.739 12.8024 484.679 20.541C479.317 26.4468 461.124 29.4336 451.689 28.5511C445.443 28.0081 422.295 22.7811 426.165 11.5806L429.966 13.074C444.154 20.8804 462.142 25.0212 477.212 15.925C467.844 4.38504 456.644 -3.96448 442.117 -4.77907C438.248 -4.98271 433.564 -4.50755 430.441 -5.4579ZM435.6 -24.1934C434.175 -21.4102 433.157 -19.0343 430.713 -16.7264C427.455 -17.4052 426.911 -16.4548 423.857 -17.0658C425.079 -18.8307 425.961 -20.5278 427.047 -22.5642C427.998 -24.4649 429.355 -26.5014 429.287 -28.1984C429.016 -31.5926 425.147 -35.5976 424.264 -38.9238C429.83 -41.0961 432.749 -37.4983 435.872 -31.2531C437.637 -27.5875 437.501 -27.859 435.6 -24.1934ZM445.647 -27.9948L435.94 -20.0526C436.687 -22.2927 439.538 -26.0941 439.062 -28.7415C438.723 -30.167 436.008 -35.5976 435.397 -36.0728L445.647 -27.9948ZM428.201 -50.3281L432.206 -44.2865L428.88 -44.7617L429.559 -40.4173C426.368 -41.5712 425.69 -40.7567 422.771 -41.5034C424.06 -44.4223 423.11 -45.6442 426.029 -48.2916L428.201 -50.3281ZM434.311 -40.4173C439.198 -41.9107 455.015 -33.5611 461.26 -27.9948C457.594 -24.0576 452.164 -21.0708 447.683 -19.0343C444.289 -17.5409 437.026 -14.622 434.107 -15.3687C439.402 -20.935 444.289 -23.6503 448.973 -28.0627C443.611 -31.5247 438.655 -35.394 434.311 -40.4173ZM488.684 -11.2958C492.893 -9.66659 499.817 -4.236 503.618 -0.163067L500.903 5.13175L485.901 -7.96952C487.123 -10.1418 486.852 -10.2775 488.684 -11.2958ZM489.703 -13.4001C495.744 -19.8489 496.898 -20.8672 503.822 -21.4102C507.42 -21.7496 514.547 -23.5824 517.942 -22.6321C514.208 -18.8986 512.036 -16.4548 509.321 -11.9746C508.37 -10.2096 507.42 -8.58047 506.673 -6.88341C504.569 -2.3353 504.026 -2.87835 504.094 -2.94624C504.162 -3.01412 503.822 -2.81047 503.551 -2.67471L489.703 -13.4001ZM508.438 -7.01917C509.388 -8.78411 509.796 -10.1418 512.172 -11.703L520.453 -2.3353C518.281 -1.24918 509.253 -0.774006 506.605 -1.65648L508.438 -7.01917ZM426.776 -64.787C434.039 -69.8782 443.746 -73.7474 450.67 -74.4263C456.101 -74.9693 467.777 -75.2408 474.497 -70.9643C460.785 -54.6725 443.135 -51.6857 430.102 -52.6361C427.862 -56.2338 426.708 -61.4608 426.776 -64.787ZM517.942 -25.2116C516.72 -24.6686 499.41 -21.4781 495.201 -23.1073C486.241 -26.5014 486.308 -29.4203 495.201 -32.7465C498.459 -33.9684 514.276 -31.8641 517.738 -30.5743L513.733 -27.7911L517.942 -25.2116ZM504.026 -53.5185C508.574 -47.477 507.488 -43.1325 518.213 -33.086C515.566 -32.3393 517.331 -32.6108 514.412 -33.086C512.986 -33.2896 512.715 -33.4254 510.882 -33.629C498.663 -34.7151 497.17 -34.1721 489.77 -42.5216L504.026 -53.5185ZM486.241 -47.2734C486.308 -47.477 486.444 -47.7485 486.58 -47.8843C488.752 -51.0069 497.916 -58.2703 500.971 -61.0535C502.193 -59.017 502.804 -57.1842 503.551 -55.2156L488.549 -44.015L486.241 -47.2734ZM506.13 -53.9937C510.475 -55.6229 515.701 -53.6543 520.046 -53.9258C518.281 -50.2602 514.819 -47.0697 511.764 -44.1508C508.71 -47.3412 507.895 -50.7353 506.13 -53.9937ZM472.8 -94.6552C475.176 -94.8588 490.585 -91.8041 492.689 -90.9216C493.097 -87.6633 493.572 -87.1881 493.3 -83.9298C496.762 -81.2824 498.324 -82.0291 501.718 -79.3138C501.31 -76.327 502.736 -77.8882 500.7 -74.7657C498.12 -70.8285 495.744 -71.8467 500.7 -63.0899L484.679 -49.3777L479.588 -59.4922C489.838 -71.6431 493.776 -76.8021 473.411 -83.8619C472.732 -87.6633 471.85 -91.1253 472.8 -94.6552ZM502.057 -65.3979C507.148 -65.4658 524.526 -67.3665 529.346 -65.8052C528.599 -63.5651 526.359 -60.7819 524.526 -58.5418C521.879 -55.2156 521.607 -55.4871 518.485 -55.7586C515.498 -56.0302 507.216 -56.1659 505.112 -56.7769C504.161 -59.4922 502.057 -62.6826 502.057 -65.3979ZM499.749 -69.6066C500.971 -74.3584 504.365 -71.5073 507.827 -70.6248C510.814 -69.8103 513.733 -69.0636 516.312 -67.9774C514.412 -67.5701 509.864 -67.9096 507.352 -67.8417C504.365 -67.7059 501.175 -66.4161 499.749 -69.6066ZM473.343 -101.172C476.194 -101.851 482.168 -100.9 485.63 -100.289C490.924 -99.339 493.64 -99.8821 491.943 -93.2975L472.732 -97.4383L473.343 -101.172ZM501.039 -82.4364C502.057 -86.0341 515.973 -98.7281 519.707 -103.005C521.607 -99.2033 521.675 -93.9763 521.743 -90.2428L512.715 -81.3502C514.344 -80.9429 523.236 -78.9744 524.119 -78.4992C526.631 -76.9379 528.599 -69.8103 530.16 -67.0271C528.124 -66.484 529.414 -66.6877 527.649 -66.8234L503.211 -74.1547C503.822 -76.3948 505.112 -77.5488 506.605 -79.7211L501.039 -82.4364ZM521.743 -87.3918L523.847 -80.8072C521.336 -80.8751 518.892 -81.4181 516.38 -82.5721L521.743 -87.3918ZM493.232 -112.644C496.83 -112.983 501.514 -110.607 505.18 -109.114C502.6 -106.806 496.898 -103.005 493.708 -102.122C492.757 -104.43 492.486 -110.54 493.232 -112.644ZM493.572 -98.9996C495.201 -100.357 505.316 -106.942 506.809 -107.621C509.253 -108.571 507.691 -108.367 510.339 -107.485L519.435 -103.276C515.091 -99.7463 500.36 -92.2114 495.201 -89.9034L493.572 -98.9996Z" fill="#CACACA" fill-opacity="0.32"/>
<path fill-rule="evenodd" clip-rule="evenodd" d="M273.634 34.0495C268.475 30.2481 272.209 30.0444 278.794 18.9796C284.631 9.06881 282.459 13.9563 292.981 6.55717C293.32 22.238 291.012 23.7314 283.07 38.5976L278.454 37.2399C280.966 33.2349 282.934 27.0576 286.464 21.4913C286.6 21.3555 288.093 19.0475 288.093 19.0475C289.451 15.6534 289.587 18.3687 287.686 14.8388C282.188 18.8439 279.608 29.5693 273.634 34.0495ZM247.907 6.14986L247.093 1.66963C251.437 0.311989 258.089 -3.62518 262.57 -6.06894C267.593 -8.78423 273.431 -7.29082 278.658 -8.44482C278.047 -6.06894 275.535 -3.01424 274.042 -0.434709C270.105 6.21775 267.389 4.72434 258.768 11.3089C254.424 14.5673 254.695 15.7891 251.03 11.7162C254.152 6.55716 269.562 1.60176 269.494 -3.21788C263.045 -3.15 254.967 5.33528 247.907 6.14986ZM313.142 11.6483C318.776 22.4416 319.319 19.7263 319.523 28.4831C319.591 31.2663 319.591 33.3028 319.862 36.5611C320.066 39.0728 320.813 42.1275 319.998 44.5712C318.64 45.1143 317.351 45.4537 316.129 45.7252C315.178 40.1589 314.567 33.8458 314.839 28.008C314.975 25.1569 315.654 24.8854 313.142 21.9664C310.223 25.1569 311.513 26.1751 311.105 34.0495C310.834 38.5297 310.97 41.1092 310.019 45.7252C308.865 45.3858 307.508 45.1143 306.082 44.5033C305.607 41.9917 306.286 40.091 306.557 37.1042C307.576 24.1387 303.503 26.854 313.142 11.6483ZM240.847 -20.5957L239.082 -24.6687C242.409 -26.3657 247.228 -25.7548 250.826 -26.23C254.424 -26.7051 259.99 -25.3475 263.181 -27.9949C260.465 -30.1671 254.763 -29.081 251.369 -29.4883C248.79 -29.7598 248.314 -29.9635 245.328 -29.9635C242.205 -29.9635 242.001 -29.7598 239.354 -30.9138L240.644 -35.1904L256.868 -34.0364C264.606 -33.7649 264.946 -32.8824 273.499 -27.9949C258.429 -19.306 264.946 -22.9716 249.265 -21.003L240.847 -20.5957ZM303.231 42.8742C296.307 37.3078 300.787 30.5196 300.041 20.9482C293.728 29.5692 294.067 37.9188 285.989 38.1224C287.279 35.6108 288.365 32.4882 289.79 29.5692C298.004 12.6666 293.592 27.6685 295.357 11.241C295.696 8.05057 296.511 5.19952 295.493 2.00905C292.234 4.18129 281.712 10.3586 279.948 12.6666C276.214 17.4862 273.974 22.8489 269.426 28.3474C266.846 24.8175 268.34 22.3737 270.648 18.9796C273.024 15.6534 275.264 11.7841 277.436 8.66151C275.332 8.59363 276.825 8.05057 273.974 9.27244L266.371 14.2957C261.212 17.9614 262.23 18.3008 256.528 15.857C262.027 11.4447 266.235 9.54397 271.802 5.74257C275.196 3.43457 280.083 -6.06894 282.866 -10.074C279.88 -11.2959 267.797 -11.0243 264.946 -9.80246C259.311 -7.29082 252.727 -2.06388 247.025 -1.11354C246.549 -8.78423 257.479 -9.39517 263.927 -14.6221C261.484 -15.7082 261.144 -15.5046 258.429 -15.3688C252.387 -14.7579 246.685 -12.0426 242.273 -18.0841L250.351 -19.3739C260.465 -20.3921 257.479 -16.5907 268.611 -22.9716C271.937 -24.8044 275.128 -25.9584 278.318 -28.0628C264.199 -35.3941 266.575 -36.4123 251.369 -36.4123C249.944 -36.3444 244.106 -37.0233 241.933 -37.7021L246.21 -42.3859C249.672 -41.0962 250.69 -41.1641 254.356 -40.8925C257.343 -40.7568 260.601 -39.9422 263.181 -41.4356C260.194 -44.0151 256.325 -45.7122 252.863 -47.2735C246.074 -50.2603 248.654 -48.9026 246.278 -54.5369C249.197 -55.012 253.202 -52.5004 255.849 -51.2106C273.295 -42.3181 261.28 -46.7304 282.866 -45.3728C281.237 -48.4953 274.313 -59.628 272.141 -61.1214C267.118 -64.7871 261.416 -66.8236 256.528 -71.7111C264.267 -75.3767 263.792 -71.1001 276.689 -63.9046L276.486 -65.0586C273.635 -73.7475 265.353 -75.5125 269.154 -84.4729C273.77 -80.6715 276.893 -73.476 279.948 -68.6564C281.237 -66.8235 292.913 -59.3565 295.425 -58.474C295.493 -58.6777 295.628 -59.085 295.493 -58.9492L294.678 -76.3271C292.709 -81.554 286.736 -88.478 286.193 -94.0443C293.252 -94.0443 292.438 -90.1072 299.022 -78.2278C299.905 -76.6665 300.652 -58.9492 300.448 -58.474C296.647 -54.2653 293.728 -53.2471 289.383 -56.3697C287.415 -57.7952 285.921 -58.8813 283.817 -60.1711C281.848 -61.4609 279.676 -62.9543 277.3 -63.1579C283.613 -51.007 291.759 -49.5136 281.984 -39.8743C277.368 -40.8246 269.019 -42.6575 264.267 -40.8925C269.222 -36.8875 277.096 -34.9868 280.966 -31.5248C280.151 -26.773 283.07 -24.5329 277.164 -21.8855C272.82 -19.9848 268.34 -18.0841 264.403 -15.0973L282.256 -15.4367C286.125 -11.5674 288.093 -9.05575 284.767 -4.50765C282.256 -1.04565 277.843 3.50246 278.115 8.25422C281.373 5.67469 285.853 3.09517 289.519 0.515641C293.728 -2.47118 295.425 -2.40329 300.448 2.89152C300.176 8.86516 299.294 15.4497 300.041 20.9482C305.064 14.5673 306.422 3.97765 313.074 3.97764C317.894 4.04553 318.301 6.35352 320.337 10.8338C321.763 14.0242 323.935 18.0971 326.107 20.9482C326.922 15.3819 326.04 8.52576 325.632 2.82365C328.959 -0.502583 329.637 -0.774108 333.303 -1.58869L348.033 8.11847C348.101 7.77905 348.237 7.236 348.033 7.30389L347.355 4.58859C347.219 4.1813 346.133 2.55212 345.793 2.07694C344.707 0.312007 343.689 -1.24928 342.467 -3.01422C336.901 -10.4813 341.788 -15.3688 345.929 -15.3009C350.545 -15.1651 357.265 -13.0608 361.746 -15.0973C358.216 -17.541 355.229 -19.0344 351.563 -20.7994C347.151 -22.9037 345.115 -22.4964 345.318 -27.7234C345.522 -32.9503 346.472 -32.6788 351.563 -35.0546C355.161 -36.7517 358.895 -38.313 361.949 -40.8246C357.198 -42.9969 349.255 -40.8925 344.164 -40.01C336.493 -47.4092 339.616 -49.1742 349.12 -63.1579C344.436 -62.9543 336.426 -56.7091 333.235 -53.7901C322.985 -59.9674 326.583 -56.0981 326.243 -67.706C326.175 -70.2177 326.107 -74.63 326.311 -77.1416C320.948 -69.7425 319.862 -56.5733 310.087 -60.3747C307.508 -61.3251 302.892 -72.1862 301.059 -75.2409C299.294 -78.2278 300.244 -79.8569 299.973 -83.3868C299.294 -92.7546 297.325 -94.1801 303.367 -98.864C304.114 -95.8093 304.046 -93.4334 304.317 -90.4466C305.675 -78.092 302.892 -81.6898 308.187 -72.1862C310.019 -68.9958 311.106 -65.7374 313.074 -62.6827C314.975 -65.5338 315.993 -68.5885 317.69 -71.6432C322.849 -80.7394 321.016 -79.8569 321.763 -89.9714C321.967 -92.8903 321.763 -96.0808 322.781 -98.7282C329.094 -93.7728 326.107 -95.2662 326.175 -88.9532C326.243 -84.5408 325.632 -80.5358 326.311 -77.1416C334.253 -87.5276 330.588 -92.5509 339.888 -93.9764C339.209 -88.4101 333.303 -81.554 331.47 -76.3271C330.248 -72.9329 330.859 -67.0272 330.791 -63.1579C330.656 -60.1711 330.316 -59.9674 330.927 -57.8631C335.407 -61.6645 343.621 -64.855 346.54 -68.9958C349.595 -73.2724 352.717 -81.0109 356.994 -84.0656C359.166 -76.4628 356.315 -76.3271 351.971 -69.8104C349.798 -66.552 349.731 -66.3484 350.002 -63.6331C353.125 -66.0768 356.587 -67.7739 359.709 -70.0819C364.393 -73.4081 364.325 -74.5621 369.552 -71.5074C364.732 -67.6381 357.13 -64.1082 353.464 -60.9857C351.699 -59.4923 344.436 -47.8844 343.214 -45.4406C365.683 -45.5085 357.537 -44.9655 374.847 -53.1792C377.562 -54.5368 377.223 -54.7405 379.734 -54.5368C377.426 -49.242 379.734 -50.3281 373.218 -47.3413C369.756 -45.78 365.683 -44.0151 362.9 -41.3677C364.597 -40.2137 365.14 -40.2137 367.244 -40.2816C368.67 -40.3495 369.824 -40.5531 371.249 -40.7567C374.372 -41.2998 376.951 -41.164 379.87 -42.1823L384.147 -37.7699C378.173 -36.2765 372.2 -36.4123 366.158 -36.4802C362.153 -36.5481 361.27 -35.1225 357.062 -32.6788C353.939 -30.9138 350.681 -29.9635 348.033 -27.9949C351.224 -25.4832 362.832 -19.306 366.226 -19.306C371.656 -19.4417 377.97 -19.2381 383.943 -18.152C379.667 -12.382 379.056 -14.2148 373.761 -14.6221C369.824 -14.8936 366.022 -16.2513 362.221 -14.6221C365.411 -12.1104 369.145 -10.4134 372.743 -8.85209C379.599 -5.66163 378.037 -7.35869 379.124 -1.11352C368.127 -2.60693 368.398 -10.617 353.057 -10.3455C348.033 -10.2097 346.133 -11.2959 342.942 -10.0061C346.608 -5.93316 350.274 2.62 353.871 5.26742C358.895 8.93306 364.325 11.2411 369.688 15.7892C362.696 19.5227 361.067 15.1782 354.618 11.0374C351.835 9.20459 351.495 8.72941 348.848 8.66152C351.088 11.852 353.057 15.4498 355.568 18.9117C358.555 23.1204 359.573 24.1387 356.654 28.551C340.363 8.32211 356.994 19.5227 334.389 4.65647L330.656 2.82365C330.588 2.75577 330.316 2.75577 330.113 2.68788L330.927 11.241C332.421 24.8175 329.434 16.2643 336.222 29.0262C337.715 32.013 338.869 35.3392 340.363 38.0545C332.285 38.937 332.421 29.8408 326.107 20.9482C326.04 25.4963 325.836 34.932 327.058 39.0049L322.985 43.0778C321.288 37.1721 321.288 30.9269 321.288 24.9533C321.288 20.8803 315.654 10.9016 313.074 6.8287C310.087 11.7162 304.725 20.3373 304.86 24.9533C304.996 27.6685 304.521 40.2268 303.231 42.8742ZM362.968 -41.9786L362.832 -41.5713C362.832 -41.5713 363.103 -41.9786 362.968 -41.9786ZM263.452 -40.621C263.588 -40.621 263.52 -41.0962 263.452 -41.0283C263.384 -40.9604 263.452 -41.1641 263.452 -41.1641C263.452 -41.1641 262.095 -41.0283 263.452 -40.621ZM333.099 6.48929C340.634 11.0374 342.535 10.6301 347.083 18.4366C353.803 29.9087 358.352 29.9766 352.514 34.321C346.812 29.705 343.553 18.8439 338.53 15.0425C336.29 19.4548 337.58 16.1286 342.671 26.5146C344.164 29.7729 345.997 34.1852 347.762 37.0363L343.01 38.6655C340.023 33.5064 338.123 28.0758 334.796 22.3059C333.099 19.3869 333.031 9.81552 333.099 6.48929ZM246.889 -57.5916L247.703 -62.3433C257.479 -59.085 266.032 -52.0252 269.494 -53.0435C268.747 -56.6412 254.492 -63.5652 250.622 -67.163C254.084 -71.8468 254.288 -70.8286 258.429 -67.6381C261.076 -65.6696 263.792 -63.9046 266.439 -62.2076C278.318 -54.6726 271.598 -56.9127 279.065 -47.9523C275.399 -47.0019 266.167 -47.8165 263.045 -49.4457C258.361 -51.9573 250.351 -55.3515 246.889 -57.5916ZM356.587 -3.14998C356.858 1.33024 371.928 6.76082 375.322 11.6483C370.163 17.2147 373.014 14.0921 359.098 6.01413C355.84 4.11342 354.143 3.50248 352.242 0.108366C350.749 -2.47116 348.169 -6.00104 347.49 -8.4448C351.563 -7.76598 359.37 -8.51268 363.103 -6.40833C367.991 -3.55728 374.1 -0.163167 378.92 1.53389L378.58 6.21777C371.249 5.53895 363.035 -3.35363 356.587 -3.14998ZM278.929 -93.1619L282.731 -94.5195C284.496 -92.7546 289.451 -81.8255 291.42 -78.2278C294.067 -73.1366 292.166 -67.2987 293.388 -62.1397C288.433 -64.7871 282.934 -67.4345 280.151 -72.2541C277.3 -77.2774 273.091 -82.0292 270.444 -86.8488L273.567 -90.5145C279.269 -84.405 285.039 -73.2045 285.582 -72.7972C288.161 -70.2177 287.618 -71.7111 288.704 -71.8468C288.365 -76.938 279.405 -86.4415 278.929 -93.1619ZM334.593 -3.96457C326.99 -3.69305 328.28 -1.45294 322.51 2.55212C319.591 4.65647 315.789 1.1266 311.038 2.07694C303.435 3.57035 306.625 4.58858 299.633 -1.18141C296.782 -3.48941 296.036 -2.7427 293.252 -3.8967C289.18 -5.52588 292.166 -4.98282 290.741 -6.00106C290.741 -6.00106 290.605 -6.13682 290.537 -6.06893L289.723 -6.34047C288.161 -6.67988 289.926 -10.2098 286.057 -14.7579C282.731 -18.6272 281.034 -18.2877 282.391 -23.0395C283.817 -27.9949 284.224 -26.6373 282.595 -31.7963C280.491 -38.9239 284.292 -32.543 282.188 -37.3627C288.908 -43.9472 287.143 -42.8611 289.723 -50.1924C292.913 -50.9391 289.994 -48.9705 291.012 -50.5318C291.623 -51.55 288.976 -50.6676 292.777 -51.8895C304.046 -55.6909 299.633 -56.9806 304.725 -58.8134L306.15 -59.0171C307.44 -58.9492 311.106 -57.7273 313.074 -57.7952C318.029 -57.7273 318.844 -60.5784 322.713 -58.2025C328.008 -54.8084 323.121 -55.2157 333.371 -51.7537C338.394 -50.1245 332.081 -49.9209 336.426 -50.1924C338.869 -42.7253 337.24 -44.083 343.893 -37.2948C342.06 -33.0182 345.59 -40.2137 343.01 -30.3029C341.585 -24.6687 344.843 -24.1256 344.096 -20.2563L343.961 -19.5775C342.535 -15.844 339.752 -16.0476 337.987 -11.0243C337.376 -9.5988 336.969 -7.01927 336.29 -6.34045C335.747 -5.7974 335.407 -6.5441 335 -5.32222C333.303 -0.909878 336.697 -7.56233 334.593 -3.96457ZM320.745 -57.5916C320.677 -57.5237 321.016 -57.5916 321.016 -57.5916C321.016 -57.5916 320.881 -58.8134 320.745 -57.5916ZM304.657 -57.6594C304.725 -57.5916 304.928 -57.6594 304.928 -57.6594C304.86 -57.5916 304.996 -57.5916 304.996 -57.5916C304.928 -57.6594 304.589 -58.9492 304.657 -57.6594ZM281.848 -18.5593L282.188 -19.4417L282.12 -19.2381C282.052 -19.1702 281.645 -18.4914 281.848 -18.5593ZM305.743 2.07694C305.743 1.94117 305.403 2.00906 305.268 2.14482L305.132 2.14482C305.132 2.14482 305.2 4.24917 305.743 2.07694ZM309.952 -101.511C313.346 -92.2794 309.137 -83.3189 313.142 -77.6847C315.586 -81.2146 314.907 -81.0788 314.771 -84.3372C314.635 -87.867 315.246 -98.6603 316.197 -101.511C317.758 -101.036 319.048 -100.968 320.881 -99.8143C318.097 -85.4912 321.831 -82.5722 317.351 -75.3767C315.789 -72.7293 314.568 -70.014 313.074 -67.4345C311.513 -70.2177 310.087 -73.0008 308.458 -75.8519C304.996 -81.6219 307.779 -86.3058 305.2 -100.154L309.952 -101.511ZM362.968 -27.9949C366.226 -25.2796 371.181 -26.5694 374.779 -26.2299C377.019 -26.0263 378.716 -26.23 380.888 -25.8227C382.586 -25.4832 385.437 -25.2117 387.066 -24.6687L385.301 -20.5957L369.281 -21.8176C360.999 -22.0891 361.542 -23.0395 352.649 -27.9949C360.863 -32.543 361.406 -33.6291 368.738 -33.9006C374.032 -34.0364 379.599 -35.1225 385.301 -35.1225L386.794 -31.0496C383.875 -29.7598 378.58 -30.0314 375.322 -29.6241C368.262 -28.8095 365.886 -30.5065 362.968 -27.9949ZM347.083 -93.0261C346.065 -86.3057 337.715 -76.7344 337.24 -71.7789C338.734 -71.5074 337.647 -69.7425 340.77 -72.5935L345.182 -80.2642C347.287 -83.5905 349.866 -87.3919 352.582 -90.3787L355.433 -86.8488C353.396 -82.7759 348.441 -76.8701 345.793 -72.322C343.621 -68.5206 337.037 -63.4294 332.217 -62.6827C332.828 -65.3301 332.828 -67.7739 332.828 -70.7607C332.76 -77.7526 337.647 -81.6898 342.603 -93.8407C344.436 -94.3159 344.911 -93.9764 347.083 -93.0261ZM347.151 -47.8844C353.6 -54.7405 348.169 -55.012 359.641 -62.1397C372.132 -69.8782 371.724 -72.5935 375.186 -67.2308C367.584 -60.7141 357.265 -56.777 356.587 -52.9756C359.166 -52.0252 359.03 -52.5683 362.221 -54.5369L378.241 -62.0039C378.716 -60.1711 378.852 -59.4923 379.124 -57.7273L363.035 -49.5136C360.32 -48.1559 350.409 -47.2056 347.151 -47.8844ZM332.353 -94.4516C329.569 -95.8771 334.389 -92.5509 331.742 -95.1983C330.452 -96.3523 332.556 -95.1983 331.199 -95.6056C329.298 -96.1487 333.031 -94.0443 329.366 -95.5377C317.622 -107.281 308.594 -107.213 296.85 -95.4699C294.882 -94.7232 296.986 -95.4699 295.628 -95.4699C295.017 -95.5377 295.493 -95.7414 294.95 -95.6056C293.388 -95.1304 295.153 -94.5874 293.796 -94.4516C293.32 -94.3837 273.431 -102.597 266.575 -83.3868C264.742 -78.1599 266.846 -80.6715 263.927 -77.4811L263.724 -76.3271C256.528 -73.476 248.586 -72.322 245.871 -63.09C242.816 -52.5683 246.346 -52.4325 246.278 -47.0698C246.142 -40.4174 225.167 -30.4387 245.871 -11.0922C245.463 -8.51271 244.852 -10.6171 245.599 -9.32729C247.839 -5.32224 241.187 -2.47119 246.414 9.27245C250.69 18.8438 263.724 19.6584 263.113 20.5409C263.045 20.6088 263.113 20.8124 263.113 20.8124L263.452 21.5591C267.389 24.8175 264.403 29.2977 272.888 36.8326C279.269 42.5347 287.347 40.9735 293.863 38.6655C296.104 40.6341 293.388 40.2268 295.628 40.0231C297.665 39.8874 294.61 39.0049 297.054 39.9552C302.552 45.4537 308.662 49.1193 314.635 48.4405C323.324 47.4902 328.891 38.8012 332.217 38.8691C334.729 38.937 341.652 42.4669 350.138 38.8691C356.315 36.3575 360.388 27.2613 361.067 21.9664C361.135 21.8986 361.542 21.7628 361.474 21.9664C361.406 22.0343 361.814 21.8986 361.881 21.8307C363.239 21.4234 362.56 21.2876 362.968 20.7446C364.393 18.6402 370.435 20.3373 378.037 11.9199C382.857 6.69295 382.382 -3.14998 379.259 -9.12362C382.314 -10.2776 380.549 -8.78421 380.278 -11.0922C400.099 -30.0992 381.635 -41.2319 380.142 -45.7122C380.142 -45.7122 380.142 -45.8479 380.074 -45.9158C378.92 -50.5997 383.604 -51.8894 381.024 -61.1214C377.359 -74.1548 368.534 -73.7475 364.189 -75.6482C359.37 -77.7526 362.221 -84.405 352.989 -92.8224C347.558 -97.8457 338.666 -96.556 332.353 -94.4516Z" fill="#CACACA" fill-opacity="0.32"/>
<path fill-rule="evenodd" clip-rule="evenodd" d="M106.032 -2.26765L114.382 -11.839C116.894 -8.78434 119.134 -4.64353 119.473 -1.72459C116.894 -1.04578 108.68 -1.52094 106.032 -2.26765ZM108.205 -22.6323C110.988 -23.2433 112.685 -22.6323 115.264 -22.225C127.755 -20.3243 128.434 -21.9535 136.308 -13.4003C133.389 -11.0245 130.266 -8.98799 127.347 -6.61212C116.69 1.87317 126.261 -4.84717 108.205 -22.6323ZM108.273 -25.144L112.481 -27.7235L108.544 -30.5745C110.716 -31.5249 113.024 -31.5249 115.74 -31.7964C120.356 -32.3395 126.736 -34.2402 130.877 -32.6789C145.879 -27.1804 131.488 -21.7499 123.342 -22.836L108.273 -25.144ZM120.016 -53.9939C118.862 -51.6181 116.826 -46.3232 114.857 -44.7619C112.413 -45.305 110.377 -48.156 108.68 -50.1246C104.335 -55.1479 105.693 -53.7903 113.703 -54.3333C116.486 -54.537 117.437 -54.9443 120.016 -53.9939ZM122.188 -53.5866L136.308 -42.4539C127.076 -31.7285 123.75 -35.5978 108.001 -32.7468C111.124 -36.5482 113.567 -38.5847 116.215 -42.8612C118.183 -46.0517 120.22 -51.3465 122.188 -53.5866ZM124.972 -60.85L140.381 -47.7488L137.666 -44.0831L122.528 -55.2837C123.274 -57.1165 124.293 -59.0851 124.972 -60.85ZM182.06 -15.9798C181.925 -17.2017 180.228 -18.3557 182.739 -16.9302C183.758 -15.2331 183.147 -15.1653 184.436 -16.455L182.739 -16.9302C178.463 -20.528 170.588 -21.7499 165.09 -28.0629C171.131 -33.2898 186.337 -41.5715 191.7 -40.4175C186.609 -34.3759 182.807 -32.611 177.105 -28.1308C181.857 -23.379 186.744 -21.2068 191.971 -15.1653L187.763 -20.8674C187.695 -21.071 187.559 -21.2068 187.491 -21.4104L186.812 -22.6323L190.342 -19.2382L190.749 -20.7316C189.46 -20.9353 191.292 -20.1885 189.12 -21.2747C188.374 -21.6141 187.491 -22.225 186.812 -22.6323C185.658 -24.7367 182.943 -26.0943 180.635 -27.8592L190.478 -35.8015C189.663 -34.8511 189.052 -33.2898 188.374 -31.7964C187.152 -29.3526 186.133 -28.8775 187.491 -26.9768L188.238 -25.2797C189.595 -26.6374 189.46 -25.9586 187.491 -26.9768C188.849 -27.5198 187.016 -29.76 189.324 -26.0943C189.052 -32.611 195.976 -43.3364 202.493 -38.1773C202.765 -39.1277 200.592 -39.535 200.321 -39.535L201.678 -41.0284L202.765 -41.0284C203.579 -40.7569 203.376 -40.2817 203.579 -41.1642C205.073 -41.9788 205.073 -41.5715 203.579 -42.5218C202.697 -41.6393 202.697 -42.0466 203.579 -41.1642L202.765 -41.0284L201.678 -41.0284L196.248 -41.0284C196.995 -42.7255 197.266 -42.5897 197.198 -44.8298L194.008 -44.3546L198.013 -50.2604L202.222 -46.7305L202.765 -44.9656C204.122 -46.3232 204.122 -45.6444 202.222 -46.7305C202.086 -46.8663 201.203 -47.613 200.932 -48.2918L199.981 -51.1429C198.216 -53.9939 200.049 -55.4194 200.796 -59.5602C201.746 -65.1266 202.154 -63.4974 206.838 -65.1945C209.892 -66.2127 211.046 -68.0455 213.558 -70.5572L218.581 -69.1995C217.224 -70.6929 217.02 -70.082 218.31 -71.1002C219.124 -69.8784 218.717 -69.8784 219.599 -70.7608L218.31 -71.1002L213.762 -72.9331C212.064 -83.0475 214.237 -88.0708 224.487 -91.2613L231.615 -84.9482C229.239 -82.9796 226.388 -82.165 225.709 -79.9928C228.085 -79.5176 230.257 -81.5541 233.176 -83.1154C237.656 -79.857 241.457 -76.1914 246.277 -75.852C249.06 -75.6483 256.459 -77.2096 260.057 -80.6716C265.284 -85.7628 266.37 -95.1305 263.18 -100.629C261.822 -103.073 259.786 -105.245 258.089 -107.621L260.872 -113.119C261.483 -115.088 261.483 -113.323 261.008 -115.292C257.953 -114.138 258.7 -111.762 255.984 -109.861C248.857 -116.989 248.381 -115.427 252.387 -121.74C253.541 -123.437 254.695 -126.085 256.459 -126.899C257.749 -127.51 266.913 -127.171 268.339 -126.696C269.357 -123.641 269.968 -120.858 270.851 -118.211C267.185 -117.26 267.117 -118.957 262.84 -116.717C268.543 -112.916 269.357 -118.211 272.887 -113.187C271.597 -112.712 272.072 -113.051 273.226 -111.897C274.313 -112.984 274.313 -112.576 272.887 -113.187C274.923 -112.644 274.448 -111.897 276.553 -113.73L278.25 -117.192L275.331 -114.002C275.263 -114.07 274.991 -114.205 274.923 -114.273L274.313 -114.884C270.307 -120.247 277.231 -122.419 281.508 -128.189C283.205 -130.429 283.341 -133.552 284.088 -136.199C285.852 -134.434 287.21 -132.534 289.179 -131.38C290.672 -130.565 289.925 -130.904 291.147 -130.769L290.74 -131.991C291.487 -130.565 291.012 -130.633 292.098 -131.719C291.012 -132.805 291.351 -133.145 290.74 -131.991L283.273 -140.136C282.051 -137.557 282.051 -137.557 281.44 -134.91C279.607 -126.967 279.743 -129.14 272.208 -122.148L270.783 -127.646C272.887 -130.022 274.856 -131.312 275.874 -133.959C277.299 -137.693 275.738 -139.118 280.693 -140.136L283.816 -140.815C293.116 -143.598 288.636 -138.168 295.356 -136.742C296.51 -136.539 296.374 -136.674 296.985 -136.742L298.275 -137.761C293.998 -140.001 294.949 -138.643 290.672 -142.92L296.714 -146.789L296.917 -143.055C298.546 -144.277 298.207 -144.345 300.176 -144.685C299.09 -141.969 299.09 -140.883 300.108 -138.507L299.429 -137.421C298.546 -138.711 299.022 -138.779 298.003 -137.761C299.022 -136.471 298.614 -136.199 299.429 -137.421C299.565 -137.421 299.836 -137.421 299.904 -137.353C299.972 -137.421 300.176 -137.489 300.244 -137.557C302.076 -138.847 300.515 -137.014 300.108 -138.507C300.108 -138.643 300.244 -138.915 300.311 -138.982C300.244 -139.05 300.311 -139.39 300.311 -139.526C300.583 -142.241 301.533 -137.218 300.04 -140.476C303.434 -139.39 299.022 -140.951 301.465 -139.186L302.755 -138.575C298.682 -143.87 305.131 -149.368 311.58 -151.473C313.616 -152.152 313.481 -152.016 316.06 -150.794C326.921 -145.363 322.034 -146.042 324.749 -141.562C323.731 -140.815 323.731 -141.223 324.749 -140.476C323.595 -139.865 323.663 -140.204 324.613 -139.254C325.564 -140.204 325.699 -139.797 324.749 -140.476C325.835 -141.155 325.835 -140.883 324.749 -141.562C325.699 -141.562 325.156 -142.784 325.699 -141.019C324.613 -140.34 324.545 -140.68 325.631 -140.001C324.545 -139.322 324.545 -139.729 325.564 -138.982C324.274 -138.236 324.41 -138.643 325.767 -137.828C326.65 -138.711 326.65 -138.304 325.564 -138.982C326.65 -139.661 326.718 -139.322 325.631 -140.001C326.718 -140.68 326.718 -140.408 325.699 -141.019C326.039 -142.037 325.903 -141.087 326.242 -143.055C326.582 -144.617 326.446 -143.531 326.378 -144.956C328.279 -143.327 328.211 -143.531 329.908 -143.598C329.365 -145.499 329.84 -145.16 329.433 -146.653L332.759 -144.82C332.963 -144.752 333.166 -144.549 333.438 -144.685C333.709 -144.82 333.845 -144.549 334.049 -144.617C331.945 -146.314 332.827 -145.839 332.759 -146.45C334.456 -143.802 333.302 -145.363 334.592 -145.567L332.759 -146.45C329.093 -151.201 328.686 -150.522 329.976 -162.809C331.266 -175.232 338.19 -186.636 348.168 -194.85C353.938 -199.533 358.215 -203.81 363.238 -197.293C363.306 -198.04 363.442 -198.719 364.053 -198.244C363.917 -198.922 364.053 -199.194 363.306 -200.348C360.727 -204.149 365.207 -198.855 362.424 -201.366C356.925 -206.186 348.44 -197.701 344.91 -194.985C342.602 -195.393 337.036 -197.836 334.931 -200.076L348.033 -214.807C350.341 -214.535 353.124 -213.246 355.568 -212.024L361.881 -216.843C367.583 -214.128 363.985 -217.047 367.379 -210.666C369.28 -207.136 372.538 -207.544 375.661 -208.087C375.186 -209.512 374.914 -208.833 376.272 -209.376C376.95 -208.154 376.543 -208.019 377.358 -208.969C377.969 -207.679 377.561 -207.544 378.376 -208.63C379.055 -207.408 378.58 -207.611 379.666 -208.698C378.648 -209.444 379.055 -209.58 378.376 -208.63C377.697 -209.852 378.104 -209.987 377.358 -208.969C376.611 -210.259 376.95 -210.462 376.272 -209.376C374.439 -211.752 377.765 -215.35 381.023 -221.459C382.856 -224.921 387.404 -231.506 386.861 -233.678L367.922 -215.554L364.664 -221.392C362.831 -220.102 361.473 -218.608 359.641 -218.676C358.487 -217.251 353.599 -239.245 351.563 -243.317L350.476 -223.496C350.476 -221.052 350.952 -219.355 350.476 -216.979C348.644 -216.911 346.132 -218.065 343.892 -219.084C340.226 -220.848 341.72 -226.822 340.633 -236.461C343.349 -239.041 348.576 -244.268 352.241 -244.132L357.061 -242.707C368.194 -238.226 362.356 -236.054 366.836 -227.365C377.765 -238.566 373.556 -237.072 384.418 -235.307C389.984 -234.493 387.608 -233.475 391.07 -230.148L391.613 -228.655C392.835 -229.877 392.699 -229.334 391.07 -230.148L392.292 -229.334C392.428 -230.42 392.428 -229.877 392.292 -231.099L390.255 -235.715C388.287 -238.226 377.561 -238.362 373.76 -238.634C369.212 -238.973 356.45 -244.675 351.019 -247.526L327.125 -227.433L322.509 -231.37C322.237 -228.383 321.762 -230.759 323.391 -228.316C323.595 -228.112 325.36 -226.89 325.767 -226.618C329.229 -222.885 334.456 -221.459 338.529 -219.016L327.464 -204.828C318.029 -213.585 321.491 -212.567 319.318 -220.984C317.757 -224.039 319.047 -222.342 317.554 -221.527L318.097 -220.577C319.522 -219.694 319.386 -220.238 318.164 -219.016C316.671 -215.486 319.726 -215.282 318.164 -210.87C317.418 -208.765 315.313 -204.353 313.073 -203.199L310.29 -205.303L309 -207.815C308.865 -204.692 307.1 -208.765 308.729 -205.1L313.073 -198.855C316.671 -203.267 317.418 -205.779 319.997 -209.852C323.799 -205.371 326.785 -202.384 331.741 -199.194C334.185 -197.565 341.38 -194.307 342.398 -192.609C334.049 -183.038 329.229 -175.096 327.668 -162.809C327.396 -160.773 327.396 -159.687 327.125 -157.65C326.514 -153.781 326.582 -154.528 327.261 -154.12C326.65 -160.162 318.504 -173.331 313.073 -178.897C306.014 -171.566 301.194 -162.266 298.954 -154.052C299.293 -154.392 299.293 -154.256 299.225 -155.682C298.682 -168.851 294.541 -178.965 286.056 -189.894L284.563 -188.401C290.944 -181.748 294.27 -173.263 295.695 -165.864C297.053 -158.804 296.646 -160.841 296.714 -154.663C296.782 -149.979 297.46 -148.486 290.808 -145.635C290.265 -148.079 290.401 -153.509 289.993 -157.175C289.586 -160.976 288.5 -165.185 287.006 -169.394C283.952 -178.286 277.571 -186.568 269.086 -192.066C255.916 -168.036 271.665 -147.943 273.498 -141.087C267.999 -140.069 265.691 -141.562 262.433 -148.214C261.415 -150.183 257.003 -159.619 257.817 -161.927C254.627 -164.981 258.021 -162.673 255.238 -161.791L255.373 -160.976C257.546 -155.953 259.107 -149.504 262.162 -144.006C254.355 -151.269 246.413 -156.36 237.724 -158.397C234.737 -150.387 235.688 -138.575 237.86 -130.837L238.131 -129.751C236.095 -131.515 237.52 -130.09 235.348 -129.954L236.027 -129.004C238.81 -124.591 238.063 -122.894 234.669 -118.414C229.103 -127.239 224.758 -134.434 215.391 -140.68C204.733 -147.807 199.506 -146.246 193.125 -148.011C192.99 -127.239 207.992 -115.767 222.722 -106.331C219.26 -103.955 216.952 -102.326 213.422 -103.955C210.775 -105.245 206.498 -108.3 204.122 -110.404C200.864 -111.083 199.099 -113.255 196.723 -115.767C198.624 -111.694 200.932 -111.151 204.394 -108.232C206.498 -105.72 208.399 -104.906 210.978 -103.005C207.856 -104.227 200.389 -104.77 197.198 -105.109C194.279 -105.313 186.473 -104.702 182.875 -103.276L183.282 -100.561C185.59 -92.4153 191.428 -85.2198 196.859 -78.9746C189.867 -81.0789 185.047 -84.8125 177.445 -85.7628C173.643 -86.3059 171.403 -86.9168 167.873 -86.6453C164.954 -86.4416 160.542 -86.238 157.827 -84.6088C157.012 -83.3869 157.419 -83.2512 156.673 -84.1336C156.062 -83.1154 156.401 -83.0475 155.79 -84.0658L153.821 -84.6767C153.889 -84.8803 153.346 -84.7446 153.075 -84.7446C150.02 -80.1965 132.031 -80.4001 140.652 -67.1631L145.879 -59.4924C146.422 -58.2705 143.639 -52.7721 142.553 -51.4144C140.924 -49.3779 142.282 -50.3283 140.856 -50.3962C137.733 -51.075 128.569 -60.3749 125.582 -63.2259L128.162 -69.8784L126.126 -71.9148C130.131 -65.7376 121.51 -66.4842 121.645 -66.7558C121.713 -66.8237 121.238 -66.62 121.034 -66.6879L124.089 -65.5339C124.836 -63.4296 122.12 -58.542 120.491 -56.3698C116.826 -55.691 115.536 -56.0304 111.734 -56.0304C107.865 -55.9625 106.1 -54.7406 102.367 -56.845L101.145 -57.7953C103.657 -54.7406 101.959 -56.845 102.027 -55.4195L113.635 -41.9109C109.359 -36.2767 107.051 -35.3263 102.638 -30.914L109.155 -27.7914L102.435 -24.7367C106.915 -21.3426 110.241 -19.1025 113.296 -14.1471C111.667 -9.80259 94.2888 7.30374 94.4924 10.0869C94.4924 10.2227 94.4924 10.4942 94.4924 10.63C94.4245 10.8336 94.4924 11.0373 94.5603 11.2409C94.8997 13.6168 95.85 15.6533 97.4113 17.3503C97.004 18.3007 96.461 17.0788 98.0223 19.3189C98.3617 17.7576 100.127 18.8437 97.4113 17.3503L98.4974 18.1649C98.4974 17.2146 98.5653 17.554 98.2259 16.4C97.9544 15.1781 97.8186 15.3138 97.4792 14.2956C95.9179 9.47597 96.3931 12.3949 97.8186 10.6978L98.0223 11.0373L98.4974 11.2409L99.0405 10.9694L100.059 11.0373C100.738 11.9876 100.398 12.0555 101.009 11.0373C101.756 12.0555 101.416 11.9876 102.027 10.9694C102.706 12.0555 102.435 12.0555 103.113 10.9694C103.792 12.0555 103.385 12.0555 104.064 10.9694C104.743 12.0555 104.471 12.0555 105.15 10.9694C105.829 12.0555 105.421 12.0555 106.1 10.9694C106.779 12.0555 106.508 12.0555 107.118 10.9015C107.865 12.0555 107.458 12.0555 108.205 10.9015C108.816 12.0555 108.476 12.1234 109.155 10.9015C109.834 12.1234 109.494 12.0555 110.105 10.9015C110.852 12.0555 110.513 12.1234 111.191 10.9015C111.87 12.1234 111.531 12.0555 112.21 10.8336C112.956 12.2592 112.549 11.9876 113.499 10.63C112.481 9.61174 112.888 9.61175 112.21 10.8336C111.531 9.61174 111.802 9.61175 111.191 10.9015C110.513 9.67963 110.852 9.7475 110.105 10.9015C109.494 9.74751 109.834 9.81538 109.155 10.9015C108.476 9.67963 108.816 9.7475 108.205 10.9015C107.458 9.74751 107.797 9.81538 107.118 10.9015C106.508 9.88328 106.779 9.88327 106.1 10.9694C105.421 9.88326 105.829 9.88327 105.15 10.9694C104.471 9.88326 104.743 9.88327 104.064 10.9694C103.385 9.88326 103.792 9.88327 103.113 10.9694C102.435 9.88326 102.774 9.95115 102.027 10.9694C101.416 9.95115 101.756 10.019 101.009 11.0373C100.398 10.019 100.67 10.019 100.059 11.0373C99.3799 10.0869 99.7193 10.019 99.0405 10.9694C98.3617 9.88326 98.7011 9.95116 98.0223 11.0373C95.85 9.54386 97.1398 10.019 96.9362 9.13657L103.928 -0.027542C107.458 -0.163293 110.92 -0.0954262 114.246 0.108236C119.609 0.447648 119.745 -1.04577 122.935 4.99575L123.953 3.57022L122.664 -0.163299L137.122 -11.4996L139.091 -10.6172L140.584 -8.44492L136.647 -4.7793C138.344 -4.98294 136.24 -2.87858 139.363 -6.00118C143.503 -10.0062 140.245 -6.20483 140.584 -8.44492C140.584 -8.58069 140.72 -9.12376 140.517 -9.05586C140.313 -8.98799 140.313 -9.53105 140.245 -9.59893C137.326 -13.0609 142.96 -8.10551 139.091 -10.6172L141.263 -8.85222C141.06 -10.685 141.331 -9.87046 139.906 -12.1106L131.081 -20.9353L142.146 -27.5198C138.616 -31.1855 134.747 -32.611 131.149 -34.7154C147.373 -51.075 140.381 -47.0699 148.119 -57.6596C165.633 -43.4043 170.113 -43.54 186.948 -41.9109C178.938 -39.3314 168.688 -35.5978 162.239 -27.7914C167.534 -22.7681 175.544 -16.3872 182.06 -15.9798ZM100.194 10.9015L98.6332 10.6979C99.8551 11.6482 99.312 11.784 100.194 10.9015ZM203.579 -45.7802L203.919 -47.2057C202.697 -46.3911 202.357 -47.8166 203.579 -45.7802ZM151.649 -71.236C167.194 -78.3636 189.052 -74.1549 199.846 -64.1762C198.895 -62.004 198.556 -59.7639 197.877 -57.0486C196.384 -51.075 193.804 -51.2107 179.549 -53.926C170.113 -55.7589 158.234 -60.7143 151.649 -71.236ZM149.002 -71.7112C159.184 -56.7771 169.231 -53.926 183.011 -51.2786C187.355 -50.464 191.36 -51.075 195.162 -50.3962C192.922 -41.3678 185.998 -44.0831 180.974 -44.4904C175.951 -44.8977 170.385 -46.1196 164.818 -48.4276C157.623 -51.4144 135.154 -68.4528 141.263 -76.1914C143.3 -78.7709 154.297 -82.4366 157.216 -83.1833C168.416 -85.8307 179.753 -84.6767 190.071 -79.9249C196.927 -76.7345 202.765 -73.6119 199.642 -66.9594C191.021 -72.4579 182.739 -75.7162 174.458 -76.6666C169.027 -77.3454 155.586 -76.8024 149.002 -71.7112ZM205.208 -75.1053L211.046 -71.3039C206.77 -66.3485 206.838 -67.5025 202.154 -66.2127C202.222 -68.8601 201.882 -70.5572 201.814 -73.0688L205.344 -71.8469C205.344 -72.6615 205.548 -74.2228 205.208 -75.1053ZM198.284 -94.1123C200.66 -95.1306 200.932 -94.7233 203.783 -94.9948L210.164 -95.8094L203.443 -90.854C203.104 -87.6635 203.376 -85.2197 202.9 -82.5723L198.284 -94.1123ZM211.25 -73.6798C207.856 -75.7162 205.14 -76.6666 204.733 -80.3322C204.665 -81.622 205.208 -88.2744 205.684 -89.4284C206.702 -91.6686 210.978 -94.1802 213.422 -95.2663C216.613 -96.8276 219.396 -95.4021 222.654 -92.9583C219.26 -90.9218 213.49 -88.6817 211.929 -84.9482C210.91 -82.4366 212.336 -77.2096 211.25 -73.6798ZM195.433 -95.8773C196.791 -91.6686 202.832 -80.7395 201.271 -77.6848C192.922 -83.8621 188.17 -93.6371 184.572 -101.579C188.985 -104.091 209.349 -103.276 214.44 -99.5429C209.281 -97.5064 199.303 -95.9451 195.433 -95.8773ZM224.487 -104.973C226.591 -100.561 225.845 -99.1356 224.691 -94.4517L218.445 -97.7101L221.364 -99.6787C217.563 -101.715 218.785 -101.444 218.717 -101.783L224.487 -104.973ZM254.966 -86.8489C257.342 -87.0526 259.718 -87.6635 261.754 -87.2562C258.36 -81.9614 259.65 -82.165 253.541 -79.4497C253.608 -82.3687 253.541 -83.93 254.966 -86.8489ZM195.569 -146.653C198.76 -145.363 202.629 -144.888 206.838 -143.259C218.106 -138.779 230.325 -125.745 232.972 -116.31C230.936 -113.459 227.61 -109.454 224.623 -108.232C218.106 -109.046 207.381 -118.957 202.968 -124.863C199.642 -129.275 193.261 -140.815 195.569 -146.653ZM245.87 -78.8388C246.956 -81.9614 246.413 -82.5044 247.024 -85.8307C249.196 -97.778 249.943 -90.6503 261.958 -95.47C263.316 -92.4831 262.908 -93.4335 262.365 -90.5824C258.7 -88.9533 256.256 -89.6321 252.522 -88.2066C251.165 -84.4052 251.708 -82.2329 250.757 -78.703L245.87 -78.8388ZM239.217 -81.2826C239.828 -83.93 241.186 -96.4203 243.358 -98.0495C245.395 -99.6787 257.478 -101.715 259.786 -101.987L262.094 -97.5064C259.175 -96.624 248.925 -95.8773 247.024 -93.8408C245.055 -91.7364 244.512 -81.9614 243.426 -78.8388L239.217 -81.2826ZM233.719 -107.01C237.724 -107.214 238.946 -104.363 244.309 -105.924C247.363 -106.806 251.368 -107.96 254.151 -108.3C255.849 -106.738 257.206 -106.06 257.206 -104.023C259.039 -103.684 255.713 -103.616 254.423 -103.276C236.842 -98.5926 242.272 -103.752 236.909 -82.9117C228.017 -89.9036 236.909 -93.9087 235.484 -101.036C235.077 -103.073 234.194 -105.584 233.719 -107.01ZM226.591 -106.535C240.779 -121.401 231.818 -109.454 248.178 -114.681L251.911 -110.54C246.888 -107.553 241.457 -107.01 236.231 -108.707L231.411 -109.725C231.411 -109.861 231.004 -109.725 230.8 -109.657C234.262 -98.9998 234.126 -99.9502 230.528 -88.8854L226.048 -93.0941C229.646 -101.036 227.542 -99.0677 226.591 -106.535ZM239.557 -122.759L241.39 -119.568C241.661 -119.975 242.611 -121.469 242.611 -121.605C243.901 -123.03 242.34 -121.876 243.63 -122.216L246.413 -116.446C241.729 -115.02 241.186 -114.07 235.959 -116.581L239.557 -122.759ZM247.906 -118.482C245.666 -121.537 244.173 -124.116 245.666 -127.375C249.06 -134.842 251.097 -136.878 260.94 -135.86C264.47 -135.453 265.148 -133.145 267.253 -129.818C265.759 -129.547 256.799 -129.004 255.509 -129.343C251.979 -125.542 250.757 -121.876 247.906 -118.482ZM239.285 -156.428C247.295 -152.627 257.138 -148.35 263.451 -139.458C260.329 -139.186 253.201 -141.969 249.807 -143.463L244.987 -145.296C243.969 -140.34 244.919 -134.502 241.39 -126.492C239.082 -131.108 238.335 -137.15 237.928 -141.494C237.656 -145.024 237.452 -152.695 239.285 -156.428ZM275.127 -138.507C273.023 -133.688 274.652 -134.638 269.764 -129.886L265.895 -135.928C267.389 -135.656 267.321 -135.996 269.018 -135.52L268.543 -137.625C268.135 -138.982 268.339 -137.285 267.999 -139.254C271.394 -138.032 271.597 -138.643 275.127 -138.507ZM288.025 -144.752C284.223 -142.716 280.286 -142.309 276.62 -141.358C266.913 -151.88 262.297 -175.639 269.968 -189.555C288.228 -173.738 288.025 -160.23 288.025 -144.752ZM313.005 -160.365L321.016 -150.455C320.337 -151.405 315.313 -154.12 313.073 -154.052C311.24 -154.12 305.742 -151.201 305.199 -150.387L313.005 -160.365ZM313.073 -164.099C308.865 -158.397 306.081 -154.256 300.583 -149.165C299.565 -156.021 307.1 -169.665 313.073 -175.91C319.047 -169.937 326.378 -155.953 325.564 -149.301C320.065 -154.256 317.214 -158.329 313.073 -164.099ZM345.86 -215.757L332.759 -201.027L329.772 -203.335C331.062 -207.068 337.647 -215.282 340.905 -218.269L345.86 -215.757ZM339.344 -221.324C327.6 -225.464 326.785 -226.958 338.733 -234.968L339.344 -221.324ZM366.632 -238.023C369.823 -237.276 363.917 -238.973 367.718 -237.751L372.47 -236.393L367.651 -231.302L365.614 -238.226L366.632 -238.023Z" fill="#CACACA" fill-opacity="0.32"/>
<path fill-rule="evenodd" clip-rule="evenodd" d="M164.343 121.21L162.171 127.998L157.147 123.111C159.252 122.093 161.967 121.007 164.343 121.21ZM154.839 121.889L145.404 114.761C145.404 114.49 145.539 114.218 145.404 114.218C144.793 114.558 144.046 104.986 146.083 101.321C147.304 99.0127 158.505 93.5142 160.813 93.2427L168.687 98.6732L145.947 112.861C149.884 112.589 167.805 108.245 171.403 106.819L171.538 113.743C173.711 113.607 175.679 113.132 177.851 113.539C177.716 118.291 173.1 132.682 172.624 136.28C172.421 137.57 172.557 135.669 172.557 137.298L186.065 116.73L192.31 124.061C191.224 127.184 187.898 133.09 186.065 136.28C184.164 139.81 181.042 140.217 174.932 140.624C169.298 141.1 164.479 132.343 164.071 131.121C163.053 128.338 165.972 121.346 167.194 118.631C164.614 118.223 157.012 120.939 154.839 121.889ZM172.353 139.267C173.982 137.23 172.149 138.656 172.217 138.995C172.217 138.995 170.927 140.828 172.353 139.267ZM193.464 126.166L199.981 135.262C197.13 137.434 189.867 138.316 187.219 138.52L193.464 126.166ZM185.047 114.626L177.105 127.727C177.376 124.604 178.191 121.482 179.005 118.088C179.888 114.354 180.431 109.059 185.047 114.626ZM156.944 108.516C159.387 106.615 168.348 100.913 170.724 100.438C176.222 104.579 170.045 105.461 166.855 106.208C163.325 107.159 159.931 107.702 156.944 108.516ZM193.872 122.907L190.478 118.834L209.077 111.775C212.2 115.712 212.336 115.712 204.326 119.242C201.271 120.531 196.723 122.636 193.872 122.907ZM166.447 94.6682L161.967 91.2741L167.601 76.9509C168.755 74.575 169.298 72.6743 172.014 74.8466C174.389 76.8152 172.489 78.4443 170.317 84.6895C169.366 87.4048 167.941 92.2244 166.447 94.6682ZM175.408 76.7473C188.305 84.2143 183.689 81.3633 183.486 91.2062C183.35 97.5871 183.893 103.289 193.6 101.864C196.315 101.456 199.506 101.253 202.221 100.438L208.534 109.602C204.869 112.046 193.464 115.576 189.188 116.458L184.029 110.485C180.363 110.485 179.684 110.485 176.969 111.707C174.593 109.467 172.353 107.634 175.068 101.389L168.755 96.4331C169.23 90.9347 172.489 82.11 175.408 76.7473ZM194.55 89.7807C197.198 81.8384 196.858 76.883 203.85 67.8547C209.349 60.7271 217.087 55.7038 224.419 51.7666C227.677 54.3461 231.071 57.1972 233.175 60.795C229.713 68.4657 223.129 77.0867 215.865 82.3136C210.028 86.5223 200.185 91.0704 194.55 89.7807ZM184.64 46.0645C187.491 37.104 192.989 28.8903 201.339 21.3554C203.104 26.2429 196.248 35.407 195.772 39.9551C200.185 40.2945 209.485 41.177 214.576 43.8244C207.312 47.5579 190.749 48.2367 184.64 46.0645ZM193.396 92.5638C200.66 91.8171 209.349 88.9661 216.001 84.4859C225.573 77.9013 228.695 71.2488 234.737 62.492C239.421 68.9408 238.538 70.3664 232.632 78.5801C223.333 91.5456 208.059 99.7594 193.125 100.031C189.12 100.099 188.237 100.302 184.708 96.2295C185.522 91.4777 185.454 86.9296 186.948 81.0917C188.237 75.7291 190.274 70.8415 193.464 65.8861C197.062 60.5234 201.95 55.6359 207.312 51.9024C213.693 47.5579 215.933 45.0463 222.586 50.4769C209.62 59.3694 197.062 67.0401 193.668 86.1829C193.532 87.1333 193.329 87.7442 193.125 89.1697L193.396 92.5638ZM245.326 89.9164C249.942 87.2012 253.947 85.7756 258.971 84.2822C261.007 83.6034 261.618 83.264 263.383 83.6713C260.668 89.7807 244.037 100.438 238.945 100.099C237.316 92.0887 237.113 78.0371 241.253 70.6379C243.086 73.1495 243.494 77.3582 244.037 80.0735L245.326 89.9164ZM210.91 40.2945C206.905 40.0909 201.882 38.869 198.216 38.3259L202.493 26.4465L203.239 26.5144C203.511 36.0179 202.018 33.1669 210.91 40.2945ZM258.699 82.2458L246.888 86.9975C246.005 84.2143 245.326 78.1049 244.851 74.2356L250.485 81.6348L258.699 82.2458ZM236.298 60.5234C240.778 59.03 242 58.3512 246.684 60.7271L243.222 67.1759L241.253 63.8497L239.489 67.108L236.298 60.5234ZM224.487 38.6653C227.066 43.4171 226.591 43.8923 224.487 49.1192L218.038 45.5215L221.296 43.6207L217.97 41.9237L224.487 38.6653ZM248.177 62.6278C254.558 72.6744 252.318 73.9641 267.184 73.6247C264.537 83.8749 251.775 79.802 251.775 79.802C251.775 79.802 239.624 71.0452 248.177 62.6278ZM204.869 33.4384C206.905 25.4283 199.574 25.4283 211.046 17.6218C213.014 21.3554 211.046 26.3108 212.268 29.4334C213.625 32.8275 219.735 34.9997 222.654 37.1041C216.409 42.5346 211.657 40.2266 204.869 33.4384ZM230.664 54.6177C237.113 50.4769 245.259 51.1557 252.25 54.7534L247.838 59.1658C242.543 56.8578 240.032 56.7899 234.737 59.0979L230.664 54.6177ZM227.881 43.6886C227.609 37.5792 223.536 39.2084 230.324 33.099C234.262 38.9369 234.465 48.5083 230.257 54.4819C223.061 47.8294 228.152 49.798 227.881 43.6886ZM202.221 10.2906C207.312 10.4942 208.195 11.9197 211.589 15.4496L205.208 19.6583C205.208 19.5225 205.14 19.1831 205.14 19.0474L204.936 17.3503L201.814 17.6218L202.221 10.2906ZM265.623 80.0735L269.628 73.7605C273.973 77.1546 274.38 78.3765 274.855 82.9246C273.43 83.1282 269.289 83.3319 267.66 83.3319C267.931 82.3815 268.067 82.3815 268.474 81.5669C269.085 79.8699 268.814 80.956 268.949 79.8699C267.524 80.0735 266.845 80.0735 265.623 80.0735ZM253.812 52.9206C240.575 47.4222 237.452 51.0878 233.719 51.2914C234.669 46.6755 236.298 45.3178 235.008 41.177C233.854 37.3077 233.175 34.7282 232.361 30.9268L236.502 27.329C237.588 27.8721 237.248 27.5327 237.724 28.9582L238.81 35.0676C239.217 37.1041 240.099 42.1952 241.661 43.6208C244.376 46.0645 255.034 46.6755 258.36 48.2368L253.812 52.9206ZM199.574 1.94104C199.574 1.94104 199.438 1.80528 199.37 1.87316C199.302 1.94104 199.166 1.94104 199.166 1.94104C199.166 2.07681 199.031 2.34834 199.031 2.61987C200.592 3.36657 200.524 2.8914 199.234 4.18116L200.049 8.66139C196.248 11.6482 192.175 13.5489 188.102 15.3138C184.775 16.7394 178.802 17.6897 176.697 19.1152C175.747 20.6087 176.222 20.8123 175.34 19.5225L167.058 20.0656C169.502 19.251 171.742 20.1335 174.865 19.9977C175.611 18.5722 175.204 18.4364 176.019 19.7941C176.697 18.4364 176.222 18.6401 177.376 19.7941C183.689 20.8123 195.908 11.8519 200.117 11.4446C200.796 18.6401 199.981 19.4547 192.175 23.324C186.88 25.9035 180.77 26.8538 177.24 28.6188C176.29 30.1122 176.697 30.3837 175.883 29.0261L175.408 29.637C176.019 28.2115 175.747 28.0757 176.494 29.3655C177.173 28.0078 176.765 28.2794 177.851 29.3655C183.418 30.0443 191.428 24.6137 197.402 22.8488C187.966 33.3705 187.016 36.2216 182.4 47.0827C186.133 48.7798 193.396 49.3907 196.723 49.1871C199.234 49.1192 200.931 48.644 203.782 48.3725L210.639 47.49C191.156 62.2205 193.6 60.8628 185.047 80.1414C180.295 79.0553 173.371 72.5386 167.194 71.2488C165.972 72.4707 166.583 72.4028 165.701 70.8415C165.565 71.9276 163.732 70.6379 166.515 72.1992C167.262 74.4393 167.262 73.6247 165.972 76.5436L160.066 89.9164L152.328 84.6216C150.427 84.6216 150.834 83.807 151.377 85.8435L158.98 91.2741C156.469 93.2427 153.685 94.5324 151.174 95.958C144.861 99.4199 147.508 98.4017 146.49 95.2112C145.268 93.9894 145.2 94.4645 146.693 93.65L147.304 92.6317C147.237 92.4281 147.304 92.0887 147.101 92.1565L147.101 91.0704C146.083 92.7675 146.558 91.4777 145.947 93.3105L145.539 94.3967C144.114 97.5871 142.621 110.892 142.553 114.49C147.237 119.038 154.704 122.975 158.437 126.844C162.171 130.578 166.719 138.384 170.995 143.204C175.883 141.711 180.295 141.914 186.065 140.76C188.509 140.353 190.885 139.742 193.668 139.131L201.135 137.909L203.443 143.204C204.801 144.29 204.258 144.562 205.208 143.476C203.986 142.661 203.918 143.136 204.869 142.186C203.715 138.86 196.18 126.301 195.976 125.147C196.044 124.265 209.213 118.699 211.86 118.088C213.082 119.988 212.539 119.717 213.829 121.414C214.372 123.722 213.625 121.617 214.983 123.925L215.119 122.704C215.187 122.5 215.187 122.364 215.187 122.228C213.829 121.414 213.897 121.889 214.915 120.871C213.693 113.947 208.806 107.294 204.801 100.302C207.312 98.8769 210.842 98.0623 213.965 96.7047C229.17 89.6449 231.411 80.6166 238.199 74.0999C235.959 77.9692 235.416 95.7543 237.724 102.271C245.259 102.61 255.509 92.9033 262.501 88.0836C260.328 92.4281 257.002 98.3338 256.595 102.543C257.681 103.629 257.681 103.221 256.255 103.968C257.138 104.986 256.595 104.715 257.817 103.629C259.514 98.9448 260.464 95.6864 263.044 90.6632C265.963 85.0289 269.425 83.8749 274.041 85.2326L269.085 95.347C270.375 96.6368 270.307 96.0259 268.542 96.9762L269.764 96.1616L274.991 86.9975C275.195 85.572 275.33 85.1647 276.688 84.8932C277.299 83.8749 277.027 83.8749 277.57 84.961C278.453 83.6713 277.978 83.8749 278.724 85.3005L279.811 85.8435L280.897 85.8435L279.403 84.3501C275.466 82.5852 276.96 82.1779 275.738 78.5122C274.652 75.3897 272.751 74.4393 270.511 71.9277C270.646 70.4342 270.918 66.6328 272.683 66.3613C276.009 67.5153 279.471 72.6065 282.119 73.3532L272.547 63.3745C273.158 61.4059 273.43 59.641 274.787 57.6045L286.463 69.6875C289.246 69.6197 296.034 68.262 298.682 66.2934L299.496 65.2073C298.75 66.7686 299.293 66.7686 298.071 65.5467C287.481 65.411 292.233 74.643 278.657 59.3016C274.652 54.7534 274.448 55.3644 278.453 50.6805L288.907 62.492C291.215 61.6774 294.134 60.6592 296.917 59.7767C298.071 59.4373 299.972 58.6227 300.99 58.2833C303.501 57.5366 302.619 56.5184 304.18 58.6227C305.334 59.641 304.791 59.7767 305.809 58.8943C304.655 58.1476 304.52 58.5549 305.606 57.7403C304.655 57.0614 304.859 57.4009 306.013 56.5184C299.768 47.9652 297.188 42.8062 287.278 44.4353C277.231 45.9288 275.33 50.8163 271.733 59.7089C269.357 59.9125 264.944 59.03 263.722 60.9307C264.944 62.4241 268.61 61.8811 270.714 61.949C270.714 64.8 269.764 67.9226 268.271 71.1809C263.587 72.6065 260.736 70.7058 256.459 71.5882C253.608 68.7372 250.621 63.7139 249.331 60.3877L256.391 53.5994C257.952 55.8396 258.903 58.9621 261.211 59.0979C261.007 56.722 258.971 54.2783 257.952 52.3097C258.088 52.1739 258.224 51.9024 258.224 51.7666L260.26 48.644C261.347 47.2864 261.89 46.6076 262.772 45.182C267.863 36.561 263.722 20.6087 246.82 20.405C239.556 20.3371 238.199 25.0889 232.972 27.1932L226.116 24.0028C226.251 25.4962 226.455 25.4283 228.559 26.8538C230.189 27.94 230.121 27.4648 231.614 29.0939L224.962 35.4749C222.518 35.2034 215.255 31.4698 213.965 28.5509C213.082 26.5823 213.422 19.7262 213.286 17.4182C215.798 15.5854 220.278 14.092 223.468 14.5671L224.011 21.7627C225.844 19.6583 225.097 16.0606 224.962 13.8883C228.763 11.5803 234.737 10.4942 237.181 6.69281C243.018 -2.53918 242.272 -12.1106 232.565 -18.4236C225.437 -22.9717 222.722 -19.0346 220.549 -21.071C220.549 -20.3922 220.753 -19.6455 220.617 -19.1025C220.617 -18.0163 220.821 -18.8988 220.414 -17.4054C217.834 -14.147 215.798 -4.91506 215.051 -1.3173L227.745 10.2906C220.074 15.5175 219.667 9.13657 212.743 3.97751C210.774 2.55199 207.109 2.28046 204.461 1.12646C206.973 -1.79248 210.706 -4.03259 210.367 -6.95153L209.552 -6.68C207.38 -3.96471 204.122 -0.706364 201.135 2.00893C211.657 5.06363 209.756 2.75563 219.192 12.8701C211.114 17.554 213.354 12.4628 207.38 9.7475C204.801 8.52562 198.148 8.11833 201.135 2.00893L199.574 1.94104ZM247.159 38.2581C261.347 42.1273 265.487 39.2084 259.378 46.5397C256.934 45.5893 244.172 43.6886 242.679 41.9237C240.914 39.6157 239.081 27.1932 239.285 24.9531L243.358 22.6451C245.462 26.3787 244.987 33.3705 247.159 38.2581ZM262.568 34.6603L263.112 38.4617C260.057 39.7515 251.843 38.0544 248.653 36.7646C247.363 33.8457 245.802 24.5458 246.141 22.5773C247.906 22.4415 248.788 22.6451 250.553 22.6451C251.911 25.0889 251.979 29.094 252.183 31.8771C256.459 34.3888 258.496 32.4881 262.568 34.6603ZM253.404 23.4597C257.477 24.8174 261.414 27.3969 261.279 32.1487C259.853 31.945 256.255 31.3341 254.49 30.9268C253.133 28.3472 253.472 26.1071 253.404 23.4597ZM216.544 -2.40342C220.889 -12.0427 219.328 -22.9717 227.745 -18.22L222.654 -3.76106L234.533 6.62492C230.867 9.88327 230.664 10.63 227.066 7.57527L216.544 -2.40342ZM299.972 50.8842C306.624 58.2154 300.854 55.1607 289.721 60.8629L280.693 49.6623C280.829 49.3907 280.557 49.255 280.489 48.9156L284.427 46.7433L291.283 54.5498L299.972 50.8842ZM238.199 -1.79247L232.836 -6.20482C232.972 -8.10552 232.904 -7.90188 233.786 -10.0062C234.397 -11.296 234.805 -12.1106 235.619 -13.4682C239.217 -9.19164 240.982 -4.98294 238.199 -1.79247ZM230.46 -6.00118C237.52 0.379757 240.507 -0.43483 235.551 5.1994L224.894 -4.23624C225.165 -7.49459 226.659 -10.3456 227.745 -13.604C229.374 -17.9485 229.51 -19.3061 234.126 -15.0974L230.46 -6.00118ZM286.87 46.7433C291.418 44.7748 294.677 46.1324 298.614 49.6623L291.69 52.9206L286.87 46.7433Z" fill="#CACACA" fill-opacity="0.32"/>
<path fill-rule="evenodd" clip-rule="evenodd" d="M147.304 92.6319L146.693 93.6502C145.2 94.4648 145.267 93.9896 146.489 95.2115C147.372 94.0575 147.575 94.5326 146.693 93.6502L147.304 92.6319L149.273 85.9116L151.377 85.8437C150.834 83.8072 150.426 84.6218 152.327 84.6218C148.865 82.246 140.108 78.5124 138.343 79.0555C138.887 78.3767 155.789 70.5702 158.708 70.9096C161.423 71.1812 163.392 72.6067 166.515 72.1994C163.731 70.6381 165.564 71.9279 165.7 70.8417C166.582 72.403 165.972 72.4709 167.193 71.249L165.7 70.8417C163.324 69.552 161.356 69.8914 159.183 68.941L165.157 57.9441C160.269 55.6361 155.382 57.4011 152.463 57.0616C152.463 54.2106 155.11 46.9472 155.246 43.1458C155.382 40.5663 155.45 38.5977 155.382 36.086C155.246 33.778 155.518 31.3343 155.382 29.162C159.523 29.0942 171.47 32.081 175.407 29.6372C176.154 30.7912 175.747 30.6555 176.493 29.3657C177.172 30.4518 176.697 30.2482 177.851 29.3657C176.765 28.2796 177.172 28.008 176.493 29.3657C175.747 28.0759 176.018 28.2117 175.407 29.6372L175.882 29.0263C176.697 30.3839 176.29 30.1124 177.24 28.619C176.222 27.6008 176.697 27.6686 175.882 29.0263L173.914 28.6869C173.099 28.6869 173.235 28.6869 172.42 28.6869C164.274 28.6869 158.776 28.3475 150.63 25.2249C137.054 19.9301 137.189 16.8075 147.575 5.19961C159.251 -7.69801 170.791 -10.8206 185.59 -11.9067C191.631 -12.3819 191.835 -11.9067 195.636 -5.52578C187.287 -2.74261 170.18 -10.3454 148.797 15.925C156.536 20.541 162.17 20.6089 168.89 20.6768C172.217 20.7447 173.167 20.8804 174.864 19.9979C175.679 21.2198 175.271 21.0841 176.018 19.7943C176.629 20.9483 176.222 20.6768 177.376 19.7943C176.222 18.6403 176.697 18.4367 176.018 19.7943C175.204 18.4367 175.611 18.5724 174.864 19.9979C171.742 20.1337 169.501 19.2512 167.058 20.0658L175.339 19.5228C176.222 20.8125 175.747 20.6089 176.697 19.1155C175.679 18.0972 176.154 18.1651 175.339 19.5228C172.42 18.6403 171.266 20.0658 166.379 19.1155C161.22 18.1651 156.807 18.0972 151.513 15.2462C158.029 6.96455 164.546 2.48432 173.371 -0.502495C179.752 -2.67472 191.563 -4.16813 196.315 -2.94626L199.03 2.6201C197.944 3.43468 198.216 2.89162 199.234 4.18139C200.524 2.89162 200.591 3.3668 199.03 2.6201C199.03 2.34856 199.166 2.07703 199.166 1.94127C199.166 1.94127 199.302 1.94127 199.37 1.87339C199.438 1.8055 199.573 1.94127 199.573 1.94127C199.709 1.12668 199.709 1.26245 199.573 0.176334L198.555 -3.1499C203.51 -8.24107 203.103 -6.61189 204.664 -12.5176C205.615 -16.0475 208.398 -16.3869 211.385 -15.9796C210.502 -13.468 209.009 -9.39506 209.552 -6.67977L210.367 -6.9513C212.131 -10.4812 211.86 -12.3819 213.15 -15.5723C213.829 -17.2015 213.964 -17.3373 215.865 -17.8803C218.784 -18.627 218.309 -18.5592 220.413 -17.4052C220.82 -18.8986 220.617 -18.0161 220.617 -19.1022C220.753 -19.6453 220.549 -20.392 220.549 -21.0708C218.92 -20.5278 218.241 -20.392 216.883 -19.9847C214.032 -22.4285 214.711 -23.6503 212.742 -25.4832C211.317 -26.7729 212.539 -25.9583 211.249 -26.2977C211.249 -26.162 211.317 -25.8226 211.385 -25.7547C211.385 -25.6189 211.385 -25.3474 211.385 -25.2116C211.521 -25.0759 211.521 -24.8043 211.588 -24.7365C211.656 -24.5328 211.724 -24.3292 211.792 -24.1255C211.996 -23.5146 212.267 -23.1073 212.539 -22.5642C213.15 -21.2745 213.353 -21.2066 213.829 -19.6453C210.842 -18.0161 207.244 -17.2694 204.529 -17.2694C202.289 -20.1883 198.691 -25.4153 198.894 -28.1985C199.03 -30.5064 203.035 -36.6837 204.868 -39.0596L214.032 -36.2764C211.792 -31.321 210.774 -32.0677 211.453 -29.3524C213.625 -30.167 214.915 -33.4933 216.137 -35.5297C218.445 -35.6655 220.685 -35.0546 222.993 -34.9188C234.601 -34.1721 247.023 -46.1872 237.791 -61.6644C234.397 -67.2307 228.966 -66.6877 224.825 -70.2854C225.165 -72.5256 225.64 -75.173 224.486 -77.5488C222.45 -74.9693 224.554 -73.8153 222.789 -69.8781L219.599 -70.7606C218.716 -69.8781 219.123 -69.8781 218.309 -71.1C217.019 -70.0818 217.223 -70.6927 218.58 -69.1993C219.395 -67.5702 212.742 -61.5965 210.842 -60.6462C208.126 -59.1528 204.597 -59.6958 201.881 -57.6593L201.881 -57.1163C204.529 -54.3331 208.126 -51.8215 209.213 -48.4274C210.163 -45.4405 210.774 -42.2501 210.977 -39.7384C203.782 -39.6027 206.361 -41.7749 203.578 -45.78C202.356 -47.8164 202.696 -46.3909 203.918 -47.2055L199.981 -51.1426L200.931 -48.2916C201.202 -47.6128 202.085 -46.8661 202.221 -46.7303C204.121 -45.6442 204.121 -46.323 202.764 -44.9654C202.289 -42.4537 202.628 -43.7435 203.578 -42.5216C205.072 -41.5713 205.072 -41.9785 203.578 -41.164C203.375 -40.2815 203.578 -40.7567 202.764 -41.0282L201.678 -41.0282L200.32 -39.5348C200.592 -39.5348 202.764 -39.1275 202.492 -38.1771C200.048 -36.0049 196.519 -29.7597 196.926 -27.1802C197.469 -24.1934 201.881 -19.781 201.61 -16.2512C191.767 -16.7264 194.957 -17.4731 189.323 -26.0941C187.015 -29.7597 188.848 -27.5196 187.49 -26.9766C189.459 -25.9583 189.595 -26.6372 188.237 -25.2795L190.749 -20.7314L190.341 -19.238L186.811 -22.6321L187.49 -21.4102C187.558 -21.2066 187.694 -21.0708 187.762 -20.8672L191.97 -15.1651C189.595 -15.0972 186.2 -16.5906 184.436 -16.4548C183.146 -15.1651 183.757 -15.2329 182.738 -16.93C180.227 -18.3555 181.924 -17.2015 182.06 -15.9796L186.54 -13.5359C159.591 -13.3322 152.802 0.379969 148.119 1.26244C146.829 1.46609 143.163 -7.08708 141.262 -8.85202L139.09 -10.617C142.959 -8.10531 137.325 -13.0607 140.244 -9.59873C140.312 -9.53084 140.312 -8.98778 140.516 -9.05567C140.719 -9.12355 140.584 -8.58049 140.584 -8.44472C140.244 -6.20461 143.503 -10.006 139.362 -6.00096C136.239 -2.87838 138.343 -4.98273 136.646 -4.77908L125.785 4.58867C124.563 4.4529 126.193 6.3536 123.952 3.57043L122.934 4.99595C123.477 6.48937 124.088 8.32219 124.36 9.67983L113.499 10.6302C112.548 11.9878 112.956 12.2594 112.209 10.8338C111.53 12.0557 111.869 12.1236 111.191 10.9017C110.512 12.1236 110.851 12.0557 110.104 10.9017C109.494 12.0557 109.833 12.1236 109.154 10.9017C108.475 12.1236 108.815 12.0557 108.204 10.9017C107.457 12.0557 107.864 12.0557 107.118 10.9017C106.507 12.0557 106.778 12.0557 106.099 10.9696C105.421 12.0557 105.828 12.0557 105.149 10.9696C104.47 12.0557 104.742 12.0557 104.063 10.9696C103.384 12.0557 103.791 12.0557 103.113 10.9696C102.434 12.0557 102.705 12.0557 102.026 10.9696C101.416 11.9878 101.755 12.0557 101.008 11.0375C100.397 12.0557 100.737 11.9878 100.058 11.0375L99.0396 10.9696L98.4966 11.2411L98.0214 11.0375L97.8178 10.6981L98.4966 11.2411L98.6324 10.6981L100.194 10.9017C104.402 14.0243 120.558 15.5177 123.206 18.8439L119.608 23.7993L125.717 27.0577L106.371 46.9472C104.47 41.7881 105.149 38.9371 104.131 34.5247L113.227 25.8358C110.037 24.4103 107.796 24.2066 104.606 23.4599C99.5148 22.3059 101.619 21.4235 98.4966 18.1651L97.4105 17.3505C100.126 18.8439 98.3608 17.7578 98.0214 19.3191C99.4469 25.3606 101.619 26.7183 102.502 33.5744C104.742 51.8347 98.2929 47.6939 132.777 59.5054C133.795 63.6462 131.148 69.2805 128.908 74.5074C134.271 75.6614 139.905 70.706 132.234 79.5986C135.357 82.4496 137.461 79.2591 147.168 84.2145C146.761 87.0656 145.335 90.5276 145.946 93.3108C144.792 93.9217 144.657 93.5144 145.539 94.3969L145.946 93.3108C146.557 91.478 146.082 92.7677 147.1 91.0707L147.1 92.1568C147.304 92.0889 147.236 92.4283 147.304 92.6319ZM132.438 45.8611C133.456 48.3727 133.863 54.8894 132.777 57.0616C129.383 56.7901 124.495 55.0252 120.694 53.1245L132.438 45.8611ZM102.57 24.9533C105.081 24.8855 107.729 25.6322 109.901 26.5825L104.402 31.8094L102.57 24.9533ZM137.325 76.9512L139.497 72.4709C136.646 71.5206 136.918 71.9279 134.61 71.9279C138.954 67.9907 148.729 59.0302 154.703 59.0302C161.22 59.0302 163.935 58.6229 158.165 66.4294C155.11 70.5702 143.774 74.168 137.325 76.9512ZM106.303 47.1508C112.005 44.4355 125.649 35.4072 130.809 34.1853C131.895 36.086 132.302 41.5166 132.37 43.4852C121.373 51.7668 119.336 53.1245 113.159 50.6128C110.444 49.5267 108.883 49.0515 106.303 47.1508ZM134.678 45.7932C137.325 45.8611 140.719 46.4041 143.57 46.8114C146.965 47.2187 149.273 47.2187 152.395 48.0333C153.006 57.6047 141.738 64.1214 133.456 70.2308C133.388 67.1761 134.881 65.2754 135.153 57.8084C135.357 53.8033 134.949 49.8661 134.678 45.7932ZM133.863 37.6473C136.714 38.3261 140.38 38.5977 143.503 39.2765C147.032 39.9553 150.63 40.4305 153.617 41.6524L152.463 45.929C148.865 45.4538 144.792 45.1823 140.516 44.5713C134.406 43.7567 133.592 43.7567 133.863 37.6473ZM125.649 11.92C128.365 18.3009 123.002 16.3323 119.269 15.1783C115.874 14.0922 112.548 13.2097 109.426 12.1236L125.649 11.92ZM141.059 -6.20461C143.095 -4.16814 145.607 1.05879 146.421 3.63832C144.113 6.89666 140.38 11.0375 138.887 14.2958C134.474 23.7315 151.513 25.9716 152.87 28.6869C153.956 30.8591 154.16 37.0364 153.006 39.2765C148.254 38.0546 137.868 37.1721 133.184 34.932C132.641 32.081 132.573 29.8409 131.691 26.9219C119.608 23.7993 124.903 19.3191 128.84 14.7031L125.31 7.37183L141.059 -6.20461ZM196.247 -15.2329C199.166 -14.622 200.456 -14.8256 203.171 -14.5541C202.424 -9.46295 202.56 -9.32718 197.876 -5.4579L193.939 -11.5673L197.333 -11.8388L196.247 -15.2329ZM221.499 -68.1811C223.536 -67.9096 225.301 -67.5023 227.541 -66.2125C213.829 -53.0434 213.964 -56.1659 217.019 -45.9157C218.037 -42.4537 219.666 -39.7384 219.395 -37.1589C212.675 -39.1275 213.829 -37.5662 211.724 -45.3727C209.552 -53.1112 210.706 -50.1923 204.597 -56.8448C208.059 -58.5418 210.434 -57.7951 213.489 -60.4425C216.204 -62.7505 218.58 -65.6694 221.499 -68.1811ZM238.673 -53.9937C239.692 -48.9025 240.167 -48.1558 235.415 -42.4537L232.496 -49.4456L238.673 -53.9937ZM216.883 -53.7901C229.238 -66.1446 229.238 -67.095 234.465 -62.5469L222.517 -51.9572L227.337 -37.4983C225.776 -36.6158 224.69 -36.6158 223.128 -36.4122C220.277 -40.2136 217.63 -50.1923 216.883 -53.7901ZM235.822 -61.0535L238.266 -56.5732L230.799 -50.1923L234.125 -40.7567L230.052 -38.0414C226.998 -42.0464 226.523 -47.4091 224.418 -51.5499L235.822 -61.0535Z" fill="#CACACA" fill-opacity="0.32"/>
</svg>
